<?xml version="1.0" encoding="utf-8"?>
<!-- Generator: Adobe Illustrator 27.5.0, SVG Export Plug-In . SVG Version: 6.00 Build 0)  -->
<svg version="1.1" id="Layer_1" xmlns="http://www.w3.org/2000/svg" xmlns:xlink="http://www.w3.org/1999/xlink" x="0px" y="0px"
	 viewBox="0 0 390 251.808" style="enable-background:new 0 0 390 251.808;" xml:space="preserve">
<g>
	<g>
		<g>
			<g>
				<path d="M335.978,183.198v-0.038h-15.613v6.574c-5.553,5.705-9.131,14.601-9.131,24.602c0,10.004,3.578,18.9,9.131,24.605v6.572
					h14.51c13.056,0,23.642-13.955,23.642-31.176C358.517,197.607,348.521,183.958,335.978,183.198z"/>
				<g>
					<g>
						<path style="fill:#363635;" d="M297.203,214.337c0,17.222,10.583,31.176,23.639,31.176c13.056,0,23.642-13.955,23.642-31.176
							c0-17.216-10.586-31.176-23.642-31.176C307.786,183.161,297.203,197.121,297.203,214.337z"/>
						<path style="fill:#222222;" d="M297.203,214.337c0,17.222,10.583,31.176,23.639,31.176c13.056,0,23.642-13.955,23.642-31.176
							c0-17.216-10.586-31.176-23.642-31.176C307.786,183.161,297.203,197.121,297.203,214.337z"/>
						<g>
							<ellipse cx="320.845" cy="214.336" rx="16.04" ry="21.152"/>
							<path style="fill:#D5D3CB;" d="M306.195,214.337c0,10.667,6.56,19.313,14.65,19.313c8.087,0,14.641-8.646,14.641-19.313
								c0-10.664-6.554-19.313-14.641-19.313C312.755,195.023,306.195,203.672,306.195,214.337z"/>
							<g>
								<path style="fill:#4C4C49;" d="M313.499,202.834c-0.023-0.23-0.009-0.451,0.061-0.672c1.559-1.85,3.572-3.046,5.792-3.27
									c0.207,0.058,0.396,0.175,0.558,0.349c0.076,0.143,0.14,0.297,0.198,0.466v10.74c-0.043,0.143-0.099,0.276-0.163,0.41
									c-0.047,0.029-0.09,0.061-0.14,0.096c-0.137-0.023-0.265-0.055-0.39-0.111l-5.844-7.709
									C313.54,203.035,313.52,202.936,313.499,202.834z"/>
								<path style="fill:#4C4C49;" d="M309.217,213.438c-0.14-0.137-0.247-0.314-0.314-0.53c0.108-2.763,0.89-5.483,2.342-7.709
									c0.177-0.154,0.375-0.247,0.585-0.279c0.125,0.032,0.256,0.085,0.384,0.151l5.76,7.593c0.044,0.143,0.081,0.288,0.105,0.436
									c-0.015,0.067-0.035,0.137-0.05,0.204c-0.105,0.108-0.215,0.207-0.334,0.279h-8.265
									C309.357,213.545,309.284,213.496,309.217,213.438z"/>
								<path style="fill:#4C4C49;" d="M312.013,224.591c-0.174,0.035-0.343,0.018-0.509-0.07c-1.431-2.025-2.371-4.654-2.583-7.578
									c0.044-0.276,0.125-0.524,0.259-0.745c0.105-0.102,0.221-0.189,0.352-0.268l8.139-0.186
									c0.111,0.055,0.216,0.125,0.315,0.206c0.02,0.061,0.052,0.122,0.07,0.186c-0.009,0.175-0.035,0.349-0.076,0.512l-5.737,7.84
									C312.164,224.53,312.091,224.565,312.013,224.591z"/>
								<path style="fill:#4C4C49;" d="M319.911,229.373c-0.107,0.18-0.241,0.323-0.407,0.407c-2.092-0.183-4.143-1.254-5.812-3.191
									c-0.111-0.238-0.183-0.5-0.201-0.78c0.026-0.166,0.064-0.34,0.113-0.506l5.847-7.485c0.105-0.061,0.218-0.105,0.329-0.131
									c0.052,0.018,0.102,0.041,0.151,0.064c0.084,0.139,0.154,0.285,0.215,0.445l-0.119,10.897
									C319.992,229.19,319.954,229.283,319.911,229.373z"/>
								<path style="fill:#4C4C49;" d="M328.187,202.834c0.02-0.23,0.006-0.451-0.064-0.672c-1.559-1.85-3.572-3.046-5.789-3.27
									c-0.207,0.058-0.399,0.175-0.564,0.349c-0.073,0.143-0.137,0.297-0.192,0.466v10.74c0.04,0.143,0.099,0.276,0.163,0.41
									c0.044,0.029,0.093,0.061,0.142,0.096c0.128-0.023,0.259-0.055,0.39-0.111l5.841-7.709
									C328.143,203.035,328.167,202.936,328.187,202.834z"/>
								<path style="fill:#4C4C49;" d="M332.466,213.438c0.14-0.137,0.25-0.314,0.317-0.53c-0.111-2.763-0.893-5.483-2.342-7.709
									c-0.178-0.154-0.372-0.247-0.582-0.279c-0.131,0.032-0.259,0.085-0.39,0.151l-5.757,7.593
									c-0.047,0.143-0.081,0.288-0.105,0.436c0.014,0.067,0.029,0.137,0.049,0.204c0.102,0.108,0.215,0.207,0.335,0.279h8.262
									C332.329,213.545,332.402,213.496,332.466,213.438z"/>
								<path style="fill:#4C4C49;" d="M329.673,224.591c0.172,0.035,0.346,0.018,0.509-0.07c1.431-2.025,2.371-4.654,2.578-7.578
									c-0.04-0.276-0.122-0.524-0.256-0.745c-0.105-0.102-0.221-0.189-0.349-0.268l-8.139-0.186
									c-0.111,0.055-0.212,0.125-0.317,0.206c-0.023,0.061-0.046,0.122-0.07,0.186c0.009,0.175,0.035,0.349,0.076,0.512
									l5.742,7.84C329.522,224.53,329.595,224.565,329.673,224.591z"/>
								<path style="fill:#4C4C49;" d="M321.77,229.373c0.113,0.18,0.241,0.323,0.41,0.407c2.092-0.183,4.148-1.254,5.812-3.191
									c0.116-0.238,0.18-0.5,0.207-0.78c-0.032-0.166-0.067-0.34-0.122-0.506l-5.839-7.485c-0.108-0.061-0.221-0.105-0.335-0.131
									c-0.052,0.018-0.102,0.041-0.151,0.064c-0.084,0.139-0.151,0.285-0.212,0.445l0.119,10.897
									C321.694,229.19,321.729,229.283,321.77,229.373z"/>
								<polygon style="fill:#4C4C49;" points="320.824,214.508 320.824,214.508 320.824,214.508 								"/>
								<polygon style="fill:#4C4C49;" points="320.824,214.508 320.824,214.508 320.824,214.508 								"/>
							</g>
							<path style="fill:#D5D3CB;" d="M316.539,214.337c0,3.133,1.926,5.676,4.305,5.676c2.371,0,4.297-2.543,4.297-5.676
								c0-3.13-1.926-5.673-4.297-5.673C318.465,208.664,316.539,211.206,316.539,214.337z"/>
							<path style="fill:#4C4C49;" d="M318.055,211.547c0,0.39,0.245,0.707,0.538,0.707c0.297,0,0.535-0.317,0.535-0.707
								c0-0.39-0.238-0.704-0.535-0.704C318.299,210.843,318.055,211.157,318.055,211.547z"/>
							<path style="fill:#4C4C49;" d="M320.289,210.537c0,0.393,0.238,0.707,0.535,0.707c0.297,0,0.532-0.314,0.532-0.707
								c0-0.389-0.236-0.704-0.532-0.704C320.527,209.833,320.289,210.148,320.289,210.537z"/>
							<path style="fill:#4C4C49;" d="M322.558,211.657c0,0.39,0.236,0.704,0.535,0.704c0.294,0,0.535-0.314,0.535-0.704
								c0-0.39-0.241-0.704-0.535-0.704C322.794,210.953,322.558,211.268,322.558,211.657z"/>
							<path style="fill:#4C4C49;" d="M318.055,217.723c0-0.39,0.245-0.707,0.538-0.707c0.297,0,0.535,0.317,0.535,0.707
								c0,0.387-0.238,0.704-0.535,0.704C318.299,218.427,318.055,218.109,318.055,217.723z"/>
							<path style="fill:#4C4C49;" d="M317.005,214.773c0-0.39,0.244-0.704,0.538-0.704c0.296,0,0.535,0.314,0.535,0.704
								c0,0.39-0.239,0.704-0.535,0.704C317.249,215.477,317.005,215.163,317.005,214.773z"/>
							<path style="fill:#4C4C49;" d="M323.608,214.773c0-0.39,0.238-0.704,0.532-0.704c0.297,0,0.538,0.314,0.538,0.704
								c0,0.39-0.242,0.704-0.538,0.704C323.847,215.477,323.608,215.163,323.608,214.773z"/>
							<path style="fill:#4C4C49;" d="M320.289,218.729c0-0.393,0.238-0.704,0.535-0.704c0.297,0,0.532,0.311,0.532,0.704
								c0,0.39-0.236,0.707-0.532,0.707C320.527,219.436,320.289,219.119,320.289,218.729z"/>
							<path style="fill:#4C4C49;" d="M322.558,217.612c0-0.39,0.236-0.707,0.535-0.707c0.294,0,0.535,0.317,0.535,0.707
								c0,0.393-0.241,0.707-0.535,0.707C322.794,218.319,322.558,218.005,322.558,217.612z"/>
						</g>
					</g>
				</g>
				<g>
					<path style="fill:#656362;" d="M320.592,185.014c12.846,0,23.266,13.961,23.266,31.176c0,3.689-0.483,7.223-1.362,10.507
						c1.263-3.808,1.964-8.014,1.964-12.436c0-17.216-10.586-31.176-23.642-31.176c-13.056,0-23.642,13.96-23.642,31.176
						c0,1.399,0.079,2.772,0.212,4.122c-0.038-0.724-0.064-1.455-0.064-2.194C297.325,198.974,307.742,185.014,320.592,185.014z"/>
				</g>
			</g>
			<g>
				<path d="M176.941,183.198v-0.038h-15.613v6.574c-5.556,5.705-9.132,14.601-9.132,24.602c0,10.004,3.575,18.9,9.132,24.605v6.572
					h14.507c13.056,0,23.642-13.955,23.642-31.176C199.477,197.607,189.484,183.958,176.941,183.198z"/>
				<g>
					<g>
						<ellipse style="fill:#363635;" cx="161.805" cy="214.337" rx="23.642" ry="31.176"/>
						<ellipse style="fill:#222222;" cx="161.805" cy="214.337" rx="23.642" ry="31.176"/>
						<g>
							<ellipse cx="161.805" cy="214.336" rx="16.04" ry="21.152"/>
							<path style="fill:#D5D3CB;" d="M147.158,214.337c0,10.667,6.557,19.313,14.647,19.313c8.087,0,14.644-8.646,14.644-19.313
								c0-10.664-6.557-19.313-14.644-19.313C153.715,195.023,147.158,203.672,147.158,214.337z"/>
							<g>
								<path style="fill:#4C4C49;" d="M154.463,202.834c-0.023-0.23-0.009-0.451,0.061-0.672c1.559-1.85,3.569-3.046,5.789-3.27
									c0.209,0.058,0.396,0.175,0.562,0.349c0.076,0.143,0.137,0.297,0.195,0.466v10.74c-0.044,0.143-0.099,0.276-0.16,0.41
									c-0.046,0.029-0.093,0.061-0.139,0.096c-0.137-0.023-0.265-0.055-0.39-0.111l-5.844-7.709
									C154.504,203.035,154.48,202.936,154.463,202.834z"/>
								<path style="fill:#4C4C49;" d="M150.181,213.438c-0.139-0.137-0.25-0.314-0.317-0.53c0.111-2.763,0.893-5.483,2.342-7.709
									c0.177-0.154,0.375-0.247,0.585-0.279c0.128,0.032,0.259,0.085,0.384,0.151l5.763,7.593
									c0.041,0.143,0.079,0.288,0.105,0.436c-0.015,0.067-0.035,0.137-0.052,0.204c-0.102,0.108-0.212,0.207-0.332,0.279h-8.265
									C150.32,213.545,150.247,213.496,150.181,213.438z"/>
								<path style="fill:#4C4C49;" d="M152.976,224.591c-0.178,0.035-0.343,0.018-0.512-0.07c-1.431-2.025-2.371-4.654-2.58-7.578
									c0.041-0.276,0.125-0.524,0.256-0.745c0.108-0.102,0.224-0.189,0.355-0.268l8.139-0.186
									c0.108,0.055,0.212,0.125,0.314,0.206c0.02,0.061,0.049,0.122,0.067,0.186c-0.009,0.175-0.032,0.349-0.073,0.512
									l-5.739,7.84C153.127,224.53,153.052,224.565,152.976,224.591z"/>
								<path style="fill:#4C4C49;" d="M160.874,229.373c-0.111,0.18-0.242,0.323-0.407,0.407c-2.092-0.183-4.145-1.254-5.812-3.191
									c-0.113-0.238-0.183-0.5-0.201-0.78c0.026-0.166,0.064-0.34,0.113-0.506l5.844-7.485c0.108-0.061,0.218-0.105,0.332-0.131
									c0.049,0.018,0.102,0.041,0.151,0.064c0.084,0.139,0.154,0.285,0.212,0.445l-0.116,10.897
									C160.956,229.19,160.918,229.283,160.874,229.373z"/>
								<path style="fill:#4C4C49;" d="M169.147,202.834c0.023-0.23,0.006-0.451-0.064-0.672c-1.559-1.85-3.569-3.046-5.789-3.27
									c-0.207,0.058-0.395,0.175-0.562,0.349c-0.073,0.143-0.137,0.297-0.192,0.466v10.74c0.041,0.143,0.096,0.276,0.163,0.41
									c0.044,0.029,0.09,0.061,0.14,0.096c0.131-0.023,0.262-0.055,0.39-0.111l5.841-7.709
									C169.104,203.035,169.13,202.936,169.147,202.834z"/>
								<path style="fill:#4C4C49;" d="M173.43,213.438c0.137-0.137,0.247-0.314,0.317-0.53c-0.113-2.763-0.893-5.483-2.345-7.709
									c-0.174-0.154-0.372-0.247-0.579-0.279c-0.131,0.032-0.259,0.085-0.393,0.151l-5.757,7.593
									c-0.044,0.143-0.079,0.288-0.102,0.436c0.011,0.067,0.029,0.137,0.047,0.204c0.105,0.108,0.215,0.207,0.335,0.279h8.264
									C173.29,213.545,173.365,213.496,173.43,213.438z"/>
								<path style="fill:#4C4C49;" d="M170.637,224.591c0.171,0.035,0.343,0.018,0.509-0.07c1.428-2.025,2.371-4.654,2.577-7.578
									c-0.044-0.276-0.125-0.524-0.256-0.745c-0.105-0.102-0.224-0.189-0.349-0.268l-8.142-0.186
									c-0.111,0.055-0.212,0.125-0.314,0.206c-0.024,0.061-0.047,0.122-0.073,0.186c0.012,0.175,0.035,0.349,0.076,0.512
									l5.742,7.84C170.483,224.53,170.558,224.565,170.637,224.591z"/>
								<path style="fill:#4C4C49;" d="M162.733,229.373c0.111,0.18,0.242,0.323,0.41,0.407c2.092-0.183,4.145-1.254,5.813-3.191
									c0.114-0.238,0.18-0.5,0.203-0.78c-0.029-0.166-0.064-0.34-0.119-0.506l-5.842-7.485c-0.108-0.061-0.218-0.105-0.332-0.131
									c-0.052,0.018-0.102,0.041-0.154,0.064c-0.082,0.139-0.151,0.285-0.21,0.445l0.119,10.897
									C162.655,229.19,162.692,229.283,162.733,229.373z"/>
								<polygon style="fill:#4C4C49;" points="161.788,214.508 161.788,214.508 161.788,214.508 								"/>
								<polygon style="fill:#4C4C49;" points="161.788,214.508 161.788,214.508 161.788,214.508 								"/>
							</g>
							<path style="fill:#D5D3CB;" d="M157.503,214.337c0,3.133,1.926,5.676,4.303,5.676c2.374,0,4.299-2.543,4.299-5.676
								c0-3.13-1.926-5.673-4.299-5.673C159.428,208.664,157.503,211.206,157.503,214.337z"/>
							<path style="fill:#4C4C49;" d="M159.015,211.547c0,0.39,0.244,0.707,0.538,0.707c0.296,0,0.538-0.317,0.538-0.707
								c0-0.39-0.242-0.704-0.538-0.704C159.26,210.843,159.015,211.157,159.015,211.547z"/>
							<path style="fill:#4C4C49;" d="M161.249,210.537c0,0.393,0.241,0.707,0.538,0.707c0.294,0,0.529-0.314,0.529-0.707
								c0-0.389-0.236-0.704-0.529-0.704C161.491,209.833,161.249,210.148,161.249,210.537z"/>
							<path style="fill:#4C4C49;" d="M163.518,211.657c0,0.39,0.239,0.704,0.535,0.704c0.297,0,0.535-0.314,0.535-0.704
								c0-0.39-0.238-0.704-0.535-0.704C163.757,210.953,163.518,211.268,163.518,211.657z"/>
							<path style="fill:#4C4C49;" d="M159.015,217.723c0-0.39,0.244-0.707,0.538-0.707c0.296,0,0.538,0.317,0.538,0.707
								c0,0.387-0.242,0.704-0.538,0.704C159.26,218.427,159.015,218.109,159.015,217.723z"/>
							<path style="fill:#4C4C49;" d="M157.968,214.773c0-0.39,0.242-0.704,0.538-0.704c0.294,0,0.535,0.314,0.535,0.704
								c0,0.39-0.242,0.704-0.535,0.704C158.21,215.477,157.968,215.163,157.968,214.773z"/>
							<path style="fill:#4C4C49;" d="M164.572,214.773c0-0.39,0.236-0.704,0.532-0.704c0.297,0,0.535,0.314,0.535,0.704
								c0,0.39-0.238,0.704-0.535,0.704C164.807,215.477,164.572,215.163,164.572,214.773z"/>
							<path style="fill:#4C4C49;" d="M161.249,218.729c0-0.393,0.241-0.704,0.538-0.704c0.294,0,0.529,0.311,0.529,0.704
								c0,0.39-0.236,0.707-0.529,0.707C161.491,219.436,161.249,219.119,161.249,218.729z"/>
							<path style="fill:#4C4C49;" d="M163.518,217.612c0-0.39,0.239-0.707,0.535-0.707c0.297,0,0.535,0.317,0.535,0.707
								c0,0.393-0.238,0.707-0.535,0.707C163.757,218.319,163.518,218.005,163.518,217.612z"/>
						</g>
					</g>
				</g>
				<g>
					<path style="fill:#656362;" d="M161.555,185.014c12.846,0,23.267,13.961,23.267,31.176c0,3.689-0.483,7.223-1.361,10.507
						c1.26-3.808,1.961-8.014,1.961-12.436c0-17.216-10.583-31.176-23.639-31.176c-13.059,0-23.642,13.96-23.642,31.176
						c0,1.399,0.076,2.772,0.212,4.122c-0.038-0.724-0.064-1.455-0.064-2.194C138.288,198.974,148.703,185.014,161.555,185.014z"/>
				</g>
			</g>
		</g>
		<g>
			<path style="fill:#B0B316;" d="M377.571,177.336c-0.099-1.463-0.195-2.926-0.323-4.375c-0.375-4.41-0.669-7.93-3.086-11.855
				c-5.161-4.811-10.423-9.07-15.604-12.852c-4.576-8.788-50.934-89.572-71.283-98.494c-0.701-0.306-28.858-7.02-37.273-8.494
				c-11.717-2.06-23.508-2.921-35.269-3.75c-11.834-0.832-101.429-5.708-113.275-5.795c-2.164-0.015-47.225,3.822-48.002,7.857
				C24.653,189.112,38.035,224.605,38.035,224.605h330.806c5.94-13.099,2.999-7.389,7.962-17.486
				C380.221,200.17,378.4,184.449,377.571,177.336z"/>
		</g>
		<g style="opacity:0.6;">
			<path style="fill:#B0B316;" d="M377.571,177.336c-0.099-1.463-0.195-2.926-0.323-4.375c-0.375-4.41-0.669-7.93-3.086-11.855
				c-5.161-4.811-10.423-9.07-15.604-12.852c-4.576-8.788-50.934-89.572-71.283-98.494c-0.701-0.306-28.858-7.02-37.273-8.494
				c-11.717-2.06-23.508-2.921-35.269-3.75c-11.834-0.832-101.429-5.708-113.275-5.795c-2.164-0.015-47.225,3.822-48.002,7.857
				C24.653,189.112,38.035,224.605,38.035,224.605h330.806c5.94-13.099,2.999-7.389,7.962-17.486
				C380.221,200.17,378.4,184.449,377.571,177.336z"/>
		</g>
		<g>
			<path style="fill:#545650;" d="M266.571,202.037c0.099-9.193-2.039-18.106-7.438-25.669c-3.15-4.419-7.031-8.134-11.404-11.209
				H35.835c-2.924,45.832,2.199,59.446,2.199,59.446h225.089C264.831,217.187,266.492,209.662,266.571,202.037z"/>
		</g>
		<g>
			<g>
				<path d="M241.254,183.198v-0.038h-15.613v6.574c-5.553,5.705-9.132,14.601-9.132,24.602c0,10.004,3.578,18.9,9.132,24.605v6.572
					h14.51c13.056,0,23.639-13.955,23.639-31.176C263.79,197.607,253.797,183.958,241.254,183.198z"/>
				<g>
					<g>
						<ellipse style="fill:#363635;" cx="226.121" cy="214.337" rx="23.642" ry="31.176"/>
						<ellipse style="fill:#222222;" cx="226.121" cy="214.337" rx="23.642" ry="31.176"/>
						<g>
							<path d="M210.078,214.337c0,11.683,7.18,21.152,16.043,21.152c8.855,0,16.041-9.469,16.041-21.152
								c0-11.68-7.186-21.152-16.041-21.152C217.257,193.185,210.078,202.657,210.078,214.337z"/>
							<path style="fill:#D5D3CB;" d="M211.474,214.337c0,10.667,6.557,19.313,14.647,19.313c8.087,0,14.641-8.646,14.641-19.313
								c0-10.664-6.554-19.313-14.641-19.313C218.031,195.023,211.474,203.672,211.474,214.337z"/>
							<g>
								<path style="fill:#4C4C49;" d="M218.775,202.834c-0.02-0.23-0.008-0.451,0.061-0.672c1.559-1.85,3.572-3.046,5.792-3.27
									c0.207,0.058,0.396,0.175,0.559,0.349c0.076,0.143,0.14,0.297,0.198,0.466v10.74c-0.043,0.143-0.099,0.276-0.163,0.41
									c-0.046,0.029-0.09,0.061-0.139,0.096c-0.134-0.023-0.265-0.055-0.39-0.111l-5.844-7.709
									C218.819,203.035,218.796,202.936,218.775,202.834z"/>
								<path style="fill:#4C4C49;" d="M214.493,213.438c-0.14-0.137-0.247-0.314-0.317-0.53c0.113-2.763,0.893-5.483,2.342-7.709
									c0.18-0.154,0.375-0.247,0.585-0.279c0.128,0.032,0.259,0.085,0.387,0.151l5.763,7.593c0.04,0.143,0.078,0.288,0.105,0.436
									c-0.018,0.067-0.035,0.137-0.052,0.204c-0.102,0.108-0.212,0.207-0.335,0.279h-8.265
									C214.636,213.545,214.563,213.496,214.493,213.438z"/>
								<path style="fill:#4C4C49;" d="M217.289,224.591c-0.175,0.035-0.343,0.018-0.509-0.07c-1.431-2.025-2.371-4.654-2.58-7.578
									c0.041-0.276,0.125-0.524,0.256-0.745c0.107-0.102,0.221-0.189,0.349-0.268l8.142-0.186
									c0.111,0.055,0.213,0.125,0.314,0.206c0.023,0.061,0.052,0.122,0.07,0.186c-0.009,0.175-0.032,0.349-0.076,0.512
									l-5.736,7.84C217.443,224.53,217.368,224.565,217.289,224.591z"/>
								<path style="fill:#4C4C49;" d="M225.187,229.373c-0.108,0.18-0.238,0.323-0.404,0.407c-2.094-0.183-4.145-1.254-5.812-3.191
									c-0.114-0.238-0.183-0.5-0.204-0.78c0.026-0.166,0.067-0.34,0.116-0.506l5.841-7.485c0.108-0.061,0.221-0.105,0.335-0.131
									c0.049,0.018,0.099,0.041,0.151,0.064c0.081,0.139,0.151,0.285,0.212,0.445l-0.116,10.897
									C225.269,229.19,225.231,229.283,225.187,229.373z"/>
								<path style="fill:#4C4C49;" d="M233.463,202.834c0.023-0.23,0.003-0.451-0.064-0.672c-1.559-1.85-3.569-3.046-5.789-3.27
									c-0.206,0.058-0.396,0.175-0.564,0.349c-0.069,0.143-0.137,0.297-0.189,0.466v10.74c0.04,0.143,0.093,0.276,0.157,0.41
									c0.047,0.029,0.096,0.061,0.143,0.096c0.131-0.023,0.264-0.055,0.393-0.111l5.839-7.709
									C233.419,203.035,233.446,202.936,233.463,202.834z"/>
								<path style="fill:#4C4C49;" d="M237.742,213.438c0.14-0.137,0.247-0.314,0.317-0.53c-0.111-2.763-0.893-5.483-2.342-7.709
									c-0.175-0.154-0.372-0.247-0.582-0.279c-0.131,0.032-0.259,0.085-0.393,0.151l-5.754,7.593
									c-0.046,0.143-0.078,0.288-0.105,0.436c0.012,0.067,0.029,0.137,0.049,0.204c0.102,0.108,0.215,0.207,0.332,0.279h8.264
									C237.606,213.545,237.678,213.496,237.742,213.438z"/>
								<path style="fill:#4C4C49;" d="M234.95,224.591c0.174,0.035,0.346,0.018,0.509-0.07c1.431-2.025,2.371-4.654,2.577-7.578
									c-0.04-0.276-0.122-0.524-0.256-0.745c-0.105-0.102-0.224-0.189-0.349-0.268l-8.139-0.186
									c-0.11,0.055-0.212,0.125-0.314,0.206c-0.026,0.061-0.049,0.122-0.073,0.186c0.009,0.175,0.035,0.349,0.076,0.512
									l5.742,7.84C234.796,224.53,234.871,224.565,234.95,224.591z"/>
								<path style="fill:#4C4C49;" d="M227.046,229.373c0.111,0.18,0.242,0.323,0.413,0.407c2.089-0.183,4.145-1.254,5.809-3.191
									c0.113-0.238,0.18-0.5,0.206-0.78c-0.029-0.166-0.067-0.34-0.122-0.506l-5.842-7.485c-0.105-0.061-0.218-0.105-0.331-0.131
									c-0.052,0.018-0.099,0.041-0.151,0.064c-0.084,0.139-0.151,0.285-0.212,0.445l0.119,10.897
									C226.967,229.19,227.008,229.283,227.046,229.373z"/>
								<polygon style="fill:#4C4C49;" points="226.1,214.508 226.1,214.508 226.1,214.508 								"/>
								<polygon style="fill:#4C4C49;" points="226.1,214.508 226.1,214.508 226.1,214.508 								"/>
							</g>
							<path style="fill:#D5D3CB;" d="M221.818,214.337c0,3.133,1.923,5.676,4.302,5.676c2.374,0,4.3-2.543,4.3-5.676
								c0-3.13-1.926-5.673-4.3-5.673C223.741,208.664,221.818,211.206,221.818,214.337z"/>
							<path style="fill:#4C4C49;" d="M223.331,211.547c0,0.39,0.242,0.707,0.538,0.707c0.297,0,0.535-0.317,0.535-0.707
								c0-0.39-0.239-0.704-0.535-0.704C223.572,210.843,223.331,211.157,223.331,211.547z"/>
							<path style="fill:#4C4C49;" d="M225.562,210.537c0,0.393,0.242,0.707,0.538,0.707c0.294,0,0.532-0.314,0.532-0.707
								c0-0.389-0.238-0.704-0.532-0.704C225.804,209.833,225.562,210.148,225.562,210.537z"/>
							<path style="fill:#4C4C49;" d="M227.834,211.657c0,0.39,0.239,0.704,0.535,0.704c0.294,0,0.535-0.314,0.535-0.704
								c0-0.39-0.242-0.704-0.535-0.704C228.073,210.953,227.834,211.268,227.834,211.657z"/>
							<path style="fill:#4C4C49;" d="M223.331,217.723c0-0.39,0.242-0.707,0.538-0.707c0.297,0,0.535,0.317,0.535,0.707
								c0,0.387-0.239,0.704-0.535,0.704C223.572,218.427,223.331,218.109,223.331,217.723z"/>
							<path style="fill:#4C4C49;" d="M222.284,214.773c0-0.39,0.241-0.704,0.538-0.704c0.294,0,0.535,0.314,0.535,0.704
								c0,0.39-0.242,0.704-0.535,0.704C222.525,215.477,222.284,215.163,222.284,214.773z"/>
							<path style="fill:#4C4C49;" d="M228.884,214.773c0-0.39,0.239-0.704,0.532-0.704c0.3,0,0.538,0.314,0.538,0.704
								c0,0.39-0.239,0.704-0.538,0.704C229.123,215.477,228.884,215.163,228.884,214.773z"/>
							<path style="fill:#4C4C49;" d="M225.562,218.729c0-0.393,0.242-0.704,0.538-0.704c0.294,0,0.532,0.311,0.532,0.704
								c0,0.39-0.238,0.707-0.532,0.707C225.804,219.436,225.562,219.119,225.562,218.729z"/>
							<path style="fill:#4C4C49;" d="M227.834,217.612c0-0.39,0.239-0.707,0.535-0.707c0.294,0,0.535,0.317,0.535,0.707
								c0,0.393-0.242,0.707-0.535,0.707C228.073,218.319,227.834,218.005,227.834,217.612z"/>
						</g>
					</g>
				</g>
				<g>
					<path style="fill:#656362;" d="M225.868,185.014c12.849,0,23.266,13.961,23.266,31.176c0,3.689-0.483,7.223-1.359,10.507
						c1.26-3.808,1.961-8.014,1.961-12.436c0-17.216-10.586-31.176-23.639-31.176c-13.059,0-23.642,13.96-23.642,31.176
						c0,1.399,0.076,2.772,0.21,4.122c-0.035-0.724-0.064-1.455-0.064-2.194C202.601,198.974,213.019,185.014,225.868,185.014z"/>
				</g>
			</g>
			<g>
				<path d="M82.217,183.198v-0.038H66.604v6.574c-5.553,5.705-9.132,14.601-9.132,24.602c0,10.004,3.578,18.9,9.132,24.605v6.572
					h14.507c13.056,0,23.642-13.955,23.642-31.176C104.753,197.607,94.758,183.958,82.217,183.198z"/>
				<g>
					<g>
						<path style="fill:#363635;" d="M43.442,214.337c0,17.222,10.583,31.176,23.639,31.176c13.056,0,23.642-13.955,23.642-31.176
							c0-17.216-10.586-31.176-23.642-31.176C54.025,183.161,43.442,197.121,43.442,214.337z"/>
						<path style="fill:#222222;" d="M43.442,214.337c0,17.222,10.583,31.176,23.639,31.176c13.056,0,23.642-13.955,23.642-31.176
							c0-17.216-10.586-31.176-23.642-31.176C54.025,183.161,43.442,197.121,43.442,214.337z"/>
						<g>
							<path d="M51.041,214.337c0,11.683,7.18,21.152,16.043,21.152c8.855,0,16.038-9.469,16.038-21.152
								c0-11.68-7.183-21.152-16.038-21.152C58.22,193.185,51.041,202.657,51.041,214.337z"/>
							<path style="fill:#D5D3CB;" d="M52.434,214.337c0,10.667,6.56,19.313,14.65,19.313c8.087,0,14.641-8.646,14.641-19.313
								c0-10.664-6.554-19.313-14.641-19.313C58.994,195.023,52.434,203.672,52.434,214.337z"/>
							<g>
								<path style="fill:#4C4C49;" d="M59.736,202.834c-0.02-0.23-0.006-0.451,0.064-0.672c1.556-1.85,3.569-3.046,5.792-3.27
									c0.207,0.058,0.396,0.175,0.559,0.349c0.076,0.143,0.137,0.297,0.195,0.466v10.74c-0.044,0.143-0.096,0.276-0.16,0.41
									c-0.047,0.029-0.093,0.061-0.14,0.096c-0.134-0.023-0.268-0.055-0.39-0.111l-5.844-7.709
									C59.783,203.035,59.756,202.936,59.736,202.834z"/>
								<path style="fill:#4C4C49;" d="M55.454,213.438c-0.137-0.137-0.244-0.314-0.314-0.53c0.11-2.763,0.89-5.483,2.342-7.709
									c0.18-0.154,0.375-0.247,0.585-0.279c0.128,0.032,0.256,0.085,0.384,0.151l5.763,7.593c0.044,0.143,0.081,0.288,0.105,0.436
									c-0.015,0.067-0.035,0.137-0.05,0.204c-0.105,0.108-0.215,0.207-0.335,0.279h-8.264
									C55.597,213.545,55.524,213.496,55.454,213.438z"/>
								<path style="fill:#4C4C49;" d="M58.25,224.591c-0.175,0.035-0.341,0.018-0.506-0.07c-1.434-2.025-2.374-4.654-2.583-7.578
									c0.044-0.276,0.128-0.524,0.259-0.745c0.105-0.102,0.221-0.189,0.349-0.268l8.14-0.186c0.111,0.055,0.215,0.125,0.314,0.206
									c0.023,0.061,0.053,0.122,0.073,0.186c-0.008,0.175-0.035,0.349-0.075,0.512l-5.74,7.84
									C58.403,224.53,58.328,224.565,58.25,224.591z"/>
								<path style="fill:#4C4C49;" d="M66.15,229.373c-0.108,0.18-0.239,0.323-0.407,0.407c-2.092-0.183-4.142-1.254-5.809-3.191
									c-0.116-0.238-0.186-0.5-0.204-0.78c0.026-0.166,0.064-0.34,0.113-0.506l5.844-7.485c0.108-0.061,0.221-0.105,0.332-0.131
									c0.052,0.018,0.102,0.041,0.151,0.064c0.082,0.139,0.154,0.285,0.213,0.445l-0.114,10.897
									C66.232,229.19,66.194,229.283,66.15,229.373z"/>
								<path style="fill:#4C4C49;" d="M74.424,202.834c0.023-0.23,0.006-0.451-0.061-0.672c-1.559-1.85-3.572-3.046-5.789-3.27
									c-0.207,0.058-0.398,0.175-0.564,0.349c-0.073,0.143-0.137,0.297-0.192,0.466v10.74c0.044,0.143,0.096,0.276,0.16,0.41
									c0.046,0.029,0.096,0.061,0.142,0.096c0.131-0.023,0.262-0.055,0.39-0.111l5.841-7.709
									C74.383,203.035,74.406,202.936,74.424,202.834z"/>
								<path style="fill:#4C4C49;" d="M78.706,213.438c0.14-0.137,0.247-0.314,0.317-0.53c-0.11-2.763-0.893-5.483-2.342-7.709
									c-0.175-0.154-0.375-0.247-0.582-0.279c-0.134,0.032-0.259,0.085-0.393,0.151l-5.757,7.593
									c-0.046,0.143-0.079,0.288-0.102,0.436c0.012,0.067,0.029,0.137,0.046,0.204c0.102,0.108,0.218,0.207,0.335,0.279h8.265
									C78.566,213.545,78.642,213.496,78.706,213.438z"/>
								<path style="fill:#4C4C49;" d="M75.91,224.591c0.175,0.035,0.346,0.018,0.512-0.07c1.428-2.025,2.368-4.654,2.577-7.578
									c-0.041-0.276-0.122-0.524-0.256-0.745c-0.105-0.102-0.224-0.189-0.352-0.268l-8.14-0.186
									c-0.11,0.055-0.209,0.125-0.314,0.206c-0.026,0.061-0.05,0.122-0.073,0.186c0.012,0.175,0.038,0.349,0.076,0.512l5.742,7.84
									C75.759,224.53,75.834,224.565,75.91,224.591z"/>
								<path style="fill:#4C4C49;" d="M68.009,229.373c0.111,0.18,0.242,0.323,0.41,0.407c2.092-0.183,4.148-1.254,5.812-3.191
									c0.114-0.238,0.18-0.5,0.203-0.78c-0.029-0.166-0.064-0.34-0.119-0.506l-5.841-7.485c-0.108-0.061-0.218-0.105-0.332-0.131
									c-0.052,0.018-0.102,0.041-0.151,0.064c-0.084,0.139-0.154,0.285-0.213,0.445l0.119,10.897
									C67.931,229.19,67.968,229.283,68.009,229.373z"/>
								<polygon style="fill:#4C4C49;" points="67.061,214.508 67.061,214.508 67.061,214.508 								"/>
								<polygon style="fill:#4C4C49;" points="67.061,214.508 67.061,214.508 67.061,214.508 								"/>
							</g>
							<path style="fill:#D5D3CB;" d="M62.779,214.337c0,3.133,1.925,5.676,4.305,5.676c2.371,0,4.297-2.543,4.297-5.676
								c0-3.13-1.926-5.673-4.297-5.673C64.704,208.664,62.779,211.206,62.779,214.337z"/>
							<path style="fill:#4C4C49;" d="M64.294,211.547c0,0.39,0.242,0.707,0.539,0.707c0.297,0,0.532-0.317,0.532-0.707
								c0-0.39-0.235-0.704-0.532-0.704C64.536,210.843,64.294,211.157,64.294,211.547z"/>
							<path style="fill:#4C4C49;" d="M66.526,210.537c0,0.393,0.241,0.707,0.535,0.707c0.297,0,0.535-0.314,0.535-0.707
								c0-0.389-0.239-0.704-0.535-0.704C66.767,209.833,66.526,210.148,66.526,210.537z"/>
							<path style="fill:#4C4C49;" d="M68.795,211.657c0,0.39,0.239,0.704,0.538,0.704c0.291,0,0.532-0.314,0.532-0.704
								c0-0.39-0.241-0.704-0.532-0.704C69.033,210.953,68.795,211.268,68.795,211.657z"/>
							<path style="fill:#4C4C49;" d="M64.294,217.723c0-0.39,0.242-0.707,0.539-0.707c0.297,0,0.532,0.317,0.532,0.707
								c0,0.387-0.235,0.704-0.532,0.704C64.536,218.427,64.294,218.109,64.294,217.723z"/>
							<path style="fill:#4C4C49;" d="M63.244,214.773c0-0.39,0.241-0.704,0.538-0.704c0.297,0,0.536,0.314,0.536,0.704
								c0,0.39-0.239,0.704-0.536,0.704C63.486,215.477,63.244,215.163,63.244,214.773z"/>
							<path style="fill:#4C4C49;" d="M69.848,214.773c0-0.39,0.239-0.704,0.529-0.704c0.3,0,0.541,0.314,0.541,0.704
								c0,0.39-0.241,0.704-0.541,0.704C70.086,215.477,69.848,215.163,69.848,214.773z"/>
							<path style="fill:#4C4C49;" d="M66.526,218.729c0-0.393,0.241-0.704,0.535-0.704c0.297,0,0.535,0.311,0.535,0.704
								c0,0.39-0.239,0.707-0.535,0.707C66.767,219.436,66.526,219.119,66.526,218.729z"/>
							<path style="fill:#4C4C49;" d="M68.795,217.612c0-0.39,0.239-0.707,0.538-0.707c0.291,0,0.532,0.317,0.532,0.707
								c0,0.393-0.241,0.707-0.532,0.707C69.033,218.319,68.795,218.005,68.795,217.612z"/>
						</g>
					</g>
				</g>
				<g>
					<path style="fill:#656362;" d="M66.828,185.014c12.849,0,23.269,13.961,23.269,31.176c0,3.689-0.483,7.223-1.362,10.507
						c1.26-3.808,1.964-8.014,1.964-12.436c0-17.216-10.586-31.176-23.642-31.176c-13.056,0-23.642,13.96-23.642,31.176
						c0,1.399,0.079,2.772,0.212,4.122c-0.038-0.724-0.064-1.455-0.064-2.194C43.565,198.974,53.982,185.014,66.828,185.014z"/>
				</g>
			</g>
		</g>
		<g>
			<path style="fill:#B0B316;" d="M277.494,177.336c-0.099-1.463-0.198-2.926-0.323-4.375c-0.375-4.41-0.672-7.93-3.086-11.855
				c-5.161-4.811-10.423-9.07-15.604-12.852c-4.576-8.788-50.937-89.572-71.286-98.494c-0.698-0.306-28.858-7.02-37.273-8.494
				c-11.718-2.06-23.505-2.921-35.266-3.75c-11.837-0.832-23.694-0.78-35.539-0.867c-8.654-0.064-10.635,1.344-19.281,1.411
				c-11.444,0.093-11.796,7.04-25.311,33.166c-13.012,25.155-16.387,41.954-16.387,41.954l0.055,0.011l-4.495,61.5l-3.947,14.17
				l4.038,22.903l20.59,12.84h7.261c-1.626-4.215-2.54-8.872-2.54-13.777c0-18.891,13.417-34.207,29.96-34.207
				s29.96,15.316,29.96,34.207c0,4.905-0.913,9.562-2.54,13.777h104.906c-1.623-4.215-2.537-8.872-2.537-13.777
				c0-18.891,13.414-34.207,29.96-34.207c16.544,0,29.957,15.316,29.957,34.207c0,4.905-0.91,9.562-2.537,13.777h12.535
				c5.94-13.099,2.999-7.389,7.959-17.486C280.144,200.17,278.323,184.449,277.494,177.336z"/>
		</g>
		<g style="opacity:0.6;">
			<path style="fill:#B0B316;" d="M14.317,212.094l20.061,12.512h7.261c-1.484-3.851-2.368-8.069-2.511-12.512H14.317z"/>
			<path style="fill:#B0B316;" d="M258.737,212.094c-0.142,4.442-1.021,8.66-2.507,12.512h12.535
				c4.529-9.99,3.898-9.047,5.542-12.512H258.737z"/>
			<path style="fill:#B0B316;" d="M98.987,212.094c-0.142,4.442-1.021,8.66-2.508,12.512h104.906
				c-1.484-3.851-2.362-8.069-2.508-12.512H98.987z"/>
		</g>
		<g>
			<path d="M48.42,134.85l186.251,12.084c0,0,12.523,1.649,8.349-7.691c-4.174-9.332-38.606-75.795-55.824-79.641
				c-17.216-3.843-82.43-15.377-110.607-13.731c0,0-16.491-0.675-23.633,13.12c0,0-15.491,36.314-19.144,46.751
				C30.157,116.177,30.681,132.657,48.42,134.85z"/>
			<path style="fill:#00384B;" d="M236.887,135.993c-3.971-8.587-36.741-69.703-53.125-73.241
				c-13.032-2.81-54.943-10.089-85.045-12.192c-1.542,17.373-7.68,73.197-8.623,83.797l138.851,8.707
				C228.946,143.065,240.864,144.581,236.887,135.993z"/>
			<path style="fill:#00384B;" d="M86.711,50c-2.999-0.049-5.757-0.012-8.218,0.128c0,0-15.697-0.622-22.496,12.064
				c0,0-14.743,33.393-18.219,42.993c-3.476,9.597-2.981,24.747,13.902,26.769l17.728,1.111C71.16,123.287,82.863,67.954,86.711,50z
				"/>
		</g>
		<path d="M45.988,47.821c0,0-23.956,38.012-27.345,56.633c0,0-2.717,19.976-1.167,20.558c2.199,0.823,27.592-66.815,27.592-66.815
			S47.152,49.758,45.988,47.821z"/>
		<path style="fill:#98B7CE;" d="M44.434,50.27c0,0-22.705,35.519-25.794,52.476c0,0-2.473,18.193-1.059,18.722
			c2.001,0.754,25.128-60.851,25.128-60.851S45.496,52.036,44.434,50.27z"/>
		<g>
			<path d="M353.321,134.245l-9.033,4.875c0,0-4.666,2.924-2.711,6.627c0,0,0.122,1.204,3.526,1.295
				c3.401,0.09,12.073-5.242,12.073-5.242L353.321,134.245z"/>
			<g>
				<g>
					<path style="fill:#484747;" d="M366.089,128.98c-1.644-5.504-10.007-4.73-10.025-4.73c-3.581,0.317-6.289,4.669-8.323,9.294
						c-2.345,5.332-0.602,16.238,3.805,15.223c5.05-1.164,3.121-0.3,11.293-3.177C364.972,144.84,368.093,135.688,366.089,128.98z"
						/>
				</g>
				<g>
					<path style="fill:#353535;" d="M366.089,128.98c-0.146-0.503-0.355-0.954-0.608-1.353c0.085,2.578-0.384,5.146-1.874,7.153
						c-1.853,2.502-4.567,3.805-7.2,4.684c-1.585,0.532-3.142,1.196-4.756,1.583c-1.292,0.311-3.043,0.724-4.244-0.166
						c-0.268-0.201-0.5-0.431-0.695-0.681c0.171,4.695,1.917,9.242,4.835,8.567c5.05-1.164,3.121-0.3,11.293-3.177
						C364.972,144.84,368.093,135.688,366.089,128.98z"/>
				</g>
			</g>
		</g>
		<path style="fill:#FFFDEB;" d="M286.483,168.455c-3.747-5.612-22.184-19.299-19.488-7.717
			c2.702,11.578,9.294,31.574,11.994,31.574c1.492,0,10.731,1.274,12.73-4.654C293.34,182.852,288.162,170.972,286.483,168.455z"/>
		<path style="fill:#FFFDEB;" d="M286.483,168.455c-3.747-5.612-22.184-19.299-19.488-7.717
			c2.702,11.578,9.294,31.574,11.994,31.574c1.492,0,10.731,1.274,12.73-4.654C293.34,182.852,288.162,170.972,286.483,168.455z"/>
		<g>
			<path style="fill:#ADAFB2;" d="M286.483,168.455c-3.747-5.612-22.184-19.299-19.488-7.717
				c2.702,11.578,9.294,31.574,11.994,31.574c1.492,0,10.731,1.274,12.73-4.654C293.34,182.852,288.162,170.972,286.483,168.455z
				 M290.963,187.594c-1.786,5.283-10.019,4.151-11.348,4.151c-2.406,0-8.288-17.832-10.694-28.154
				c-2.403-10.321,14.033,1.876,17.376,6.886C287.789,172.717,292.409,183.309,290.963,187.594z"/>
		</g>
		<path style="fill:#ADAFB2;" d="M376.014,164.383c-0.564-1.265-1.009-2.196-1.78-3.197c-0.483-0.625-1.111-1.187-2.051-1.99
			c-2.214,1.757-4.931,8.232-5.254,9.614c-0.425,1.809,1.4,17.297,6.685,21.466c0.393,0.311,1.571,1.504,5.385,1.891
			C378.848,189.438,377.687,168.13,376.014,164.383z"/>
		<path style="fill:#FFFDEB;" d="M376.337,166.157c-0.506-1.187-0.902-2.057-1.591-2.997c-0.43-0.585-0.989-1.108-1.827-1.859
			c-1.975,1.643-4.398,7.706-4.689,8.998c-0.378,1.693,1.251,16.195,5.967,20.096c0.349,0.294,1.402,1.408,4.803,1.771
			C378.862,189.61,377.83,169.663,376.337,166.157z"/>
		<g>
			<path style="fill:#ADAFB2;" d="M69.059,163.466c-19.927,0-36.081,19.403-36.081,43.333c0,6.35,1.149,12.372,3.188,17.806h5.472
				c-1.626-4.215-2.54-8.872-2.54-13.777c0-18.891,13.417-34.207,29.96-34.207s29.96,15.316,29.96,34.207
				c0,4.905-0.913,9.562-2.54,13.777h5.472c2.039-5.434,3.185-11.456,3.185-17.806C105.137,182.87,88.983,163.466,69.059,163.466z"
				/>
			<path style="fill:#535658;" d="M89.009,172.671c6.729,6.237,11.889,16.773,13.408,26.815c1.3,8.599,0.974,17.128-2.229,25.119
				h1.763c2.039-5.434,3.185-11.456,3.185-17.806c0-23.93-16.154-43.333-36.078-43.333c-5.716,0-11.118,1.606-15.924,4.448
				C65.254,163.178,78.802,163.202,89.009,172.671z"/>
			<path style="fill:#FFFFFF;" d="M68.908,165.11c0,0-21.073-0.142-31.409,23.712c0,0-7.75,15.904-0.16,35.298
				C37.339,224.12,24.822,178.105,68.908,165.11z"/>
		</g>
		<g>
			<g>
				<g>
					<g>
						<path style="fill:#ADAFB2;" d="M228.809,163.466c-19.927,0-36.081,19.403-36.081,43.333c0,6.35,1.146,12.372,3.185,17.806
							h5.472c-1.623-4.215-2.537-8.872-2.537-13.777c0-18.891,13.414-34.207,29.96-34.207c16.544,0,29.957,15.316,29.957,34.207
							c0,4.905-0.91,9.562-2.537,13.777h5.472c2.042-5.434,3.188-11.456,3.188-17.806
							C264.889,182.87,248.733,163.466,228.809,163.466z"/>
					</g>
					<path style="fill:#535658;" d="M235.956,166.026c7.342,2.731,14.24,6.906,19.107,14.26c4.631,7.008,7.331,15.287,7.654,24.247
						c0.18,4.989,0.032,10.205-1.364,14.961c-0.518,1.757-1.149,3.447-1.83,5.111h2.179c2.042-5.434,3.188-11.456,3.188-17.806
						c0-23.93-16.157-43.333-36.081-43.333c-4.492,0-8.788,0.995-12.756,2.796c2.414-0.59,4.817-1.274,7.273-1.652
						C227.619,163.949,231.823,164.49,235.956,166.026z"/>
				</g>
			</g>
			<path style="fill:#FFFFFF;" d="M228.78,165.11c0,0-21.073-0.142-31.406,23.712c0,0-7.752,15.904-0.163,35.298
				C197.211,224.12,184.693,178.105,228.78,165.11z"/>
		</g>
		<path style="fill:#434342;" d="M273.052,226.837c0,0,87.181-0.585,88.955,0h5.009c0,0,1.938-0.777,3.875-3.878
			c1.937-3.107,8.721-13.385,9.204-16.294c0.483-2.912-0.323-10.089-0.323-10.089s-0.323-1.743-3.229-1.743
			c-2.909,0-93.84,0.046-93.84,0.046L273.052,226.837z"/>
		<path style="fill:#333333;" d="M278.92,209.769c-0.352,0-0.533-0.256-0.553-0.526l-5.315,17.594c0,0,87.181-0.585,88.955,0h5.009
			c0,0,1.938-0.777,3.875-3.878c1.481-2.374,5.783-8.928,7.95-13.19H278.92z"/>
		<path style="fill:#272727;" d="M273.791,205.889l-6.624,19.395c0,0-0.806,0.969,0.972,1.553h5.007c0,0,1.937-0.777,3.872-3.878
			c1.94-3.107,8.721-13.385,9.207-16.294c0.486-2.912-0.323-10.089-0.323-10.089s-0.323-1.743-3.229-1.743c-2.909,0-4.119,0-4.119,0
			s-2.339,0.969-2.825,3.296C275.243,200.46,273.791,205.889,273.791,205.889z"/>
		<path style="fill:#222222;" d="M286.701,196.53l0.582,9.455c0,0-0.073,2.109,1.673,2.182h87.422c0,0,2.545-0.073,3.054-1.673
			c0,0,0.364-0.727,0.294-2.618c-0.076-1.891-0.294-6.4-0.512-7.346c-0.215-0.945-1.891-1.163-2.909-1.236l-88.295-0.073
			C288.01,195.221,286.483,195.512,286.701,196.53z"/>
		<g>
			<path d="M348.83,133.937l-95.919,0.256c1.574,2.575,3.028,5,4.317,7.197c0,0,6.949,12.061,16.616,12.878
				c4.846,0.41,57.413,4,79.536-3.121c0,0,3.886-1.728,1.198-7.558C354.11,142.565,351.209,137.876,348.83,133.937z"/>
			<path style="fill:#00384B;" d="M289.907,57.368l-79.996-1.827c0,0-7.566,0.84-2.944,7.456
				c4.625,6.615,32.744,48.636,45.255,70.032c0,0,6.947,12.058,16.619,12.875c4.844,0.41,57.41,4.003,79.533-3.121
				c0,0,3.889-1.731,1.199-7.558c-2.054-4.454-29.748-51.635-43.714-67.12C296.016,57.199,295.917,58.174,289.907,57.368z"/>
			<path style="fill:#12576F;" d="M290.105,59.611l-76.094-1.734c0,0-7.197,0.794-2.801,7.072
				c4.398,6.278,31.15,46.158,43.051,66.46c0,0,6.607,11.441,15.808,12.218c4.608,0.39,54.608,3.796,75.655-2.961
				c0,0,3.697-1.641,1.137-7.171c-1.955-4.227-28.296-49-41.584-63.693C295.914,59.451,295.821,60.373,290.105,59.611z"/>
			<path style="fill:#98B7CE;" d="M290.105,59.611l-76.094-1.734c0,0-7.197,0.794-2.801,7.072
				c4.398,6.278,31.15,46.158,43.051,66.46c0,0,6.607,11.441,15.808,12.218c4.608,0.39,54.608,3.796,75.655-2.961
				c0,0,3.697-1.641,1.137-7.171c-1.955-4.227-28.296-49-41.584-63.693C295.914,59.451,295.821,60.373,290.105,59.611z"/>
			<path style="opacity:0.6;fill:#98B7CE;" d="M231.817,93.245c0.675,0.361,1.353,0.713,2.03,1.05
				c8.099,4.017,16.823,6.787,25.663,8.631c16.346,3.418,35.161,4.814,51.112-1.181c4.512-1.699,8.986-4.175,12.294-7.732
				c-6.408-9.771-12.864-18.935-17.64-24.212c-9.361-10.35-9.455-9.428-15.171-10.19l-76.094-1.734c0,0-7.197,0.794-2.801,7.072
				c1.914,2.729,8.055,11.82,15.365,22.886C228.279,89.688,230.03,91.491,231.817,93.245z"/>
		</g>
		<path style="opacity:0.6;fill:#B0B316;" d="M361.987,153.017c-1.024-0.384-2.074-0.652-3.118-0.695
			c-0.847,0.381-4.902,1.507-7.997,2.17c-15.564,3.345-43.54,2.764-43.54,2.764s-22.693-0.873-28.072-1.164
			c0,0-1.842,0.681,1.161,3.2c0,0,3.494,3.205,8.488,5.771c4.815,2.475,7.66,4.023,11.005,5.14
			c1.745,0.579,7.648,0.555,11.494,0.579c16.229,0.11,43.638-1.065,43.638-1.065s7.659-0.678,10.278-5.041
			C366.839,162.152,364.393,154.268,361.987,153.017z"/>
		<path style="opacity:0.6;fill:#B0B316;" d="M173.022,44.816c0,0,11.927,2.909,14.548,3.491
			c2.618,0.582,13.382,10.181,13.382,10.181s3.2,3.491,2.764,1.019c-0.436-2.473-0.436-6.255,8.436-6.982
			c8.873-0.727,77.241,2.182,77.241,2.182s3.345,0.582,4.221,0.727c0.87,0.146-5.239-4.654-10.039-5.818
			c-4.8-1.164-24-5.382-24-5.382s22.158,5.431,19.249,6.01c-0.02,0.006-76.345-1.501-76.345-1.501s-8.945-0.291-12.873-1.746
			C184.949,45.272,168.659,43.358,173.022,44.816z"/>
		<g>
			<path style="fill:#020000;" d="M289.544,220.442c0,0,2.83-5,8.349-5.626c5.518-0.625,58.163,0,58.163,0s5.818,0,6.86,1.667
				c1.044,1.667,4.771,5.42,1.492,6.252c-3.281,0.835-71.137,0-71.137,0S286.856,223.36,289.544,220.442z"/>
			<path style="fill:#616264;" d="M289.544,220.442c0,0,0.16-0.288,0.5-0.797c0.181-0.239,0.405-0.539,0.663-0.885
				c0.285-0.308,0.602-0.686,0.98-1.064c0.774-0.719,1.751-1.539,2.984-2.147c0.62-0.279,1.271-0.634,2.004-0.759
				c0.361-0.084,0.733-0.175,1.114-0.265c0.395-0.052,0.771-0.044,1.172-0.067c1.582-0.067,3.302-0.139,5.117-0.215
				c1.815-0.07,3.732-0.18,5.713-0.204c3.968-0.02,8.198-0.043,12.43-0.061c4.229,0.046,8.459,0.09,12.427,0.134
				c3.965,0.047,7.662,0.192,10.836,0.262c3.171,0.076,5.812,0.23,7.662,0.294c1.848,0.093,2.906,0.148,2.906,0.148
				s-1.059,0.029-2.909,0.082c-1.85,0.038-4.491,0.087-7.662,0.142c-3.174,0.029-6.874,0.111-10.839,0.099
				c-3.959,0.006-8.186,0.014-12.413,0.023c-4.224-0.032-8.451-0.067-12.41-0.096c-3.968,0.017-7.668,0.038-10.842,0.055
				c-0.39,0.009-0.794-0.012-1.152,0.02c-0.369,0.07-0.73,0.143-1.082,0.21c-0.716,0.073-1.358,0.381-1.972,0.617
				c-1.219,0.512-2.208,1.257-2.993,1.92c-0.384,0.349-0.713,0.698-1.007,0.983c-0.276,0.323-0.509,0.593-0.698,0.817
				C289.718,220.166,289.544,220.442,289.544,220.442z"/>
			<g>
				<path style="fill:#393838;" d="M362.915,216.483c-0.515-0.826-2.199-1.245-3.77-1.454c0.989,0.25,1.839,0.614,2.182,1.158
					c1.041,1.667,4.768,5.42,1.489,6.252c-3.281,0.835-71.137,0-71.137,0s-1.024,0.102-2.083,0.035
					c1.245,0.497,3.674,0.262,3.674,0.262s67.856,0.835,71.137,0C367.686,221.903,363.96,218.15,362.915,216.483z"/>
			</g>
		</g>
		<g>
			<path style="fill:#848586;" d="M362.319,183.731h-29.262h-0.614h-29.262c0,0-1.984-0.285-1.559,3.828
				c0,0,2.746,9.615,4.535,12.846c0,0,1.873,2.432,4.154,2.833l22.883,1.777l0.439,0.035l0.469-0.044l21.087-1.769
				c2.278-0.401,4.151-2.833,4.151-2.833c1.789-3.232,4.538-12.846,4.538-12.846C364.303,183.446,362.319,183.731,362.319,183.731z"
				/>
			<path style="fill:#37393A;" d="M362.319,183.731h-29.262h-0.614h-29.262c0,0-1.984-0.285-1.559,3.828
				c0,0,2.746,9.615,4.535,12.846c0,0,1.873,2.432,4.154,2.833l22.883,1.777l0.439,0.035l0.469-0.044l21.087-1.769
				c2.278-0.401,4.151-2.833,4.151-2.833c1.789-3.232,4.538-12.846,4.538-12.846C364.303,183.446,362.319,183.731,362.319,183.731z"
				/>
			<path style="fill:#848586;" d="M362.127,184.359h-28.785h-0.605h-28.782c0,0-1.949-0.276-1.533,3.724
				c0,0,2.702,9.353,4.462,12.497c0,0,1.845,2.365,4.085,2.755l22.507,1.731l0.433,0.032l0.46-0.041l20.744-1.722
				c2.24-0.39,4.081-2.755,4.081-2.755c1.76-3.145,4.465-12.497,4.465-12.497C364.076,184.083,362.127,184.359,362.127,184.359z"/>
			<path style="fill:#484A46;" d="M360.125,185.38h-27.092h-0.567h-27.092c0,0-1.839-0.236-1.443,3.136
				c0,0,2.543,7.878,4.201,10.527c0,0,1.734,1.99,3.843,2.319l21.186,1.46l0.404,0.026l0.433-0.032l19.525-1.455
				c2.109-0.329,3.843-2.319,3.843-2.319c1.655-2.65,4.203-10.527,4.203-10.527C361.964,185.145,360.125,185.38,360.125,185.38z"/>
			<path style="fill:#222222;" d="M360.035,188.976H304.08c0.122,0.358,0.309,0.91,0.535,1.579h56.27l0,0
				C360.608,190.026,360.32,189.499,360.035,188.976z"/>
			<path style="fill:#222222;" d="M358.72,191.349h-53.826c0.253,0.713,0.538,1.507,0.841,2.313h53.837
				C359.299,192.888,359.032,192.111,358.72,191.349z"/>
			<path style="fill:#222222;" d="M357.653,194.459h-51.615c0.259,0.667,0.527,1.327,0.791,1.943h51.842
				c0.006-0.009,0.009-0.026,0.017-0.04C358.377,195.713,358.019,195.082,357.653,194.459z"/>
			<path style="fill:#222222;" d="M356.128,197.202h-48.947c0.331,0.73,0.654,1.37,0.951,1.841c0,0,0.096,0.111,0.273,0.288h48.689
				c0.076-0.078,0.131-0.134,0.177-0.183C356.911,198.485,356.559,197.81,356.128,197.202z"/>
			<path style="fill:#222222;" d="M352.856,200.126h-43.531c0.692,0.527,1.623,1.079,2.65,1.236l21.186,1.46l0.404,0.026
				l0.433-0.032l19.525-1.455c0.099-0.014,0.192-0.046,0.288-0.07C353.478,200.92,353.167,200.519,352.856,200.126z"/>
			<path style="fill:#222222;" d="M360.085,185.38h-54.71c0,0-1.711-0.218-1.478,2.799h57.349
				C360.96,187.195,360.596,186.253,360.085,185.38z"/>
		</g>
		<path style="fill:#98B7CE;" d="M42.401,54.852c0,0-19.784,34.909-22.402,45.238c-2.618,10.327-2.182,19.2-2.182,19.2
			s2.618-11.054,7.273-23.272C29.744,83.8,42.401,54.852,42.401,54.852z"/>
		<g>
			<path style="fill:none;" d="M69.059,176.621c-9.501,0-17.966,5.059-23.456,12.937l47.537,0.922
				C87.683,182.073,78.93,176.621,69.059,176.621z"/>
			<path style="opacity:0.6;fill:#B0B316;" d="M42.416,174.811l-28.718-0.119l-3.947,14.17l23.627,0.46
				C35.038,183.809,38.206,178.454,42.416,174.811z"/>
			<path style="opacity:0.6;fill:#B0B316;" d="M193.068,175.431l-89.647-0.369c2.406,2.167,4.017,5.594,5.163,8.288
				c1.041,2.446,2.287,4.931,3.249,7.494l73.75,1.431C186.875,186.171,189.095,180.115,193.068,175.431z"/>
		</g>
		<path style="opacity:0.6;fill:#B0B316;" d="M43.469,66.828l-24.826,61.092c0,0,4.654,0.39,4.846,4.463
			c0.195,4.072,0,10.667,0,10.667l201.32,7.078l-182.99-13.091c0,0-12.512-6.403-12.803-19.784c0,0-0.291-5.527,2.036-12.218
			c2.327-6.691,21.821-49.747,21.821-49.747s3.782-5.236,8.145-8.146l-13.09,1.164c0,0,1.454,1.451,0,7.273
			C46.471,61.397,43.469,66.828,43.469,66.828z"/>
		<path style="fill:#B1D165;" d="M178.971,218.214c-0.233,0-0.367-0.012-0.367-0.012l-63.428,0.003
			c-1.775-0.163-3.142-0.983-4.105-2.435c-2.097-3.168-1.489-8.207-1.463-8.416c2.412-24.02-12.064-37.078-16.372-38.632
			c-5.222-1.882-4.221-7.328-4.209-7.38l3.145-22.365c0.044-0.32,0.303-0.532,0.556-0.477c0.265,0.052,0.442,0.352,0.399,0.669
			l-3.147,22.402c-0.041,0.212-0.797,4.474,3.534,6.036c4.483,1.615,19.543,15.124,17.055,39.903
			c-0.006,0.061-0.57,4.774,1.263,7.54c0.791,1.187,1.926,1.853,3.38,1.99l63.429-0.003c0.34,0.035,7.363,0.672,8.727-9.69
			c0.131-0.989,0.247-2.115,0.381-3.351c1.367-12.875,3.918-36.84,30.978-45.413c0.189-0.032,12.654-1.99,13.858-8.867
			c0.055-0.317,0.314-0.518,0.576-0.451c0.262,0.067,0.431,0.375,0.372,0.69c-1.347,7.688-14.083,9.687-14.624,9.768
			c-26.364,8.358-28.86,31.816-30.202,44.421c-0.131,1.248-0.253,2.385-0.384,3.383C187.003,217.566,180.6,218.214,178.971,218.214z
			"/>
		<g>
			<path style="fill:#8E9093;" d="M104.901,143.871l-9.821-0.62c0,0-1.943-0.046-1.233,2.318c0.704,2.365,0.911,2.793,0.911,2.793
				s0.192,1.219,2.08,1.745c1.882,0.521,13.242,1.914,13.242,1.914s1.594,0.332,4.119-1.265c2.522-1.6,2.49-4.596,1.667-5.358
				c0,0,0.029-0.312-1.585-0.777C112.666,144.176,104.901,143.871,104.901,143.871z"/>
			<path style="opacity:0.6;fill:#FFFFFF;" d="M113.216,144.994l-16.526-1.213c0,0-2.464-0.107-2.135,1.001
				c0.396,1.321,0.637,2.237,3.147,2.612c2.511,0.381,12.107,1.533,12.107,1.533s3.596,0.48,4.82-0.835
				C115.857,146.777,115.29,145.27,113.216,144.994z"/>
		</g>
		<path style="fill:#FFFFFF;" d="M41.7,160.322h-3.828c-3.177,0-5.76-3.104-5.76-6.921v-4.596c0-3.816,2.583-6.921,5.76-6.921H41.7
			c3.177,0,5.763,3.104,5.763,6.921v4.596C47.463,157.218,44.877,160.322,41.7,160.322z M37.871,143.048
			c-2.641,0-4.791,2.583-4.791,5.757v4.596c0,3.174,2.15,5.757,4.791,5.757H41.7c2.642,0,4.794-2.583,4.794-5.757v-4.596
			c0-3.174-2.153-5.757-4.794-5.757H37.871z"/>
		<path style="fill:#D4D3C5;" d="M282.396,172.464c0.984,3.005-0.038,6.033-2.278,6.766c-2.24,0.73-4.852-1.108-5.833-4.113
			c-0.983-3.002,0.035-6.033,2.275-6.764C278.803,167.62,281.413,169.462,282.396,172.464z"/>
		<path style="fill:#D4D3C5;" d="M284.601,184.059c0.681,2.074-0.023,4.169-1.574,4.675c-1.548,0.506-3.351-0.768-4.032-2.842
			c-0.678-2.077,0.026-4.169,1.574-4.678C282.12,180.708,283.923,181.982,284.601,184.059z"/>
		<path style="fill:#D4D3C5;" d="M369.324,173.889c-0.544,2.781,0.692,5.361,2.763,5.771c2.071,0.401,4.198-1.521,4.739-4.3
			c0.547-2.778-0.692-5.358-2.763-5.769C371.988,169.188,369.868,171.111,369.324,173.889z"/>
		<path style="fill:#D4D3C5;" d="M373.114,183.891c-0.378,1.92,0.474,3.706,1.911,3.988c1.431,0.279,2.897-1.05,3.276-2.97
			c0.375-1.92-0.48-3.703-1.911-3.988C374.956,180.641,373.49,181.971,373.114,183.891z"/>
		<path style="fill:#FFFFFF;" d="M372.791,162.832c0,0-3.491,5.14-3.296,8.922c0.195,3.782,1.355,10.086,2.327,12.704
			c0,0-1.647-9.309-0.678-12.218c0.969-2.909,4.846-4.559,4.846-4.559S374.441,163.609,372.791,162.832z"/>
		<path style="fill:#FFFFFF;" d="M278.047,187.512c0,0-8.582-22.112-7.273-26.036c0,0-0.291-1.167,1.745-0.439
			c2.037,0.727,12.509,6.109,15.127,14.545c0,0-5.527-7.418-9.454-9.018c-3.927-1.597-6.109-2.618-5.527,0.73
			C273.247,170.637,278.047,187.512,278.047,187.512z"/>
	</g>
	<g>
		<path style="fill:#5D1707;" d="M15.254,205.031l3.607-0.367c0,0,0.989-0.125,1.344,0.977l1.199,4.218c0,0,0.11,0.669-0.495,0.669
			c-0.599,0-3.566,0-3.566,0s-1.1,0.061-1.524-0.486c-0.425-0.55-1.091-4.279-1.091-4.279S14.527,204.996,15.254,205.031z"/>
		<path style="fill:#E3301F;" d="M15.49,205.65l2.109-0.212c0,0,0.579-0.07,0.785,0.57l0.701,2.467c0,0,0.061,0.393-0.288,0.393
			c-0.355,0-2.089,0-2.089,0s-0.532,0.052-0.78-0.271c-0.25-0.32-0.748-2.516-0.748-2.516S15.103,205.548,15.49,205.65z"/>
	</g>
	<g>
		<path style="fill:#8E310E;" d="M16.464,133.594l-1.388,21.23c0,0-0.014,2.129,2.098,0.992c2.109-1.14,2.714-2.941,3.476-9.6
			c0.765-6.662,1.007-9.693,1.007-9.693s0.468-5.76-1.004-6.118c-1.472-0.361-2.961-0.262-2.961-0.262
			S16.647,130.411,16.464,133.594z"/>
		<path style="fill:#DC4E14;" d="M16.383,134.422l-1.269,19.38c0,0-0.011,1.937,1.911,0.899c1.928-1.038,2.481-2.682,3.177-8.762
			c0.695-6.077,0.917-8.843,0.917-8.843s0.43-5.257-0.917-5.582c-1.341-0.332-2.7-0.242-2.7-0.242S16.549,131.516,16.383,134.422z"
			/>
		<path style="fill:#DC4E14;" d="M18.18,132.136c0,0-1.207-0.043-1.446,1.812c-0.236,1.859-1.37,20.177-1.37,20.177l1.943-17.603
			c0,0,0.148-1.76,1.667-2.098c0,0,1.324-0.73,1.539-1.999L18.18,132.136z"/>
	</g>
	<polygon style="fill:#252727;" points="88.654,50.634 71.782,132.962 87.203,134.42 95.639,51.504 	"/>
	<path d="M236.887,135.993c-3.971-8.587-36.741-69.703-53.125-73.241c-13.032-2.81-54.943-10.089-85.045-12.192
		c-1.542,17.373-7.68,73.197-8.623,83.797l138.851,8.707C228.946,143.065,240.864,144.581,236.887,135.993z"/>
	<g>
		<defs>
			<path id="SVGID_1_" d="M236.887,135.993c-2.939-6.356-21.657-41.489-37.829-60.751c2.451-4.962,3.58-10.86,1.372-16.124
				c-1.017-2.424-2.767-4.283-4.748-5.958c-1.909-1.613-4.039-3.108-5.489-5.18c-3.535-5.051-0.242-10.827,0.899-16.086
				c0.566-2.609,0.556-5.216-0.369-7.742c-0.875-2.39-2.454-4.522-4.398-6.152c-4.28-3.586-10.105-4.337-15.413-2.998
				c-2.887,0.728-5.55,2.074-7.96,3.807c-2.584,1.859-4.909,4.084-7.624,5.758c-2.569,1.584-5.688,2.722-8.737,2.145
				c-2.488-0.47-4.47-2.13-5.956-4.106c-2.879-3.828-4.442-8.543-8.165-11.725c-3.717-3.176-8.656-4.62-13.492-4.587
				c-5.07,0.035-9.897,1.791-13.972,4.771c-9.511,6.954-13.589,18.759-14.669,30.067c-0.314,3.293-0.424,6.602-0.428,9.909
				c-0.004,3.192,0.164,6.385,0.091,9.576c-0.073,3.227-0.464,6.528-1.873,9.472c-1.259,2.629-3.211,4.833-5.25,6.882
				c-2.061,2.07-4.229,4.029-6.168,6.219c-2.008,2.268-3.822,4.709-5.424,7.28c-3.124,5.014-6.1,10.952-5.56,17.026
				c0.474,5.337,3.396,10.298,7.41,13.764c4.399,3.8,10.113,5.747,15.837,6.314c0.59,0.059,1.182,0.093,1.774,0.123
				c-0.297,2.918-0.523,5.212-0.652,6.659l138.851,8.707C228.946,143.065,240.864,144.581,236.887,135.993z"/>
		</defs>
		<clipPath id="SVGID_00000078034922421406142990000000844630092083689868_">
			<use xlink:href="#SVGID_1_"  style="overflow:visible;"/>
		</clipPath>
		<g style="clip-path:url(#SVGID_00000078034922421406142990000000844630092083689868_);">
			<g>
				<path style="fill:#B5C5CD;" d="M206.866,146.221c-2.673,4.654-4.493,9.306-5.724,13.586c0.094,0.491,0.289,0.958,0.598,1.347
					c1.078,1.363,2.96,1.214,4.031-0.104c0.673-0.829,1.045-1.808,1.381-2.803c0.445-2.5,1.069-5.29,1.948-8.053
					c3.333-10.502,15.111-19.621,17.554-24.432c2.439-4.809-0.333-6.74-0.333-6.74C227.372,128.276,216.307,129.815,206.866,146.221
					z"/>
				<path style="fill:#B5C5CD;" d="M206.866,146.221c-2.673,4.654-4.493,9.306-5.724,13.586c0.094,0.491,0.289,0.958,0.598,1.347
					c1.078,1.363,2.96,1.214,4.031-0.104c0.674-0.83,1.044-1.811,1.383-2.805c0.085-0.476,0.175-0.966,0.275-1.461
					c-0.341-1.316-0.668-2.629-0.787-3.991c-0.164-1.891,0.512-3.634,1.392-5.277c1.864-3.483,4.18-6.704,6.854-9.606
					c2.703-2.933,5.663-5.616,8.29-8.62c1.442-1.648,2.63-3.462,3.489-5.48c0.425-1.006,0.734-2.009,0.664-3.109
					c-0.009-0.133-0.027-0.267-0.045-0.401c-0.397-0.878-0.965-1.279-0.965-1.279C227.372,128.276,216.307,129.815,206.866,146.221z
					"/>
				<g>
					<path style="fill:#424C4F;" d="M229.68,111.012c0,0-1.958,0.361-0.81,2.573c1.154,2.214,2.335,4.19,1.11,5.78
						c0.785-0.472,1.042-1.182,1.042-1.182s0.584,3.402-3.339,4.472c-1.91,0.158-4.787-2.3-4.058-5.078
						c0.042,0.354,0.726,0.928,0.726,0.928S223.053,111.987,229.68,111.012z"/>
					<g style="opacity:0.5;">
						<path style="fill:#424C4F;" d="M225.705,119.837c0,0-0.398,0.192-1.218-0.861c0.234,0.7,1.058,2.312,2.725,2.674
							c2.392,0.519,3.372-2.251,3.372-2.251s-0.721,0.432-1.479,0.183c1.06-0.728,1.285-2.778-0.169-5.133
							c-0.572-0.926-0.601-1.596-0.427-2.073c0.002,0.325,0.11,0.722,0.36,1.211c1.154,2.214,2.335,4.19,1.11,5.78
							c0.785-0.472,1.042-1.182,1.042-1.182s0.584,3.402-3.339,4.472c-1.91,0.158-4.787-2.3-4.058-5.078
							c0.042,0.354,0.726,0.928,0.726,0.928s-1.001-5.04,3.262-6.917c-0.001,0.001-0.004,0.004-0.004,0.004
							C223.264,114.191,225.705,119.837,225.705,119.837z"/>
					</g>
					<path style="opacity:0.6;fill:#424C4F;" d="M228.461,119.436c0,0,1.791-1.917-0.281-5.196
						C229.333,115.132,230.75,118.07,228.461,119.436z"/>
				</g>
			</g>
			<g>
				<g>
					<path style="fill:#B5C5CD;" d="M168.774,97.2c0,0,36.059-8.367,56.369-25.238c0,0,4.351-4.367,8.592-3.162
						c4.242,1.207,16.791,16.945,9.244,24.268c-7.546,7.325-36.727,27.785-57.706,23.083
						C164.291,111.449,156.31,99.084,168.774,97.2z"/>
					<path style="opacity:0.3;fill:#6E7A7F;" d="M233.736,68.8c-4.241-1.205-8.592,3.162-8.592,3.162
						c-2.769,2.3-5.831,4.438-9.052,6.423c2.761-0.882,5.595-1.9,8.537-1.727c2.499,0.148,5.029,1.105,6.417,3.308
						c1.32,2.095,1.497,4.599,0.777,6.942c-0.729,2.357-2.439,4.136-4.379,5.578c-2.305,1.712-4.682,3.409-7.175,4.836
						c-4.262,2.437-9.075,4.418-13.92,5.326c-4.539,0.851-9.068,0.448-12.958-2.216c-3.299-2.255-6.057-5.585-9.525-7.62
						c-8.803,2.927-15.092,4.388-15.092,4.388c-12.464,1.884-4.484,14.248,16.499,18.95c20.979,4.702,50.16-15.758,57.706-23.083
						C250.527,85.745,237.978,70.007,233.736,68.8z"/>
					<path style="opacity:0.3;fill:#6E7A7F;" d="M233.736,68.8c-3.368-0.957-6.806,1.597-8.075,2.693
						c-0.053,0.152-0.101,0.307-0.139,0.464c-0.229,0.943-0.407,3.007,1.125,2.771c0.807-0.127,1.563-0.479,2.322-0.769
						c0.143-0.055,0.281,0.084,0.257,0.222c-0.195,1.16,0.044,2.26,1.159,2.842c0.91,0.475,1.636,0.469,2.622,0.49
						c1.103,0.026,1.651,0.612,1.462,1.747c-0.159,0.96-0.227,1.846,0.311,2.711c0.39,0.627,0.896,1.14,1.462,1.605
						c0.873,0.717,1.878,1.373,2.437,2.381c0.621,1.121,0.178,2.47-0.426,3.493c-0.964,1.63-2.267,3.011-3.701,4.239
						c-3.281,2.811-6.913,5.358-10.632,7.556c-5.255,3.108-10.857,5.183-16.649,7.058c-2.953,0.953-5.839,2.061-8.767,3.082
						c-2.463,0.856-4.977,1.578-7.481,2.307c-2.528,0.739-5.091,1.441-7.679,1.996c0.629,0.162,1.275,0.316,1.933,0.463
						c20.979,4.702,50.16-15.758,57.706-23.083C250.527,85.745,237.978,70.007,233.736,68.8z"/>
					<path style="fill:#B5C5CD;" d="M165.681,100.622c0,0,12.693-5.611,15.87-7.92c3.178-2.308,21.229,18.627,17.567,25.678
						C195.459,125.428,158.627,104.845,165.681,100.622z"/>
					<path style="opacity:0.4;fill:#6E7A7F;" d="M199.118,118.38c3.662-7.051-14.39-27.985-17.567-25.678
						c-3.176,2.309-15.87,7.92-15.87,7.92C158.627,104.845,195.459,125.428,199.118,118.38z M193.983,110.738
						c-1.103-0.393-2.102-1.029-3.137-1.562c-2.387-1.232-4.835-2.553-7.335-3.529c-2.181-0.853-8.166-2.621-5.877-5.99
						c0.595-0.88,1.356-1.863,2.228-2.653c0.382-0.593,0.865-1.095,1.476-1.443c1.972-1.112,3.925,0.028,5.429,1.385
						c2.235,2.015,4.334,4.265,5.984,6.784c0.78,1.195,1.514,2.457,1.989,3.806c0.249,0.716,0.974,2.285,0.456,3.024
						C194.911,110.964,194.4,110.887,193.983,110.738z"/>
					<path style="fill:#B5C5CD;" d="M210.947,133.028c0.864-0.314,31.899-5.737,41.204,8.049c9.306,13.786,6.012,62.25-0.242,65.001
						c-6.258,2.75-22.794,0.783-25.676-4.44c-2.884-5.222,3.234-31.075,0.149-36.18c-3.084-5.109-26.308,15.15-31.475,4.913
						C189.739,160.13,182.679,143.302,210.947,133.028z"/>
					<path style="opacity:0.3;fill:#6E7A7F;" d="M228.739,166.894c0.099-1.18,0.416-2.812-0.091-3.948
						c-0.598-1.346-2.329-1.394-3.602-1.359c-2.571,0.075-5.038,0.788-7.545,1.279c-1.338,0.257-4.289,1.12-5.223-0.363
						c-0.473-0.754-0.153-2.027,0.003-2.809c0.276-1.397,0.693-2.753,1.088-4.117c1.175-4.055,1.572-8.419,1.472-12.633
						c-0.082-3.27-0.367-7.445-2.501-10.189c-0.801,0.135-1.294,0.237-1.393,0.272c-28.268,10.274-21.208,27.103-16.041,37.343
						c5.167,10.236,28.391-10.023,31.475-4.913c1.119,1.85,1.027,6.437,0.594,11.776
						C227.785,173.826,228.446,170.387,228.739,166.894z"/>
					<path style="opacity:0.3;fill:#6E7A7F;" d="M256.907,190.361c-0.201,0.623-0.401,1.252-0.598,1.88
						c-0.482,1.573-1.002,3.78-2.56,4.643c-0.563,0.31-1.151,0.143-1.627-0.231c-1.254-0.981-2.622,1.596-3.416,2.281
						c-0.065,0.055-0.175,0.038-0.237-0.016c-2.858-2.494-4.718,4.474-6.823,2.906c-13.699-10.187-9.098-24.949-9.198-30.454
						c-0.048-2.784-0.199-5.577-0.59-8.34c-0.21-1.477-0.393-3.082-1.294-4.328c-0.829-1.145-2.019-1.873-3.406-2.144
						c-0.85-0.167-1.748-0.248-2.66-0.274c-0.767,0.174-1.527,0.356-2.28,0.538c-1.577,0.382-3.222,0.819-4.855,0.849
						c-0.716,0.015-1.968,0.001-2.097-0.941c-0.204-1.473,0.473-3.163,0.869-4.552c0.528-1.857,0.98-3.54,0.983-5.488
						c0-1.458-0.106-2.911-0.312-4.35c-0.176-1.227-0.572-2.333-0.833-3.531c-0.398-1.811,0.341-2.958,2.004-3.682
						c4.177-1.828,9.166-2.317,13.668-2.344c2.859-0.018,5.756,0.162,8.589,0.667c-12.516-3.499-28.667-0.644-29.288-0.419
						c-28.268,10.274-21.208,27.103-16.041,37.343c5.167,10.236,28.391-10.023,31.475-4.913c3.084,5.105-3.033,30.958-0.149,36.18
						c2.883,5.223,19.419,7.19,25.676,4.44C254.053,205.133,255.846,198.811,256.907,190.361z"/>
					<path style="fill:#B5C5CD;" d="M153.21,153.834c0,0-1.141,30.627,28.546,50.253c29.691,19.629,37.957,22.177,40.172,21.787
						c2.211-0.396,18.197-22.975,5.79-30.863c-12.409-7.891-22.61-8.505-26.522-15.021c-3.913-6.515-5.996-18.281-5.996-18.281
						L153.21,153.834z"/>
					<path style="opacity:0.3;fill:#6E7A7F;" d="M227.718,195.011c-12.409-7.891-22.61-8.505-26.522-15.021
						c-3.913-6.515-5.996-18.281-5.996-18.281l-41.99-7.875c0,0-1.141,30.627,28.546,50.253
						c29.691,19.629,37.957,22.177,40.172,21.787C224.139,225.478,240.125,202.898,227.718,195.011z M209.439,213.279
						c-2.502-0.129-4.971-0.767-7.376-1.448c-5.23-1.487-10.215-3.785-14.817-6.673c-4.605-2.894-8.891-6.306-12.708-10.178
						c-0.913-0.926-7.473-7.075-3.101-7.387c2.7-0.19,5.516,0.471,8.196,0.761c0.713,0.074,1.422,0.137,2.133,0.185
						c1.628-0.133,3.235-0.461,4.848-0.895c3.88-1.043,7.803-1.797,11.409,0.472c1.139,0.719,2.105,1.689,3.138,2.55
						c1.243,1.035,2.519,2.048,3.92,2.854c2.609,1.505,5.456,2.194,8.341,2.959c2.028,0.538,3.981,1.151,5.76,2.286
						c1.161,0.74,2.484,1.927,2.525,3.421c0.021,0.766-0.19,1.619-0.665,2.237c-0.655,0.859-1.622,1.297-2.432,1.977
						c-0.449,0.38-1.178,0.704-1.458,1.252c-0.207,0.404-0.292,0.849-0.445,1.272c-0.313,0.875-0.569,1.904-1.18,2.633
						C214.175,213.175,211.397,213.381,209.439,213.279z"/>
					<path style="opacity:0.2;fill:#6E7A7F;" d="M227.718,195.011c-12.409-7.891-22.61-8.505-26.522-15.021
						c-3.913-6.515-5.996-18.281-5.996-18.281l-41.99-7.875c0,0-0.448,12.116,6.603,25.991c4.856,3.577,10.595,5.785,16.702,6.278
						c3.981,0.323,8.011,0.019,11.912-0.829c2.869-0.624,5.933-2.131,8.674-0.388c1.977,1.258,3.608,3.045,5.526,4.4
						c2.399,1.699,5.069,3.35,7.878,4.276c3.283,1.081,6.738,1.584,9.884,3.08c2.707,1.289,5.378,3.548,4.311,6.867
						c-0.675,2.093-2.66,2.713-4.368,3.78c-1.105,0.693-2.467,1.905-1.916,3.378c0.346,0.925,1.039,1.651,1.55,2.482
						c0.068,0.107,0.021,0.251-0.101,0.295c-1.163,0.409-2.432,0.726-3.473,1.409c-1.537,1.004-1.033,2.218,0.178,3.31
						c0.124,0.115,0.058,0.333-0.118,0.343c-1.992,0.128-4.9,0.101-4.626,2.938c0.033,0.337,0.156,0.683,0.294,1.03
						c6.07,3.052,8.698,3.594,9.806,3.4C224.139,225.478,240.125,202.898,227.718,195.011z"/>
					<path style="fill:#A9B8C0;" d="M212.977,156.439c7.735-16.945-5.808-36.176-25.889-45.11
						c-20.079-8.933-26.545-14.368-26.545-14.368l-35.605-0.338c0,0-20.901,34.029,13.277,65.036
						C176.983,196.836,199.586,185.766,212.977,156.439z"/>
					<path style="opacity:0.3;fill:#6E7A7F;" d="M212.977,156.439c4.242-9.295,2.083-19.276-4.043-27.868
						c0.098,0.174,0.197,0.351,0.29,0.527c1.226,2.293,1.999,4.664,2.587,7.19c1.158,4.981,3.438,10.958,0.654,15.314
						c-27.187,42.517-79.551-10.117-76.964-12.254c1.591-1.316,3.339-2.42,5.08-3.523c2.477-1.569,4.877-3.189,7.11-5.1
						c2.364-2.023,4.696-4.203,6.722-6.566c0.953-1.114,1.922-2.299,3.091-3.188c-4.252,1.65-8.046,4.282-11.853,6.779
						c-4.43,2.904-9.118,5.573-14.23,7.079c-3.588,1.059-7.18,1.226-10.731,0.546c2.562,8.44,7.822,17.485,17.524,26.285
						C176.983,196.836,199.586,185.766,212.977,156.439z"/>
					<path style="opacity:0.3;fill:#6E7A7F;" d="M205.948,168.81c-4.709,5.09-10.604,9.101-17.416,10.651
						c-8.33,1.893-16.953,0.213-24.663-3.195c-3.997-1.769-7.801-3.952-11.398-6.434c-4.879-3.364-9.703-6.945-13.964-11.076
						c-4.538-4.405-8.507-9.429-12.362-14.434c-2.089-2.71-4.443-5.609-5.361-8.931c-0.03-0.005-0.064-0.009-0.094-0.015
						c2.562,8.44,7.822,17.485,17.524,26.285C170.888,191.303,192.076,188.102,205.948,168.81z"/>
					<path style="opacity:0.4;fill:#6E7A7F;" d="M124.382,138.262c6.04-0.165,11.868-3.435,16.92-6.463
						c5.529-3.318,10.726-7.135,16.121-10.66c1.867-1.218,3.775-2.469,5.832-3.348c4.51-1.917,9.547-2.757,14.423-2.845
						c2.368-0.043,4.77,0.005,7.122,0.332c2.151,0.299,4.27,0.765,6.403,1.155c1.999,0.369,4.067,0.688,6.113,0.725
						c-3.134-2.232-6.572-4.202-10.229-5.829c-20.079-8.933-26.545-14.368-26.545-14.368l-35.605-0.338
						c0,0-11.593,18.886-3.38,41.338C122.452,138.182,123.397,138.288,124.382,138.262z"/>
					<path style="opacity:0.4;fill:#6E7A7F;" d="M121.802,137.532c3.759-2.18,6.877-5.204,9.346-8.77
						c1.773-2.56,3.253-5.317,4.447-8.19c0.896-2.152,1.539-4.409,2.482-6.535c0.598-1.351,1.389-2.505,2.738-3.179
						c1.771-0.882,3.9-0.814,5.819-0.839c4.667-0.055,9.414-0.42,13.936-1.64c3.591-0.97,7.26-2.515,9.832-5.224
						c-7.196-3.956-9.86-6.193-9.86-6.193l-35.605-0.338c0,0-11.506,18.749-3.465,41.095
						C121.581,137.655,121.694,137.594,121.802,137.532z"/>
					<g style="opacity:0.7;">
						<path style="fill:#FF54FF;" d="M150.845,98.736c-0.062-0.926-0.146-1.84-0.092-2.766c0.018-0.267-0.675-0.034-0.762,0.067
							c-1.258,1.528-2.061,3.358-3.267,4.922c-0.284,0.367,0.774,0.292,0.973,0.049c0.976-1.26,1.625-2.715,2.451-4.065
							c0.125,0.624,0.209,1.249,0.302,1.881C150.467,98.95,150.853,98.872,150.845,98.736z"/>
						<path style="fill:#86888A;" d="M146.608,101.235c-0.075-0.075-0.112-0.206,0.007-0.359c0.561-0.727,1.044-1.53,1.512-2.306
							c0.533-0.885,1.084-1.8,1.758-2.619c0.106-0.123,0.623-0.308,0.853-0.213c0.103,0.042,0.158,0.132,0.151,0.242
							c-0.045,0.787,0.012,1.59,0.066,2.365l0.026,0.383c0.011,0.167-0.171,0.275-0.355,0.294c-0.209,0.022-0.297-0.084-0.312-0.179
							l-0.049-0.337c-0.057-0.389-0.115-0.789-0.185-1.185c-0.221,0.376-0.433,0.761-0.64,1.135
							c-0.49,0.889-0.996,1.809-1.636,2.635c-0.199,0.244-0.944,0.346-1.174,0.163C146.622,101.248,146.615,101.242,146.608,101.235
							z M150.614,95.984c-0.114-0.023-0.456,0.086-0.524,0.146c-0.656,0.798-1.202,1.704-1.73,2.581
							c-0.471,0.783-0.959,1.592-1.529,2.332c-0.003,0.003-0.005,0.007-0.007,0.009c0.044,0.016,0.142,0.032,0.295,0.019
							c0.232-0.02,0.425-0.093,0.471-0.15c0.625-0.807,1.126-1.717,1.611-2.597c0.264-0.48,0.538-0.977,0.83-1.453l0.182-0.298
							l0.069,0.342c0.104,0.516,0.18,1.042,0.254,1.551l0.042,0.285c0.041-0.001,0.1-0.017,0.13-0.035l-0.025-0.352
							C150.627,97.587,150.57,96.783,150.614,95.984z M150.584,98.803L150.584,98.803C150.585,98.803,150.585,98.803,150.584,98.803
							z"/>
					</g>
					<path style="fill:#B5C5CD;" d="M152.398,34.941c-2.159-0.394-4.453-0.443-6.881-0.082c-2.758,0.409-6.489,1.258-8.855,2.802
						c-2.036,1.327-3.819,3.262-5.133,5.301c-7.381,11.46-23.794,38.169-7.258,55.845c16.536,17.679,60.97,8.524,57.396-15.398
						c-1.406-9.418-3.483-19.12-7.502-27.791C169.834,46.279,162.613,36.8,152.398,34.941z"/>
					<path style="opacity:0.4;fill:#6E7A7F;" d="M181.667,83.41c-1.406-9.418-3.483-19.12-7.502-27.791
						c-4.331-9.34-11.552-18.819-21.766-20.677c-2.159-0.394-4.453-0.443-6.881-0.082c-2.758,0.409-6.489,1.258-8.855,2.802
						c-2.036,1.327-3.819,3.262-5.133,5.301c-7.381,11.46-23.794,38.169-7.258,55.845C140.807,116.486,185.24,107.332,181.667,83.41
						z M125.753,71.858c-0.976,0.709-1.871,1.515-2.979,2.016c-0.098,0.044-0.218-0.03-0.248-0.124
						c-1.36-4.011-0.022-8.572,1.297-12.415c1.711-4.989,4.112-9.556,7.213-13.825c2.812-3.874,5.911-7.506,10.35-9.545
						c4.045-1.857,8.515-2.225,12.789-0.955c0.037,0.011,0.063,0.029,0.085,0.05c9.36,2.033,17.083,10.551,19.058,19.964
						c0.662,3.173,0.911,7.844-2.559,9.553c-2.058,1.015-4.364,0.837-6.559,0.454c-2.85-0.492-5.645-1.169-8.531-1.457
						c-5.848-0.58-11.913-0.345-17.61,1.164c-2.778,0.735-5.454,1.761-8.085,2.916C128.544,70.285,127.024,70.936,125.753,71.858z
						 M143.118,105.62c-1.046-0.847-1.689-2.107-1.365-3.47c0.221-0.963,0.664-2.458,1.74-2.771
						c0.119-0.035,0.248,0.042,0.258,0.174c0,0-0.001,0.015-0.001,0.024c0.075,0.031,0.128,0.103,0.1,0.203
						c-0.423,1.724,0.727,3.857,2.545,4.196c1.312,0.248,2.59-0.213,3.882-0.386c0.148-0.02,0.255,0.153,0.191,0.28
						C149.17,106.397,145.445,107.498,143.118,105.62z M161.469,96.905c-2.179-0.144-4.162-1.218-6.197-1.912
						c-2.821-0.962-5.722-0.613-8.64-0.867c-2.717-0.241-4.864-1.284-6.568-3.301c0.418,1.499,1.341,2.84,1.554,4.383
						c0.288,2.125-1.736,3.258-2.319,5.118c-0.03,0.104-0.115,0.176-0.227,0.154c-1.981-0.335-3.913-0.529-5.763-1.369
						c-1.499-0.684-2.924-1.577-4.096-2.745c-6.057-6.045-4.785-16.339,0.945-22.162c6.071-6.166,15.872-8.051,24.385-6.846
						c1.116-0.044,2.304,0.012,3.267,0.497c0.814,0.406,1.683,1.5,1.13,2.463c-0.475,0.828-1.348,1.314-1.849,2.114
						c-0.715,1.148-1.384,2.341-1.84,3.616c-2.458,6.899,2.498,18.487,11.018,17.347c0.146-0.018,0.263,0.155,0.192,0.282
						C165.387,95.579,163.775,97.059,161.469,96.905z"/>
					<path style="opacity:0.4;fill:#6E7A7F;" d="M181.667,83.41c-1.116-7.483-2.662-15.145-5.266-22.331
						c0.021,1.231-0.031,2.461-0.223,3.691c-0.27,1.704-0.802,3.579-2.176,4.738c-1.289,1.09-2.916,1.293-4.521,1.123
						c2.257,1.196,4.677,2.381,6.392,4.271c1.892,2.085,2.686,4.798,2.84,7.574c0.524,9.371-6.479,16.663-14.363,20.604
						c-3.727,1.86-7.532,3.66-11.539,4.82C168.775,106.734,183.804,97.716,181.667,83.41z"/>
					<path style="opacity:0.4;fill:#6E7A7F;" d="M122.63,87.026c0.736-2.675,0.438-5.757,0.03-8.469
						c-0.434-2.901-1.141-5.628-2.018-8.42c-0.284-0.908-0.568-1.818-0.923-2.701c-0.066-0.168-0.148-0.404-0.245-0.66
						c-2.593,8.061-3.511,16.717-0.183,24.474C120.943,90.493,122.12,88.87,122.63,87.026z"/>
					<path style="fill:#A8B7BF;" d="M138.438,69.197c0.065-0.02,0.135-0.035,0.203-0.051c3.497-1.148,7.168-1.867,10.876-1.836
						c4.762,0.038,9.651,0.929,14.136,2.637c2.345,0.893,4.653,2.019,6.814,3.307c1.313,0.784,2.435,1.826,3.588,2.82
						c0.817,0.553,1.628,1.109,2.435,1.672c0.143,0.097,0.287,0.194,0.431,0.294c0.19-0.029,0.392-0.119,0.291-0.239
						c-1.56-1.881-3.748-3.665-5.749-5.057c-2.221-1.545-4.634-2.884-7.121-3.937c-4.709-2-9.996-2.791-15.049-2.676
						c-5.047,0.115-9.92,1.387-14.52,3.307c-2.063,0.857-3.942,1.958-5.732,3.262C132.025,71.163,135.211,69.991,138.438,69.197z"/>
					<path style="fill:#B5C5CD;" d="M128.827,100.198c0,0-6.45-6.742-14.508-5.038c-8.06,1.701-6.552,1.504-2.689-1.276
						c4.463-3.207,8.683-4.605,9.859-7.205c1.176-2.598,0.898-30.017-11.401-21.807c-12.299,8.213-43.541,38.156-35.673,48.434
						c7.867,10.276,22.105,12.356,46.67,22.35C121.086,135.655,132.933,114.861,128.827,100.198z"/>
					<path style="opacity:0.4;fill:#6E7A7F;" d="M128.827,100.198c0,0-6.45-6.742-14.508-5.038c-8.06,1.701-6.552,1.504-2.689-1.276
						c4.463-3.207,8.683-4.605,9.859-7.205c1.176-2.598,0.898-30.017-11.401-21.807c-1.567,1.043-3.437,2.439-5.49,4.101
						c0.076-0.028,0.148-0.06,0.225-0.088c1.707-0.626,3.592-0.722,4.564,1.103c0.979,1.839,1.245,3.965,1.213,6.023
						c-0.067,4.871-1.096,9.621-3.722,13.773c-1.398,2.211-3.022,4.259-4.656,6.301c-1.747,2.191-3.377,4.467-5.077,6.696
						c-3.358,4.408-7.201,8.664-12.471,10.758c-2.078,0.826-4.485,1.297-6.65,0.497c-2.076-0.766-3.773-2.297-4.842-4.221
						c0.084,1.324,0.476,2.496,1.234,3.489c7.867,10.276,22.105,12.356,46.67,22.35
						C121.086,135.655,132.933,114.861,128.827,100.198z M101.05,123.315c-2.707-0.424-6.484-2.307-6.426-5.536
						c0.04-2.166,1.425-4.378,2.571-6.131c0.308-0.474,0.63-0.938,0.954-1.4c0.887-1.835,1.908-3.6,3.121-5.171
						c0.753-0.978,2.053-2.596,3.494-2.314c1.706,0.337,2.339,2.752,2.747,4.15C109.084,112.326,110.015,124.71,101.05,123.315z"/>
					<path style="opacity:0.4;fill:#6E7A7F;" d="M120,83.297c-0.954,1.595-2.332,2.557-3.988,3.35
						c-2.279,1.087-4.365,2.378-6.236,4.089c-3.789,3.467-6.063,7.912-8.788,12.184c-2.477,3.895-5.89,7.035-8.621,10.733
						c2.35-1.656,4.367-3.732,6.232-5.915c1.656-1.943,3.317-3.912,4.805-5.988c0.758-1.057,1.969-2.829,3.501-2.489
						c0.659,0.145,1.197,0.862,1.568,1.378c0.537,0.747,1.006,1.542,1.418,2.362c0.929,1.83,1.387,3.792,1.549,5.832
						c0.193,2.423,0.085,4.852,0.117,7.28c0.027,2.388,0.366,4.697,0.714,7.058c0.519,3.523,1.16,7.453,3.283,10.295
						c1.785,0.687,3.626,1.413,5.531,2.188c0,0,11.847-20.794,7.741-35.457c0,0-6.45-6.742-14.508-5.038
						c-8.06,1.701-6.552,1.504-2.689-1.276c4.463-3.207,8.683-4.605,9.859-7.205c0.444-0.977,0.681-5.486,0.143-10.283
						C121.561,78.835,121.212,81.277,120,83.297z"/>
					<path style="fill:#B5C5CD;" d="M129.902,100.561c0,0-7.282-8.195-14.236-6.675c-6.954,1.515-9.646,2.325-7.432,4.029
						c2.211,1.702,6.843,6.74,5.701,16.849c-1.144,10.105,3.639,22.243,7.263,22.204
						C124.828,136.93,142.754,116.032,129.902,100.561z"/>
					<path style="opacity:0.5;fill:#6E7A7F;" d="M129.902,100.561c0,0-7.282-8.195-14.236-6.675
						c-6.954,1.515-9.646,2.325-7.432,4.029c2.211,1.702,6.843,6.74,5.701,16.849c-1.144,10.105,3.639,22.243,7.263,22.204
						C124.828,136.93,142.754,116.032,129.902,100.561z M117.684,121.399c-1.483-3.229-1.096-7.119-1.19-10.575
						c-0.052-1.91-0.223-3.759-1.033-5.523c-1.118-2.433-3.006-4.296-4.459-6.503c-2.539-3.853,4.718-4.466,7.016-4.184
						c4.414,0.537,8.373,3.338,10.676,7.122c2.486,4.086,2.654,8.787,1.15,13.27C129.762,115.249,119.02,124.313,117.684,121.399z"
						/>
				</g>
				<path style="fill:#6E7A7F;" d="M164.804,97.651c-2.908,2.752-9.121-1.931-12.4-2.164c-1.429-0.104-2.928,0.371-4.347,0.46
					c-2.205,0.14-4.934-1.058-6.086-2.968c-0.022-0.037-0.165-0.008-0.15,0.036c0.512,1.588,1.491,2.422,2.707,2.837
					c0.998,1.697-0.827,3.873,0.074,5.574c0.802,1.523,2.364,2.063,4.01,1.915c1.731-0.153,3.309-1.555,4.614-2.552
					c1.539-1.181,2.99-1.713,4.903-2.012c0.772-0.12,1.556-0.073,2.31-0.251C161.987,98.873,163.491,98.786,164.804,97.651
					c0.042-0.018,0.08-0.037,0.1-0.062l0.086-0.1C165.213,97.235,164.949,97.515,164.804,97.651z"/>
				<path style="fill:#FFFFFF;" d="M155.822,98.727c-1.69,0.396-3.168,1.687-4.491,2.726c-1.598,1.252-3.687,1.907-5.321,0.488
					c-0.93-0.805-0.835-2.127-0.576-3.19c0.146-0.606,0.338-1.834,0.069-2.653c2.63,0.449,5.954-0.425,8.157,0.017
					c1.94,0.387,4.23,1.757,6.45,2.332C158.707,98.605,157.236,98.394,155.822,98.727z"/>
				<path style="fill:#6E7A7F;" d="M149.409,106.09c-2.537,1.274-4.763,1.448-6.867-0.623c-1.261-1.244-1.695-3.377-1.344-5.088
					c0.016-0.071-0.156-0.039-0.178,0.007c-1.325,2.769-0.005,5.416,2.58,6.758c2.026,1.045,4.362,0.27,6.089-0.948
					C149.88,106.064,149.497,106.049,149.409,106.09z"/>
				<g>
					<path style="opacity:0.6;fill:#A8B7BF;" d="M164.819,68.623c-0.151-0.06-0.153-0.233-0.052-0.335
						c1.079-1.107,2.447-3.402,1.702-4.99c-1.066-2.285-3.476-1.082-4.527,0.448c-0.467,0.682-0.879,1.431-1.112,2.231
						c-0.169,0.561-0.031,1.359-0.344,1.86c-0.332,0.529-1.399,0.24-1.893,0.284c-0.008-0.001-0.016,0.002-0.025,0.002
						c0.081,0.012,0.162,0.028,0.242,0.043c1.07,0.191,2.153,0.326,3.212,0.578c1.584,0.378,3.307,0.959,5.193,1.974
						C166.599,69.823,165.859,69.023,164.819,68.623z"/>
					<g>
						<path style="fill:#322A2E;" d="M164.804,66.385c-0.665,1.507-1.849,2.439-2.649,2.089c-0.796-0.353-0.905-1.859-0.238-3.363
							c0.662-1.508,1.847-2.442,2.644-2.09C165.361,63.372,165.469,64.879,164.804,66.385z"/>
						<path style="fill:#FFFFFF;" d="M163.817,64.596c-0.172,0.388-0.508,0.617-0.749,0.51c-0.241-0.105-0.295-0.507-0.124-0.892
							c0.173-0.389,0.508-0.619,0.746-0.511C163.932,63.808,163.987,64.208,163.817,64.596z"/>
					</g>
				</g>
				<g>
					<path style="opacity:0.6;fill:#A8B7BF;" d="M165.452,55.322c0.995,0.09,2.112,0.386,2.921,1.006
						c0.749,0.575,1.176,1.349,1.695,2.104c0.651-2.763-0.098-6.929-3.821-6.158c-2.517,0.522-6.012,2.746-5.71,5.657
						C161.731,56.446,163.467,55.139,165.452,55.322z"/>
					<path style="fill:#424C4F;" d="M161.639,55.905c0.573-0.371,1.289-0.637,1.939-0.827c0.998-0.294,2.01-0.465,3.02-0.114
						c1.097,0.384,2.052,1.098,2.725,2.02c0.176-0.29,0.292-0.614,0.307-0.841c0.065-0.946-0.032-1.567-0.694-2.261
						c-0.698-0.729-2.255-0.798-3.15-0.592c-1.647,0.377-3.226,1.32-4.256,2.687C161.568,55.952,161.603,55.927,161.639,55.905z"/>
				</g>
				<g>
					<path style="opacity:0.6;fill:#A8B7BF;" d="M141.356,66.532c-0.162,0.017-0.242-0.137-0.2-0.274
						c0.451-1.478,0.611-4.143-0.778-5.214c-2-1.536-3.586,0.638-3.817,2.478c-0.102,0.82-0.12,1.675,0.035,2.493
						c0.109,0.576,0.597,1.22,0.551,1.81c-0.053,0.622-1.131,0.858-1.55,1.121c-0.005,0.005-0.016,0.011-0.02,0.015
						c0.077-0.025,0.157-0.05,0.235-0.074c1.035-0.322,2.061-0.7,3.115-0.963c1.823-0.453,3.66-0.662,5.52-0.632
						C143.488,66.78,142.464,66.412,141.356,66.532z"/>
					<g>
						<path style="fill:#322A2E;" d="M140.315,64.551c0.1,1.643-0.523,3.018-1.393,3.071c-0.872,0.055-1.658-1.233-1.757-2.877
							c-0.103-1.641,0.52-3.018,1.39-3.07C139.427,61.623,140.213,62.911,140.315,64.551z"/>
						<path style="fill:#FFFFFF;" d="M138.615,63.418c0.028,0.423-0.167,0.778-0.429,0.796c-0.263,0.014-0.496-0.317-0.522-0.736
							c-0.027-0.426,0.165-0.782,0.424-0.799C138.355,62.662,138.592,62.997,138.615,63.418z"/>
					</g>
				</g>
				<g>
					<path style="opacity:0.6;fill:#A8B7BF;" d="M139.582,53.844c0.927-0.374,2.056-0.625,3.058-0.446
						c0.929,0.166,1.666,0.656,2.474,1.09c-0.691-2.753-3.275-6.11-6.223-3.715c-1.996,1.624-4.079,5.202-2.471,7.65
						C136.796,56.556,137.737,54.594,139.582,53.844z"/>
					<path style="fill:#424C4F;" d="M136.462,56.113c0.338-0.589,0.856-1.154,1.343-1.623c0.753-0.72,1.573-1.338,2.628-1.488
						c1.151-0.167,2.329,0.03,3.348,0.541c0.026-0.339-0.02-0.68-0.113-0.89c-0.376-0.868-0.747-1.376-1.656-1.686
						c-0.954-0.328-2.367,0.326-3.07,0.918c-1.287,1.095-2.253,2.658-2.541,4.345C136.423,56.19,136.442,56.152,136.462,56.113z"/>
				</g>
				<path style="fill:#EDE7CD;" d="M163.016,71.332c0,0,10.3-3.986,18.138-14.441c7.841-10.453,11.82,25.845-9.307,33.672
					C150.719,98.39,158.158,71.67,163.016,71.332z"/>
				<path style="opacity:0.5;fill:#EDE7CD;" d="M181.154,56.891c-7.838,10.455-18.138,14.441-18.138,14.441
					c-4.857,0.338-12.297,27.058,8.831,19.231C192.974,82.737,188.995,46.438,181.154,56.891z M165.853,85.347
					c-1.627,0.129-3.648,0.017-4.852-1.254c-1.208-1.277-1.474-3.105-1.15-4.79c0.353-1.81,1.169-3.695,2.484-5.022
					c1.7-1.724,3.914-2.425,6.054-3.426c3.345-1.556,6.115-3.982,8.573-6.71c0.206-0.256,0.404-0.515,0.592-0.782
					c0.783-1.091,1.431-2.275,2.266-3.332c0.286-0.364,0.703-0.945,1.192-1.287c0.096-0.162,0.198-0.319,0.32-0.455
					c0.449-0.489,1.348-0.602,1.743,0.051c0.611,1.017,0.784,2.503,0.835,3.67c0.127,2.954-0.627,5.884-1.789,8.586
					c-1.301,3.005-2.992,5.943-5.12,8.443C174.111,82.44,170.404,84.99,165.853,85.347z"/>
				<path style="opacity:0.5;fill:#EDE7CD;" d="M185.902,74.516c-0.421,0.783-0.869,1.549-1.354,2.293
					c-2.428,3.677-5.612,6.982-9.47,9.166c-3.444,1.948-7.953,3.473-11.926,2.462c-2.521-0.643-4.459-2.179-5.458-4.281
					c0.229,5.675,3.68,10.285,14.152,6.406C179.465,87.74,183.82,81.216,185.902,74.516z"/>
				<path style="fill:#A8B7BF;" d="M108.107,97.082c0.151-0.091-0.142-0.14-0.217-0.105c-7.554,3.421-9.601,12.237-16.095,16.868
					c-0.149,0.106,0.251,0.171,0.337,0.123C99.176,110.04,101.132,101.113,108.107,97.082z"/>
				<g>
					<path style="fill:#A5B4BB;" d="M135.304,43.081c-0.586,1.122-1.656,2.333-3.153,1.812c-1.015-0.35-1.859-1.037-2.857-1.41
						c-1.365-0.512-2.777-1.008-4.048-1.719c-3.326-1.874-5.529-4.923-6.553-8.367c-1.129-3.791-0.413-7.1,0.847-10.678
						c0.316-0.892,2.948-8.906,3.568-8.69c0.219,0.075,0.437,0.16,0.653,0.252c3.476,1.517,6.322,4.171,8.042,7.397
						c1.89,3.543,2.147,6.65,1.77,10.443c-0.198,1.987-0.171,4.686,0.882,6.539c0.116,0.206,0.749,1.128,1.409,1.917
						C135.903,41.444,135.708,42.314,135.304,43.081z"/>
					<path style="fill:#FBBEA9;" d="M127.497,40.312c-1.142-0.756-2.114-1.66-2.986-2.719c-0.991-1.206-1.91-2.429-2.301-3.97
						c-0.681-2.668,0.011-5.401,0.878-7.941c0.977-2.859,1.903-5.778,1.882-8.834c-0.005-0.673-0.025-1.354-0.104-2.027
						c2.972,1.567,5.4,3.981,6.937,6.857c1.89,3.543,2.147,6.65,1.77,10.443c-0.198,1.987-0.171,4.686,0.882,6.539
						c0.113,0.2,0.725,1.093,1.368,1.869c-1.463,1.247-3.959,0.97-5.686,0.609C129.248,40.953,128.328,40.707,127.497,40.312z"/>
					<path style="fill:#A5B4BB;" d="M131.105,39.222c-1.608-2.608-0.649-7.353-0.825-10.322c-0.169-2.967-0.985-5.788-2.39-8.444
						c-1.236-2.331-2.954-4.801-4.804-6.428c0,0,0.014-0.004,0.023,0.001c0.219,0.075,0.437,0.16,0.653,0.252
						c3.476,1.517,6.322,4.171,8.042,7.397c1.89,3.543,2.147,6.65,1.77,10.443c-0.198,1.987-0.171,4.686,0.882,6.539
						c0.116,0.206,0.749,1.128,1.409,1.917c0.024,0.597-0.061,1.192-0.248,1.755C135.304,42.048,133.017,42.329,131.105,39.222z"/>
					<path style="opacity:0.4;fill:#6E7A7F;" d="M120.91,34.181c1.262,1.255,2.633,2.425,4.149,3.36
						c0.917,0.56,1.865,1.038,2.828,1.51c0.575,0.281,1.129,0.544,1.781,0.513c0.141-0.008,0.222-0.13,0.194-0.263
						c-1.414-7.184-0.457-15.617-5.239-21.723c-0.617-0.786-1.632-2.108-2.733-1.379c0.514-1.258,0.969-2.187,1.197-2.171l0,0
						c0,0,0.014-0.004,0.023,0.001c0.219,0.075,0.437,0.16,0.653,0.252c0.282,0.124,0.556,0.252,0.831,0.392
						c-0.034,0.07-0.033,0.16,0.03,0.235c2.132,2.541,4.987,4.427,6.115,7.688c0.906,2.616,0.862,5.3,0.673,8.023
						c-0.236,3.348-0.688,8.711,3.008,10.435c0.145,0.069,0.303-0.017,0.308-0.183c0.03-0.9-0.44-1.683-0.505-2.567
						c-0.002-0.041,0-0.083-0.002-0.119c0.072,0.162,0.148,0.321,0.236,0.473c0.015,0.027,0.035,0.062,0.066,0.11
						c0.024,0.035,0.054,0.084,0.088,0.132c0.007,0.012,0.012,0.017,0.018,0.027c0.203,0.299,0.545,0.78,0.923,1.263
						c0.014,0.019,0.027,0.032,0.042,0.051c0.049,0.065,0.104,0.131,0.158,0.195c0.037,0.046,0.073,0.093,0.114,0.139
						c0.008,0.189-0.001,0.378-0.013,0.569c-0.007,0.057-0.012,0.116-0.021,0.177c-0.014,0.142-0.036,0.278-0.062,0.415
						c-0.011,0.056-0.018,0.111-0.031,0.169c-0.031,0.143-0.074,0.284-0.121,0.424l-0.004-0.001c-0.085,0.255-0.182,0.51-0.309,0.75
						c-0.586,1.122-1.656,2.333-3.153,1.812c-1.015-0.35-1.859-1.037-2.857-1.41c-1.365-0.512-2.777-1.008-4.048-1.719
						c-3.326-1.874-5.529-4.923-6.553-8.367c-0.295-0.989-0.459-1.942-0.528-2.876C118.838,31.885,119.853,33.125,120.91,34.181z"/>
				</g>
				<g>
					<g>
						<path style="fill:#909EA4;" d="M163.474,43.95c0.148,0.141,0.473,0.368,0.697,0.296c0.813-0.254,1.427-0.868,2.26-1.103
							c0.77-0.218,0.738,0.781,1.527,0.898c4.811,0.707,9.481-1.707,10.814-2.533c5.966-3.704,3.861-12.797,0.002-17.273
							c-0.645-0.748-1.392-1.858-2.382-2.197c-0.047-0.017-0.121-0.045-0.164-0.002c-0.286,0.305-0.303,0.827-0.418,1.215
							c-1.036,3.434-3.42,7.133-5.817,9.766c-1.798,1.974-4.051,3.463-6.041,5.224c-0.242,0.213-0.437,0.539-0.66,0.811
							C161.602,40.133,162.077,42.629,163.474,43.95z"/>
						<path style="fill:#FBBEA9;" d="M163.29,39.052c0.222-0.272,0.418-0.598,0.66-0.811c1.991-1.761,4.243-3.25,6.041-5.224
							c2.173-2.384,4.328-5.643,5.484-8.786c2.245,3.099,3.43,6.816,2.781,10.678c-0.048,0.29-0.105,0.582-0.171,0.877
							c-0.43,1.593-1.115,3.111-2.109,4.392c-0.967,1.237-2.214,2.204-3.73,2.664c-0.296,0.092-0.599,0.16-0.899,0.221
							c-0.871-0.089-1.737-0.187-2.61-0.175c-0.794,0.013-1.537,0.037-2.308,0.255c-0.051,0.015-0.102,0.034-0.151,0.052
							c-1.165-0.072-2.333-0.146-3.493-0.107C161.974,41.733,161.922,39.927,163.29,39.052z"/>
						<path style="fill:#A5B4BB;" d="M176.384,22.035c0.046,0.156,0.087,0.314,0.119,0.474c0.679,3.156-0.049,6.509-1.137,9.492
							c-1.062,2.901-2.518,5.8-4.967,7.778c-1.958,1.583-4.939,2.401-7.22,3.857c-1.158-1.371-1.451-3.583,0.111-4.583
							c0.222-0.272,0.418-0.598,0.66-0.811c1.991-1.761,4.243-3.25,6.041-5.224c2.398-2.633,4.782-6.332,5.817-9.766
							c0.115-0.387,0.132-0.91,0.418-1.215C176.268,21.995,176.337,22.018,176.384,22.035z"/>
					</g>
					<path style="opacity:0.4;fill:#6E7A7F;" d="M162.408,40.095c-0.018,0.039-0.03,0.08-0.043,0.121
						c-0.013,0.032-0.024,0.064-0.034,0.098c-0.008,0.022-0.015,0.044-0.022,0.067c-0.007,0.031-0.013,0.06-0.02,0.089
						c-0.002,0.017-0.008,0.032-0.012,0.05c-0.006,0.025-0.012,0.048-0.016,0.075c-0.005,0.029-0.011,0.058-0.014,0.088
						c-0.005,0.038-0.01,0.075-0.013,0.115c-0.008,0.063-0.013,0.132-0.017,0.199c0,0.038-0.004,0.075-0.003,0.114
						c-0.001,0.029-0.002,0.057-0.001,0.084c0.003,0.016,0.004,0.03,0.003,0.041c0,0.033,0.003,0.067,0.006,0.101
						c0.002,0.031,0.003,0.061,0.005,0.092c0.002,0.024,0.005,0.049,0.008,0.075c0.002,0.019,0.006,0.043,0.01,0.063
						c0.007,0.057,0.016,0.117,0.024,0.173c0.007,0.027,0.014,0.055,0.02,0.082c0.002,0.02,0.009,0.041,0.014,0.06
						c0.01,0.058,0.026,0.116,0.042,0.174c0.009,0.036,0.021,0.067,0.029,0.099c0.004,0.011,0.008,0.02,0.014,0.034
						c0.018,0.061,0.038,0.123,0.062,0.185c0.015,0.042,0.029,0.082,0.046,0.125c0.027,0.065,0.058,0.132,0.089,0.198
						c0.015,0.034,0.032,0.072,0.049,0.105c0.048,0.097,0.1,0.192,0.154,0.284l0.001-0.001c0.114,0.189,0.243,0.369,0.383,0.536
						c0,0,0.006,0.008,0.009,0.012l0,0c0.094,0.11,0.189,0.216,0.295,0.315c0.148,0.141,0.473,0.368,0.697,0.296
						c0.813-0.254,1.427-0.868,2.26-1.103c0.77-0.218,0.738,0.781,1.527,0.898c4.811,0.707,9.481-1.707,10.814-2.533
						c2.727-1.694,3.766-4.514,3.724-7.504c-0.572,2.758-1.779,5.246-4.293,6.988c-1.317,0.917-2.843,1.308-4.43,1.069
						c-0.413-0.065-2.834-0.56-2.494-1.35c0.284-0.671,1.076-1.223,1.538-1.778c0.797-0.953,1.445-2.023,2.02-3.122
						c1.105-2.122,1.805-4.446,2.154-6.809c0.339-2.306,0.318-4.51-0.547-6.694c-0.038-0.097-0.085-0.192-0.127-0.293
						c-0.004-0.001-0.004-0.001-0.009-0.001c-0.028-0.003-0.059-0.001-0.081,0.022c-0.286,0.305-0.303,0.827-0.418,1.215
						c-0.1,0.325-0.211,0.652-0.333,0.98l0,0c-0.577,1.565-1.4,3.161-2.352,4.661l-0.017,0.027
						c-0.225,0.353-0.454,0.703-0.693,1.042c-0.023,0.037-0.049,0.073-0.073,0.111c-0.227,0.323-0.459,0.639-0.693,0.951
						c-0.036,0.043-0.071,0.087-0.106,0.132c-0.233,0.307-0.469,0.606-0.709,0.894c-0.03,0.035-0.059,0.069-0.087,0.106
						c-0.251,0.296-0.502,0.587-0.753,0.862c-1.798,1.974-4.051,3.463-6.041,5.224c-0.242,0.213-0.437,0.539-0.66,0.811
						c-0.092,0.059-0.177,0.123-0.255,0.192c-0.01,0.005-0.017,0.012-0.025,0.02c-0.023,0.019-0.04,0.04-0.063,0.058
						c-0.045,0.045-0.091,0.087-0.132,0.132c-0.012,0.017-0.027,0.031-0.042,0.047c-0.016,0.021-0.034,0.044-0.052,0.066
						c-0.031,0.038-0.062,0.079-0.09,0.121c-0.017,0.026-0.032,0.051-0.051,0.075c-0.011,0.021-0.022,0.042-0.034,0.063
						c-0.022,0.038-0.044,0.075-0.066,0.115c-0.015,0.034-0.033,0.068-0.047,0.102l0.002,0.003
						C162.424,40.061,162.415,40.078,162.408,40.095z M171.769,33.91c1.599-2.224,2.821-4.696,3.853-7.228
						c0.074-0.183,0.395-0.136,0.391,0.069c-0.041,1.56-0.451,3.068-1.053,4.506c-0.491,1.397-1.133,2.737-1.932,4.024
						c-0.924,1.481-2.028,3.324-3.755,3.947c-0.151,0.056-0.29-0.078-0.271-0.229C169.235,37.046,170.665,35.452,171.769,33.91z"/>
					<path style="fill:#B5C5CD;" d="M179.081,25.928c3.31,3.651,4.237,9.396,0.687,13.245c-0.072,0.082-0.152-0.196-0.121-0.261
						c2.489-4.25,2.187-8.781-0.594-12.835C179.026,26.037,179.007,25.845,179.081,25.928z"/>
				</g>
				<path style="fill:#EDE7CD;" d="M117.198,63.533c-1.319-1.869-6.969-0.338-7.052,2.035c-0.078,2.377,6.009,2.359,7.711,1.694
					C119.495,66.626,118.514,65.398,117.198,63.533z"/>
				<path style="opacity:0.5;fill:#EDE7CD;" d="M117.693,64.233c0.199,1.38-1.568,2.166-2.984,2.299
					c-1.112,0.105-2.35,0.139-3.163-0.745c-0.406-0.435-0.464-1.132-0.215-1.66c0.082-0.175,0.194-0.346,0.312-0.511
					c-0.859,0.505-1.469,1.184-1.498,1.953c-0.078,2.377,6.009,2.359,7.711,1.694C119.277,66.709,118.726,65.712,117.693,64.233z"/>
				<path style="fill:#EDE7CD;" d="M119.824,68.08c-1.32-1.866-7.279,0.23-7.363,2.604c-0.082,2.376,6.006,2.358,7.707,1.693
					C121.807,71.74,121.139,69.948,119.824,68.08z"/>
				<path style="opacity:0.5;fill:#EDE7CD;" d="M120.666,69.458c-0.005,0.126-0.028,0.248-0.074,0.373
					c-0.473,1.224-2.339,1.564-3.492,1.603c-1.141,0.036-2.813-0.01-3.488-1.106c-0.354-0.575-0.084-1.199,0.356-1.695
					c-0.869,0.579-1.481,1.303-1.508,2.051c-0.082,2.376,6.006,2.358,7.707,1.693C121.395,71.898,121.329,70.776,120.666,69.458z"/>
				<path style="fill:#EDE7CD;" d="M121.748,74.147c-0.672-1.75-5.841-1.29-6.387,0.58c-0.546,1.873,4.302,3.095,5.786,2.907
					C122.581,77.462,122.414,75.899,121.748,74.147z"/>
				<path style="opacity:0.5;fill:#EDE7CD;" d="M121.971,74.794c-0.155,1.745-2.961,1.665-4.489,0.984
					c-0.894-0.398-1.652-1.258-0.777-2.11c0.129-0.129,0.274-0.232,0.427-0.315c-0.883,0.277-1.587,0.746-1.771,1.375
					c-0.546,1.873,4.302,3.095,5.786,2.907C122.402,77.484,122.43,76.269,121.971,74.794z"/>
				<path style="fill:#EDE7CD;" d="M230.453,75.472c1.51,1.714,9.02,0.411,8.846-1.959c-0.174-2.369-3.886-5.405-5.505-4.558
					C232.234,69.764,228.946,73.756,230.453,75.472z"/>
				<path style="fill:#EDE7CD;" d="M235.808,80.78c1.392,1.577,7.714,0.958,7.556-1.225c-0.162-2.186-2.98-5.566-4.474-4.786
					C237.451,75.513,234.417,79.197,235.808,80.78z"/>
				<path style="fill:#EDE7CD;" d="M226.495,73.471c1.418,0.371,7.339-3.647,6.4-4.85c-0.941-1.197-4.386-0.515-4.946,0.514
					C227.407,70.123,225.077,73.095,226.495,73.471z"/>
				<path style="opacity:0.5;fill:#EDE7CD;" d="M239.3,73.513c-0.091-1.246-1.163-2.676-2.394-3.629
					c0.168,0.199,0.311,0.409,0.426,0.627c0.639,1.223,0.328,2.244-0.712,3.108c-1.374,1.14-3.37,2.381-5.256,2.184
					c-0.38-0.041-0.696-0.174-0.937-0.364c0.011,0.013,0.018,0.022,0.027,0.033C231.963,77.185,239.473,75.883,239.3,73.513z"/>
				<path style="opacity:0.5;fill:#EDE7CD;" d="M243.364,79.555c-0.082-1.103-0.841-2.511-1.765-3.534
					c0.237,0.547,0.341,1.18,0.328,1.762c-0.03,1.497-1.574,2.541-2.889,2.825c-0.938,0.203-2.947,0.639-3.504-0.464
					c-0.029-0.059-0.047-0.124-0.071-0.183c0.034,0.308,0.138,0.585,0.344,0.82C237.2,82.357,243.522,81.738,243.364,79.555z"/>
				<path style="opacity:0.5;fill:#EDE7CD;" d="M232.895,68.621c-0.441-0.562-1.431-0.707-2.418-0.599
					c0.026,0.003,0.05-0.001,0.078,0.005c1.253,0.167,1.021,1.259,0.45,2.098c-0.68,0.997-1.603,1.75-2.593,2.427
					c-0.523,0.357-1.115,0.747-1.782,0.668c-0.211-0.026-0.4-0.081-0.561-0.155c0.05,0.198,0.182,0.342,0.426,0.406
					C227.913,73.843,233.835,69.824,232.895,68.621z"/>
				<path style="fill:#EDE7CD;" d="M215.24,222.544c-0.592,2.206,4.642,7.744,6.521,6.291c1.879-1.455,2.355-6.225,0.755-7.109
					C220.98,220.87,215.836,220.338,215.24,222.544z"/>
				<path style="fill:#EDE7CD;" d="M222.516,221.726c-1.536-0.856-6.68-1.388-7.276,0.818c-0.25,0.93,0.538,2.451,1.673,3.793
					c-0.127-0.226-0.253-0.458-0.367-0.69c-0.356-0.725-0.828-1.578-0.694-2.418c0.258-1.625,1.971-1.471,3.128-0.853
					c2.332,1.254,4.471,4.436,2.285,6.672c0.182-0.03,0.351-0.097,0.497-0.212C223.64,227.38,224.116,222.61,222.516,221.726z"/>
				<path style="fill:#EDE7CD;" d="M219.096,218.116c-0.593,2.207,3.958,6.441,5.84,4.989c1.875-1.458,3.036-4.923,1.437-5.805
					C224.836,216.445,219.691,215.912,219.096,218.116z"/>
				<path style="fill:#EDE7CD;" d="M226.373,217.3c-1.537-0.855-6.682-1.388-7.277,0.816c-0.292,1.083,0.66,2.656,1.922,3.802
					c-0.646-0.828-1.162-1.827-1.065-2.781c0.173-1.728,2.259-2.038,3.608-1.504c2.062,0.813,2.803,2.674,1.666,4.62
					c-0.146,0.248-0.663,0.779-1.216,1.143c0.345-0.002,0.661-0.088,0.925-0.29C226.812,221.646,227.972,218.182,226.373,217.3z"/>
				<path style="fill:#EDE7CD;" d="M223.799,211.697c-0.242,1.949,4.14,5.011,5.566,3.552c1.429-1.465,2-4.555,0.534-5.113
					C228.49,209.592,224.043,209.749,223.799,211.697z"/>
				<path style="fill:#EDE7CD;" d="M229.899,210.135c-1.409-0.543-5.856-0.387-6.1,1.562c-0.039,0.306,0.04,0.642,0.199,0.979
					c-0.057-1.313,1.34-1.985,2.528-2.059c1.745-0.112,2.903,0.78,2.963,2.574c0.043,1.268-0.871,1.983-1.934,2.321
					c0.729,0.203,1.395,0.162,1.811-0.263C230.794,213.784,231.365,210.694,229.899,210.135z"/>
				<path style="fill:#EDE7CD;" d="M251.269,199.747c-1.939,0.311-4.21,6.229-2.41,7.19c1.803,0.961,5.485-0.204,5.613-1.769
					C254.601,203.66,253.21,199.439,251.269,199.747z"/>
				<path style="fill:#EDE7CD;" d="M249.824,201.173c1.009-0.898,1.895-0.364,2.238,0.867c0.454,1.632,0.204,4.112-1.039,5.217
					c1.654-0.159,3.361-1.034,3.449-2.089c0.129-1.509-1.262-5.73-3.203-5.422c-0.728,0.116-1.503,1.024-2.093,2.162
					C249.361,201.645,249.572,201.396,249.824,201.173z"/>
				<path style="fill:#EDE7CD;" d="M245.168,200.595c-1.938,0.312-3.657,5.372-1.855,6.335c1.805,0.963,4.932,0.65,5.061-0.913
					C248.502,204.509,247.109,200.288,245.168,200.595z"/>
				<path style="fill:#EDE7CD;" d="M248.374,206.017c0.128-1.508-1.265-5.729-3.206-5.422c-0.623,0.099-1.222,0.693-1.689,1.482
					c0.109-0.149,0.231-0.29,0.366-0.411c1.051-0.933,2.08,0.214,2.507,1.216c0.522,1.225,0.716,2.943-0.072,4.113
					c-0.134,0.196-0.282,0.351-0.437,0.475C247.143,207.435,248.294,206.952,248.374,206.017z"/>
				<path style="fill:#EDE7CD;" d="M238.863,201.734c-1.693,0.271-3.19,4.688-1.619,5.528c1.572,0.84,4.301,0.568,4.416-0.797
					C241.771,205.151,240.557,201.464,238.863,201.734z"/>
				<path style="fill:#EDE7CD;" d="M237.863,202.691c1.149-0.623,2.181,0.684,2.621,1.57c0.597,1.205,0.507,2.737-0.761,3.46
					c1.019-0.087,1.875-0.505,1.936-1.256c0.112-1.314-1.103-5-2.797-4.731c-0.551,0.086-1.08,0.615-1.489,1.314
					C237.526,202.91,237.688,202.788,237.863,202.691z"/>
				<path style="opacity:0.6;fill:#B5C5CD;" d="M79.872,97.876c1.75-2.56,3.517-5.063,5.467-7.472
					c3.626-4.491,7.872-8.372,11.873-12.503c0.07-0.075-0.171-0.063-0.221-0.018c-4.614,4.154-9.208,8.101-13.132,12.964
					c-3.667,4.539-6.866,9.386-8.917,14.866c-0.038,0.106,0.258,0.06,0.299-0.014C76.756,103.046,78.133,100.413,79.872,97.876z"/>
				<path style="opacity:0.6;fill:#B5C5CD;" d="M216.173,80.144c-1.528,1.054-3.457,1.994-5.116,2.817
					c-2.189,1.094-4.279,2.342-6.526,3.328c-4.437,1.946-8.912,3.99-13.563,5.389c-0.314,0.094-0.128,0.284,0.119,0.239
					c2.327-0.41,4.561-1.437,6.818-2.128c2.566-0.791,5.097-1.942,7.564-2.996c2.426-1.039,4.715-2.362,7.025-3.629
					c1.322-0.725,2.871-1.883,3.909-2.98C216.489,80.089,216.216,80.112,216.173,80.144z"/>
				<path style="opacity:0.6;fill:#B5C5CD;" d="M191.897,104.704c-1.117-1.922-2.337-3.626-3.948-5.165
					c-0.824-0.79-1.602-1.586-2.509-2.279c-0.012-0.009-2.381-1.582-2.438-1.295c0.022-0.11-0.202-0.047-0.243-0.02
					c-0.032,0.02-0.068,0.042-0.104,0.063c-0.024,0.015-0.069,0.065-0.035,0.094c3.217,2.741,6.283,5.419,8.982,8.694
					C191.662,104.87,191.959,104.808,191.897,104.704z"/>
				<path style="opacity:0.6;fill:#B5C5CD;" d="M126.754,101.827c-0.979-2.529-3.399-4.864-6.024-5.663
					c-2.251-0.683-5.267-1.327-7.341,0.169c-0.151,0.108,0.089,0.147,0.168,0.131c0.134-0.025,0.269-0.049,0.406-0.077
					c0.06-0.008,0.141-0.084,0.036-0.09c2.4,0.143,4.391,0.06,6.634,1.154c1.903,0.927,4.157,2.939,5.512,4.526
					C126.251,102.098,126.83,102.015,126.754,101.827z"/>
				<path style="opacity:0.6;fill:#B5C5CD;" d="M208.248,154.085c0.926-1.827,1.683-3.831,2.199-5.813
					c0.968-3.713,0.933-7.771,0.335-11.527c-0.634-3.999-3.243-7.519-5.765-10.544c-2.439-2.926-5.24-5.33-8.438-7.357
					c-0.044-0.029-0.269,0.013-0.212,0.084c0.834,1.046,1.906,1.924,2.909,2.819c1.471,1.311,2.692,2.83,4.007,4.288
					c2.747,3.046,5.001,6.989,5.833,11.008c0.766,3.699,0.146,7.138-0.232,10.812c-0.22,2.128-1.058,4.326-1.874,6.292
					c-0.691,1.663-1.784,3.147-2.317,4.865c-0.075,0.241,0.567,0.137,0.655-0.034C206.199,157.289,207.384,155.786,208.248,154.085z
					"/>
				<path style="opacity:0.6;fill:#B5C5CD;" d="M254.533,150.694c-0.128-2.578-1.128-5.477-2.282-7.781
					c-1.285-2.559-3.529-4.38-5.989-5.769c-5.509-3.111-11.51-3.009-17.587-3.213c-0.085-0.002-0.295,0.11-0.118,0.13
					c2.708,0.313,5.414,0.239,8.093,0.833c2.743,0.608,5.462,1.743,7.951,3.04c2.548,1.327,4.206,3.288,5.839,5.549
					c1.642,2.271,3.065,4.541,3.818,7.263C254.282,150.837,254.54,150.789,254.533,150.694z"/>
				<path style="opacity:0.6;fill:#B5C5CD;" d="M189.926,205.615c-2.248-1.504-4.458-3.088-6.584-4.754
					c-1.026-0.803-1.831-1.821-2.822-2.66c-1.194-1.013-2.413-1.986-3.447-3.163c-0.028-0.028-0.166-0.014-0.155,0.039
					c0.283,1.234,1.14,2.157,2.074,2.969c1.158,1.008,2.154,2.159,3.331,3.135c2.235,1.856,4.709,3.295,7.325,4.566
					C189.728,205.785,190.057,205.705,189.926,205.615z"/>
				<path style="opacity:0.6;fill:#B5C5CD;" d="M145.661,37.692c0.133-0.065-0.038-0.114-0.113-0.086
					c-1.805,0.675-3.514,1.111-5.221,2.071c-1.816,1.022-3.407,2.589-4.862,4.054c-3.031,3.059-4.883,6.829-6.633,10.708
					c-0.021,0.042,0.109,0.024,0.132-0.008c2.037-3.324,4.304-6.465,6.816-9.454c1.427-1.7,3.115-3.189,4.828-4.591
					C142.145,39.134,143.923,38.551,145.661,37.692z"/>
				<path style="opacity:0.6;fill:#B5C5CD;" d="M151.796,68.685c-7.964-1.334-17.029,1.869-21.946,8.332
					c-0.118,0.158,0.301,0.099,0.374,0.031c3.259-2.921,6.449-5.048,10.597-6.501c3.396-1.19,7.247-1.775,10.837-1.7
					C151.758,68.85,152.02,68.723,151.796,68.685z"/>
			</g>
		</g>
	</g>
	<path style="fill:#98B7CE;" d="M86.711,50c-2.999-0.049-5.757-0.012-8.218,0.128c0,0-15.697-0.622-22.496,12.064
		c0,0-14.743,33.393-18.219,42.993c-3.476,9.597-2.981,24.747,13.902,26.769l17.728,1.111C71.16,123.287,82.863,67.954,86.711,50z"
		/>
	<path style="opacity:0.5;fill:#98B7CE;" d="M52.897,88.442c8.506-0.067,17.006,0.265,25.489,0.855
		C81.67,73.667,84.98,58.066,86.711,50c-2.999-0.049-5.757-0.012-8.218,0.128c0,0-15.697-0.622-22.496,12.064
		c0,0-6.176,13.984-11.473,26.455C47.32,88.533,50.113,88.463,52.897,88.442z"/>
	<g>
		<path style="fill:#302F30;" d="M226.528,134.245l9.029,4.875c0,0,4.666,2.924,2.714,6.627c0,0-0.125,1.204-3.529,1.295
			c-3.398,0.09-12.073-5.242-12.073-5.242L226.528,134.245z"/>
		<g>
			<g>
				<path style="fill:#484747;" d="M213.758,128.98c1.643-5.504,10.01-4.73,10.024-4.73c3.584,0.317,6.292,4.669,8.323,9.294
					c2.345,5.332,0.599,16.238-3.802,15.223c-5.05-1.164-3.122-0.3-11.296-3.177C214.874,144.84,211.753,135.688,213.758,128.98z"/>
			</g>
			<g>
				<path style="fill:#353535;" d="M213.758,128.98c0.148-0.503,0.358-0.954,0.608-1.353c-0.087,2.578,0.384,5.146,1.874,7.153
					c1.856,2.502,4.567,3.805,7.2,4.684c1.585,0.532,3.141,1.196,4.759,1.583c1.289,0.311,3.04,0.724,4.244-0.166
					c0.265-0.201,0.497-0.431,0.692-0.681c-0.171,4.695-1.92,9.242-4.832,8.567c-5.05-1.164-3.122-0.3-11.296-3.177
					C214.874,144.84,211.753,135.688,213.758,128.98z"/>
			</g>
		</g>
	</g>
	<path style="fill:#B0B316;" d="M289.974,169.232c0,0,4.655,7.369,5.042,15.709c0,0,0,2.525,1.745,2.135
		c1.748-0.39,1.164-5.041,6.79-5.818c5.623-0.777,57.604,0,57.604,0s3.683-0.003,4.264,1.356c0.585,1.358,3.299,4.462,3.104,2.135
		c-0.195-2.327-3.878-12.218-2.327-16.488c0,0-1.745-1.746-2.909,1.553c-1.164,3.299,1.553,4.46-5.818,5.818
		c-7.372,1.358-51.01,0-51.01,0s-7.564,0.387-9.504-1.551C295.018,172.141,288.229,166.515,289.974,169.232z"/>
</g>
</svg>
