<svg xmlns="http://www.w3.org/2000/svg" width="842" height="546" viewBox="0 0 842 546">
<g>
<path d="M 298.95 521.86 C281.87,524.47 269.50,525.09 267.27,523.46 C265.81,522.39 266.11,521.98 269.80,520.10 C272.33,518.81 274.00,517.26 274.00,516.20 C274.00,515.24 274.68,513.48 275.50,512.30 C276.85,510.38 276.84,509.98 275.40,508.55 C274.17,507.32 274.07,506.62 274.95,505.56 C275.74,504.61 275.77,503.97 275.05,503.53 C273.15,502.36 273.95,501.00 276.55,501.00 C278.33,501.00 279.60,500.10 280.80,498.01 C281.73,496.36 283.26,495.01 284.19,495.01 C285.34,495.00 286.33,493.48 287.29,490.25 C288.65,485.68 288.73,485.61 289.46,488.25 C290.04,490.37 290.82,491.00 292.89,491.00 C294.35,491.00 296.58,490.28 297.84,489.40 C299.10,488.52 301.00,488.03 302.07,488.31 C303.31,488.63 304.53,488.08 305.44,486.78 C306.45,485.34 307.54,484.92 309.19,485.33 C312.18,486.08 313.10,485.37 315.34,480.53 C316.69,477.61 316.86,476.45 315.96,476.15 C315.30,475.93 313.86,474.86 312.76,473.76 C311.19,472.19 309.98,471.91 306.89,472.40 C304.74,472.74 303.09,472.68 303.21,472.26 C303.74,470.40 300.76,467.00 298.61,467.00 C296.37,467.00 291.58,465.71 287.50,464.00 C286.40,463.54 283.25,462.88 280.50,462.54 C275.35,461.91 267.78,460.62 262.50,459.47 C239.67,454.51 210.63,438.97 195.45,423.60 C191.15,419.25 178.00,401.82 178.00,400.47 C178.00,400.03 176.67,397.60 175.03,395.05 C171.69,389.85 168.55,378.99 169.51,375.97 C170.23,373.69 176.00,370.24 176.00,372.10 C176.00,372.92 176.43,372.89 177.50,372.00 C178.73,370.98 179.00,371.05 179.00,372.38 C179.00,373.32 179.82,374.00 180.95,374.00 C183.92,374.00 188.00,371.85 188.00,370.29 C188.00,369.53 188.70,367.54 189.56,365.88 C190.71,363.65 191.45,363.13 192.36,363.89 C193.23,364.61 194.45,364.48 196.42,363.46 C197.96,362.66 199.71,362.00 200.30,362.00 C200.89,362.00 202.41,361.02 203.69,359.83 C204.96,358.63 206.00,358.14 206.00,358.73 C206.00,359.33 206.90,359.58 208.00,359.29 C209.11,359.00 210.00,357.93 210.00,356.88 C210.00,355.85 210.68,355.00 211.50,355.00 C212.32,355.00 213.00,355.45 213.00,356.00 C213.00,356.55 213.54,356.89 214.21,356.75 C214.87,356.61 215.54,357.40 215.69,358.50 C217.25,370.17 218.24,374.99 220.95,384.00 C231.36,418.58 249.19,442.13 274.50,454.73 C282.09,458.51 288.17,460.42 299.50,462.58 C304.45,463.52 308.84,464.78 309.25,465.39 C309.79,466.20 310.21,466.18 310.75,465.35 C311.16,464.72 316.23,463.49 322.00,462.63 C341.30,459.75 353.82,455.12 367.90,445.65 C372.52,442.54 376.57,440.03 376.90,440.07 C377.23,440.12 381.55,445.30 386.50,451.60 C395.53,463.09 402.11,469.94 413.75,479.93 C417.19,482.88 420.00,485.68 420.00,486.15 C420.00,487.22 417.28,487.27 416.83,486.21 C416.65,485.77 412.79,481.89 408.25,477.58 L 400.00 469.73 L 396.25 472.38 C394.19,473.83 388.90,477.91 384.50,481.45 C367.65,495.01 340.59,510.23 322.18,516.49 C316.69,518.35 306.49,520.71 298.95,521.86 ZM 780.43 398.43 C778.69,400.17 777.00,400.49 777.00,399.09 C777.00,398.59 778.11,393.98 779.47,388.84 C783.92,372.03 785.32,360.79 785.23,342.50 C785.19,333.02 784.52,321.52 783.72,316.50 C782.21,306.98 782.36,305.00 784.61,305.00 C785.37,305.00 786.00,304.33 786.00,303.50 C786.00,302.67 786.34,302.07 786.75,302.16 C787.16,302.25 788.85,301.77 790.50,301.09 C797.42,298.23 803.95,297.98 805.37,300.50 C805.99,301.60 806.80,302.73 807.16,303.00 C807.52,303.28 808.13,305.30 808.50,307.50 C808.88,309.70 809.68,312.95 810.29,314.73 C812.50,321.23 807.56,346.67 801.30,361.00 C797.34,370.07 789.99,383.21 787.04,386.50 C784.51,389.32 779.62,397.36 780.92,396.55 C782.51,395.57 782.23,396.62 780.43,398.43 ZM 444.29 419.00 C444.58,420.10 444.46,421.00 444.03,421.00 C442.35,421.00 423.24,395.38 421.46,390.77 C421.17,390.00 421.96,387.83 423.22,385.94 C424.47,384.05 426.81,379.71 428.41,376.29 C430.02,372.88 431.65,370.29 432.06,370.53 C432.46,370.78 432.97,369.39 433.20,367.43 C433.43,365.48 433.23,363.64 432.76,363.35 C431.47,362.55 433.95,360.04 435.46,360.62 C436.18,360.90 438.29,360.49 440.15,359.71 C442.67,358.66 443.97,358.58 445.29,359.40 C446.63,360.23 447.26,360.17 447.90,359.14 C448.58,358.05 448.91,358.04 449.54,359.06 C450.12,360.00 450.55,359.75 451.13,358.17 C451.67,356.71 452.78,356.00 454.52,356.00 C455.94,356.00 458.40,355.33 459.99,354.51 C462.58,353.16 463.04,353.18 464.52,354.66 C466.30,356.44 466.18,362.69 464.17,372.50 C462.28,381.74 455.67,396.96 447.78,410.25 C445.27,414.48 443.96,417.75 444.29,419.00 ZM 265.75 132.07 C262.31,132.11 257.14,132.48 254.25,132.89 C251.36,133.30 248.98,133.38 248.95,133.07 C248.69,130.18 249.20,105.47 249.53,105.14 C249.76,104.91 250.65,105.30 251.51,106.01 C252.80,107.08 253.28,107.00 254.38,105.50 C255.21,104.36 255.94,104.09 256.35,104.76 C257.30,106.29 256.00,109.09 254.65,108.42 C254.02,108.11 254.37,108.56 255.44,109.43 C256.51,110.29 257.10,111.00 256.75,111.00 C256.40,111.00 259.69,114.57 264.06,118.94 C269.85,124.72 272.00,127.57 272.00,129.44 C272.00,131.91 271.77,132.00 265.75,132.07 ZM 189.73 367.92 C189.30,369.58 189.43,369.97 190.17,369.23 C190.75,368.65 191.03,367.58 190.79,366.86 C190.54,366.11 190.08,366.57 189.73,367.92 Z" fill="rgb(60,130,148)"/>
<path d="M 215.43 357.60 C215.14,357.01 214.67,356.65 214.21,356.75 C213.54,356.89 213.00,356.55 213.00,356.00 C213.00,355.45 212.32,355.00 211.50,355.00 C210.68,355.00 210.00,355.85 210.00,356.88 C210.00,357.93 209.11,359.00 208.00,359.29 C206.90,359.58 206.00,359.33 206.00,358.73 C206.00,358.14 204.96,358.63 203.69,359.83 C202.41,361.02 200.89,362.00 200.30,362.00 C199.71,362.00 197.96,362.66 196.42,363.46 C194.45,364.48 193.23,364.61 192.36,363.89 C191.45,363.13 190.71,363.65 189.56,365.88 C188.70,367.54 188.00,369.53 188.00,370.29 C188.00,371.85 183.92,374.00 180.95,374.00 C179.82,374.00 179.00,373.32 179.00,372.38 C179.00,371.05 178.73,370.98 177.50,372.00 C176.43,372.89 176.00,372.92 176.00,372.10 C176.00,370.24 170.23,373.69 169.51,375.97 C168.70,378.52 170.80,386.61 173.48,392.22 C172.29,389.76 171.14,386.79 170.55,384.53 C169.70,381.26 168.34,378.21 167.53,377.76 C164.35,375.98 161.38,366.50 159.63,352.50 C158.30,341.89 159.10,310.73 160.88,304.00 C161.53,301.52 163.39,293.77 165.00,286.77 C166.62,279.77 168.85,272.25 169.97,270.06 C171.09,267.87 172.00,265.38 172.00,264.53 C172.00,263.67 172.41,262.19 172.90,261.24 C173.40,260.28 174.62,256.90 175.62,253.71 C177.08,249.06 177.93,247.81 179.97,247.33 C181.36,246.99 182.95,246.46 183.50,246.13 C184.05,245.80 185.18,245.47 186.00,245.40 C188.36,245.20 194.00,242.65 194.00,241.78 C194.00,241.35 193.21,240.97 192.25,240.93 C190.76,240.87 190.80,240.74 192.50,240.05 C193.60,239.61 195.12,239.58 195.88,239.99 C196.65,240.40 199.46,239.93 202.13,238.95 C206.30,237.43 207.00,237.39 207.00,238.65 C207.00,239.83 207.60,239.71 209.90,238.07 C213.07,235.81 215.00,235.42 215.00,237.03 C215.00,237.61 216.27,237.39 217.97,236.52 C219.60,235.67 221.29,235.04 221.72,235.11 C223.81,235.45 225.00,234.86 225.00,233.46 C225.00,231.57 228.72,224.13 230.62,222.24 C231.38,221.48 232.00,220.21 232.00,219.43 C232.00,218.64 232.45,218.00 233.00,218.00 C233.09,218.00 233.18,217.99 233.26,217.99 C233.45,217.98 233.59,217.97 233.69,218.03 C234.12,218.31 233.62,220.01 230.96,229.11 C230.68,230.05 230.38,231.08 230.06,232.19 C217.34,275.68 213.25,302.85 214.36,336.50 C214.66,345.74 215.11,354.54 215.43,357.60 ZM 457.80 390.81 C460.89,383.83 463.18,377.34 464.17,372.50 C466.18,362.69 466.30,356.44 464.52,354.66 C463.04,353.18 462.58,353.16 459.99,354.51 C458.40,355.33 455.94,356.00 454.52,356.00 C452.78,356.00 451.67,356.71 451.13,358.17 C450.55,359.75 450.12,360.00 449.54,359.06 C448.91,358.04 448.58,358.05 447.90,359.14 C447.26,360.17 446.63,360.23 445.29,359.40 C443.97,358.58 442.67,358.66 440.15,359.71 C438.29,360.49 436.18,360.90 435.46,360.62 C433.95,360.04 431.47,362.55 432.76,363.35 C433.23,363.64 433.43,365.48 433.20,367.43 C432.97,369.39 432.46,370.78 432.06,370.53 C431.65,370.29 430.02,372.88 428.41,376.29 C427.01,379.28 425.04,382.98 423.73,385.13 C426.37,380.72 429.99,373.22 431.00,370.00 C431.44,368.62 432.10,366.74 432.48,365.81 C433.12,364.24 430.08,364.17 387.49,364.72 C359.73,365.09 341.56,364.95 341.16,364.39 C340.80,363.88 339.33,362.95 337.91,362.32 C335.74,361.37 335.39,360.68 335.77,358.09 C336.13,355.66 335.86,355.00 334.51,355.00 C333.39,355.00 332.99,354.48 333.36,353.50 C333.68,352.67 333.52,352.00 333.00,352.00 C332.48,352.00 332.32,351.33 332.64,350.50 C333.29,348.81 336.56,348.47 337.50,350.00 C337.84,350.55 338.99,351.00 340.06,351.00 C341.13,351.00 342.00,351.65 342.00,352.44 C342.00,353.23 342.52,354.20 343.15,354.60 C343.82,355.01 344.04,354.87 343.67,354.27 C343.31,353.70 343.90,353.00 344.97,352.72 C346.34,352.36 346.80,351.56 346.51,350.05 C346.27,348.82 346.69,347.67 347.48,347.37 C348.25,347.07 348.63,346.20 348.33,345.42 C348.00,344.56 348.42,344.00 349.39,344.00 C350.28,344.00 351.00,343.55 351.00,343.00 C351.00,342.45 350.52,342.00 349.94,342.00 C349.36,342.00 349.16,341.55 349.50,341.00 C349.84,340.45 353.15,340.00 356.86,340.00 C360.57,340.00 364.03,339.58 364.55,339.07 C365.66,337.99 421.84,336.00 451.17,336.00 L 471.28 336.00 L 470.71 346.75 C470.10,358.22 466.95,371.45 463.15,378.49 C461.97,380.68 461.00,382.83 461.00,383.26 C461.00,383.81 459.67,386.87 457.80,390.81 ZM 265.75 132.07 C271.77,132.00 272.00,131.91 272.00,129.44 C272.00,127.57 269.85,124.72 264.06,118.94 C259.69,114.57 256.40,111.00 256.75,111.00 C257.10,111.00 256.51,110.29 255.44,109.43 C254.37,108.56 254.02,108.11 254.65,108.42 C256.00,109.09 257.30,106.29 256.35,104.76 C255.94,104.09 255.21,104.36 254.38,105.50 C253.28,107.00 252.80,107.08 251.51,106.01 C250.65,105.30 249.76,104.91 249.53,105.14 C249.20,105.46 248.70,129.93 248.95,133.03 C248.54,132.92 248.26,132.77 248.11,132.57 C247.64,131.98 246.99,125.20 246.65,117.50 C246.31,109.80 245.35,100.12 244.51,96.00 C242.67,86.99 241.86,81.00 242.46,81.00 C242.71,81.00 243.62,82.46 244.49,84.25 C247.51,90.48 258.18,96.36 271.06,98.90 C296.86,104.00 301.57,105.26 300.60,106.84 C300.04,107.74 303.95,112.14 310.54,118.05 C312.72,120.00 316.79,124.05 319.59,127.05 C322.40,130.05 326.16,133.74 327.95,135.25 C329.74,136.76 330.60,138.04 329.85,138.10 C329.11,138.15 329.62,138.56 331.00,139.00 C333.12,139.68 332.89,139.80 329.50,139.76 C327.30,139.74 320.60,138.46 314.60,136.90 C308.61,135.35 299.51,133.61 294.39,133.04 C283.90,131.87 262.53,131.78 254.48,132.86 C257.41,132.46 262.40,132.11 265.75,132.07 ZM 810.40 315.09 C810.36,314.96 810.33,314.84 810.29,314.73 C809.68,312.95 808.88,309.70 808.50,307.50 C808.13,305.30 807.52,303.28 807.16,303.00 C806.80,302.73 805.99,301.60 805.37,300.50 C803.95,297.98 797.42,298.23 790.50,301.09 C788.85,301.77 787.16,302.25 786.75,302.16 C786.34,302.07 786.00,302.67 786.00,303.50 C786.00,304.33 785.37,305.00 784.61,305.00 C782.36,305.00 782.21,306.98 783.72,316.50 C783.80,316.99 783.88,317.55 783.95,318.16 C781.16,299.76 772.64,274.10 762.91,254.83 L 759.91 248.87 L 762.94 251.11 C766.30,253.60 773.67,254.51 775.85,252.71 C778.20,250.76 781.07,250.92 785.35,253.22 C790.69,256.10 795.19,260.85 796.65,265.12 C797.29,266.98 799.40,272.33 801.34,277.00 C806.78,290.09 809.84,303.08 810.40,315.09 ZM 334.38 357.24 C336.09,359.96 333.92,361.20 331.25,359.02 C330.01,358.01 329.00,356.69 329.00,356.09 C329.00,355.49 328.66,355.05 328.25,355.12 C326.06,355.46 323.95,354.88 324.46,354.07 C325.30,352.71 333.09,355.20 334.38,357.24 ZM 189.73 367.92 C190.08,366.57 190.54,366.11 190.79,366.86 C191.03,367.58 190.75,368.65 190.17,369.23 C189.43,369.97 189.30,369.58 189.73,367.92 ZM 802.02 359.29 C804.46,353.28 806.66,345.69 808.25,338.42 C806.66,346.72 804.94,352.35 802.02,359.29 ZM 231.05 409.68 C227.14,401.93 223.78,393.37 220.95,384.00 C220.14,381.29 219.48,378.97 218.91,376.72 C221.20,385.44 224.91,396.28 228.51,404.32 C229.33,406.15 230.18,407.93 231.05,409.68 ZM 784.77 358.89 C784.05,368.89 782.44,377.63 779.47,388.84 C782.36,377.91 784.01,368.89 784.77,358.89 ZM 447.78 410.25 C446.42,412.54 445.41,414.56 444.83,416.12 C445.41,414.56 446.42,412.54 447.78,410.25 C447.89,410.07 448.00,409.88 448.11,409.69 C448.00,409.89 447.89,410.07 447.78,410.25 Z" fill="rgb(67,156,135)"/>
<path d="M 298.95 521.86 C306.49,520.71 316.69,518.35 322.18,516.49 C340.59,510.23 367.65,495.01 384.50,481.45 C388.90,477.91 394.19,473.83 396.25,472.38 L 400.00 469.73 L 408.25 477.58 C412.79,481.89 416.65,485.77 416.83,486.21 C417.16,486.99 418.71,487.17 419.51,486.79 L 418.00 488.02 C412.48,492.51 400.05,501.02 392.50,505.49 C366.89,520.62 341.06,529.95 310.51,535.11 C294.20,537.86 262.33,538.55 249.00,536.43 C200.69,528.77 156.44,502.52 128.33,464.88 C120.21,454.00 112.45,440.48 108.60,430.50 C107.12,426.65 105.28,421.92 104.52,420.00 C99.93,408.42 98.26,394.59 101.12,391.75 C103.47,389.40 108.03,386.70 108.63,387.30 C108.95,387.62 110.27,387.47 111.57,386.97 C113.02,386.42 114.16,386.45 114.52,387.04 C115.37,388.40 156.57,388.30 159.14,386.92 C160.26,386.33 160.92,385.23 160.62,384.46 C160.33,383.69 160.52,382.80 161.04,382.47 C161.57,382.15 162.00,382.61 162.00,383.50 C162.00,384.39 162.45,384.84 163.00,384.50 C164.52,383.56 164.19,374.53 162.39,367.64 C161.35,363.69 160.55,359.62 159.99,355.21 C161.78,367.71 164.56,376.09 167.53,377.76 C168.34,378.21 169.70,381.26 170.55,384.53 C171.14,386.79 172.29,389.76 173.48,392.22 C173.98,393.27 174.51,394.23 175.03,395.05 C176.67,397.60 178.00,400.03 178.00,400.47 C178.00,401.82 191.15,419.25 195.45,423.60 C210.63,438.97 239.67,454.51 262.50,459.47 C267.78,460.62 275.35,461.91 280.50,462.54 C283.25,462.88 286.40,463.54 287.50,464.00 C291.58,465.71 296.37,467.00 298.61,467.00 C300.76,467.00 303.74,470.40 303.21,472.26 C303.09,472.68 304.74,472.74 306.89,472.40 C309.98,471.91 311.19,472.19 312.76,473.76 C313.86,474.86 315.30,475.93 315.96,476.15 C316.86,476.45 316.69,477.61 315.34,480.53 C313.10,485.37 312.18,486.08 309.19,485.33 C307.54,484.92 306.45,485.34 305.44,486.78 C304.53,488.08 303.31,488.63 302.07,488.31 C301.00,488.03 299.10,488.52 297.84,489.40 C296.58,490.28 294.35,491.00 292.89,491.00 C290.82,491.00 290.04,490.37 289.46,488.25 C288.73,485.61 288.65,485.68 287.29,490.25 C286.33,493.48 285.34,495.00 284.19,495.01 C283.26,495.01 281.73,496.36 280.80,498.01 C279.60,500.10 278.33,501.00 276.55,501.00 C273.95,501.00 273.15,502.36 275.05,503.53 C275.77,503.97 275.74,504.61 274.95,505.56 C274.07,506.62 274.17,507.32 275.40,508.55 C276.84,509.98 276.85,510.38 275.50,512.30 C274.68,513.48 274.00,515.24 274.00,516.20 C274.00,517.26 272.33,518.81 269.80,520.10 C266.11,521.98 265.81,522.39 267.27,523.46 C269.50,525.09 281.87,524.47 298.95,521.86 ZM 444.29 419.00 C444.17,418.53 444.27,417.78 444.59,416.80 C444.66,416.58 444.74,416.35 444.83,416.12 C445.41,414.56 446.42,412.54 447.78,410.25 C447.89,410.07 448.00,409.89 448.11,409.69 L 448.11 409.69 C451.74,403.52 455.08,396.97 457.80,390.81 C459.67,386.87 461.00,383.81 461.00,383.26 C461.00,382.83 461.97,380.68 463.15,378.49 C466.78,371.76 469.82,359.40 470.61,348.31 C470.17,354.64 469.10,361.24 467.64,366.50 C465.26,375.07 464.51,384.00 466.16,384.00 C466.59,384.00 466.70,384.61 466.41,385.36 C465.77,387.05 474.33,388.40 479.51,387.43 C482.44,386.88 483.04,386.29 483.59,383.39 C483.94,381.53 484.52,380.00 484.88,380.00 C486.42,380.00 489.17,386.88 488.49,389.02 C488.10,390.25 487.65,393.43 487.49,396.08 C487.16,401.45 480.48,415.19 471.11,429.75 C468.19,434.29 465.23,438.00 464.52,438.00 C463.81,438.00 459.02,434.18 453.87,429.51 C448.71,424.85 444.22,421.02 443.87,421.01 C443.14,421.00 438.56,415.34 433.73,408.87 C438.61,415.35 443.24,421.00 444.03,421.00 C444.46,421.00 444.58,420.10 444.29,419.00 ZM 780.43 398.43 C782.23,396.62 782.51,395.57 780.92,396.55 C779.62,397.36 784.51,389.32 787.04,386.50 C789.99,383.21 797.34,370.07 801.30,361.00 C801.54,360.45 801.78,359.88 802.02,359.29 C804.94,352.35 806.66,346.72 808.25,338.42 C809.87,331.00 810.86,323.91 810.83,319.14 C811.93,329.24 813.20,330.17 819.45,330.17 C822.05,330.17 824.39,329.94 824.67,329.66 C824.94,329.39 826.50,329.63 828.12,330.19 C830.79,331.12 831.05,331.61 830.91,335.36 C830.69,341.09 828.81,347.37 824.62,356.45 C816.21,374.65 801.88,389.03 784.11,397.10 C782.48,397.84 780.95,398.52 779.76,399.03 C779.98,398.86 780.20,398.65 780.43,398.43 ZM 324.81 462.19 C323.89,462.34 322.95,462.49 322.00,462.63 C316.23,463.49 311.16,464.72 310.75,465.35 C310.21,466.18 309.79,466.20 309.25,465.39 C308.84,464.78 304.45,463.52 299.50,462.58 C297.81,462.25 296.23,461.94 294.75,461.62 C299.36,462.29 304.67,462.49 312.00,462.49 C317.86,462.48 321.68,462.44 324.81,462.19 ZM 413.11 479.38 C401.87,469.68 395.36,462.88 386.50,451.60 C384.11,448.57 381.87,445.79 380.16,443.72 C381.98,445.91 384.41,448.91 387.00,452.20 C394.53,461.76 400.39,467.91 413.11,479.38 ZM 280.57 457.47 C278.57,456.67 276.59,455.77 274.50,454.73 C269.05,452.02 263.94,448.79 259.18,445.06 C264.42,449.14 270.10,452.62 276.23,455.51 C277.76,456.24 279.20,456.89 280.57,457.47 ZM 419.91 486.47 C419.97,486.37 420.00,486.27 420.00,486.15 C420.00,485.86 418.94,484.70 417.32,483.16 L 420.50 485.98 ZM 159.08 344.03 C158.85,338.68 158.87,332.76 159.10,326.00 C159.12,325.28 159.15,324.55 159.18,323.83 C158.94,330.70 158.89,338.07 159.08,344.03 ZM 339.37 459.05 C343.06,457.95 346.28,456.87 349.25,455.71 C346.09,456.98 342.83,458.08 339.37,459.05 ZM 777.56 399.94 C777.45,399.98 777.39,400.00 777.36,400.00 C777.17,400.00 777.06,399.85 777.05,399.45 C777.13,399.72 777.30,399.89 777.56,399.94 ZM 777.40 397.07 C777.77,395.38 778.43,392.77 779.47,388.84 C778.61,392.10 777.84,395.15 777.40,397.07 ZM 801.34 277.00 C799.40,272.34 797.30,267.00 796.66,265.14 C797.30,267.00 799.40,272.34 801.34,277.00 C801.99,278.55 802.60,280.09 803.17,281.63 C802.59,280.09 801.98,278.55 801.34,277.00 ZM 810.40 315.09 C810.39,314.87 810.38,314.66 810.37,314.44 L 810.39 314.72 C810.41,314.89 810.42,315.07 810.44,315.24 C810.43,315.19 810.41,315.14 810.40,315.09 Z" fill="rgb(65,146,168)"/>
<path d="M 482.39 410.08 C485.45,403.87 487.32,398.86 487.49,396.08 C487.65,393.43 488.10,390.25 488.49,389.02 C489.17,386.88 486.42,380.00 484.88,380.00 C484.52,380.00 483.94,381.53 483.59,383.39 C483.04,386.29 482.44,386.88 479.51,387.43 C474.33,388.40 465.77,387.05 466.41,385.36 C466.70,384.61 466.59,384.00 466.16,384.00 C464.51,384.00 465.26,375.07 467.64,366.50 C469.10,361.24 470.17,354.64 470.61,348.31 L 470.61 348.31 C470.65,347.79 470.68,347.27 470.71,346.75 L 471.28 336.00 L 451.17 336.00 C421.84,336.00 365.66,337.99 364.55,339.07 C364.03,339.58 360.57,340.00 356.86,340.00 C353.15,340.00 349.84,340.45 349.50,341.00 C349.16,341.55 349.36,342.00 349.94,342.00 C350.52,342.00 351.00,342.45 351.00,343.00 C351.00,343.55 350.28,344.00 349.39,344.00 C348.42,344.00 348.00,344.56 348.33,345.42 C348.63,346.20 348.25,347.07 347.48,347.37 C346.69,347.67 346.27,348.82 346.51,350.05 C346.80,351.56 346.34,352.36 344.97,352.72 C343.90,353.00 343.31,353.70 343.67,354.27 C344.04,354.87 343.82,355.01 343.15,354.60 C342.52,354.20 342.00,353.23 342.00,352.44 C342.00,351.65 341.13,351.00 340.06,351.00 C338.99,351.00 337.84,350.55 337.50,350.00 C336.56,348.47 333.29,348.81 332.64,350.50 C332.32,351.33 332.48,352.00 333.00,352.00 C333.52,352.00 333.68,352.67 333.36,353.50 C332.99,354.48 333.39,355.00 334.51,355.00 C335.86,355.00 336.13,355.66 335.77,358.09 C335.39,360.68 335.74,361.37 337.91,362.32 C338.54,362.60 339.17,362.93 339.72,363.27 C338.75,362.81 337.33,362.34 335.75,361.97 C319.54,358.16 304.31,346.59 295.29,331.23 C293.35,327.91 284.00,304.96 284.00,303.50 C284.00,303.33 334.47,303.16 396.15,303.12 L 508.30 303.03 L 507.72 315.77 C506.25,348.12 497.48,380.58 482.39,410.08 ZM 159.08 344.03 C159.18,347.44 159.36,350.38 159.63,352.50 C159.74,353.42 159.87,354.33 159.99,355.21 C160.55,359.62 161.35,363.69 162.39,367.64 C164.19,374.53 164.52,383.56 163.00,384.50 C162.45,384.84 162.00,384.39 162.00,383.50 C162.00,382.61 161.57,382.15 161.04,382.47 C160.52,382.80 160.33,383.69 160.62,384.46 C160.92,385.23 160.26,386.33 159.14,386.92 C156.57,388.30 115.37,388.40 114.52,387.04 C114.16,386.45 113.02,386.42 111.57,386.97 C110.27,387.47 108.95,387.62 108.63,387.30 C108.03,386.70 103.47,389.40 101.12,391.75 C98.26,394.59 99.93,408.42 104.52,420.00 C104.99,421.18 105.86,423.43 106.81,425.87 C105.99,423.77 105.30,422.03 105.01,421.31 C101.82,413.62 98.78,402.89 96.84,392.50 C93.65,375.39 93.65,345.19 96.84,326.56 C100.53,304.99 104.02,292.50 111.80,273.00 C121.67,248.27 127.15,237.45 124.37,248.17 C123.61,251.10 123.13,255.43 123.31,257.80 C123.49,260.17 123.27,262.34 122.82,262.61 C122.37,262.89 122.01,263.88 122.01,264.81 C122.02,265.98 122.42,265.73 123.29,264.00 C124.55,261.50 124.57,261.50 141.36,261.20 C152.83,260.99 158.61,261.26 159.54,262.03 C162.81,264.75 168.52,259.27 173.66,248.47 C176.20,243.12 176.53,242.79 176.82,245.25 C177.10,247.69 177.44,247.93 179.82,247.36 C177.89,247.88 177.05,249.17 175.62,253.71 C174.62,256.90 173.40,260.28 172.90,261.24 C172.41,262.19 172.00,263.67 172.00,264.53 C172.00,265.38 171.09,267.87 169.97,270.06 C168.85,272.25 166.62,279.77 165.00,286.77 C163.39,293.77 161.53,301.52 160.88,304.00 C160.08,307.03 159.48,315.01 159.18,323.83 L 159.18 323.83 C159.15,324.55 159.12,325.28 159.10,326.00 C158.87,332.76 158.85,338.68 159.08,344.03 ZM 786.71 254.01 C790.67,256.38 793.36,259.19 798.82,266.36 C801.20,269.48 803.47,271.83 803.87,271.58 C804.27,271.33 805.17,271.49 805.87,271.92 C806.58,272.36 808.82,272.14 810.86,271.44 C812.90,270.74 816.19,270.38 818.18,270.65 C822.60,271.24 823.41,270.14 822.08,265.32 C819.41,255.66 824.73,264.87 828.52,276.46 C832.90,289.88 834.25,300.10 833.74,315.98 C833.22,332.25 831.15,341.97 825.43,354.67 C829.05,346.54 830.70,340.71 830.91,335.36 C831.05,331.61 830.79,331.12 828.12,330.19 C826.50,329.63 824.94,329.39 824.67,329.66 C824.39,329.94 822.05,330.17 819.45,330.17 C813.20,330.17 811.93,329.24 810.83,319.14 C810.81,317.56 810.69,316.24 810.44,315.24 C810.42,315.07 810.41,314.89 810.39,314.72 L 810.37 314.44 C809.81,304.04 807.38,292.91 803.17,281.63 L 803.17 281.63 C802.59,280.09 801.99,278.55 801.34,277.00 C799.40,272.34 797.30,267.00 796.66,265.14 L 796.66 265.13 L 796.65 265.12 C795.32,261.22 791.44,256.92 786.71,254.01 ZM 363.96 156.57 L 364.02 156.62 C364.59,157.17 364.99,157.57 364.92,157.67 C364.77,157.91 361.87,156.42 351.93,151.31 L 351.50 151.09 C340.49,145.43 330.14,141.19 319.81,138.15 C324.07,139.09 327.93,139.75 329.50,139.76 C332.89,139.80 333.12,139.68 331.00,139.00 C329.62,138.56 329.11,138.15 329.85,138.10 C330.60,138.04 329.74,136.76 327.95,135.25 C326.16,133.74 322.40,130.05 319.59,127.05 C316.79,124.05 312.72,120.00 310.54,118.05 C303.95,112.14 300.04,107.74 300.60,106.84 C301.57,105.26 296.86,104.00 271.06,98.90 C258.18,96.36 247.51,90.48 244.49,84.25 C243.62,82.46 242.71,81.00 242.46,81.00 C242.06,81.00 242.28,83.61 243.01,87.98 C242.77,86.60 242.59,85.42 242.49,84.65 C242.22,82.53 241.76,80.42 241.48,79.97 C241.20,79.51 240.59,77.12 240.13,74.66 C239.30,70.22 239.31,70.18 242.40,69.58 C244.10,69.24 254.50,68.77 265.50,68.52 C283.43,68.11 284.93,68.19 279.94,69.35 C270.84,71.47 270.09,72.52 275.61,75.49 C277.59,76.56 279.64,78.35 280.16,79.46 C282.59,84.71 290.18,95.97 291.30,95.99 C291.73,95.99 293.18,97.08 294.50,98.41 C295.83,99.74 298.28,101.12 299.96,101.49 C301.63,101.86 303.00,102.79 303.00,103.56 C303.00,104.33 304.24,105.73 305.75,106.67 C309.32,108.90 312.92,113.08 312.96,115.05 C313.01,117.10 314.99,119.00 317.08,119.00 C318.01,119.00 319.56,120.24 320.52,121.75 C321.48,123.26 323.59,125.57 325.21,126.88 C327.46,128.71 328.01,129.81 327.56,131.62 C326.93,134.12 329.83,138.00 332.33,138.00 C333.05,138.00 334.66,139.08 335.90,140.39 C337.13,141.70 339.53,143.06 341.23,143.40 C342.93,143.74 344.01,144.32 343.64,144.69 C343.27,145.06 347.36,147.56 352.73,150.25 C358.10,152.93 363.16,155.78 363.96,156.57 ZM 334.38 357.24 C333.09,355.20 325.30,352.71 324.46,354.07 C323.95,354.88 326.06,355.46 328.25,355.12 C328.66,355.05 329.00,355.49 329.00,356.09 C329.00,356.69 330.01,358.01 331.25,359.02 C333.92,361.20 336.09,359.96 334.38,357.24 ZM 342.70 364.63 C346.96,364.93 359.79,365.01 378.11,364.83 C358.04,365.04 346.72,364.98 342.70,364.63 ZM 810.44 377.88 C803.07,386.02 794.21,392.52 784.11,397.10 C794.13,392.55 803.06,385.99 810.44,377.88 ZM 400.82 364.56 C430.52,364.21 433.01,364.42 432.49,365.78 C433.00,364.43 430.45,364.22 400.82,364.56 ZM 284.28 132.34 C273.60,131.92 260.35,132.08 254.48,132.86 C260.41,132.07 273.57,131.90 284.28,132.34 ZM 180.15 247.28 C181.53,246.93 182.99,246.43 183.50,246.13 C182.97,246.44 181.49,246.95 180.15,247.28 ZM 340.99 364.20 C341.06,364.27 341.11,364.33 341.16,364.39 C341.05,364.35 341.00,364.30 341.00,364.26 C341.00,364.24 341.00,364.22 340.99,364.20 Z" fill="rgb(77,176,150)"/>
<path d="M 233.77 218.96 C233.87,218.36 233.83,218.12 233.69,218.03 C233.59,217.97 233.45,217.98 233.26,217.99 C233.18,217.99 233.09,218.00 233.00,218.00 C232.45,218.00 232.00,218.64 232.00,219.43 C232.00,220.21 231.38,221.48 230.62,222.24 C228.72,224.13 225.00,231.57 225.00,233.46 C225.00,234.86 223.81,235.45 221.72,235.11 C221.29,235.04 219.60,235.67 217.97,236.52 C216.27,237.39 215.00,237.61 215.00,237.03 C215.00,235.42 213.07,235.81 209.90,238.07 C207.60,239.71 207.00,239.83 207.00,238.65 C207.00,237.39 206.30,237.43 202.13,238.95 C199.46,239.93 196.65,240.40 195.88,239.99 C195.12,239.58 193.60,239.61 192.50,240.05 C190.80,240.74 190.76,240.87 192.25,240.93 C193.21,240.97 194.00,241.35 194.00,241.78 C194.00,242.65 188.36,245.20 186.00,245.40 C185.18,245.47 184.05,245.80 183.50,246.13 C182.97,246.44 181.49,246.95 180.15,247.28 L 180.15 247.28 C180.09,247.30 180.03,247.31 179.97,247.33 C179.92,247.34 179.87,247.35 179.82,247.36 C177.44,247.93 177.10,247.69 176.82,245.25 C176.60,243.39 176.36,243.13 175.16,245.41 C178.68,237.35 184.19,221.35 189.61,203.33 C196.40,180.72 204.59,148.28 206.46,136.50 C208.51,123.62 210.97,112.65 212.06,111.55 C212.58,111.03 213.00,109.82 213.00,108.87 C213.00,106.85 218.59,102.52 219.43,103.89 C219.74,104.40 220.90,104.58 222.00,104.29 C223.27,103.96 224.01,104.26 224.03,105.13 C224.05,106.07 224.37,105.97 225.06,104.79 C225.60,103.85 226.69,103.33 227.46,103.62 C228.79,104.13 234.00,97.35 234.00,95.11 C234.00,94.60 234.90,94.42 236.00,94.71 C237.10,95.00 238.04,94.84 238.10,94.37 C238.99,86.59 238.80,82.89 237.31,78.74 C235.65,74.12 235.66,73.90 237.55,72.03 C238.00,71.58 238.74,71.17 239.75,70.79 C239.53,71.44 239.74,72.56 240.13,74.66 C240.59,77.12 241.20,79.51 241.48,79.97 C241.76,80.42 242.22,82.53 242.49,84.65 C242.59,85.42 242.77,86.60 243.01,87.98 C243.38,90.23 243.89,92.94 244.51,96.00 C245.35,100.12 246.31,109.80 246.65,117.50 C246.99,125.20 247.64,131.98 248.11,132.57 C248.26,132.77 248.54,132.92 248.95,133.03 C248.95,133.04 248.95,133.06 248.95,133.07 C248.98,133.38 251.36,133.30 254.25,132.89 C254.33,132.88 254.40,132.87 254.48,132.86 C257.80,132.42 263.50,132.17 269.75,132.12 C259.00,132.28 249.59,133.08 248.34,134.33 C247.96,134.70 247.27,140.75 246.80,147.76 C245.46,167.65 241.01,191.95 233.77,218.96 ZM 363.96 156.57 C363.16,155.78 358.10,152.93 352.73,150.25 C347.36,147.56 343.27,145.06 343.64,144.69 C344.01,144.32 342.93,143.74 341.23,143.40 C339.53,143.06 337.13,141.70 335.90,140.39 C334.66,139.08 333.05,138.00 332.33,138.00 C329.83,138.00 326.93,134.12 327.56,131.62 C328.01,129.81 327.46,128.71 325.21,126.88 C323.59,125.57 321.48,123.26 320.52,121.75 C319.56,120.24 318.01,119.00 317.08,119.00 C314.99,119.00 313.01,117.10 312.96,115.05 C312.92,113.08 309.32,108.90 305.75,106.67 C304.24,105.73 303.00,104.33 303.00,103.56 C303.00,102.79 301.63,101.86 299.96,101.49 C298.28,101.12 295.83,99.74 294.50,98.41 C293.18,97.09 291.73,96.00 291.30,95.99 C291.73,96.00 293.14,97.05 294.43,98.34 C295.71,99.62 298.96,101.24 301.63,101.92 C304.31,102.61 308.52,103.77 311.00,104.50 C313.48,105.23 317.41,106.34 319.75,106.95 C323.57,107.96 324.25,108.57 323.89,110.60 C323.84,110.94 325.59,113.07 327.79,115.35 C329.99,117.63 332.09,120.50 332.45,121.73 C332.82,122.96 333.43,123.92 333.81,123.86 C335.93,123.56 337.44,124.47 342.26,128.95 C348.22,134.50 354.59,139.08 355.32,138.35 C355.59,138.08 356.57,139.15 357.50,140.73 C359.13,143.48 367.07,148.00 370.29,148.00 C371.12,148.00 373.83,150.05 376.30,152.56 C378.85,155.15 381.08,156.68 381.44,156.10 C382.21,154.85 388.78,157.68 391.00,160.22 C392.73,162.19 397.95,163.16 399.65,161.82 C401.16,160.64 406.00,161.86 405.72,163.35 C405.60,163.98 406.06,164.39 406.75,164.25 C407.44,164.11 408.00,164.45 408.00,165.00 C408.00,165.55 408.93,166.00 410.07,166.00 C411.21,166.00 412.82,166.68 413.64,167.50 C414.47,168.32 416.44,169.00 418.02,169.00 C419.61,169.00 421.26,169.56 421.70,170.25 C422.14,170.94 424.52,173.29 427.00,175.47 C429.48,177.65 434.40,183.05 437.95,187.47 C447.50,199.34 458.96,210.17 465.94,213.89 C469.90,216.00 474.80,217.59 479.79,218.37 L 487.50 219.58 L 481.93 221.71 C464.80,228.25 445.25,226.34 428.76,216.52 C425.51,214.58 422.73,213.00 422.57,213.00 C421.84,213.00 415.02,205.93 410.51,200.50 C399.81,187.64 391.51,178.85 384.81,173.30 C380.96,170.11 376.76,166.53 375.47,165.35 C373.18,163.26 366.88,159.30 359.83,155.36 C363.53,157.24 364.82,157.82 364.92,157.67 C364.99,157.57 364.59,157.17 364.02,156.62 ZM 786.71 254.01 C786.26,253.74 785.81,253.47 785.35,253.22 C781.07,250.92 778.20,250.76 775.85,252.71 C773.67,254.51 766.30,253.60 762.94,251.11 L 759.91 248.87 L 762.91 254.83 C766.45,261.84 769.83,269.70 772.83,277.74 C768.58,266.63 763.25,255.25 756.22,242.07 C751.94,234.06 747.92,226.38 747.28,225.00 C742.05,213.78 740.92,210.41 741.32,207.38 C741.58,205.46 741.30,203.92 740.63,203.67 C738.59,202.91 741.31,201.17 745.52,200.56 C749.40,199.99 749.73,200.18 755.62,206.24 C765.54,216.43 784.11,241.92 790.90,254.66 C792.27,257.22 794.13,260.13 796.05,262.80 C792.32,258.16 789.94,255.94 786.71,254.01 ZM 247.12 69.19 C252.93,68.41 261.06,68.03 270.97,68.10 C284.89,68.20 285.27,68.26 279.94,69.42 C276.92,70.09 274.82,70.65 273.56,71.22 C274.82,70.64 276.92,70.05 279.94,69.35 C284.93,68.19 283.43,68.11 265.50,68.52 C258.40,68.68 251.54,68.93 247.12,69.19 ZM 218.08 281.55 C214.83,300.44 213.74,317.73 214.36,336.50 C213.73,317.48 214.77,300.54 218.08,281.55 ZM 814.49 270.68 C813.18,270.83 811.86,271.09 810.86,271.44 C808.82,272.14 806.58,272.36 805.87,271.92 L 805.86 271.91 C806.11,271.97 806.33,272.03 806.50,272.08 C807.05,272.23 809.16,271.88 811.18,271.28 C812.11,271.01 813.29,270.80 814.49,270.68 ZM 783.00 312.72 C783.37,314.59 783.69,316.41 783.95,318.16 C784.09,319.26 784.22,320.54 784.34,321.94 C784.00,318.79 783.56,315.76 783.00,312.72 ZM 803.96 271.53 C803.93,271.55 803.90,271.56 803.87,271.58 C803.57,271.77 802.21,270.49 800.55,268.52 C802.03,270.19 803.27,271.32 803.96,271.53 ZM 172.17 251.42 C169.87,255.72 167.52,258.93 165.37,260.81 C167.45,258.95 169.76,255.77 172.17,251.42 ZM 228.98 235.88 C229.33,234.66 229.69,233.43 230.06,232.19 C230.38,231.08 230.68,230.05 230.96,229.11 L 231.03 228.85 C230.54,230.56 230.05,232.27 229.54,234.00 C229.35,234.63 229.17,235.26 228.98,235.88 ZM 272.13 72.56 C272.11,73.35 273.32,74.26 275.61,75.49 C273.31,74.25 272.10,73.35 272.13,72.56 Z" fill="rgb(77,189,106)"/>
<path d="M 208.73 123.78 C207.98,127.53 207.19,131.89 206.46,136.50 C204.59,148.28 196.40,180.72 189.61,203.33 C184.19,221.35 178.68,237.35 175.16,245.41 C174.77,246.15 174.28,247.16 173.66,248.47 C173.17,249.51 172.67,250.49 172.17,251.42 C169.76,255.77 167.45,258.95 165.37,260.81 C163.10,262.79 161.06,263.29 159.54,262.03 C158.61,261.26 152.83,260.99 141.36,261.20 C124.57,261.50 124.55,261.50 123.29,264.00 C122.42,265.73 122.02,265.98 122.01,264.81 C122.01,263.88 122.37,262.89 122.82,262.61 C123.27,262.34 123.49,260.17 123.31,257.80 C123.13,255.43 123.61,251.10 124.37,248.17 C126.45,240.13 123.89,244.22 118.30,257.22 C122.02,248.54 124.74,242.94 126.15,241.12 C127.17,239.80 128.00,237.98 128.00,237.06 C128.00,236.14 134.91,221.01 143.35,203.44 C158.25,172.46 164.71,158.22 172.40,139.50 L 172.76 138.64 C176.07,130.57 177.25,127.71 177.51,127.79 C177.65,127.84 177.52,128.77 177.32,130.22 C177.30,130.31 177.29,130.40 177.28,130.50 C176.97,132.70 176.11,135.72 175.36,137.20 C174.61,138.69 173.99,141.61 173.97,143.70 C173.95,145.94 172.93,149.14 171.47,151.50 C168.69,156.02 168.17,161.00 170.48,161.00 C171.29,161.00 172.65,159.94 173.50,158.64 C174.93,156.46 175.87,156.24 186.22,155.75 C198.86,155.15 200.05,154.47 202.02,146.66 C202.59,144.37 204.37,138.45 205.95,133.50 C206.91,130.52 207.94,126.90 208.73,123.78 ZM 272.13 72.56 C272.14,72.09 272.61,71.65 273.56,71.22 L 273.56 71.22 C274.82,70.65 276.92,70.09 279.94,69.42 C281.57,69.07 282.67,68.81 283.01,68.63 C293.60,68.91 303.32,69.49 308.50,70.34 C329.07,73.68 357.34,81.97 369.00,88.08 C374.75,91.09 370.48,90.24 363.23,86.93 C357.45,84.29 355.73,83.94 351.04,84.43 C348.04,84.75 345.19,85.41 344.69,85.91 C343.22,87.38 344.80,90.45 348.00,92.34 C349.65,93.32 351.00,94.91 351.00,95.88 C351.00,96.85 354.36,101.09 358.46,105.30 C362.57,109.51 366.72,114.21 367.69,115.73 C368.66,117.25 370.03,118.86 370.73,119.30 C371.43,119.74 373.57,122.55 375.49,125.55 C377.41,128.55 379.36,131.00 379.84,131.00 C380.32,131.00 384.03,134.12 388.10,137.94 C417.60,165.61 427.50,175.22 434.72,183.61 C435.85,184.91 436.96,186.23 437.95,187.47 C438.80,188.52 439.66,189.57 440.54,190.60 C449.60,201.29 459.61,210.51 465.93,213.88 C459.58,210.49 449.49,201.21 440.54,190.60 C439.67,189.58 438.81,188.55 437.97,187.50 C436.91,186.19 435.85,184.91 434.72,183.61 C431.83,180.27 428.78,177.04 427.00,175.47 C424.52,173.29 422.14,170.94 421.70,170.25 C421.26,169.56 419.61,169.00 418.02,169.00 C416.44,169.00 414.47,168.32 413.64,167.50 C412.82,166.68 411.21,166.00 410.07,166.00 C408.93,166.00 408.00,165.55 408.00,165.00 C408.00,164.45 407.44,164.11 406.75,164.25 C406.06,164.39 405.60,163.98 405.72,163.35 C406.00,161.86 401.16,160.64 399.65,161.82 C397.95,163.16 392.73,162.19 391.00,160.22 C388.78,157.68 382.21,154.85 381.44,156.10 C381.08,156.68 378.85,155.15 376.30,152.56 C373.83,150.05 371.12,148.00 370.29,148.00 C367.07,148.00 359.13,143.48 357.50,140.73 C356.57,139.15 355.59,138.08 355.32,138.35 C354.59,139.08 348.22,134.50 342.26,128.95 C337.44,124.47 335.93,123.56 333.81,123.86 C333.43,123.92 332.82,122.96 332.45,121.73 C332.09,120.50 329.99,117.63 327.79,115.35 C325.59,113.07 323.84,110.94 323.89,110.60 C324.25,108.57 323.57,107.96 319.75,106.95 C317.41,106.34 313.48,105.23 311.00,104.50 C308.52,103.77 304.31,102.61 301.63,101.92 C298.96,101.24 295.71,99.62 294.43,98.34 C293.14,97.05 291.74,96.00 291.30,95.99 L 291.30 95.99 L 291.30 95.99 C290.18,95.97 282.59,84.71 280.16,79.46 C279.64,78.35 277.59,76.56 275.61,75.49 C275.38,75.37 275.17,75.25 274.96,75.13 C273.09,74.08 272.10,73.27 272.13,72.56 ZM 814.49 270.68 C813.29,270.80 812.11,271.01 811.18,271.28 C809.16,271.88 807.05,272.23 806.50,272.08 C806.33,272.03 806.11,271.97 805.86,271.91 C805.21,271.52 804.40,271.36 803.96,271.53 C803.27,271.32 802.03,270.19 800.55,268.52 C800.00,267.87 799.41,267.14 798.82,266.36 C797.81,265.03 796.89,263.85 796.05,262.80 C794.13,260.13 792.27,257.22 790.90,254.66 C784.11,241.92 765.54,216.43 755.62,206.24 C751.91,202.42 750.41,200.94 748.83,200.50 L 749.93 200.50 L 757.78 208.05 C765.66,215.63 772.71,220.14 778.74,221.45 C780.52,221.84 782.23,222.57 782.55,223.08 C783.16,224.06 788.00,224.38 788.00,223.43 C788.00,222.16 785.55,218.34 783.22,216.00 C781.86,214.62 780.01,212.38 779.12,211.00 C777.34,208.26 773.62,203.75 770.49,200.55 C764.60,194.54 766.64,195.52 773.49,202.00 C790.10,217.71 803.34,232.83 814.21,248.50 C817.72,253.55 820.63,258.38 823.08,263.27 C821.47,260.38 820.69,260.28 822.08,265.32 C823.41,270.14 822.60,271.24 818.18,270.65 C817.17,270.51 815.83,270.54 814.49,270.68 ZM 745.94 200.50 C745.80,200.52 745.66,200.54 745.52,200.56 C741.31,201.17 738.59,202.91 740.63,203.67 C741.30,203.92 741.58,205.46 741.32,207.38 C740.92,210.41 742.05,213.78 747.28,225.00 C747.92,226.38 751.94,234.06 756.22,242.07 C759.73,248.66 762.82,254.79 765.56,260.67 C760.26,249.55 752.38,234.58 748.36,228.25 C743.22,220.16 738.01,209.34 734.82,200.13 C733.22,195.52 732.08,191.58 732.29,191.38 C732.50,191.17 733.76,193.14 735.09,195.75 L 737.51 200.50 ZM 247.12 69.19 C244.69,69.32 243.00,69.46 242.40,69.58 C240.77,69.90 240.00,70.06 239.75,70.79 C238.74,71.17 238.00,71.58 237.55,72.03 C236.65,72.92 236.18,73.43 236.10,74.21 C235.07,69.96 234.22,65.45 234.53,65.14 C234.73,64.93 235.21,65.98 235.58,67.47 L 236.26 70.18 L 244.38 69.34 C245.69,69.21 247.16,69.09 248.77,68.98 C248.20,69.05 247.65,69.12 247.12,69.19 ZM 191.89 14.18 C190.44,13.05 190.02,13.13 189.12,14.68 C188.54,15.68 188.05,15.97 188.03,15.33 C188.01,14.69 187.73,13.45 187.39,12.58 C186.51,10.29 188.51,10.64 191.24,13.25 C192.54,14.49 192.83,14.90 191.89,14.18 ZM 783.00 312.72 C783.56,315.76 784.00,318.79 784.34,321.94 C784.48,323.55 784.61,325.33 784.73,327.21 C784.26,321.20 783.50,315.46 782.38,309.71 C782.60,310.72 782.81,311.73 783.00,312.72 ZM 212.00 111.60 C212.55,111.05 213.00,109.82 213.00,108.87 C213.00,109.82 212.58,111.03 212.06,111.55 C211.63,111.98 210.99,113.94 210.25,116.94 C210.82,114.30 211.55,112.05 212.00,111.60 ZM 238.63 87.58 C238.58,89.48 238.41,91.68 238.10,94.37 C238.39,91.78 238.57,89.52 238.63,87.58 ZM 237.38 78.95 C237.51,79.31 237.63,79.67 237.73,80.03 C237.62,79.70 237.50,79.34 237.38,78.95 Z" fill="rgb(85,209,123)"/>
<path d="M 487.35 219.56 L 479.79 218.37 C474.80,217.59 469.90,216.00 465.94,213.89 L 465.93 213.88 C459.58,210.49 449.49,201.21 440.54,190.60 L 440.54 190.60 C439.66,189.57 438.80,188.52 437.95,187.47 C436.96,186.23 435.85,184.91 434.72,183.61 L 434.72 183.61 C427.50,175.22 417.60,165.61 388.10,137.94 C384.03,134.12 380.32,131.00 379.84,131.00 C379.36,131.00 377.41,128.55 375.49,125.55 C373.57,122.55 371.43,119.74 370.73,119.30 C370.03,118.86 368.66,117.25 367.69,115.73 C366.72,114.21 362.57,109.51 358.46,105.30 C354.36,101.09 351.00,96.85 351.00,95.88 C351.00,94.91 349.65,93.32 348.00,92.34 C344.80,90.45 343.22,87.38 344.69,85.91 C345.19,85.41 348.04,84.75 351.04,84.43 C355.73,83.94 357.45,84.29 363.23,86.93 C369.35,89.72 373.35,90.77 370.98,89.21 C373.79,90.51 376.59,91.88 379.40,93.31 C391.27,99.37 410.22,111.09 416.62,116.34 C436.09,132.29 441.58,137.57 451.64,150.00 C453.19,151.93 454.70,153.73 454.98,154.00 C465.43,164.12 491.57,209.34 490.80,215.94 C490.62,217.47 489.94,218.34 487.35,219.56 ZM 208.73 123.78 C207.94,126.90 206.91,130.52 205.95,133.50 C204.37,138.45 202.59,144.37 202.02,146.66 C200.05,154.47 198.86,155.15 186.22,155.75 C175.87,156.24 174.93,156.46 173.50,158.64 C172.65,159.94 171.29,161.00 170.48,161.00 C168.17,161.00 168.69,156.02 171.47,151.50 C172.93,149.14 173.95,145.94 173.97,143.70 C173.99,141.61 174.61,138.69 175.36,137.20 C176.11,135.72 176.97,132.70 177.28,130.50 C177.29,130.40 177.30,130.31 177.32,130.22 C177.52,128.77 177.65,127.84 177.51,127.79 C177.44,127.77 177.31,127.95 177.09,128.37 C193.58,89.13 198.44,44.40 189.07,17.59 C188.82,16.91 188.59,16.24 188.38,15.61 C188.57,15.49 188.84,15.17 189.12,14.68 C190.02,13.13 190.44,13.05 191.89,14.18 C192.83,14.90 192.54,14.49 191.24,13.25 C191.20,13.21 191.16,13.17 191.12,13.14 C196.68,17.06 206.63,25.78 213.25,32.95 C221.43,41.79 226.70,49.63 232.29,61.25 L 234.47 65.79 C234.56,67.23 235.27,70.80 236.10,74.21 C236.02,75.09 236.43,76.30 237.31,78.74 C237.33,78.81 237.36,78.88 237.38,78.95 C237.50,79.34 237.62,79.70 237.73,80.03 C238.41,82.29 238.69,84.55 238.63,87.58 L 238.63 87.58 C238.57,89.52 238.39,91.78 238.10,94.37 C238.04,94.84 237.10,95.00 236.00,94.71 C234.90,94.42 234.00,94.60 234.00,95.11 C234.00,97.35 228.79,104.13 227.46,103.62 C226.69,103.33 225.60,103.85 225.06,104.79 C224.37,105.97 224.05,106.07 224.03,105.13 C224.01,104.26 223.27,103.96 222.00,104.29 C220.90,104.58 219.74,104.40 219.43,103.89 C218.59,102.52 213.00,106.85 213.00,108.87 C213.00,109.82 212.55,111.05 212.00,111.60 C211.55,112.05 210.82,114.30 210.25,116.94 L 210.25 116.94 C209.77,118.84 209.26,121.16 208.73,123.78 ZM 745.94 200.50 L 737.51 200.50 L 735.09 195.75 C733.91,193.43 732.79,191.63 732.40,191.39 C731.89,189.36 731.46,187.37 731.10,185.44 C730.50,182.11 730.00,174.61 730.00,168.77 C730.00,153.91 731.11,151.75 734.95,159.12 C739.30,167.48 749.23,179.04 764.11,193.08 C766.69,195.52 769.18,197.90 771.59,200.23 C766.31,195.39 765.19,195.14 770.49,200.55 C773.62,203.75 777.34,208.26 779.12,211.00 C780.01,212.38 781.86,214.62 783.22,216.00 C785.55,218.34 788.00,222.16 788.00,223.43 C788.00,224.38 783.16,224.06 782.55,223.08 C782.23,222.57 780.52,221.84 778.74,221.45 C772.71,220.14 765.66,215.63 757.78,208.05 L 749.93 200.50 L 748.83 200.50 C748.00,200.27 747.15,200.33 745.94,200.50 ZM 346.23 79.41 C334.10,75.67 320.08,72.22 308.50,70.34 C321.86,72.51 334.26,75.48 346.23,79.41 ZM 823.27 263.63 C823.21,263.51 823.14,263.39 823.08,263.27 C820.63,258.38 817.72,253.55 814.21,248.50 C809.85,242.22 805.12,236.03 799.94,229.86 C810.36,241.98 817.95,252.91 823.27,263.63 ZM 249.81 68.87 C249.46,68.91 249.11,68.95 248.77,68.98 C247.16,69.09 245.69,69.21 244.38,69.34 L 236.26 70.18 L 235.91 68.78 L 236.50 70.01 L 244.50 69.25 C246.07,69.11 247.86,68.98 249.81,68.87 ZM 831.80 288.49 C830.98,284.62 829.90,280.70 828.52,276.46 C827.67,273.85 826.74,271.37 825.84,269.19 C828.56,275.57 830.51,281.94 831.80,288.49 ZM 457.87 225.46 C447.83,225.00 437.97,222.00 428.76,216.52 C437.84,221.93 447.85,224.94 457.87,225.46 ZM 187.79 13.88 C187.31,12.44 187.00,11.45 187.00,11.34 C187.00,11.07 187.20,10.99 187.56,11.08 C187.15,11.19 187.05,11.68 187.39,12.58 C187.54,12.97 187.68,13.43 187.79,13.88 ZM 168.45 148.98 C162.67,162.61 156.62,175.77 145.98,197.98 C156.53,175.94 162.57,162.79 168.45,148.98 ZM 480.76 222.14 C481.15,222.00 481.54,221.86 481.93,221.71 L 485.96 220.17 C485.25,220.47 484.44,220.79 483.50,221.15 C482.59,221.50 481.68,221.83 480.76,222.14 Z" fill="rgb(95,235,99)"/>
<path d="M 674.89 297.75 C675.54,298.99 675.94,299.93 675.79,299.85 C675.63,299.76 672.78,299.43 669.45,299.10 C666.13,298.77 662.20,297.71 660.74,296.75 C659.27,295.79 657.34,295.00 656.44,295.00 C655.55,295.00 653.62,294.06 652.16,292.90 C649.87,291.10 649.46,291.03 649.18,292.40 C648.50,295.76 641.97,293.93 637.29,289.08 C635.22,286.93 634.83,286.84 633.73,288.24 C632.27,290.11 628.32,289.00 627.34,286.44 C626.84,285.15 626.55,285.10 625.88,286.17 C625.31,287.05 624.99,286.33 624.90,284.00 L 624.76 280.50 L 624.12 283.50 C623.59,285.97 623.24,285.08 622.17,278.50 C620.69,269.41 614.48,244.38 610.01,229.50 C603.91,209.20 596.03,172.73 596.01,164.75 C596.00,163.24 596.45,162.00 597.00,162.00 C597.55,162.00 598.00,162.57 598.00,163.28 C598.00,163.98 599.35,166.03 601.00,167.84 C602.65,169.65 604.00,172.00 604.00,173.06 C604.00,175.34 605.97,175.21 607.77,172.81 C608.88,171.32 609.37,171.28 611.77,172.46 C613.27,173.21 615.72,174.37 617.22,175.06 C618.71,175.74 619.75,176.59 619.53,176.95 C619.31,177.30 619.50,178.19 619.95,178.91 C620.54,179.88 621.25,179.96 622.60,179.20 C624.86,177.94 630.00,180.27 630.00,182.56 C630.00,184.41 638.39,188.17 640.61,187.32 C642.47,186.60 643.96,188.56 643.98,191.75 C643.99,192.99 644.44,194.00 644.99,194.00 C646.16,194.00 649.00,200.45 649.00,203.14 C649.00,204.18 649.46,205.81 650.02,206.76 C651.01,208.45 653.75,216.06 664.15,246.00 C666.92,253.98 669.52,260.95 669.93,261.50 C671.66,263.86 675.90,279.03 676.49,285.00 C676.65,286.59 676.80,288.01 676.93,289.27 C677.64,296.35 677.86,298.49 677.41,298.64 C677.22,298.70 676.90,298.39 676.44,297.96 C676.25,297.77 676.04,297.57 675.81,297.36 C673.73,295.52 673.72,295.53 674.89,297.75 ZM 405.85 194.99 C407.35,196.73 408.90,198.57 410.51,200.50 C414.93,205.82 421.56,212.71 422.52,212.99 L 420.92 215.10 C418.95,217.72 411.77,231.71 409.43,237.50 C403.52,252.15 398.83,270.61 397.45,284.73 C397.05,288.82 396.34,291.71 395.81,291.38 C395.29,291.06 394.61,291.76 394.31,292.93 C393.90,294.50 393.24,294.89 391.79,294.43 C390.49,294.02 389.16,294.52 387.87,295.90 C386.80,297.06 384.88,298.00 383.61,298.00 C380.23,298.00 374.91,300.05 375.56,301.10 C375.87,301.59 378.12,302.00 380.56,302.00 C383.00,302.00 385.00,302.34 385.00,302.75 C385.00,302.90 388.74,303.03 395.17,303.12 C334.37,303.16 284.72,303.33 284.01,303.50 C284.00,303.46 284.00,303.43 284.00,303.40 C284.00,303.18 295.02,303.00 308.50,303.00 C329.08,303.00 333.00,302.77 333.00,301.57 C333.00,300.43 333.66,300.33 336.24,301.07 C339.88,302.11 356.53,302.30 362.19,301.37 C364.22,301.03 366.15,300.05 366.48,299.18 C366.82,298.31 367.28,292.61 367.50,286.51 C368.12,269.95 372.44,247.90 376.67,239.66 C378.51,236.06 382.53,232.02 384.30,231.97 C386.51,231.91 390.31,227.95 390.44,225.58 C390.59,222.78 394.81,218.04 397.18,218.02 C398.10,218.01 399.90,216.70 401.18,215.11 C402.45,213.52 405.41,211.26 407.75,210.09 C410.09,208.92 412.00,207.25 412.00,206.37 C412.00,205.50 410.65,202.79 409.00,200.34 C407.35,197.90 406.00,195.66 406.00,195.36 C406.00,195.28 405.95,195.16 405.85,194.99 ZM 535.00 134.97 C529.78,136.08 524.38,136.96 523.00,136.93 L 520.50 136.87 L 523.00 135.79 C524.38,135.19 526.15,134.57 526.94,134.41 C533.11,133.17 534.83,131.64 531.50,130.36 C530.67,130.05 530.00,128.91 530.00,127.83 C530.00,126.76 530.43,126.15 530.96,126.48 C532.35,127.33 541.13,116.99 542.62,112.75 C542.96,111.79 543.58,111.00 544.01,111.00 C544.43,111.00 545.07,109.85 545.43,108.43 C546.26,105.10 550.23,103.44 565.83,99.88 C584.07,95.73 588.32,93.42 596.58,83.21 C598.05,81.40 599.42,80.09 599.63,80.29 C600.19,80.86 596.83,94.35 595.85,95.45 C595.33,96.03 595.00,95.94 595.00,95.20 C595.00,93.12 591.45,93.90 589.22,96.47 C588.04,97.82 586.35,101.76 585.46,105.22 C584.58,108.67 581.84,115.51 579.38,120.41 C576.92,125.31 575.11,129.86 575.37,130.51 C575.70,131.39 571.69,131.87 560.16,132.34 C550.69,132.72 540.75,133.76 535.00,134.97 ZM 45.27 268.67 C44.03,270.23 41.41,274.65 39.44,278.50 C37.47,282.35 36.18,284.38 36.56,283.00 C38.79,275.04 46.73,259.44 55.26,246.30 C61.59,236.54 72.12,225.06 74.77,225.02 C75.48,225.01 76.48,226.12 77.00,227.50 C77.52,228.88 78.41,230.06 78.98,230.12 C79.54,230.19 80.34,230.33 80.75,230.43 C87.69,232.11 88.30,232.14 89.15,230.86 C89.75,229.94 89.90,230.38 89.60,232.20 C89.35,233.69 87.43,237.97 85.34,241.70 C83.24,245.44 78.95,253.90 75.80,260.50 C72.16,268.11 69.56,272.41 68.69,272.24 C67.93,272.10 66.90,272.90 66.41,274.01 C65.56,275.91 65.35,275.94 63.23,274.45 C61.99,273.58 61.17,272.54 61.41,272.14 C61.66,271.74 61.00,271.35 59.95,271.27 C58.90,271.19 55.68,269.94 52.79,268.49 L 47.53 265.85 ZM 727.00 288.38 C727.00,289.76 726.55,291.16 726.00,291.50 C725.44,291.85 725.00,291.03 725.00,289.62 C725.00,288.24 725.45,286.84 726.00,286.50 C726.56,286.15 727.00,286.97 727.00,288.38 ZM 731.00 278.56 C731.00,279.35 730.55,280.00 730.00,280.00 C729.45,280.00 729.00,279.07 729.00,277.94 C729.00,276.81 729.45,276.16 730.00,276.50 C730.55,276.84 731.00,277.77 731.00,278.56 ZM 480.76 222.14 C481.02,222.05 481.28,221.96 481.54,221.87 C481.28,221.97 481.01,222.06 480.75,222.15 C473.61,224.69 466.09,225.79 458.55,225.49 C465.92,225.74 473.37,224.64 480.75,222.15 C480.75,222.15 480.76,222.14 480.76,222.14 ZM 508.30 302.95 L 508.30 303.03 L 485.87 303.05 ZM 395.10 183.05 C391.30,179.20 387.35,175.41 384.81,173.30 C387.88,175.84 391.28,179.07 395.10,183.05 ZM 288.92 316.69 C291.50,323.02 294.32,329.57 295.29,331.23 C294.29,329.51 291.48,322.99 288.92,316.69 ZM 482.39 410.08 C489.09,396.98 494.55,383.29 498.67,369.28 C494.55,383.30 489.08,397.00 482.37,410.12 ZM 458.55 225.49 C456.17,225.41 453.79,225.18 451.43,224.81 C453.56,225.14 455.71,225.36 457.87,225.46 L 457.87 225.46 Z" fill="rgb(210,125,70)"/>
<path d="M 600.50 525.49 C574.20,528.76 541.17,525.29 519.00,516.95 C496.80,508.60 471.26,493.23 459.53,481.16 C455.37,476.88 453.58,474.00 456.00,475.50 C456.55,475.84 457.00,475.69 457.00,475.17 C457.00,474.65 458.58,474.03 460.50,473.81 C462.98,473.52 464.00,473.80 464.00,474.76 C464.00,475.51 464.45,475.84 465.00,475.50 C465.55,475.16 466.00,475.81 466.00,476.94 C466.00,479.45 466.88,479.50 471.53,477.29 C474.03,476.09 474.99,475.06 474.68,473.88 C474.34,472.58 475.25,471.92 478.56,471.09 C484.46,469.60 487.58,469.72 489.36,471.50 C491.07,473.21 500.50,473.57 504.20,472.07 C505.47,471.56 507.72,470.88 509.22,470.56 C511.58,470.05 511.92,469.52 511.81,466.49 C511.68,463.12 511.54,463.00 507.59,462.87 C499.36,462.62 496.41,461.76 497.53,459.95 C497.84,459.45 496.27,458.75 494.05,458.39 C491.82,458.04 490.00,457.35 490.00,456.87 C490.00,455.59 490.75,455.72 501.60,458.88 C512.28,462.00 523.51,464.00 530.27,464.00 C539.41,464.00 558.07,459.51 566.46,455.29 C585.15,445.88 597.91,432.71 610.28,410.07 C612.56,405.91 615.00,401.91 615.71,401.18 C616.42,400.45 617.00,398.89 617.00,397.72 C617.00,396.54 618.20,394.61 619.68,393.44 C621.74,391.80 622.42,390.29 622.62,386.90 C622.77,384.48 622.92,382.21 622.95,381.86 C622.98,381.50 623.58,380.99 624.29,380.72 C625.11,380.40 625.66,381.15 625.79,382.78 C625.91,384.19 626.22,385.55 626.48,385.81 C626.74,386.07 629.83,386.38 633.35,386.51 C636.87,386.63 640.19,387.00 640.72,387.33 C641.26,387.66 645.39,388.24 649.92,388.61 C657.08,389.21 658.35,389.61 659.71,391.68 C660.81,393.36 661.83,393.87 663.23,393.43 C665.01,392.86 665.13,393.13 664.48,396.15 C664.08,397.99 663.14,400.72 662.38,402.20 C661.62,403.69 661.00,405.42 661.00,406.06 C661.00,406.69 659.99,408.50 658.75,410.07 C657.51,411.65 655.15,414.78 653.50,417.04 C647.10,425.79 634.20,437.53 624.80,443.15 C621.12,445.36 617.58,447.80 616.93,448.58 C616.28,449.36 614.93,450.00 613.93,450.00 C611.24,450.00 609.78,453.12 611.79,454.59 C613.03,455.49 613.69,455.45 614.76,454.38 C615.52,453.62 617.41,453.00 618.95,453.00 C620.49,453.00 622.32,452.33 623.00,451.50 C623.68,450.67 623.99,450.00 623.68,450.00 C623.37,450.00 623.74,448.81 624.49,447.36 C625.65,445.11 626.66,444.65 631.12,444.29 C634.01,444.06 637.98,443.19 639.94,442.36 C642.27,441.36 647.48,440.76 655.06,440.60 C661.42,440.46 667.13,440.03 667.75,439.65 C668.37,439.27 674.64,438.69 681.69,438.37 C688.74,438.06 695.26,437.39 696.18,436.90 C697.11,436.40 702.40,436.00 707.93,436.00 C716.64,436.00 718.27,435.73 719.99,434.01 C721.62,432.38 721.78,431.61 720.88,429.64 C720.01,427.72 720.15,426.85 721.62,425.13 C723.98,422.38 724.79,422.45 726.18,425.50 C727.82,429.09 729.51,428.59 730.85,424.12 C732.06,420.07 735.03,416.47 734.97,419.13 C734.95,419.88 734.06,422.30 733.00,424.50 C731.94,426.70 731.05,429.98 731.03,431.78 C730.94,441.07 710.20,471.24 692.64,487.63 C683.26,496.39 680.98,498.05 678.09,498.27 C676.94,498.35 676.00,498.78 676.00,499.21 C676.00,499.65 675.44,499.89 674.75,499.75 C674.06,499.61 673.62,500.10 673.77,500.82 C673.93,501.55 673.67,501.92 673.21,501.63 C672.09,500.94 666.80,504.46 667.66,505.33 C668.03,505.70 667.23,506.00 665.89,506.00 C664.54,506.00 662.44,506.70 661.22,507.56 C660.00,508.41 658.07,509.29 656.94,509.51 C655.82,509.73 652.38,511.09 649.32,512.54 C635.98,518.85 620.11,523.06 600.50,525.49 ZM 63.99 398.25 C64.00,399.21 60.83,399.20 59.45,398.23 C58.88,397.83 58.34,396.53 58.27,395.34 C58.20,394.15 56.64,391.00 54.80,388.34 C42.79,370.90 35.34,354.15 32.95,339.19 C32.30,335.09 32.27,332.37 32.89,331.63 C33.42,331.00 36.68,330.34 40.14,330.17 C43.60,330.00 46.75,329.65 47.15,329.41 C47.54,329.16 49.00,330.44 50.37,332.24 C52.22,334.67 53.14,337.59 53.89,343.51 C57.71,373.43 59.20,381.96 62.44,392.50 C63.29,395.25 63.98,397.84 63.99,398.25 ZM 717.96 431.07 C716.83,433.18 716.15,433.38 714.25,432.17 C713.35,431.60 713.84,430.75 716.00,429.16 C719.07,426.89 719.81,427.61 717.96,431.07 ZM 653.00 436.42 C653.00,437.29 652.29,438.00 651.42,438.00 C649.65,438.00 649.96,435.85 651.81,435.23 C652.47,435.01 653.00,435.55 653.00,436.42 Z" fill="rgb(199,56,85)"/>
<path d="M 660.34 407.71 C660.75,406.99 661.00,406.37 661.00,406.06 C661.00,405.42 661.62,403.69 662.38,402.20 C663.14,400.72 664.08,397.99 664.48,396.15 C665.13,393.13 665.01,392.86 663.23,393.43 C661.83,393.87 660.81,393.36 659.71,391.68 C658.35,389.61 657.08,389.21 649.92,388.61 C645.39,388.24 641.26,387.66 640.72,387.33 C640.19,387.00 636.87,386.63 633.35,386.51 C629.83,386.38 626.74,386.07 626.48,385.81 C626.22,385.55 625.91,384.19 625.79,382.78 C625.66,381.15 625.11,380.40 624.29,380.72 C623.58,380.99 622.98,381.50 622.95,381.86 C622.92,382.21 622.77,384.48 622.62,386.90 C622.42,390.29 621.74,391.80 619.68,393.44 C618.20,394.61 617.00,396.54 617.00,397.72 C617.00,398.89 616.42,400.45 615.71,401.18 C615.00,401.91 612.56,405.91 610.28,410.07 C608.82,412.74 607.36,415.28 605.88,417.69 C614.23,403.34 620.21,385.74 624.22,364.00 C626.01,354.30 626.34,348.67 626.34,328.00 C626.35,314.52 625.83,299.90 625.20,295.50 C624.70,292.02 624.10,288.35 623.42,284.54 C623.67,285.06 623.88,284.64 624.12,283.50 L 624.76 280.50 L 624.90 284.00 C624.99,286.33 625.31,287.05 625.88,286.17 C626.55,285.10 626.84,285.15 627.34,286.44 C628.32,289.00 632.27,290.11 633.73,288.24 C634.83,286.84 635.22,286.93 637.29,289.08 C641.97,293.93 648.50,295.76 649.18,292.40 C649.46,291.03 649.87,291.10 652.16,292.90 C653.62,294.06 655.55,295.00 656.44,295.00 C657.34,295.00 659.27,295.79 660.74,296.75 C662.20,297.71 666.13,298.77 669.45,299.10 C671.41,299.29 673.20,299.49 674.37,299.63 C674.55,300.97 675.29,302.23 676.51,303.19 C678.39,304.66 678.91,306.21 679.25,311.26 C679.47,314.69 680.27,321.79 681.01,327.04 C682.19,335.43 682.14,338.58 680.62,353.04 C678.70,371.25 676.11,380.74 670.44,390.32 C668.55,393.52 667.00,396.78 667.00,397.56 C667.00,398.34 666.35,399.77 665.56,400.74 C664.79,401.68 662.47,404.77 660.34,407.71 ZM 45.27 268.67 L 47.53 265.85 L 52.79 268.49 C55.68,269.94 58.90,271.19 59.95,271.27 C61.00,271.35 61.66,271.74 61.41,272.14 C61.17,272.54 61.99,273.58 63.23,274.45 C65.35,275.94 65.56,275.91 66.41,274.01 C66.90,272.90 67.93,272.10 68.69,272.24 C69.56,272.41 72.16,268.11 75.80,260.50 C76.64,258.74 77.56,256.84 78.50,254.94 C75.01,262.06 71.44,269.74 69.36,274.77 C58.16,301.82 53.32,331.74 55.95,357.55 C57.17,369.50 59.60,382.80 62.10,391.38 C59.09,381.33 57.58,372.36 53.89,343.51 C53.14,337.59 52.22,334.67 50.37,332.24 C49.00,330.44 47.54,329.16 47.15,329.41 C46.75,329.65 43.60,330.00 40.14,330.17 C36.68,330.34 33.42,331.00 32.89,331.63 C32.27,332.37 32.30,335.09 32.95,339.19 C32.99,339.42 33.03,339.66 33.07,339.90 C32.54,337.78 32.07,335.92 31.78,334.89 C31.20,332.83 30.97,325.09 31.24,316.89 C31.65,304.49 33.24,293.89 36.60,283.40 C36.93,283.14 38.01,281.30 39.44,278.50 C41.41,274.65 44.03,270.23 45.27,268.67 ZM 554.59 132.63 C556.44,132.51 558.31,132.41 560.16,132.34 C571.69,131.87 575.70,131.39 575.37,130.51 C575.11,129.86 576.92,125.31 579.38,120.41 C581.84,115.51 584.58,108.67 585.46,105.22 C586.35,101.76 588.04,97.82 589.22,96.47 C591.45,93.90 595.00,93.12 595.00,95.20 C595.00,95.94 595.33,96.03 595.85,95.45 C596.28,94.97 597.18,92.06 598.00,88.92 C594.70,104.78 592.35,124.13 593.20,129.92 L 593.58 132.50 L 570.04 132.50 C563.46,132.50 558.54,132.53 554.59,132.63 ZM 730.03 436.31 C730.67,434.51 731.02,432.97 731.03,431.78 C731.05,429.98 731.94,426.70 733.00,424.50 C734.06,422.30 734.95,419.88 734.97,419.13 C734.99,418.15 734.60,418.02 734.04,418.45 C735.18,416.71 736.15,414.00 736.50,411.47 C736.88,408.74 737.80,404.36 738.54,401.75 C739.77,397.42 739.71,396.60 737.85,392.40 C736.36,389.03 735.51,388.09 734.71,388.89 C733.18,390.42 724.91,390.28 721.09,388.68 C718.06,387.41 718.01,387.30 719.80,385.68 C722.00,383.69 733.00,383.25 733.00,385.15 C733.00,385.78 734.35,384.88 736.00,383.16 C737.65,381.43 739.00,379.54 739.00,378.95 C739.00,378.36 739.42,378.14 739.93,378.46 C740.44,378.77 741.15,378.12 741.50,377.00 C741.85,375.88 742.56,375.23 743.07,375.54 C743.58,375.86 744.01,375.30 744.02,374.31 C744.10,368.19 745.31,348.43 745.62,348.08 C745.83,347.85 746.00,354.60 746.00,363.08 C746.00,389.09 740.50,413.92 730.03,436.31 ZM 422.37 387.39 C421.63,388.84 421.25,390.20 421.46,390.77 C422.40,393.22 428.22,401.57 433.73,408.87 C438.56,415.34 443.14,421.00 443.87,421.01 C444.22,421.02 448.71,424.85 453.87,429.51 C459.02,434.18 463.81,438.00 464.52,438.00 C465.09,438.00 467.15,435.56 469.46,432.23 L 464.78 439.41 L 467.64 441.70 C471.25,444.59 470.24,444.64 465.31,441.82 C459.86,438.69 442.37,422.61 436.00,414.87 C434.62,413.20 431.81,410.11 429.75,408.00 C427.69,405.88 426.00,403.69 426.00,403.13 C426.00,402.56 424.67,400.12 423.03,397.71 C419.36,392.26 417.20,387.09 419.35,388.88 C420.34,389.70 421.00,389.45 422.37,387.39 ZM 496.64 303.00 L 485.87 303.05 L 396.15 303.12 L 395.17 303.12 C388.74,303.03 385.00,302.90 385.00,302.75 C385.00,302.34 383.00,302.00 380.56,302.00 C378.12,302.00 375.87,301.59 375.56,301.10 C374.91,300.05 380.23,298.00 383.61,298.00 C384.88,298.00 386.80,297.06 387.87,295.90 C389.16,294.52 390.49,294.02 391.79,294.43 C393.24,294.89 393.90,294.50 394.31,292.93 C394.61,291.76 395.29,291.06 395.81,291.38 C396.34,291.71 397.05,288.82 397.45,284.73 C398.03,278.86 399.17,272.23 400.74,265.45 C398.87,273.92 397.68,282.40 397.19,290.75 L 396.49 303.00 ZM 664.50 300.00 C664.13,300.60 665.34,301.00 667.50,301.00 C669.66,301.00 670.87,300.60 670.50,300.00 C670.16,299.45 668.81,299.00 667.50,299.00 C666.19,299.00 664.84,299.45 664.50,300.00 ZM 719.92 454.77 C712.36,466.71 703.24,477.74 692.64,487.63 C702.04,478.85 712.36,466.13 719.92,454.77 ZM 569.71 453.58 C568.65,454.16 567.56,454.73 566.46,455.29 C558.07,459.51 539.41,464.00 530.27,464.00 C528.45,464.00 526.31,463.86 523.95,463.58 C530.25,464.13 535.97,463.72 542.50,462.48 C553.04,460.49 561.85,457.65 569.71,453.58 ZM 639.22 432.22 C633.86,437.24 630.32,439.85 624.80,443.15 C629.19,440.53 634.33,436.58 639.22,432.22 ZM 42.05 269.58 C45.46,262.29 49.80,254.70 55.26,246.30 C50.33,253.89 45.60,262.30 42.05,269.58 ZM 581.89 95.27 C577.96,96.91 572.97,98.26 565.83,99.88 C571.68,98.55 578.34,96.62 581.89,95.27 ZM 674.55 297.09 C673.81,295.66 673.94,295.71 675.43,297.03 C674.94,296.66 674.69,296.66 674.55,297.09 ZM 89.58 232.32 C89.58,232.28 89.59,232.24 89.60,232.20 C89.90,230.38 89.75,229.94 89.15,230.86 C90.20,229.26 90.17,230.32 89.58,232.32 ZM 86.29 239.96 C87.21,238.20 88.05,236.43 88.65,234.98 C88.02,236.60 87.24,238.32 86.46,239.66 C86.40,239.76 86.35,239.85 86.29,239.96 ZM 54.79 388.34 C52.41,384.90 50.18,381.42 48.13,377.94 C50.17,381.37 52.39,384.84 54.80,388.34 C56.51,390.81 57.98,393.71 58.23,395.06 C57.98,393.71 56.50,390.81 54.79,388.34 ZM 731.48 422.38 C731.24,422.94 731.02,423.52 730.85,424.12 C730.70,424.62 730.54,425.07 730.38,425.47 C730.43,425.31 730.47,425.15 730.51,424.98 C730.67,424.24 731.02,423.31 731.48,422.38 ZM 599.51 82.18 C599.66,81.31 599.72,80.67 599.67,80.41 C599.91,80.40 599.81,80.96 599.55,82.00 ZM 482.31 410.23 L 482.37 410.12 C487.64,399.83 492.13,389.17 495.82,378.29 C492.12,389.23 487.60,399.93 482.31,410.23 ZM 425.05 382.81 C427.53,378.24 430.18,372.61 431.00,370.00 C430.15,372.71 427.46,378.43 425.05,382.81 ZM 728.24 427.87 C727.57,427.79 726.87,427.01 726.18,425.50 C726.83,426.93 727.56,427.71 728.24,427.87 ZM 610.00 229.50 C608.17,223.40 606.19,215.86 604.30,208.08 C606.19,215.87 608.18,223.41 610.01,229.50 C610.29,230.45 610.59,231.44 610.88,232.47 C610.59,231.48 610.30,230.49 610.00,229.50 ZM 654.07 416.26 C654.69,415.42 655.37,414.51 656.03,413.63 C655.32,414.60 654.67,415.47 654.07,416.26 ZM 523.35 136.92 C523.15,136.93 522.98,136.94 522.85,136.94 L 520.50 136.87 L 523.00 136.93 C523.10,136.93 523.21,136.93 523.35,136.92 ZM 677.31 298.64 C677.35,298.65 677.38,298.65 677.41,298.64 C677.54,298.59 677.61,298.40 677.63,297.99 C677.61,298.41 677.54,298.61 677.43,298.64 C677.39,298.66 677.36,298.65 677.31,298.64 ZM 593.03 87.35 C592.74,87.67 592.44,87.98 592.15,88.28 C592.43,87.99 592.72,87.68 593.03,87.35 Z" fill="rgb(198,93,77)"/>
<path d="M 413.11 479.38 C400.39,467.91 394.53,461.76 387.00,452.20 C384.41,448.91 381.98,445.91 380.16,443.72 C378.31,441.50 377.07,440.10 376.90,440.07 C376.87,440.07 376.81,440.09 376.73,440.12 C376.90,440.04 377.02,440.00 377.07,440.00 C377.49,440.00 377.99,439.54 378.18,438.97 C378.38,438.36 380.22,438.77 382.71,439.97 C388.35,442.70 403.13,442.63 401.43,439.89 C401.13,439.40 401.70,438.99 402.69,438.97 C403.69,438.95 405.32,438.32 406.32,437.56 C408.06,436.24 408.01,435.80 405.07,427.38 C403.38,422.54 402.00,418.23 402.00,417.81 C402.00,416.59 409.11,413.34 413.50,412.55 C415.70,412.15 417.15,412.17 416.73,412.59 C416.31,413.02 417.34,413.94 419.01,414.65 C421.33,415.62 422.65,415.66 424.54,414.80 C426.64,413.84 427.37,414.00 429.32,415.83 C430.59,417.03 432.16,418.00 432.81,418.00 C434.54,418.00 434.27,413.32 432.50,412.64 C431.67,412.32 431.00,411.44 431.00,410.69 C431.00,409.93 430.11,408.51 429.03,407.52 C428.15,406.73 427.22,405.48 426.72,404.46 C427.40,405.42 428.51,406.72 429.75,408.00 C431.81,410.11 434.62,413.20 436.00,414.87 C442.37,422.61 459.86,438.69 465.31,441.82 C468.82,443.83 470.34,444.38 469.63,443.49 C477.55,450.18 484.09,453.56 497.75,457.77 C490.56,455.71 490.00,455.76 490.00,456.87 C490.00,457.35 491.82,458.04 494.05,458.39 C496.27,458.75 497.84,459.45 497.53,459.95 C496.41,461.76 499.36,462.62 507.59,462.87 C511.54,463.00 511.68,463.12 511.81,466.49 C511.92,469.52 511.58,470.05 509.22,470.56 C507.72,470.88 505.47,471.56 504.20,472.07 C500.50,473.57 491.07,473.21 489.36,471.50 C487.58,469.72 484.46,469.60 478.56,471.09 C475.25,471.92 474.34,472.58 474.68,473.88 C474.99,475.06 474.03,476.09 471.53,477.29 C466.88,479.50 466.00,479.45 466.00,476.94 C466.00,475.81 465.55,475.16 465.00,475.50 C464.45,475.84 464.00,475.51 464.00,474.76 C464.00,473.80 462.98,473.52 460.50,473.81 C458.58,474.03 457.00,474.65 457.00,475.17 C457.00,475.69 456.55,475.84 456.00,475.50 C453.58,474.00 455.37,476.88 459.53,481.16 C471.26,493.23 496.80,508.60 519.00,516.95 C541.17,525.29 574.20,528.76 600.50,525.49 C620.11,523.06 635.98,518.85 649.32,512.54 C652.38,511.09 655.82,509.73 656.94,509.51 C658.07,509.29 660.00,508.41 661.22,507.56 C662.44,506.70 664.54,506.00 665.89,506.00 C667.23,506.00 668.03,505.70 667.66,505.33 C666.80,504.46 672.09,500.94 673.21,501.63 C673.67,501.92 673.93,501.55 673.77,500.82 C673.62,500.10 674.06,499.61 674.75,499.75 C675.44,499.89 676.00,499.65 676.00,499.21 C676.00,498.78 676.94,498.35 678.09,498.27 C679.33,498.17 680.46,497.81 682.09,496.74 C670.92,505.66 658.42,513.46 644.72,519.97 C632.25,525.89 618.84,530.76 609.00,532.95 C605.97,533.62 601.92,534.57 600.00,535.05 C586.21,538.50 553.83,538.73 533.00,535.52 C495.39,529.73 457.05,513.65 427.74,491.38 C424.57,488.97 421.42,487.00 420.73,487.00 C420.05,487.00 415.89,489.68 411.50,492.95 C399.56,501.83 386.65,509.50 372.92,515.89 C379.51,512.78 386.01,509.32 392.50,505.49 C400.05,501.02 412.48,492.51 418.00,488.02 L 419.51 486.79 C419.68,486.71 419.82,486.60 419.91,486.47 L 420.50 485.98 L 417.32 483.16 C416.31,482.19 415.08,481.07 413.75,479.93 C413.53,479.75 413.32,479.56 413.11,479.38 ZM 660.34 407.71 C662.47,404.77 664.79,401.68 665.56,400.74 C666.35,399.77 667.00,398.34 667.00,397.56 C667.00,396.78 668.55,393.52 670.44,390.32 C675.85,381.19 678.45,372.13 680.35,355.53 C679.25,365.12 677.93,372.35 676.44,376.77 C673.10,386.73 673.20,387.63 677.75,388.50 C683.93,389.69 705.38,389.09 714.74,387.47 C717.06,387.07 719.48,386.12 720.11,385.37 C720.80,384.54 723.79,384.06 726.72,383.98 C723.84,384.15 720.84,384.74 719.80,385.68 C718.01,387.30 718.06,387.41 721.09,388.68 C724.91,390.28 733.18,390.42 734.71,388.89 C735.51,388.09 736.36,389.03 737.85,392.40 C739.71,396.60 739.77,397.42 738.54,401.75 C737.80,404.36 736.88,408.74 736.50,411.47 C736.15,414.00 735.18,416.71 734.04,418.45 C733.30,419.01 732.27,420.54 731.48,422.38 C731.02,423.31 730.67,424.24 730.51,424.98 C730.47,425.15 730.43,425.31 730.38,425.47 C729.72,427.14 729.00,427.94 728.24,427.87 C727.56,427.71 726.83,426.93 726.18,425.50 C724.79,422.45 723.98,422.38 721.62,425.13 C720.15,426.85 720.01,427.72 720.88,429.64 C721.78,431.61 721.62,432.38 719.99,434.01 C718.27,435.73 716.64,436.00 707.93,436.00 C702.40,436.00 697.11,436.40 696.18,436.90 C695.26,437.39 688.74,438.06 681.69,438.37 C674.64,438.69 668.37,439.27 667.75,439.65 C667.13,440.03 661.42,440.46 655.06,440.60 C647.48,440.76 642.27,441.36 639.94,442.36 C637.98,443.19 634.01,444.06 631.12,444.29 C626.66,444.65 625.65,445.11 624.49,447.36 C623.74,448.81 623.37,450.00 623.68,450.00 C623.99,450.00 623.68,450.67 623.00,451.50 C622.32,452.33 620.49,453.00 618.95,453.00 C617.41,453.00 615.52,453.62 614.76,454.38 C613.69,455.45 613.03,455.49 611.79,454.59 C609.78,453.12 611.24,450.00 613.93,450.00 C614.93,450.00 616.28,449.36 616.93,448.58 C617.58,447.80 621.12,445.36 624.80,443.15 C630.32,439.85 633.86,437.24 639.22,432.22 C644.82,427.23 650.09,421.71 653.50,417.04 C653.68,416.79 653.87,416.53 654.07,416.26 L 654.07 416.26 L 654.15 416.15 C654.74,415.35 655.39,414.48 656.03,413.63 L 656.03 413.63 C657.07,412.25 658.08,410.93 658.75,410.07 C659.37,409.29 659.93,408.44 660.34,407.71 ZM 54.79 388.34 C56.50,390.81 57.98,393.71 58.23,395.06 C58.25,395.16 58.27,395.25 58.27,395.34 C58.33,396.28 58.68,397.30 59.11,397.88 C57.40,397.17 55.25,396.12 52.70,394.73 C38.21,386.87 28.39,377.29 20.36,363.20 C16.24,355.97 14.85,351.00 16.94,351.00 C17.46,351.00 18.14,351.41 18.44,351.91 C19.15,353.05 27.36,352.42 29.97,351.02 C32.38,349.73 33.46,344.43 32.47,338.77 C32.38,338.29 32.30,337.52 32.22,336.54 C32.47,337.49 32.76,338.65 33.07,339.90 C35.07,351.67 40.16,364.52 48.13,377.94 C50.18,381.42 52.41,384.90 54.79,388.34 ZM 717.96 431.07 C719.81,427.61 719.07,426.89 716.00,429.16 C713.84,430.75 713.35,431.60 714.25,432.17 C716.15,433.38 716.83,433.18 717.96,431.07 ZM 653.00 436.42 C653.00,435.55 652.47,435.01 651.81,435.23 C649.96,435.85 649.65,438.00 651.42,438.00 C652.29,438.00 653.00,437.29 653.00,436.42 ZM 31.67 309.17 C31.84,303.96 32.32,300.65 33.48,295.61 C32.64,299.97 32.05,304.45 31.67,309.17 ZM 730.03 436.31 C739.98,415.03 745.44,391.56 745.96,366.96 C745.44,391.83 739.92,415.30 729.97,436.49 C729.99,436.43 730.01,436.37 730.03,436.31 ZM 42.05 269.58 C41.82,270.06 41.60,270.53 41.38,270.99 C44.70,263.48 49.05,255.87 55.26,246.30 C49.80,254.70 45.46,262.29 42.05,269.58 ZM 324.81 462.19 C322.95,462.34 320.84,462.41 318.21,462.45 C321.71,462.32 324.41,462.14 326.85,461.85 C326.17,461.96 325.49,462.08 324.81,462.19 ZM 231.05 409.68 C230.18,407.93 229.33,406.15 228.51,404.32 C227.28,401.57 226.04,398.50 224.84,395.30 C226.85,400.54 229.08,405.70 231.38,410.32 C231.27,410.11 231.16,409.89 231.05,409.68 ZM 347.09 456.52 C344.72,457.38 342.18,458.21 339.37,459.05 C338.67,459.24 337.96,459.43 337.24,459.62 C337.71,459.49 338.19,459.35 338.68,459.20 C341.85,458.27 344.60,457.40 347.09,456.52 ZM 260.21 445.85 C259.87,445.59 259.52,445.33 259.18,445.06 C255.57,442.23 252.16,439.11 248.95,435.69 C252.48,439.42 256.25,442.81 260.21,445.85 ZM 63.99 398.25 C64.00,398.86 63.49,399.09 62.50,398.96 C63.35,398.92 64.00,398.69 63.99,398.25 ZM 466.32 440.65 L 464.78 439.41 L 464.82 439.35 ZM 425.09 401.04 C424.47,399.94 423.70,398.70 422.94,397.56 C421.00,394.69 419.50,391.89 418.85,390.18 C419.51,391.91 421.05,394.77 423.03,397.71 C423.83,398.89 424.56,400.07 425.09,401.04 ZM 482.31 410.23 L 482.31 410.23 C485.41,404.20 488.24,398.04 490.80,391.77 C488.23,398.07 485.38,404.26 482.27,410.32 Z" fill="rgb(221,66,92)"/>
<path d="M 674.89 297.75 C674.76,297.50 674.65,297.28 674.55,297.09 C674.69,296.66 674.94,296.66 675.43,297.03 C675.55,297.13 675.67,297.24 675.81,297.36 C676.04,297.57 676.25,297.77 676.44,297.96 C676.83,298.33 677.12,298.61 677.31,298.64 C677.36,298.65 677.39,298.66 677.43,298.64 C677.54,298.61 677.61,298.41 677.63,297.99 C677.70,296.92 677.44,294.39 676.93,289.27 C676.80,288.01 676.65,286.59 676.49,285.00 C676.14,281.41 674.46,274.48 672.80,269.02 C673.16,270.01 673.51,271.02 673.85,272.00 C675.48,276.67 678.16,283.42 679.82,287.00 C682.26,292.26 682.98,293.14 683.59,291.59 C684.30,289.78 684.38,289.79 685.15,291.86 L 685.95 294.05 L 687.98 292.02 C690.21,289.79 692.23,289.53 696.60,290.92 C702.65,292.83 705.00,293.07 705.02,291.77 C705.08,288.99 717.00,285.26 717.00,288.02 C717.00,288.59 718.06,288.35 719.36,287.50 C721.48,286.11 721.85,286.11 722.99,287.49 C724.03,288.74 724.35,288.83 725.30,287.64 C725.12,288.21 725.00,288.92 725.00,289.62 C725.00,291.03 725.44,291.85 726.00,291.50 C726.55,291.16 727.00,289.76 727.00,288.38 C727.00,287.21 726.70,286.45 726.28,286.42 C726.88,285.78 726.96,286.22 727.01,288.00 C727.07,290.34 727.17,290.30 728.49,287.25 C730.14,283.45 731.68,283.10 732.94,286.25 C739.39,302.45 740.70,307.50 744.04,329.00 C746.73,346.37 746.73,374.00 744.04,390.50 C743.16,395.89 742.05,401.18 740.71,406.36 C743.90,393.74 745.67,380.56 745.96,366.96 C745.99,365.67 746.00,364.38 746.00,363.08 C746.00,354.60 745.83,347.85 745.62,348.08 C745.31,348.43 744.10,368.19 744.02,374.31 C744.01,375.30 743.58,375.86 743.07,375.54 C742.56,375.23 741.85,375.88 741.50,377.00 C741.15,378.12 740.44,378.77 739.93,378.46 C739.42,378.14 739.00,378.36 739.00,378.95 C739.00,379.54 737.65,381.43 736.00,383.16 C734.35,384.88 733.00,385.78 733.00,385.15 C733.00,384.14 729.93,383.79 726.72,383.98 C723.79,384.06 720.80,384.54 720.11,385.37 C719.48,386.12 717.06,387.07 714.74,387.47 C705.38,389.09 683.93,389.69 677.75,388.50 C673.20,387.63 673.10,386.73 676.44,376.77 C677.93,372.35 679.25,365.12 680.35,355.53 C680.44,354.71 680.53,353.89 680.62,353.04 C682.14,338.58 682.19,335.43 681.01,327.04 C680.27,321.79 679.47,314.69 679.25,311.26 C678.91,306.21 678.39,304.66 676.51,303.19 C675.29,302.23 674.55,300.97 674.37,299.63 C675.20,299.74 675.72,299.81 675.79,299.85 C675.94,299.93 675.54,298.99 674.89,297.75 ZM 425.09 401.04 C425.65,402.06 426.00,402.84 426.00,403.13 C426.00,403.35 426.27,403.83 426.72,404.46 C427.22,405.48 428.15,406.73 429.03,407.52 C430.11,408.51 431.00,409.93 431.00,410.69 C431.00,411.44 431.67,412.32 432.50,412.64 C434.27,413.32 434.54,418.00 432.81,418.00 C432.16,418.00 430.59,417.03 429.32,415.83 C427.37,414.00 426.64,413.84 424.54,414.80 C422.65,415.66 421.33,415.62 419.01,414.65 C417.34,413.94 416.31,413.02 416.73,412.59 C417.15,412.17 415.70,412.15 413.50,412.55 C409.11,413.34 402.00,416.59 402.00,417.81 C402.00,418.23 403.38,422.54 405.07,427.38 C408.01,435.80 408.06,436.24 406.32,437.56 C405.32,438.32 403.69,438.95 402.69,438.97 C401.70,438.99 401.13,439.40 401.43,439.89 C403.13,442.63 388.35,442.70 382.71,439.97 C380.22,438.77 378.38,438.36 378.18,438.97 C377.99,439.54 377.49,440.00 377.07,440.00 C377.02,440.00 376.90,440.04 376.73,440.12 C375.84,440.49 372.11,442.82 367.90,445.65 C366.49,446.60 365.09,447.50 363.70,448.36 C364.93,447.58 366.23,446.73 367.64,445.80 C376.66,439.84 376.92,439.57 375.24,437.73 C365.03,426.57 343.19,379.56 341.16,364.39 L 400.84 364.56 C403.79,364.52 406.47,364.49 408.91,364.47 C408.33,364.56 408.00,364.65 408.00,364.75 C408.01,365.16 410.68,371.01 413.95,377.75 C416.47,382.94 418.76,387.40 419.79,389.18 C419.65,389.10 419.50,389.00 419.35,388.88 C418.82,388.43 418.55,388.42 418.51,388.74 C418.47,389.01 418.60,389.51 418.85,390.18 L 418.85 390.18 C419.50,391.89 421.00,394.69 422.94,397.56 C423.70,398.70 424.47,399.94 425.09,401.04 ZM 31.67 309.17 C31.47,311.67 31.33,314.24 31.24,316.89 C30.97,325.09 31.20,332.83 31.78,334.89 C31.90,335.31 32.05,335.88 32.22,336.54 C32.30,337.52 32.38,338.29 32.47,338.77 C33.46,344.43 32.38,349.73 29.97,351.02 C27.36,352.42 19.15,353.05 18.44,351.91 C18.14,351.41 17.46,351.00 16.94,351.00 C14.85,351.00 16.24,355.97 20.36,363.20 C20.69,363.77 21.01,364.33 21.34,364.88 C20.52,363.54 19.70,362.15 18.89,360.72 C9.87,344.71 6.54,330.42 7.14,310.22 C7.52,297.53 8.46,294.60 11.27,297.41 C12.50,298.64 12.91,298.68 13.31,297.62 C13.67,296.70 16.21,296.24 21.66,296.12 C28.87,295.96 29.68,295.73 31.75,293.22 C32.98,291.73 33.99,289.94 34.00,289.25 C34.00,288.56 34.39,288.00 34.87,288.00 C35.02,288.00 35.19,287.85 35.35,287.60 C34.63,290.24 34.01,292.90 33.48,295.61 C32.32,300.65 31.84,303.96 31.67,309.17 ZM 664.50 300.00 C664.84,299.45 666.19,299.00 667.50,299.00 C668.81,299.00 670.16,299.45 670.50,300.00 C670.87,300.60 669.66,301.00 667.50,301.00 C665.34,301.00 664.13,300.60 664.50,300.00 ZM 662.34 240.79 C657.52,226.94 654.58,218.58 652.75,213.58 C654.71,218.90 657.77,227.59 662.34,240.79 ZM 669.98 261.58 C669.96,261.55 669.95,261.52 669.93,261.50 C669.59,261.04 667.69,256.02 665.44,249.68 C667.26,254.78 668.90,259.14 669.48,260.41 C669.62,260.70 669.79,261.10 669.98,261.58 ZM 682.17 496.68 C672.49,504.43 661.81,511.32 650.22,517.25 C661.78,511.33 672.43,504.45 682.09,496.74 C682.12,496.72 682.15,496.70 682.17,496.68 ZM 424.05 384.58 C425.81,381.47 427.81,377.54 429.27,374.32 C428.09,376.94 426.54,380.07 425.05,382.81 L 425.05 382.81 C424.71,383.43 424.38,384.03 424.05,384.58 ZM 52.70 394.73 C46.74,391.49 41.64,388.04 37.10,384.05 C41.65,388.02 46.79,391.52 52.70,394.73 ZM 36.54 283.43 C36.55,283.43 36.57,283.42 36.60,283.40 C36.53,283.61 36.47,283.82 36.40,284.03 C36.44,283.84 36.49,283.64 36.54,283.43 ZM 41.52 270.67 C41.47,270.78 41.42,270.88 41.38,270.99 C40.92,271.94 40.49,272.87 40.09,273.78 C40.53,272.78 41.01,271.74 41.52,270.67 ZM 339.77 363.30 C338.77,362.83 337.33,362.34 335.75,361.97 C337.33,362.34 338.75,362.81 339.72,363.27 C339.73,363.28 339.75,363.29 339.77,363.30 ZM 326.86 461.84 L 326.85 461.85 C324.41,462.14 321.71,462.32 318.21,462.45 C321.71,462.32 324.42,462.14 326.86,461.84 ZM 341.26 458.43 C340.43,458.68 339.57,458.94 338.68,459.20 C338.26,459.33 337.84,459.45 337.44,459.56 C337.79,459.46 338.14,459.36 338.50,459.25 C339.46,458.97 340.38,458.70 341.26,458.43 ZM 432.50 365.76 C432.50,365.77 432.49,365.77 432.49,365.78 L 432.49 365.78 C432.49,365.79 432.48,365.80 432.48,365.81 C432.43,365.94 432.37,366.08 432.32,366.23 C432.38,366.05 432.44,365.90 432.50,365.76 Z" fill="rgb(230,100,84)"/>
<path d="M 554.59 132.63 C558.54,132.53 563.46,132.50 570.04,132.50 L 593.58 132.50 L 593.20 129.92 C592.35,124.13 594.70,104.78 598.00,88.92 C598.64,86.47 599.23,83.88 599.51,82.18 L 599.55 82.00 C599.81,80.96 599.91,80.40 599.67,80.41 C599.66,80.35 599.65,80.31 599.63,80.29 C599.42,80.09 598.05,81.40 596.58,83.21 C595.33,84.76 594.17,86.13 593.03,87.35 L 593.02 87.36 C592.73,87.68 592.44,87.98 592.15,88.28 L 592.15 88.28 C589.06,91.42 586.08,93.52 581.89,95.27 C578.34,96.62 571.68,98.55 565.83,99.88 C550.23,103.44 546.26,105.10 545.43,108.43 C545.07,109.85 544.43,111.00 544.01,111.00 C543.58,111.00 542.96,111.79 542.62,112.75 C541.13,116.99 532.35,127.33 530.96,126.48 C530.43,126.15 530.00,126.76 530.00,127.83 C530.00,128.91 530.67,130.05 531.50,130.36 C534.83,131.64 533.11,133.17 526.94,134.41 C526.15,134.57 524.38,135.19 523.00,135.79 L 520.50 136.87 L 522.85 136.94 C522.98,136.94 523.15,136.93 523.35,136.92 C524.79,136.85 528.35,136.29 532.22,135.54 C518.34,138.73 502.59,144.18 491.89,149.55 C482.23,154.40 467.97,163.13 466.16,165.30 C465.43,166.19 466.69,168.92 470.65,175.02 C473.51,179.42 477.00,185.63 480.28,191.90 C472.01,176.97 460.94,159.78 454.98,154.00 C454.70,153.73 453.19,151.93 451.64,150.00 C441.58,137.57 436.09,132.29 416.62,116.34 C415.11,115.10 412.90,113.50 410.25,111.70 C412.89,113.49 415.10,115.09 416.62,116.33 C417.65,117.18 421.42,120.24 425.00,123.13 C428.58,126.03 434.07,130.79 437.21,133.73 L 442.92 139.06 L 446.69 137.48 C448.77,136.61 451.38,135.10 452.49,134.12 C455.69,131.29 473.73,121.43 482.79,117.58 C501.26,109.70 519.51,104.55 539.90,101.44 C546.08,100.50 551.00,98.26 551.00,96.37 C551.00,95.49 551.85,93.14 552.88,91.14 C555.91,85.26 557.35,81.63 557.49,79.50 C557.57,78.40 558.27,75.30 559.06,72.62 L 560.49 67.73 L 575.99 68.34 C584.52,68.68 594.42,69.23 598.00,69.58 L 604.50 70.20 L 606.26 65.81 C608.36,60.59 618.55,44.66 620.13,44.13 C620.90,43.87 620.94,44.29 620.25,45.52 C619.71,46.49 619.50,48.19 619.79,49.30 C620.32,51.32 623.53,55.13 624.17,54.49 C624.36,54.31 624.56,55.99 624.61,58.23 C624.67,60.76 625.33,62.77 626.34,63.51 C627.24,64.16 627.68,64.99 627.32,65.35 C626.96,65.71 627.21,66.00 627.87,66.00 C628.53,66.00 628.96,67.01 628.82,68.25 C628.52,70.94 629.63,88.27 631.08,103.50 C632.81,121.77 634.98,135.79 638.19,149.49 C639.86,156.64 641.56,164.75 641.95,167.50 C642.35,170.25 643.40,174.98 644.30,178.00 C645.20,181.02 646.12,186.46 646.34,190.08 C646.51,192.88 646.97,195.86 647.45,197.60 C646.59,195.63 645.58,194.00 644.99,194.00 C644.44,194.00 643.99,192.99 643.98,191.75 C643.96,188.56 642.47,186.60 640.61,187.32 C638.39,188.17 630.00,184.41 630.00,182.56 C630.00,180.27 624.86,177.94 622.60,179.20 C621.25,179.96 620.54,179.88 619.95,178.91 C619.50,178.19 619.31,177.30 619.53,176.95 C619.75,176.59 618.71,175.74 617.22,175.06 C615.72,174.37 613.27,173.21 611.77,172.46 C609.37,171.28 608.88,171.32 607.77,172.81 C605.97,175.21 604.00,175.34 604.00,173.06 C604.00,172.00 602.65,169.65 601.00,167.84 C599.35,166.03 598.00,163.98 598.00,163.28 C598.00,162.57 597.55,162.00 597.00,162.00 C596.45,162.00 596.00,163.24 596.01,164.75 C596.01,165.71 596.12,167.07 596.34,168.76 C595.96,166.22 595.67,163.94 595.49,162.00 C593.44,140.36 592.67,134.36 591.85,133.50 C591.27,132.89 582.22,132.50 568.70,132.51 C562.61,132.52 558.00,132.55 554.25,132.66 C554.36,132.65 554.48,132.64 554.59,132.63 ZM 88.44 236.00 C88.10,236.60 87.77,237.21 87.43,237.80 C87.87,236.89 88.29,235.92 88.65,234.98 C89.13,233.84 89.46,232.90 89.58,232.32 C90.17,230.32 90.20,229.26 89.15,230.86 C88.30,232.14 87.69,232.11 80.75,230.43 C80.34,230.33 79.54,230.19 78.98,230.12 C78.41,230.06 77.52,228.88 77.00,227.50 C76.48,226.12 75.48,225.01 74.77,225.02 C72.36,225.06 63.48,234.50 57.12,243.54 C60.34,238.54 63.29,233.66 64.07,232.00 C66.99,225.82 100.53,184.00 102.56,184.00 C102.82,184.00 102.74,185.17 102.38,186.61 C101.79,188.97 101.94,189.15 103.99,188.50 C105.74,187.95 106.07,188.09 105.43,189.14 C104.83,190.15 105.09,190.12 106.43,189.02 C108.16,187.62 108.21,187.78 107.54,192.02 C106.08,201.16 99.75,215.72 88.44,236.00 ZM 405.85 194.99 C405.95,195.16 406.00,195.28 406.00,195.36 C406.00,195.66 407.35,197.90 409.00,200.34 C410.65,202.79 412.00,205.50 412.00,206.37 C412.00,207.25 410.09,208.92 407.75,210.09 C405.41,211.26 402.45,213.52 401.18,215.11 C400.96,215.39 400.72,215.65 400.47,215.91 C400.51,215.86 400.55,215.81 400.60,215.77 C402.15,213.95 402.17,213.79 400.75,214.89 C398.60,216.55 398.47,215.20 400.50,212.30 C401.96,210.22 401.58,206.52 400.01,207.49 C398.91,208.17 396.70,205.29 397.42,204.13 C397.75,203.60 397.45,202.90 396.76,202.57 C396.07,202.25 396.54,202.17 397.81,202.41 C399.27,202.68 400.34,202.28 400.71,201.32 C401.48,199.31 398.84,197.62 397.50,199.27 C395.89,201.24 394.17,201.12 393.50,198.99 C392.57,196.07 393.81,194.85 397.15,195.38 C402.08,196.15 401.70,193.56 395.86,186.70 C390.19,180.04 378.79,169.71 376.55,169.20 C375.80,169.03 375.42,168.10 375.69,167.06 C376.03,165.79 372.24,162.77 366.35,159.14 C370.55,161.68 373.92,163.94 375.47,165.35 C376.76,166.53 380.96,170.11 384.81,173.30 C387.35,175.41 391.30,179.20 395.10,183.05 C398.37,186.46 401.94,190.42 405.85,194.99 ZM 617.75 58.61 C618.71,59.34 619.55,59.95 619.61,59.97 C619.67,59.99 619.51,58.88 619.24,57.50 C618.98,56.12 618.14,55.00 617.38,55.00 C615.45,55.00 615.66,57.02 617.75,58.61 ZM 573.52 451.38 C581.96,446.10 589.97,439.00 596.83,430.71 C589.94,439.33 582.42,445.96 573.52,451.38 ZM 71.99 268.73 C63.16,289.00 58.29,306.96 56.18,326.16 C58.01,309.03 62.49,291.36 69.36,274.77 C70.08,273.03 70.98,270.97 71.99,268.73 ZM 615.68 396.46 C619.11,386.63 622.17,375.10 624.22,364.00 C622.00,376.04 619.18,386.81 615.68,396.46 ZM 522.30 463.38 C527.96,463.92 533.51,463.81 539.46,463.01 C534.15,463.83 529.26,464.04 523.95,463.58 C523.41,463.52 522.86,463.45 522.30,463.38 ZM 56.82 364.83 C56.49,362.38 56.20,359.94 55.95,357.55 C55.55,353.60 55.32,349.55 55.26,345.43 C55.43,351.50 55.97,358.18 56.82,364.83 ZM 610.00 229.50 C610.30,230.49 610.59,231.48 610.88,232.47 L 610.88 232.47 L 610.97 232.77 C610.65,231.68 610.33,230.59 610.00,229.50 C607.65,221.66 605.16,211.97 602.90,202.20 C603.25,203.68 603.60,205.16 603.95,206.64 C604.07,207.12 604.18,207.60 604.30,208.08 C606.19,215.86 608.17,223.40 610.00,229.50 ZM 649.00 202.95 C649.00,204.09 649.46,205.81 650.02,206.76 C649.46,205.81 649.00,204.18 649.00,203.14 C649.00,202.17 648.63,200.70 648.10,199.23 C648.61,200.38 649.00,201.95 649.00,202.95 ZM 498.20 457.90 C498.05,457.86 497.90,457.81 497.75,457.77 C494.55,456.78 491.73,455.84 489.20,454.89 C492.02,455.91 495.10,456.94 498.20,457.90 ZM 398.46 217.54 C397.96,217.84 397.51,218.01 397.18,218.02 C395.95,218.03 394.21,219.32 392.81,220.95 C394.20,219.32 395.90,218.03 397.10,218.02 C397.46,218.01 397.94,217.84 398.46,217.54 ZM 476.22 448.47 C474.01,447.01 471.87,445.39 469.63,443.49 L 469.62 443.49 C471.88,445.38 474.05,447.03 476.22,448.47 ZM 41.52 270.67 C41.01,271.74 40.53,272.78 40.09,273.78 L 40.09 273.78 C39.81,274.40 39.54,275.00 39.29,275.59 C39.97,273.99 40.74,272.29 41.60,270.50 C41.57,270.56 41.54,270.61 41.52,270.67 ZM 418.86 388.55 C418.95,388.59 419.05,388.65 419.16,388.73 C418.76,388.44 418.55,388.47 418.51,388.74 C418.53,388.54 418.65,388.47 418.86,388.55 ZM 487.35 219.56 C488.49,219.02 489.26,218.55 489.78,218.07 C489.26,218.56 488.49,219.02 487.35,219.56 ZM 36.54 283.43 C36.49,283.64 36.44,283.84 36.40,284.03 C36.44,283.84 36.49,283.64 36.53,283.43 Z" fill="rgb(219,156,63)"/>
<path d="M 669.98 261.58 C669.79,261.10 669.62,260.70 669.48,260.41 C668.90,259.14 667.26,254.78 665.44,249.68 C665.02,248.49 664.59,247.26 664.15,246.00 C663.52,244.18 662.92,242.44 662.34,240.78 C657.77,227.58 654.71,218.90 652.76,213.58 L 652.75 213.58 C651.20,209.32 650.45,207.49 650.02,206.76 C649.46,205.81 649.00,204.09 649.00,202.95 C649.00,201.95 648.61,200.38 648.10,199.23 C647.90,198.68 647.68,198.13 647.45,197.60 C646.97,195.86 646.51,192.88 646.34,190.08 C646.12,186.46 645.20,181.02 644.30,178.00 C643.40,174.98 642.35,170.25 641.95,167.50 C641.61,165.12 640.29,158.72 638.86,152.40 C642.05,165.23 645.85,176.24 649.04,181.00 C649.96,182.38 650.97,184.18 651.28,185.00 C651.60,185.87 651.88,185.34 651.92,183.75 L 652.00 181.00 L 661.14 181.00 C668.67,181.00 670.52,180.69 671.62,179.25 C672.79,177.72 673.09,177.69 673.97,179.00 C674.78,180.22 674.97,180.24 674.98,179.10 C675.00,178.02 675.47,178.12 677.00,179.50 C678.68,181.02 679.43,181.13 681.58,180.15 C682.99,179.50 684.54,179.22 685.02,179.51 C685.50,179.81 688.67,185.78 692.07,192.78 C704.00,217.36 718.26,247.57 721.22,254.50 C724.56,262.33 727.83,270.41 730.22,276.67 C730.15,276.60 730.07,276.55 730.00,276.50 C729.45,276.16 729.00,276.81 729.00,277.94 C729.00,279.07 729.45,280.00 730.00,280.00 C730.51,280.00 730.94,279.44 730.99,278.72 C732.84,283.63 734.00,287.08 734.00,287.83 C734.00,288.27 734.22,289.22 734.58,290.43 C734.07,289.12 733.53,287.73 732.94,286.25 C731.68,283.10 730.14,283.45 728.49,287.25 C727.17,290.30 727.07,290.34 727.01,288.00 C726.96,286.22 726.88,285.78 726.28,286.42 C726.19,286.41 726.10,286.44 726.00,286.50 C725.73,286.67 725.48,287.09 725.30,287.64 C724.35,288.83 724.03,288.74 722.99,287.49 C721.85,286.11 721.48,286.11 719.36,287.50 C718.06,288.35 717.00,288.59 717.00,288.02 C717.00,285.26 705.08,288.99 705.02,291.77 C705.00,293.07 702.65,292.83 696.60,290.92 C692.23,289.53 690.21,289.79 687.98,292.02 L 685.95 294.05 L 685.15 291.86 C684.38,289.79 684.30,289.78 683.59,291.59 C682.98,293.14 682.26,292.26 679.82,287.00 C678.16,283.42 675.48,276.67 673.85,272.00 C673.51,271.02 673.16,270.01 672.80,269.02 C671.73,265.51 670.67,262.60 669.98,261.58 ZM 398.46 217.54 C397.94,217.84 397.46,218.01 397.10,218.02 C395.90,218.03 394.20,219.32 392.81,220.95 C391.52,222.45 390.51,224.24 390.44,225.58 C390.31,227.95 386.51,231.91 384.30,231.97 C382.53,232.02 378.51,236.06 376.67,239.66 C372.44,247.90 368.12,269.95 367.50,286.51 C367.28,292.61 366.82,298.31 366.48,299.18 C366.15,300.05 364.22,301.03 362.19,301.37 C356.53,302.30 339.88,302.11 336.24,301.07 C333.66,300.33 333.00,300.43 333.00,301.57 C333.00,301.79 332.87,301.98 332.53,302.14 L 332.80 293.24 C333.51,269.61 338.79,243.35 347.32,221.00 C351.82,209.20 355.01,202.68 356.95,201.32 C358.00,200.58 359.01,198.97 359.18,197.74 C359.42,196.04 360.71,195.10 364.50,193.84 C368.19,192.62 369.68,192.49 370.22,193.34 C370.61,193.98 370.84,193.15 370.72,191.50 C370.54,189.09 370.90,188.50 372.50,188.50 C374.02,188.50 374.49,189.15 374.46,191.25 C374.42,193.77 374.73,194.00 378.21,194.00 C381.33,194.00 382.00,193.65 382.00,192.00 C382.00,189.63 384.50,189.36 386.64,191.50 C388.92,193.77 390.28,193.32 392.79,189.44 L 395.08 185.91 L 393.93 184.52 C394.62,185.28 395.27,186.01 395.86,186.70 C401.70,193.56 402.08,196.15 397.15,195.38 C393.81,194.85 392.57,196.07 393.50,198.99 C394.17,201.12 395.89,201.24 397.50,199.27 C398.84,197.62 401.48,199.31 400.71,201.32 C400.34,202.28 399.27,202.68 397.81,202.41 C396.54,202.17 396.07,202.25 396.76,202.57 C397.45,202.90 397.75,203.60 397.42,204.13 C396.70,205.29 398.91,208.17 400.01,207.49 C401.58,206.52 401.96,210.22 400.50,212.30 C398.47,215.20 398.60,216.55 400.75,214.89 C402.17,213.79 402.15,213.95 400.60,215.77 C400.55,215.81 400.51,215.86 400.47,215.91 C399.81,216.59 399.10,217.17 398.46,217.54 ZM 54.03 235.08 C58.70,235.48 61.70,233.29 73.45,218.69 C68.66,224.97 64.96,230.13 64.07,232.00 C63.29,233.66 60.34,238.54 57.12,243.54 C56.47,244.47 55.85,245.39 55.26,246.30 C49.18,255.66 44.89,263.15 41.60,270.50 C40.74,272.29 39.97,273.99 39.29,275.59 L 39.29 275.59 C38.07,278.45 37.13,280.97 36.56,283.00 C36.48,283.29 36.47,283.43 36.53,283.43 C36.49,283.64 36.44,283.84 36.40,284.03 C36.40,284.04 36.40,284.04 36.40,284.04 C36.03,285.22 35.68,286.41 35.35,287.60 C35.19,287.85 35.02,288.00 34.87,288.00 C34.39,288.00 34.00,288.56 34.00,289.25 C33.99,289.94 32.98,291.73 31.75,293.22 C29.68,295.73 28.87,295.96 21.66,296.12 C16.21,296.24 13.67,296.70 13.31,297.62 C12.91,298.68 12.50,298.64 11.27,297.41 C8.46,294.60 7.52,297.53 7.14,310.22 C7.07,312.69 7.05,315.07 7.10,317.38 C7.03,315.31 7.00,313.15 7.00,310.88 C7.00,281.93 14.64,262.21 35.43,237.50 C37.28,235.30 39.72,232.38 40.86,231.00 C42.01,229.61 43.00,229.05 43.09,229.75 C43.18,230.44 43.36,231.45 43.50,232.00 C43.64,232.55 43.81,233.38 43.88,233.83 C43.94,234.29 45.46,234.69 47.25,234.73 C49.04,234.76 52.09,234.92 54.03,235.08 ZM 743.96 328.47 C741.70,313.99 740.36,307.06 737.67,298.92 C740.38,306.71 742.52,317.11 743.96,328.47 ZM 633.04 120.98 C632.32,115.55 631.67,109.77 631.08,103.50 C630.71,99.64 630.37,95.65 630.06,91.80 C630.87,101.43 631.96,112.26 633.04,120.98 ZM 102.54 184.00 C101.81,184.07 97.49,188.89 91.98,195.48 C98.35,187.72 101.77,184.00 102.53,184.00 C102.54,184.00 102.54,184.00 102.54,184.00 ZM 746.04 363.43 C745.98,373.22 745.34,382.56 744.04,390.50 C745.25,383.08 745.92,373.41 746.04,363.43 ZM 8.57 332.97 C9.70,339.25 11.49,345.13 14.05,351.04 C11.44,345.12 9.68,339.37 8.57,332.97 ZM 383.84 174.67 C380.48,171.80 377.36,169.38 376.55,169.20 C377.56,169.43 380.45,171.67 383.84,174.67 ZM 314.07 302.99 C312.37,303.00 310.51,303.00 308.50,303.00 C295.09,303.00 284.11,303.18 284.00,303.40 C284.11,303.18 294.98,303.00 308.25,302.99 ZM 50.98 393.77 C45.28,390.55 40.40,387.10 36.04,383.11 C36.39,383.43 36.74,383.74 37.10,384.05 C41.20,387.65 45.75,390.81 50.98,393.77 Z" fill="rgb(241,142,79)"/>
<path d="M 633.04 120.98 L 633.04 120.97 C631.96,112.26 630.87,101.42 630.06,91.80 C629.16,80.43 628.60,70.26 628.82,68.25 C628.96,67.01 628.53,66.00 627.87,66.00 C627.21,66.00 626.96,65.71 627.32,65.35 C627.68,64.99 627.24,64.16 626.34,63.51 C625.33,62.77 624.67,60.76 624.61,58.23 C624.56,55.99 624.36,54.31 624.17,54.49 C623.53,55.13 620.32,51.32 619.79,49.30 C619.50,48.19 619.71,46.49 620.25,45.52 C620.94,44.29 620.90,43.87 620.13,44.13 C618.71,44.61 610.30,57.57 607.11,63.95 L 608.00 61.86 C612.41,51.39 621.20,38.94 631.51,28.56 C640.08,19.93 652.25,10.25 652.73,11.69 C652.89,12.18 651.84,16.38 650.39,21.03 C648.19,28.10 647.68,32.02 647.26,44.76 C646.53,66.96 649.09,83.73 657.08,109.00 C661.70,123.60 670.67,146.53 678.21,163.00 C679.34,165.48 681.61,170.43 683.24,174.00 C684.87,177.57 688.92,186.12 692.23,193.00 C706.65,222.99 718.45,248.01 721.22,254.50 C718.26,247.57 704.00,217.36 692.07,192.78 C688.67,185.78 685.50,179.81 685.02,179.51 C684.54,179.22 682.99,179.50 681.58,180.15 C679.43,181.13 678.68,181.02 677.00,179.50 C675.47,178.12 675.00,178.02 674.98,179.10 C674.97,180.24 674.78,180.22 673.97,179.00 C673.09,177.69 672.79,177.72 671.62,179.25 C670.52,180.69 668.67,181.00 661.14,181.00 L 652.00 181.00 L 651.92 183.75 C651.88,185.34 651.60,185.87 651.28,185.00 C650.97,184.18 649.96,182.38 649.04,181.00 C645.85,176.24 642.05,165.23 638.86,152.40 C638.63,151.42 638.41,150.45 638.19,149.49 C636.08,140.49 634.42,131.36 633.04,120.98 ZM 560.24 68.56 L 559.06 72.62 C558.27,75.30 557.57,78.40 557.49,79.50 C557.35,81.63 555.91,85.26 552.88,91.14 C551.85,93.14 551.00,95.49 551.00,96.37 C551.00,98.26 546.08,100.50 539.90,101.44 C519.51,104.55 501.26,109.70 482.79,117.58 C473.73,121.43 455.69,131.29 452.49,134.12 C451.38,135.10 448.77,136.61 446.69,137.48 L 442.92 139.06 L 437.21 133.73 C434.07,130.79 428.58,126.03 425.00,123.13 C422.95,121.47 420.83,119.76 419.21,118.44 C420.74,118.91 422.69,117.51 429.18,112.74 C458.80,90.98 493.02,76.86 532.00,70.33 C537.63,69.39 548.54,68.77 560.24,68.56 ZM 54.03 235.08 C52.09,234.92 49.04,234.76 47.25,234.73 C45.46,234.69 43.94,234.29 43.88,233.83 C43.81,233.38 43.64,232.55 43.50,232.00 C43.36,231.45 43.18,230.44 43.09,229.75 C43.00,229.05 42.01,229.61 40.86,231.00 C39.72,232.38 37.28,235.30 35.43,237.50 C30.58,243.26 26.45,248.75 22.96,254.16 C26.26,248.86 29.89,243.86 33.34,240.00 C34.07,239.18 34.92,237.82 35.22,237.00 C36.41,233.73 55.66,212.54 66.27,202.82 C89.18,181.84 97.64,172.50 105.34,159.70 C107.26,156.52 109.10,154.35 109.44,154.90 C110.80,157.11 111.22,175.05 110.09,182.80 C109.08,189.71 106.84,197.37 103.16,206.32 C105.47,200.60 106.93,195.84 107.54,192.02 C108.21,187.78 108.16,187.62 106.43,189.02 C105.09,190.12 104.83,190.15 105.43,189.14 C106.07,188.09 105.74,187.95 103.99,188.50 C101.94,189.15 101.79,188.97 102.38,186.61 C102.74,185.17 102.82,184.00 102.56,184.00 C102.55,184.00 102.55,184.00 102.54,184.00 C102.54,184.00 102.54,184.00 102.53,184.00 C101.77,184.00 98.35,187.72 91.98,195.48 C86.19,202.42 79.07,211.33 73.45,218.69 C61.70,233.29 58.70,235.48 54.03,235.08 ZM 375.55 166.34 C375.70,166.62 375.75,166.86 375.69,167.06 C375.42,168.10 375.80,169.03 376.55,169.20 C377.56,169.43 380.45,171.67 383.84,174.67 C387.16,177.61 390.96,181.29 393.93,184.52 L 395.08 185.91 L 392.79 189.44 C390.28,193.32 388.92,193.77 386.64,191.50 C384.50,189.36 382.00,189.63 382.00,192.00 C382.00,193.65 381.33,194.00 378.21,194.00 C374.73,194.00 374.42,193.77 374.46,191.25 C374.49,189.15 374.02,188.50 372.50,188.50 C370.90,188.50 370.54,189.09 370.72,191.50 C370.84,193.15 370.61,193.98 370.22,193.34 C369.68,192.49 368.19,192.62 364.50,193.84 C360.71,195.10 359.42,196.04 359.18,197.74 C359.01,198.97 358.00,200.58 356.95,201.32 C355.87,202.08 354.41,204.43 352.55,208.40 C357.96,196.13 364.32,183.88 369.96,175.19 C372.48,171.31 374.65,167.87 375.55,166.34 ZM 617.75 58.61 C615.66,57.02 615.45,55.00 617.38,55.00 C618.14,55.00 618.98,56.12 619.24,57.50 C619.51,58.88 619.67,59.99 619.61,59.97 C619.55,59.95 618.71,59.34 617.75,58.61 ZM 7.00 310.88 C7.00,300.80 7.59,293.84 9.35,286.28 C7.73,293.88 7.00,301.94 7.00,310.88 ZM 347.37 220.87 L 347.32 221.00 C343.49,231.04 340.31,241.87 337.91,252.90 C339.34,246.23 341.03,239.68 342.94,233.50 C344.14,229.59 345.65,225.31 347.37,220.87 ZM 357.68 154.26 C358.48,154.67 359.19,155.03 359.83,155.36 C362.12,156.64 364.33,157.92 366.35,159.14 C366.56,159.27 366.77,159.40 366.98,159.53 C364.13,157.85 360.88,156.01 357.68,154.26 ZM 595.60 69.38 C592.77,69.17 588.63,68.93 584.22,68.71 C588.22,68.85 591.89,69.06 595.00,69.33 ZM 604.84 69.35 L 604.50 70.20 L 599.68 69.74 L 604.50 70.16 ZM 393.17 100.96 C388.27,98.07 383.43,95.37 379.40,93.31 C383.50,95.40 388.33,98.10 393.17,100.96 Z" fill="rgb(245,182,69)"/>
<path d="M 0.00 273.00 L 0.00 0.00 L 421.00 0.00 L 842.00 0.00 L 842.00 273.00 L 842.00 546.00 L 421.00 546.00 L 0.00 546.00 L 0.00 273.00 ZM 310.51 535.11 C348.30,528.72 382.73,514.35 411.50,492.95 C415.89,489.68 420.05,487.00 420.73,487.00 C421.42,487.00 424.57,488.97 427.74,491.38 C457.05,513.65 495.39,529.73 533.00,535.52 C553.83,538.73 586.21,538.50 600.00,535.05 C601.92,534.57 605.97,533.62 609.00,532.95 C618.84,530.76 632.25,525.89 644.72,519.97 C699.20,494.11 734.66,447.89 744.04,390.50 C748.63,362.38 745.01,316.75 736.52,295.86 C735.13,292.45 734.00,288.83 734.00,287.83 C734.00,286.10 727.76,269.82 721.22,254.50 C718.45,248.01 706.65,222.99 692.23,193.00 C688.92,186.12 684.87,177.57 683.24,174.00 C681.61,170.43 679.34,165.48 678.21,163.00 C670.67,146.53 661.70,123.60 657.08,109.00 C649.09,83.73 646.53,66.96 647.26,44.76 C647.68,32.02 648.19,28.10 650.39,21.03 C651.84,16.38 652.89,12.18 652.73,11.69 C652.25,10.25 640.08,19.93 631.51,28.56 C621.20,38.94 612.41,51.39 608.00,61.86 L 604.50 70.16 L 595.00 69.33 C577.87,67.84 543.64,68.38 532.00,70.33 C493.02,76.86 458.80,90.98 429.18,112.74 C420.09,119.42 419.90,119.49 417.31,117.07 C412.38,112.48 392.30,99.89 379.40,93.31 C356.88,81.81 334.49,74.56 308.50,70.34 C296.63,68.41 260.04,67.79 244.50,69.25 L 236.50 70.01 L 232.29 61.25 C226.70,49.63 221.43,41.79 213.25,32.95 C203.63,22.54 187.00,8.86 187.00,11.34 C187.00,11.53 187.93,14.35 189.07,17.59 C198.53,44.66 193.49,90.00 176.62,129.50 C175.68,131.70 173.51,136.88 171.80,141.00 C164.22,159.28 157.71,173.59 143.35,203.44 C134.91,221.01 128.00,236.14 128.00,237.06 C128.00,237.98 127.17,239.80 126.15,241.12 C124.01,243.88 118.88,255.28 111.81,273.00 C104.03,292.48 100.53,304.98 96.84,326.56 C93.65,345.19 93.65,375.39 96.84,392.50 C98.78,402.89 101.82,413.62 105.01,421.31 C105.50,422.52 107.12,426.65 108.61,430.50 C112.45,440.47 120.21,453.99 128.33,464.88 C156.44,502.52 200.69,528.77 249.00,536.43 C262.33,538.55 294.20,537.86 310.51,535.11 ZM 784.11 397.10 C802.11,388.93 816.21,374.67 824.89,355.84 C831.02,342.55 833.20,332.75 833.74,315.98 C835.13,272.81 819.69,245.55 764.11,193.08 C749.23,179.04 739.30,167.48 734.95,159.12 C731.11,151.75 730.00,153.91 730.00,168.77 C730.00,174.61 730.50,182.11 731.10,185.44 C733.58,199.02 740.14,215.31 748.35,228.24 C753.62,236.53 765.49,259.62 769.56,269.50 C781.38,298.17 785.31,316.63 785.30,343.50 C785.29,360.69 783.75,372.67 779.47,388.84 C777.02,398.09 776.66,400.00 777.36,400.00 C777.56,400.00 780.60,398.69 784.11,397.10 ZM 63.99 398.25 C63.98,397.84 63.29,395.25 62.44,392.50 C57.50,376.48 54.38,351.03 55.41,335.16 C57.51,302.57 66.73,274.91 88.44,236.00 C101.46,212.67 108.11,196.31 110.09,182.80 C111.22,175.05 110.80,157.11 109.44,154.90 C109.10,154.35 107.26,156.52 105.34,159.70 C97.64,172.50 89.18,181.84 66.27,202.82 C55.66,212.54 36.41,233.73 35.22,237.00 C34.92,237.82 34.07,239.18 33.34,240.00 C25.21,249.10 16.06,264.58 12.55,275.16 C8.25,288.11 7.00,296.19 7.00,310.88 C7.00,332.34 9.85,344.38 18.65,360.19 C27.90,376.80 37.37,386.41 52.70,394.73 C60.05,398.72 64.01,399.95 63.99,398.25 ZM 517.50 462.77 C510.55,461.68 497.41,457.97 487.84,454.39 C480.90,451.79 475.16,448.28 468.66,442.67 L 464.82 439.35 L 470.35 430.87 C492.73,396.53 505.90,355.96 507.72,315.75 L 508.30 303.00 L 452.40 303.00 L 396.49 303.00 L 397.19 290.75 C398.21,273.13 402.39,254.94 409.43,237.50 C411.77,231.71 418.95,217.72 420.92,215.10 L 422.62 212.86 L 428.64 216.44 C445.78,226.65 464.94,228.30 483.50,221.15 C489.37,218.89 490.55,218.05 490.80,215.93 C491.16,212.84 478.49,187.11 470.65,175.02 C466.69,168.92 465.43,166.19 466.16,165.30 C467.97,163.13 482.23,154.40 491.89,149.55 C503.44,143.76 520.89,137.86 535.50,134.82 C545.04,132.83 549.45,132.52 568.70,132.51 C582.22,132.50 591.27,132.89 591.85,133.50 C592.67,134.36 593.44,140.36 595.49,162.00 C596.85,176.36 603.90,209.16 610.00,229.50 C616.99,252.80 622.53,276.84 625.20,295.50 C625.83,299.90 626.35,314.52 626.34,328.00 C626.34,348.67 626.01,354.30 624.22,364.00 C621.04,381.24 615.42,399.48 609.77,410.86 C598.18,434.21 576.96,453.35 555.96,459.40 C540.95,463.72 529.80,464.70 517.50,462.77 ZM 293.86 461.55 C270.18,456.61 248.81,440.48 235.08,417.21 C227.15,403.76 218.86,381.05 216.94,367.50 C216.48,364.20 215.84,360.15 215.54,358.50 C215.23,356.85 214.70,346.95 214.36,336.50 C213.27,303.36 217.49,274.85 229.54,234.00 C239.28,200.96 245.22,171.28 246.80,147.76 C247.27,140.75 247.96,134.70 248.34,134.33 C250.58,132.09 279.18,131.29 294.50,133.04 C312.22,135.07 327.78,139.69 346.50,148.48 C356.19,153.03 376.00,164.46 376.00,165.50 C376.00,165.71 373.28,170.07 369.96,175.19 C360.27,190.12 348.48,215.56 342.94,233.50 C337.13,252.29 333.36,274.49 332.80,293.24 L 332.50 302.99 L 308.25 302.99 C294.91,303.00 284.00,303.18 284.00,303.40 C284.00,304.94 293.27,327.79 295.29,331.23 C304.31,346.59 319.54,358.16 335.75,361.97 C338.64,362.64 341.07,363.72 341.15,364.35 C343.16,379.48 365.02,426.56 375.24,437.73 C376.92,439.57 376.66,439.84 367.64,445.80 C356.52,453.16 351.76,455.36 338.50,459.25 C330.03,461.74 326.35,462.25 314.50,462.57 C305.05,462.82 298.34,462.49 293.86,461.55 ZM 413.95 377.75 C410.68,371.01 408.01,365.16 408.00,364.75 C408.00,364.34 413.67,364.00 420.61,364.00 C432.22,364.00 433.16,364.14 432.50,365.75 C432.11,366.71 431.44,368.62 431.00,370.00 C429.35,375.24 421.49,390.00 420.35,390.00 C420.10,390.00 417.22,384.49 413.95,377.75 Z" fill="rgb(253,254,253)"/>
</g>
</svg>