<?xml version="1.0" standalone="no"?>
<!DOCTYPE svg PUBLIC "-//W3C//DTD SVG 20010904//EN"
 "http://www.w3.org/TR/2001/REC-SVG-20010904/DTD/svg10.dtd">
<svg version="1.0" xmlns="http://www.w3.org/2000/svg"
 width="128.000000pt" height="128.000000pt" viewBox="0 0 128.000000 128.000000"
 preserveAspectRatio="xMidYMid meet">
<metadata>
Created by potrace 1.16, written by Peter Selinger 2001-2019
</metadata>
<g transform="translate(0.000000,128.000000) scale(0.100000,-0.100000)"
fill="#000000" stroke="none">
<path d="M130 1162 c-19 -9 -45 -32 -57 -51 -44 -65 -21 -174 42 -203 l25 -11
0 -256 0 -256 -28 -16 c-35 -20 -62 -75 -62 -127 0 -72 71 -142 145 -142 43 0
96 30 122 69 44 65 21 174 -42 203 -25 11 -26 13 -23 107 l3 96 163 3 162 2 0
-94 0 -94 -39 -39 c-50 -49 -60 -96 -36 -158 23 -62 65 -90 135 -90 70 0 112
28 135 90 24 62 14 109 -36 158 l-39 39 0 94 0 94 165 0 c254 0 268 10 273
195 3 118 4 123 28 134 62 28 84 137 41 202 -59 89 -185 89 -244 0 -44 -65
-21 -174 42 -203 25 -11 26 -13 23 -107 l-3 -96 -162 -3 -163 -2 0 95 0 96 35
30 c89 78 58 216 -56 251 -107 32 -212 -74 -180 -181 6 -22 27 -53 46 -70 l35
-30 0 -96 0 -95 -162 2 -163 3 -3 96 c-3 94 -2 96 23 107 63 29 86 138 42 203
-42 64 -120 85 -187 51z m130 -59 c42 -39 48 -79 18 -123 -46 -69 -142 -60
-174 15 -12 30 -12 40 0 69 29 69 102 87 156 39z m436 9 c28 -22 44 -54 44
-87 0 -39 -59 -95 -100 -95 -41 0 -100 56 -100 95 0 58 45 105 100 105 19 0
45 -8 56 -18z m443 2 c13 -9 29 -32 37 -50 12 -29 12 -39 0 -69 -32 -75 -128
-84 -174 -15 -30 44 -24 84 18 123 35 31 83 36 119 11z m-929 -333 c0 -135 -6
-131 212 -131 212 0 208 -3 208 135 0 57 4 95 10 95 6 0 10 -38 10 -95 0 -138
-4 -135 208 -135 218 0 212 -4 212 131 0 84 2 99 16 99 14 0 15 -14 12 -99 -3
-89 -6 -102 -27 -125 l-24 -26 -179 0 c-225 0 -218 4 -218 -140 0 -60 -4 -100
-10 -100 -6 0 -10 40 -10 100 0 144 5 140 -208 140 -219 0 -212 4 -212 -136 0
-86 -3 -104 -15 -104 -13 0 -15 34 -15 245 0 211 2 245 15 245 12 0 15 -18 15
-99z m30 -446 c65 -34 74 -113 18 -160 -54 -45 -126 -27 -154 40 -18 44 -2 90
40 116 38 23 58 24 96 4z m466 -19 c38 -38 43 -70 19 -116 -18 -35 -43 -50
-85 -50 -42 0 -67 15 -85 50 -24 46 -19 78 19 116 46 46 86 46 132 0z"/>
<path d="M1052 544 c-19 -13 -22 -24 -22 -88 0 -68 -2 -74 -25 -84 -63 -29
-86 -138 -42 -203 59 -89 185 -89 244 0 42 62 21 166 -39 200 -26 15 -28 20
-28 88 0 63 -3 74 -22 87 -12 9 -27 16 -33 16 -6 0 -21 -7 -33 -16z m79 -210
c17 -8 37 -30 45 -50 12 -29 12 -39 0 -68 -28 -68 -100 -87 -154 -41 -56 47
-48 125 16 159 35 20 56 20 93 0z"/>
</g>
</svg>
