<?xml version="1.0" encoding="utf-8"?>
<!-- Generator: Adobe Illustrator 22.0.0, SVG Export Plug-In . SVG Version: 6.00 Build 0)  -->
<svg version="1.1" id="Layer_1" xmlns="http://www.w3.org/2000/svg" xmlns:xlink="http://www.w3.org/1999/xlink" x="0px" y="0px"
	 viewBox="0 0 500 500" style="enable-background:new 0 0 500 500;" xml:space="preserve">
<style type="text/css">
	.st0{fill:#C9C9C9;}
	.st1{fill:#A0A0A0;}
	.st2{fill:#71CCFF;}
	.st3{fill:#231F20;}
	.st4{fill:#F9F9F9;}
	.st5{fill:#7A7979;}
	.st6{fill:#4C4C4C;}
	.st7{fill:#F9B630;}
	.st8{fill:#D88A0E;}
	.st9{fill:#FFEDCC;}
	.st10{fill:#C0E7F9;}
	.st11{fill:#08B26C;}
	.st12{fill:#15A9EA;}
	.st13{fill:none;stroke:#C9C9C9;stroke-width:10;stroke-linecap:round;stroke-linejoin:round;stroke-miterlimit:10;}
	.st14{fill:none;stroke:#231F20;stroke-width:10;stroke-linecap:round;stroke-linejoin:round;stroke-miterlimit:10;}
	.st15{fill:#FFFFFF;}
	.st16{fill:#35EF9F;}
	.st17{fill:#22A6E0;}
	.st18{fill:#FC3A6D;}
	.st19{fill:#FFA9C8;}
	.st20{fill:#038E52;}
	.st21{fill:#E2074B;}
</style>
<g>
	<g>
		<rect x="5" y="378.9" class="st0" width="490" height="116.1"/>
	</g>
</g>
<g>
	<g>
		<path class="st3" d="M495,500H5c-2.8,0-5-2.2-5-5s2.2-5,5-5h490c2.8,0,5,2.2,5,5S497.8,500,495,500z"/>
	</g>
</g>
<g>
	<g>
		<path class="st3" d="M495,500H5c-2.8,0-5-2.2-5-5s2.2-5,5-5h490c2.8,0,5,2.2,5,5S497.8,500,495,500z"/>
	</g>
</g>
<g>
	<g>
		<path class="st3" d="M450,383.9H50c-2.8,0-5-2.2-5-5s2.2-5,5-5h400c2.8,0,5,2.2,5,5S452.8,383.9,450,383.9z"/>
	</g>
</g>
<g>
	<g>
		<path class="st5" d="M149.6,433.7H114c-6.1,0-11-4.9-11-11v-51.5h57.7v51.5C160.7,428.8,155.7,433.7,149.6,433.7z"/>
	</g>
</g>
<g>
	<g>
		<path class="st3" d="M149.6,438.7H114c-8.8,0-16-7.2-16-16v-51.5c0-2.8,2.2-5,5-5h57.7c2.8,0,5,2.2,5,5v51.5
			C165.7,431.5,158.5,438.7,149.6,438.7z M108,376.2v46.5c0,3.3,2.7,6,6,6h35.6c3.3,0,6-2.7,6-6v-46.5H108z"/>
	</g>
</g>
<g>
	<g>
		<path class="st5" d="M386,433.7h-35.6c-6.1,0-11-4.9-11-11v-51.5H397v51.5C397,428.8,392.1,433.7,386,433.7z"/>
	</g>
</g>
<g>
	<g>
		<path class="st3" d="M386,438.7h-35.6c-8.8,0-16-7.2-16-16v-51.5c0-2.8,2.2-5,5-5H397c2.8,0,5,2.2,5,5v51.5
			C402,431.5,394.8,438.7,386,438.7z M344.3,376.2v46.5c0,3.3,2.7,6,6,6H386c3.3,0,6-2.7,6-6v-46.5H344.3z"/>
	</g>
</g>
<g>
	<g>
		<path class="st18" d="M144.8,262.3h-14.2c-6.2,0-11.2,5-11.2,11.2s5,11.2,11.2,11.2h14.2c6.2,0,11.2-5,11.2-11.2
			S151,262.3,144.8,262.3z"/>
	</g>
</g>
<g>
	<g>
		<path class="st18" d="M369.3,262.3h-14.2c-6.2,0-11.2,5-11.2,11.2s5,11.2,11.2,11.2h14.2c6.2,0,11.2-5,11.2-11.2
			S375.5,262.3,369.3,262.3z"/>
	</g>
</g>
<g>
	<g>
		<path class="st18" d="M342.6,273.8l-13.5-32.1c-3.4-8.1-11.3-13.3-20.1-13.3H191c-8.8,0-16.7,5.3-20.1,13.3l-13.5,32.1
			c-2.3,5.6-6.1,10.4-11,13.9l-29.8,21.6c-8.5,6.2-13.6,16.1-13.6,26.6v45.7c0,11.9,9.6,21.5,21.5,21.5h251
			c11.9,0,21.5-9.6,21.5-21.5v-45.7c0-10.5-5.1-20.4-13.6-26.6l-29.8-21.6C348.7,284.1,344.9,279.3,342.6,273.8z"/>
	</g>
</g>
<g>
	<g>
		<path class="st0" d="M279.5,403h-59v-18.8c0-5.5,4.5-10,10-10h39c5.5,0,10,4.5,10,10V403z"/>
	</g>
</g>
<g>
	<g>
		<path class="st3" d="M279.5,408h-59c-2.8,0-5-2.2-5-5v-18.8c0-8.3,6.7-15,15-15h39c8.3,0,15,6.7,15,15V403
			C284.5,405.8,282.3,408,279.5,408z M225.5,398h49v-13.8c0-2.8-2.2-5-5-5h-39c-2.8,0-5,2.2-5,5V398z"/>
	</g>
</g>
<g>
	<g>
		<path class="st3" d="M375.5,408h-251c-14.6,0-26.5-11.9-26.5-26.5v-45.7c0-12.1,5.9-23.6,15.7-30.7l29.8-21.6
			c4.1-3,7.4-7.1,9.3-11.8l13.5-32.1c4.2-10,13.9-16.4,24.7-16.4h118c10.8,0,20.5,6.4,24.7,16.4l13.5,32.1v0c2,4.7,5.2,8.8,9.3,11.8
			l29.8,21.6c9.8,7.1,15.7,18.6,15.7,30.7v45.7C402,396.1,390.1,408,375.5,408z M191,233.3c-6.8,0-12.8,4-15.5,10.3L162,275.7
			c-2.7,6.4-7.1,11.9-12.7,16l-29.8,21.6c-7.2,5.2-11.5,13.7-11.5,22.6v45.7c0,9.1,7.4,16.5,16.5,16.5h251c9.1,0,16.5-7.4,16.5-16.5
			v-45.7c0-8.9-4.3-17.3-11.5-22.6l-29.8-21.6c-5.6-4.1-10-9.6-12.7-16c0,0,0,0,0,0l-13.5-32.1c-2.6-6.2-8.7-10.3-15.5-10.3H191z"/>
	</g>
</g>
<g>
	<g>
		<path class="st19" d="M157,309.7c-1.5,0-3.1-0.7-4.1-2.1c-1.6-2.2-1.1-5.4,1.1-7l1.1-0.8c2.2-1.6,5.4-1.1,7,1.1
			c1.6,2.2,1.1,5.4-1.1,7l-1.1,0.8C159,309.4,158,309.7,157,309.7z"/>
	</g>
</g>
<g>
	<g>
		<path class="st19" d="M133.9,326.4c-1.5,0-3.1-0.7-4.1-2.1c-1.6-2.2-1.1-5.4,1.1-7l10-7.2c2.2-1.6,5.4-1.1,7,1.1
			c1.6,2.2,1.1,5.4-1.1,7l-10,7.2C135.9,326.1,134.9,326.4,133.9,326.4z"/>
	</g>
</g>
<g>
	<g>
		<path class="st7" d="M103,335.9h39.8c9.8,0,17.7,7.9,17.7,17.7v0c0,9.8-7.9,17.7-17.7,17.7H103V335.9z"/>
	</g>
</g>
<g>
	<g>
		<path class="st7" d="M397,371.2h-39.8c-9.8,0-17.7-7.9-17.7-17.7v0c0-9.8,7.9-17.7,17.7-17.7H397V371.2z"/>
	</g>
</g>
<g>
	<g>
		<path class="st3" d="M142.8,376.2H103c-2.8,0-5-2.2-5-5v-35.3c0-2.8,2.2-5,5-5h39.8c12.5,0,22.7,10.2,22.7,22.7
			S155.3,376.2,142.8,376.2z M108,366.2h34.8c7,0,12.7-5.7,12.7-12.7s-5.7-12.7-12.7-12.7H108V366.2z"/>
	</g>
</g>
<g>
	<g>
		<ellipse class="st9" cx="143.9" cy="353.5" rx="16.6" ry="17.6"/>
	</g>
</g>
<g>
	<g>
		<ellipse class="st9" cx="356.1" cy="353.5" rx="16.6" ry="17.6"/>
	</g>
</g>
<g>
	<g>
		<path class="st3" d="M143.9,376.1c-0.1,0-0.2,0-0.3,0c-12-0.7-21.3-10.6-21.3-22.6s9.4-21.9,21.3-22.6c0.2,0,0.4,0,0.6,0
			c12,0.7,21.3,10.6,21.3,22.6s-9.4,21.9-21.3,22.6C144.1,376.1,144,376.1,143.9,376.1z M143.9,340.9c-6.5,0.5-11.6,6-11.6,12.6
			s5.1,12.1,11.6,12.6c6.5-0.5,11.6-6,11.6-12.6S150.4,341.5,143.9,340.9z"/>
	</g>
</g>
<g>
	<g>
		<path class="st3" d="M356.1,376.1c-0.1,0-0.2,0-0.3,0c-12-0.7-21.3-10.6-21.3-22.6s9.4-21.9,21.3-22.6c0.2,0,0.4,0,0.6,0
			c12,0.7,21.3,10.6,21.3,22.6s-9.4,21.9-21.3,22.6C356.3,376.1,356.2,376.1,356.1,376.1z M356.1,340.9c-6.5,0.5-11.6,6-11.6,12.6
			s5.1,12.1,11.6,12.6c6.5-0.5,11.6-6,11.6-12.6S362.7,341.5,356.1,340.9z"/>
	</g>
</g>
<g>
	<g>
		<path class="st3" d="M397,376.2h-39.8c-12.5,0-22.7-10.2-22.7-22.7s10.2-22.7,22.7-22.7H397c2.8,0,5,2.2,5,5v35.3
			C402,373.9,399.8,376.2,397,376.2z M357.2,340.9c-7,0-12.7,5.7-12.7,12.7s5.7,12.7,12.7,12.7H392v-25.3H357.2z"/>
	</g>
</g>
<g>
	<g>
		<path class="st2" d="M154.1,279.8L154.1,279.8l3,1.9c11.7,7.6,25.4,11.7,39.4,11.7H250h53.6c14,0,27.7-4.1,39.4-11.7l3-1.9v0
			c-1.3-1.9-2.4-3.9-3.3-6l-13.5-32.1c-3.4-8.1-11.3-13.3-20.1-13.3H191c-8.8,0-16.7,5.3-20.1,13.3l-13.5,32.1
			C156.5,275.9,155.4,278,154.1,279.8z"/>
	</g>
</g>
<g>
	<g>
		<path class="st10" d="M309,253.3h-2.6c-2.8,0-5-2.2-5-5s2.2-5,5-5h2.6c2.8,0,5,2.2,5,5S311.8,253.3,309,253.3z"/>
	</g>
</g>
<g>
	<g>
		<path class="st10" d="M180.3,275.9c-0.6,0-1.3-0.1-1.9-0.4c-2.5-1.1-3.7-4-2.7-6.5l9-21.5c1.1-2.5,3.5-4.2,6.3-4.2h99.6
			c2.8,0,5,2.2,5,5s-2.2,5-5,5h-97.5l-8.2,19.5C184.1,274.8,182.2,275.9,180.3,275.9z"/>
	</g>
</g>
<g>
	<g>
		<path class="st3" d="M303.6,298.5H196.4c-15,0-29.6-4.3-42.1-12.5l-3-1.9c-0.1-0.1-0.2-0.1-0.3-0.2c-2.2-1.6-2.6-4.6-1.1-6.9
			c1.1-1.6,2.1-3.3,2.8-5.1l13.5-32.1c4.2-10,13.9-16.4,24.7-16.4h118c10.8,0,20.5,6.4,24.7,16.4l13.5,32.1c0.8,1.8,1.7,3.5,2.8,5.1
			c0.6,0.8,0.9,1.8,0.9,2.9c0,1.7-0.9,3.3-2.3,4.2l-3,1.9C333.1,294.2,318.6,298.5,303.6,298.5z M160.8,278.3
			c10.7,6.7,23,10.2,35.6,10.2h107.1c12.6,0,24.9-3.5,35.6-10.2c-0.4-0.8-0.8-1.7-1.2-2.5l-13.5-32.1c-2.6-6.2-8.7-10.3-15.5-10.3
			H191c-6.8,0-12.8,4-15.5,10.3L162,275.7C161.6,276.6,161.3,277.4,160.8,278.3z"/>
	</g>
</g>
<g>
	<g>
		<path class="st3" d="M144.8,289.6h-14.2c-8.9,0-16.2-7.3-16.2-16.2s7.3-16.2,16.2-16.2h14.2c8.9,0,16.2,7.3,16.2,16.2
			S153.7,289.6,144.8,289.6z M130.7,267.3c-3.4,0-6.2,2.8-6.2,6.2c0,3.4,2.8,6.2,6.2,6.2h14.2c3.4,0,6.2-2.8,6.2-6.2
			c0-3.4-2.8-6.2-6.2-6.2H130.7z"/>
	</g>
</g>
<g>
	<g>
		<path class="st3" d="M369.3,289.6h-14.2c-8.9,0-16.2-7.3-16.2-16.2s7.3-16.2,16.2-16.2h14.2c8.9,0,16.2,7.3,16.2,16.2
			S378.2,289.6,369.3,289.6z M355.2,267.3c-3.4,0-6.2,2.8-6.2,6.2c0,3.4,2.8,6.2,6.2,6.2h14.2c3.4,0,6.2-2.8,6.2-6.2
			c0-3.4-2.8-6.2-6.2-6.2H355.2z"/>
	</g>
</g>
<g>
	<g>
		<path class="st3" d="M276,356.5h-52c-2.8,0-5-2.2-5-5s2.2-5,5-5h52c2.8,0,5,2.2,5,5S278.8,356.5,276,356.5z"/>
	</g>
</g>
<g>
	<g>
		<path class="st3" d="M198.8,356.5h-9c-2.8,0-5-2.2-5-5s2.2-5,5-5h9c2.8,0,5,2.2,5,5S201.6,356.5,198.8,356.5z"/>
	</g>
</g>
<g>
	<g>
		<path class="st3" d="M310.2,356.5h-9c-2.8,0-5-2.2-5-5s2.2-5,5-5h9c2.8,0,5,2.2,5,5S312.9,356.5,310.2,356.5z"/>
	</g>
</g>
<g>
	<g>
		<path class="st19" d="M165,388h-2.5c-2.8,0-5-2.2-5-5s2.2-5,5-5h2.5c2.8,0,5,2.2,5,5S167.8,388,165,388z"/>
	</g>
</g>
<g>
	<g>
		<path class="st19" d="M201.5,388h-19c-2.8,0-5-2.2-5-5s2.2-5,5-5h19c2.8,0,5,2.2,5,5S204.3,388,201.5,388z"/>
	</g>
</g>
<g>
	<g>
		<path class="st3" d="M202.6,438.7h-73.8c-2.8,0-5-2.2-5-5s2.2-5,5-5h73.8c2.8,0,5,2.2,5,5S205.4,438.7,202.6,438.7z"/>
	</g>
</g>
<g>
	<g>
		<path class="st3" d="M225.1,438.7h-4c-2.8,0-5-2.2-5-5s2.2-5,5-5h4c2.8,0,5,2.2,5,5S227.9,438.7,225.1,438.7z"/>
	</g>
</g>
<g>
	<g>
		<path class="st3" d="M371.2,438.7h-73.8c-2.8,0-5-2.2-5-5s2.2-5,5-5h73.8c2.8,0,5,2.2,5,5S374,438.7,371.2,438.7z"/>
	</g>
</g>
<g>
	<g>
		<path class="st3" d="M278.9,438.7h-4c-2.8,0-5-2.2-5-5s2.2-5,5-5h4c2.8,0,5,2.2,5,5S281.6,438.7,278.9,438.7z"/>
	</g>
</g>
<g>
	<g>
		<circle class="st7" cx="300.3" cy="55" r="50"/>
	</g>
</g>
<g>
	<g>
		<path class="st9" d="M296.8,30.2c-2.5,0-4.7-1.9-5-4.4c-0.3-2.7,1.6-5.2,4.4-5.6c1.4-0.2,2.7-0.2,4.1-0.2c2.8,0,5,2.2,5,5
			s-2.2,5-5,5c-1,0-2,0.1-3,0.2C297.2,30.2,297,30.2,296.8,30.2z"/>
	</g>
</g>
<g>
	<g>
		<path class="st9" d="M270.3,60c-2.8,0-5-2.2-5-5c0-10.2,4.5-19.9,12.2-26.6c2.1-1.8,5.3-1.6,7.1,0.5c1.8,2.1,1.6,5.3-0.5,7.1
			c-5.6,4.8-8.7,11.7-8.7,19C275.3,57.8,273.1,60,270.3,60z"/>
	</g>
</g>
<g>
	<g>
		<path class="st3" d="M300.3,110c-30.3,0-55-24.7-55-55s24.7-55,55-55s55,24.7,55,55S330.7,110,300.3,110z M300.3,10
			c-24.8,0-45,20.2-45,45s20.2,45,45,45s45-20.2,45-45S325.2,10,300.3,10z"/>
	</g>
</g>
<g>
	<g>
		<path class="st3" d="M143.3,87H113c-2.8,0-5-2.2-5-5s2.2-5,5-5h30.3c2.8,0,5,2.2,5,5S146,87,143.3,87z"/>
	</g>
</g>
<g>
	<g>
		<path class="st3" d="M96.5,87h-1.7c-2.8,0-5-2.2-5-5s2.2-5,5-5h1.7c2.8,0,5,2.2,5,5S99.2,87,96.5,87z"/>
	</g>
</g>
<g>
	<g>
		<path class="st2" d="M143.3,34.8c-13,0-23.6,10.6-23.6,23.6S130.2,82,143.3,82h95.4c13,0,23.6-10.6,23.6-23.6
			s-10.6-23.6-23.6-23.6h-0.5c0-9.5-7.7-17.1-17.1-17.1S204,25.3,204,34.8C204,18.3,190.6,5,174.2,5s-29.8,13.3-29.8,29.8H143.3z"/>
	</g>
</g>
<g>
	<g>
		<path class="st3" d="M238.7,87h-95.4c-15.8,0-28.6-12.8-28.6-28.6c0-14.6,10.9-26.6,25-28.4c2.3-16.9,16.9-30,34.5-30
			c13.6,0,25.4,7.9,31.1,19.3c4-4.1,9.6-6.6,15.8-6.6c10.6,0,19.4,7.5,21.6,17.4c13.9,1.9,24.6,13.9,24.6,28.3
			C267.3,74.2,254.5,87,238.7,87z M143.3,39.8c-10.3,0-18.6,8.3-18.6,18.6S133,77,143.3,77h95.4c10.3,0,18.6-8.3,18.6-18.6
			s-8.3-18.6-18.6-18.6h-0.5c-2.8,0-5-2.2-5-5c0-6.7-5.4-12.1-12.1-12.1S209,28.1,209,34.8c0,2.8-2.2,5-5,5s-5-2.2-5-5
			c0-13.7-11.1-24.8-24.8-24.8s-24.8,11.1-24.8,24.8c0,2.8-2.2,5-5,5H143.3z"/>
	</g>
</g>
<g>
	<g>
		<path class="st10" d="M154.9,58.1h-11.6c-2.8,0-5-2.2-5-5s2.2-5,5-5h11.6c1.6,0,2.9-1.3,2.9-2.9V35.1c0-8.6,6.5-15.9,14.9-16.7
			c4.6-0.4,9.2,1.1,12.6,4.2c3.4,3.1,5.4,7.5,5.4,12.2c0,2.8-2.2,5-5,5s-5-2.2-5-5c0-1.8-0.8-3.5-2.1-4.8c-1.4-1.2-3.1-1.8-5-1.6
			c-3.3,0.3-5.8,3.3-5.8,6.7v10.2C167.7,52.4,162,58.1,154.9,58.1z"/>
	</g>
</g>
<g>
	<g>
		<path class="st3" d="M238.4,172.7h-65.6c-2.8,0-5-2.2-5-5s2.2-5,5-5h65.6c2.8,0,5,2.2,5,5S241.2,172.7,238.4,172.7z"/>
	</g>
</g>
<g>
	<g>
		<path class="st3" d="M149.7,172.7h-2.4c-2.8,0-5-2.2-5-5s2.2-5,5-5h2.4c2.8,0,5,2.2,5,5S152.4,172.7,149.7,172.7z"/>
	</g>
</g>
<g>
	<g>
		<path class="st2" d="M238.4,101.5c-18.3,0-33.1,14.8-33.1,33.1s14.8,33.1,33.1,33.1h133.8c18.3,0,33.1-14.8,33.1-33.1
			s-14.8-33.1-33.1-33.1h-0.7c0-13.2-10.7-24-24-24c-13.2,0-24,10.7-24,24c0-23.1-18.7-41.8-41.8-41.8S240,78.5,240,101.5H238.4z"/>
	</g>
</g>
<g>
	<g>
		<path class="st3" d="M372.2,172.7H238.4c-21,0-38.1-17.1-38.1-38.1c0-19.9,15.4-36.3,34.9-37.9c2.4-23.5,22.4-41.9,46.5-41.9
			c19.4,0,36,11.8,43.1,28.7c5.3-6.6,13.5-10.9,22.6-10.9c14.3,0,26.3,10.5,28.6,24.2c19.2,1.9,34.2,18.2,34.2,37.9
			C410.3,155.6,393.2,172.7,372.2,172.7z M238.4,106.5c-15.5,0-28.1,12.6-28.1,28.1s12.6,28.1,28.1,28.1h133.8
			c15.5,0,28.1-12.6,28.1-28.1s-12.6-28.1-28.1-28.1h-0.7c-2.8,0-5-2.2-5-5c0-10.5-8.5-19-19-19s-19,8.5-19,19c0,2.8-2.2,5-5,5
			s-5-2.2-5-5c0-20.3-16.5-36.8-36.8-36.8S245,81.2,245,101.5c0,2.8-2.2,5-5,5H238.4z"/>
	</g>
</g>
<g>
	<g>
		<path class="st10" d="M250.6,126.5h-12.2c-2.8,0-5-2.2-5-5s2.2-5,5-5h12.2c2.4,0,4.3-1.9,4.3-4.3v-10.1
			c0-14.7,11.3-26.7,25.7-27.3c7.3-0.3,14.3,2.4,19.6,7.5c5.3,5.1,8.2,11.9,8.2,19.3c0,2.8-2.2,5-5,5s-5-2.2-5-5
			c0-4.6-1.8-8.9-5.1-12.1c-3.3-3.2-7.7-4.8-12.3-4.7c-8.9,0.3-16.1,8.1-16.1,17.3v10.1C265,120.1,258.5,126.5,250.6,126.5z"/>
	</g>
</g>
<g>
	<g>
		<path class="st11" d="M22.3,313.2c-0.7-2.1-1.1-4.4-1.1-6.8c0-12.2,9.9-22.2,22.2-22.2c12.2,0,22.2,9.9,22.2,22.2
			c0,2.4-0.4,4.7-1.1,6.8c9.9,2.2,17.3,11,17.3,21.6c0,12.2-9.9,22.2-22.2,22.2c-6.4,0-12.2-2.7-16.3-7.1c-4,4.4-9.8,7.1-16.3,7.1
			C14.9,356.9,5,347,5,334.8C5,324.2,12.4,315.4,22.3,313.2z"/>
	</g>
</g>
<g>
	<g>
		<path class="st20" d="M80.3,342.9c-7.2-12.9-21-21.7-36.9-21.7c-15.8,0-29.6,8.8-36.9,21.7c3.3,8.2,11.2,14,20.6,14
			c6.4,0,12.2-2.7,16.3-7.1c4,4.4,9.8,7.1,16.3,7.1C69,356.9,77,351.1,80.3,342.9z"/>
	</g>
</g>
<g>
	<g>
		<path class="st3" d="M59.7,361.9c-5.9,0-11.6-1.9-16.3-5.4c-4.7,3.5-10.4,5.4-16.3,5.4c-15,0-27.2-12.2-27.2-27.2
			c0-10.9,6.7-20.7,16.5-25c-0.1-1.1-0.2-2.3-0.2-3.5c0-15,12.2-27.2,27.2-27.2s27.2,12.2,27.2,27.2c0,1.2-0.1,2.3-0.2,3.5
			c9.8,4.2,16.5,14,16.5,25C86.8,349.7,74.6,361.9,59.7,361.9z M43.4,344.8c1.4,0,2.7,0.6,3.7,1.6c3.3,3.6,7.8,5.5,12.6,5.5
			c9.5,0,17.2-7.7,17.2-17.2c0-8-5.6-15-13.4-16.7c-1.4-0.3-2.6-1.2-3.3-2.4c-0.7-1.2-0.9-2.7-0.4-4c0.5-1.7,0.8-3.5,0.8-5.3
			c0-9.5-7.7-17.2-17.2-17.2s-17.2,7.7-17.2,17.2c0,1.8,0.3,3.6,0.8,5.3c0.4,1.3,0.3,2.8-0.4,4c-0.7,1.2-1.9,2.1-3.3,2.4
			c-7.8,1.7-13.4,8.8-13.4,16.7c0,9.5,7.7,17.2,17.2,17.2c4.8,0,9.3-2,12.6-5.5C40.7,345.4,42,344.8,43.4,344.8z"/>
	</g>
</g>
<g>
	<g>
		<path class="st3" d="M43.4,383.9c-2.8,0-5-2.2-5-5v-29.1c0-2.8,2.2-5,5-5s5,2.2,5,5v29.1C48.4,381.7,46.2,383.9,43.4,383.9z"/>
	</g>
</g>
<g>
	<g>
		<path class="st11" d="M22.3,370.2c-0.7-2.1-1.1-4.4-1.1-6.8c0-12.2,9.9-22.2,22.2-22.2c12.2,0,22.2,9.9,22.2,22.2
			c0,2.4-0.4,4.7-1.1,6.8c9.9,2.2,17.3,11,17.3,21.6c0,12.2-9.9,22.2-22.2,22.2c-6.4,0-12.2-2.7-16.3-7.1c-4,4.4-9.8,7.1-16.3,7.1
			C14.9,413.9,5,404,5,391.8C5,381.2,12.4,372.4,22.3,370.2z"/>
	</g>
</g>
<g>
	<g>
		<path class="st20" d="M80.3,399.9c-7.2-12.9-21-21.7-36.9-21.7c-15.8,0-29.6,8.8-36.9,21.7c3.3,8.2,11.2,14,20.6,14
			c6.4,0,12.2-2.7,16.3-7.1c4,4.4,9.8,7.1,16.3,7.1C69,413.9,77,408.1,80.3,399.9z"/>
	</g>
</g>
<g>
	<g>
		<path class="st3" d="M59.7,418.9c-5.9,0-11.6-1.9-16.3-5.4c-4.7,3.5-10.4,5.4-16.3,5.4c-15,0-27.2-12.2-27.2-27.2
			c0-10.9,6.7-20.7,16.5-25c-0.1-1.1-0.2-2.3-0.2-3.5c0-15,12.2-27.2,27.2-27.2s27.2,12.2,27.2,27.2c0,1.2-0.1,2.3-0.2,3.5
			c9.8,4.2,16.5,14,16.5,25C86.8,406.8,74.6,418.9,59.7,418.9z M43.4,401.8c1.4,0,2.7,0.6,3.7,1.6c3.3,3.6,7.8,5.5,12.6,5.5
			c9.5,0,17.2-7.7,17.2-17.2c0-8-5.6-15-13.4-16.7c-1.4-0.3-2.6-1.2-3.3-2.4s-0.9-2.7-0.4-4c0.5-1.7,0.8-3.5,0.8-5.3
			c0-9.5-7.7-17.2-17.2-17.2s-17.2,7.7-17.2,17.2c0,1.8,0.3,3.6,0.8,5.3c0.4,1.3,0.3,2.8-0.4,4c-0.7,1.2-1.9,2.1-3.3,2.4
			c-7.8,1.7-13.4,8.8-13.4,16.7c0,9.5,7.7,17.2,17.2,17.2c4.8,0,9.3-2,12.6-5.5C40.7,402.4,42,401.8,43.4,401.8z"/>
	</g>
</g>
<g>
	<g>
		<path class="st3" d="M43.4,441c-2.8,0-5-2.2-5-5v-29.1c0-2.8,2.2-5,5-5s5,2.2,5,5V436C48.4,438.7,46.2,441,43.4,441z"/>
	</g>
</g>
<g>
	<g>
		<path class="st11" d="M22.3,427.2c-0.7-2.1-1.1-4.4-1.1-6.8c0-12.2,9.9-22.2,22.2-22.2c12.2,0,22.2,9.9,22.2,22.2
			c0,2.4-0.4,4.7-1.1,6.8c9.9,2.2,17.3,11,17.3,21.6c0,12.2-9.9,22.2-22.2,22.2c-6.4,0-12.2-2.7-16.3-7.1c-4,4.4-9.8,7.1-16.3,7.1
			C14.9,471,5,461,5,448.8C5,438.2,12.4,429.4,22.3,427.2z"/>
	</g>
</g>
<g>
	<g>
		<path class="st3" d="M59.7,476c-5.9,0-11.6-1.9-16.3-5.4C38.7,474,33,476,27.2,476C12.2,476,0,463.8,0,448.8
			c0-10.9,6.7-20.7,16.5-25c-0.1-1.1-0.2-2.3-0.2-3.5c0-15,12.2-27.2,27.2-27.2s27.2,12.2,27.2,27.2c0,1.2-0.1,2.3-0.2,3.5
			c9.8,4.2,16.5,14,16.5,25C86.8,463.8,74.6,476,59.7,476z M43.4,458.8c1.4,0,2.7,0.6,3.7,1.6c3.3,3.6,7.8,5.5,12.6,5.5
			c9.5,0,17.2-7.7,17.2-17.2c0-8-5.6-15-13.4-16.7c-1.4-0.3-2.6-1.2-3.3-2.4c-0.7-1.2-0.9-2.7-0.4-4c0.5-1.7,0.8-3.5,0.8-5.3
			c0-9.5-7.7-17.2-17.2-17.2s-17.2,7.7-17.2,17.2c0,1.8,0.3,3.6,0.8,5.3c0.4,1.3,0.3,2.8-0.4,4c-0.7,1.2-1.9,2.1-3.3,2.4
			c-7.8,1.7-13.4,8.8-13.4,16.7c0,9.5,7.7,17.2,17.2,17.2c4.8,0,9.3-2,12.6-5.5C40.7,459.4,42,458.8,43.4,458.8z"/>
	</g>
</g>
<g>
	<g>
		<path class="st3" d="M43.4,498c-2.8,0-5-2.2-5-5v-29.1c0-2.8,2.2-5,5-5s5,2.2,5,5V493C48.4,495.7,46.2,498,43.4,498z"/>
	</g>
</g>
<g>
	<g>
		<path class="st11" d="M435.5,313.2c-0.7-2.1-1.1-4.4-1.1-6.8c0-12.2,9.9-22.2,22.2-22.2c12.2,0,22.2,9.9,22.2,22.2
			c0,2.4-0.4,4.7-1.1,6.8c9.9,2.2,17.3,11,17.3,21.6c0,12.2-9.9,22.2-22.2,22.2c-6.4,0-12.2-2.7-16.3-7.1c-4,4.4-9.8,7.1-16.3,7.1
			c-12.2,0-22.2-9.9-22.2-22.2C418.2,324.2,425.6,315.4,435.5,313.2z"/>
	</g>
</g>
<g>
	<g>
		<path class="st20" d="M493.4,342.9c-7.2-12.9-21-21.7-36.9-21.7c-15.8,0-29.6,8.8-36.9,21.7c3.3,8.2,11.2,14,20.6,14
			c6.4,0,12.2-2.7,16.3-7.1c4,4.4,9.8,7.1,16.3,7.1C482.2,356.9,490.2,351.1,493.4,342.9z"/>
	</g>
</g>
<g>
	<g>
		<path class="st3" d="M472.8,361.9c-5.9,0-11.6-1.9-16.3-5.4c-4.7,3.5-10.4,5.4-16.3,5.4c-15,0-27.2-12.2-27.2-27.2
			c0-10.9,6.7-20.7,16.5-25c-0.1-1.1-0.2-2.3-0.2-3.5c0-15,12.2-27.2,27.2-27.2s27.2,12.2,27.2,27.2c0,1.2-0.1,2.3-0.2,3.5
			c9.8,4.2,16.5,14,16.5,25C500,349.7,487.8,361.9,472.8,361.9z M456.6,344.8L456.6,344.8c1.4,0,2.7,0.6,3.7,1.6
			c3.3,3.5,7.8,5.5,12.6,5.5c9.5,0,17.2-7.7,17.2-17.2c0-8-5.6-15-13.4-16.7c-1.4-0.3-2.6-1.2-3.3-2.4c-0.7-1.2-0.9-2.7-0.4-4
			c0.5-1.7,0.8-3.5,0.8-5.3c0-9.5-7.7-17.2-17.2-17.2s-17.2,7.7-17.2,17.2c0,1.8,0.3,3.6,0.8,5.3c0.4,1.3,0.3,2.8-0.4,4
			c-0.7,1.2-1.9,2.1-3.3,2.4c-7.8,1.7-13.4,8.8-13.4,16.7c0,9.5,7.7,17.2,17.2,17.2c4.8,0,9.3-2,12.6-5.5
			C453.9,345.4,455.2,344.8,456.6,344.8z"/>
	</g>
</g>
<g>
	<g>
		<path class="st3" d="M456.6,383.9c-2.8,0-5-2.2-5-5v-29.1c0-2.8,2.2-5,5-5s5,2.2,5,5v29.1C461.6,381.7,459.4,383.9,456.6,383.9z"
			/>
	</g>
</g>
<g>
	<g>
		<path class="st11" d="M435.5,370.2c-0.7-2.1-1.1-4.4-1.1-6.8c0-12.2,9.9-22.2,22.2-22.2c12.2,0,22.2,9.9,22.2,22.2
			c0,2.4-0.4,4.7-1.1,6.8c9.9,2.2,17.3,11,17.3,21.6c0,12.2-9.9,22.2-22.2,22.2c-6.4,0-12.2-2.7-16.3-7.1c-4,4.4-9.8,7.1-16.3,7.1
			c-12.2,0-22.2-9.9-22.2-22.2C418.2,381.2,425.6,372.4,435.5,370.2z"/>
	</g>
</g>
<g>
	<g>
		<path class="st20" d="M493.4,399.9c-7.2-12.9-21-21.7-36.9-21.7s-29.6,8.8-36.9,21.7c3.3,8.2,11.2,14,20.6,14
			c6.4,0,12.2-2.7,16.3-7.1c4,4.4,9.8,7.1,16.3,7.1C482.2,413.9,490.2,408.1,493.4,399.9z"/>
	</g>
</g>
<g>
	<g>
		<path class="st3" d="M472.8,418.9c-5.9,0-11.6-1.9-16.3-5.4c-4.7,3.5-10.4,5.4-16.3,5.4c-15,0-27.2-12.2-27.2-27.2
			c0-10.9,6.7-20.7,16.5-25c-0.1-1.1-0.2-2.3-0.2-3.5c0-15,12.2-27.2,27.2-27.2s27.2,12.2,27.2,27.2c0,1.2-0.1,2.3-0.2,3.5
			c9.8,4.2,16.5,14,16.5,25C500,406.8,487.8,418.9,472.8,418.9z M456.6,401.8L456.6,401.8c1.4,0,2.7,0.6,3.7,1.6
			c3.3,3.6,7.8,5.5,12.6,5.5c9.5,0,17.2-7.7,17.2-17.2c0-8-5.6-15-13.4-16.7c-1.4-0.3-2.6-1.2-3.3-2.4c-0.7-1.2-0.9-2.7-0.4-4
			c0.5-1.7,0.8-3.5,0.8-5.3c0-9.5-7.7-17.2-17.2-17.2s-17.2,7.7-17.2,17.2c0,1.8,0.3,3.6,0.8,5.3c0.4,1.3,0.3,2.8-0.4,4
			s-1.9,2.1-3.3,2.4c-7.8,1.7-13.4,8.8-13.4,16.7c0,9.5,7.7,17.2,17.2,17.2c4.8,0,9.3-2,12.6-5.5
			C453.9,402.4,455.2,401.8,456.6,401.8z"/>
	</g>
</g>
<g>
	<g>
		<path class="st3" d="M456.6,441c-2.8,0-5-2.2-5-5v-29.1c0-2.8,2.2-5,5-5s5,2.2,5,5V436C461.6,438.7,459.4,441,456.6,441z"/>
	</g>
</g>
<g>
	<g>
		<path class="st11" d="M435.5,427.2c-0.7-2.1-1.1-4.4-1.1-6.8c0-12.2,9.9-22.2,22.2-22.2c12.2,0,22.2,9.9,22.2,22.2
			c0,2.4-0.4,4.7-1.1,6.8c9.9,2.2,17.3,11,17.3,21.6c0,12.2-9.9,22.2-22.2,22.2c-6.4,0-12.2-2.7-16.3-7.1c-4,4.4-9.8,7.1-16.3,7.1
			c-12.2,0-22.2-9.9-22.2-22.2C418.2,438.2,425.6,429.4,435.5,427.2z"/>
	</g>
</g>
<g>
	<g>
		<path class="st3" d="M472.8,476c-5.9,0-11.6-1.9-16.3-5.4c-4.7,3.5-10.4,5.4-16.3,5.4c-15,0-27.2-12.2-27.2-27.2
			c0-10.9,6.7-20.7,16.5-25c-0.1-1.1-0.2-2.3-0.2-3.5c0-15,12.2-27.2,27.2-27.2s27.2,12.2,27.2,27.2c0,1.2-0.1,2.3-0.2,3.5
			c9.8,4.2,16.5,14,16.5,25C500,463.8,487.8,476,472.8,476z M456.6,458.8L456.6,458.8c1.4,0,2.7,0.6,3.7,1.6
			c3.3,3.5,7.8,5.5,12.6,5.5c9.5,0,17.2-7.7,17.2-17.2c0-8-5.6-15-13.4-16.7c-1.4-0.3-2.6-1.2-3.3-2.4c-0.7-1.2-0.9-2.7-0.4-4
			c0.5-1.7,0.8-3.5,0.8-5.3c0-9.5-7.7-17.2-17.2-17.2s-17.2,7.7-17.2,17.2c0,1.8,0.3,3.6,0.8,5.3c0.4,1.3,0.3,2.8-0.4,4
			c-0.7,1.2-1.9,2.1-3.3,2.4c-7.8,1.7-13.4,8.8-13.4,16.7c0,9.5,7.7,17.2,17.2,17.2c4.8,0,9.3-2,12.6-5.5
			C453.9,459.4,455.2,458.8,456.6,458.8z"/>
	</g>
</g>
<g>
	<g>
		<path class="st3" d="M456.6,498c-2.8,0-5-2.2-5-5v-29.1c0-2.8,2.2-5,5-5s5,2.2,5,5V493C461.6,495.7,459.4,498,456.6,498z"/>
	</g>
</g>
</svg>
