<?xml version="1.0" standalone="no"?>
<!DOCTYPE svg PUBLIC "-//W3C//DTD SVG 20010904//EN"
 "http://www.w3.org/TR/2001/REC-SVG-20010904/DTD/svg10.dtd">
<svg version="1.0" xmlns="http://www.w3.org/2000/svg"
 width="2112.000000pt" height="2016.000000pt" viewBox="0 0 2112.000000 2016.000000"
 preserveAspectRatio="xMidYMid meet">
<metadata>
Created by potrace 1.16, written by Peter Selinger 2001-2019
</metadata>
<g transform="translate(0.000000,2016.000000) scale(0.100000,-0.100000)"
fill="#000000" stroke="none">
<path d="M10020 19994 c-414 -25 -860 -82 -1320 -170 -1295 -247 -2615 -809
-3750 -1597 -938 -651 -1749 -1447 -2407 -2362 -416 -579 -754 -1179 -1058
-1880 -245 -565 -473 -1306 -584 -1900 -95 -509 -150 -939 -167 -1323 -4 -78
-10 -144 -13 -146 -3 -2 -4 46 -1 107 3 62 3 130 0 152 -4 28 -8 9 -12 -65
-19 -316 -16 -1076 7 -1337 49 -571 118 -1012 240 -1518 169 -701 360 -1229
725 -2000 172 -363 527 -962 766 -1291 32 -45 97 -135 144 -199 84 -116 291
-381 376 -481 24 -28 44 -53 44 -56 0 -2 24 -30 53 -60 28 -31 66 -72 82 -91
70 -82 131 -151 192 -214 155 -161 315 -321 406 -406 55 -51 130 -122 167
-159 38 -38 72 -68 76 -68 3 0 26 -19 49 -43 92 -89 122 -117 129 -117 3 0 22
-15 40 -33 18 -17 42 -39 52 -47 11 -9 51 -42 89 -75 39 -32 75 -63 80 -67 6
-5 24 -20 40 -33 17 -14 34 -25 38 -25 4 0 18 -10 31 -23 38 -36 66 -57 76
-57 6 0 10 -3 10 -8 0 -4 18 -18 40 -32 22 -14 40 -28 40 -32 0 -5 4 -8 10 -8
9 0 35 -19 65 -47 8 -7 17 -13 22 -13 4 0 14 -9 21 -20 7 -11 17 -20 23 -20
11 0 92 -60 97 -72 2 -5 10 -8 18 -8 8 0 14 -4 14 -10 0 -5 7 -10 15 -10 8 0
15 -4 15 -8 0 -5 12 -15 27 -22 16 -8 36 -21 46 -29 9 -8 17 -11 17 -7 0 4 11
-5 25 -19 14 -14 30 -25 34 -25 4 0 21 -11 37 -25 15 -13 42 -30 59 -37 16 -6
32 -14 35 -17 9 -10 64 -42 83 -48 9 -3 17 -9 17 -14 0 -5 5 -9 10 -9 6 0 20
-9 32 -20 12 -11 34 -26 50 -32 15 -7 28 -16 28 -20 0 -5 6 -8 13 -8 7 0 20
-8 29 -17 30 -32 48 -44 57 -38 5 3 16 -2 24 -10 9 -8 20 -15 26 -15 6 0 11
-4 11 -10 0 -5 9 -10 20 -10 11 0 20 -4 20 -10 0 -5 9 -10 20 -10 11 0 20 -4
20 -10 0 -5 7 -10 15 -10 8 0 15 -4 15 -9 0 -5 8 -11 18 -15 9 -3 37 -18 62
-32 25 -14 51 -27 58 -28 8 -1 17 -7 20 -13 4 -6 17 -13 30 -17 12 -4 22 -12
22 -17 0 -6 4 -8 9 -4 5 3 16 -2 24 -10 9 -8 22 -15 30 -15 7 0 17 -3 21 -7 4
-5 11 -8 14 -8 20 -2 52 -18 52 -26 0 -5 3 -8 8 -7 11 3 102 -45 102 -54 0 -4
6 -5 13 -2 7 2 23 -5 35 -16 12 -12 22 -15 22 -9 0 8 6 6 18 -4 10 -9 34 -23
55 -32 20 -8 37 -20 37 -26 0 -5 5 -7 11 -4 5 4 18 1 27 -7 9 -8 33 -20 52
-27 46 -17 81 -31 102 -42 10 -5 25 -9 33 -9 8 0 15 -4 15 -10 0 -5 9 -10 20
-10 11 0 20 -4 20 -8 0 -4 9 -8 21 -9 11 -1 31 -8 42 -16 12 -8 27 -15 32 -17
6 -1 19 -9 30 -16 11 -8 30 -14 42 -14 13 0 23 -5 23 -11 0 -5 5 -7 10 -4 6 4
31 -5 55 -20 25 -14 45 -22 45 -18 0 4 7 -1 15 -11 9 -12 15 -15 15 -7 0 10 3
11 13 2 8 -6 17 -8 20 -4 4 3 7 2 7 -4 0 -5 6 -10 13 -10 6 0 43 -12 82 -28
38 -15 74 -28 80 -29 5 -1 20 -7 32 -14 12 -7 26 -12 32 -12 5 0 20 -4 33 -9
13 -5 25 -8 28 -8 3 1 19 -6 35 -15 34 -18 115 -43 129 -39 5 1 12 -3 16 -9 4
-6 17 -12 28 -13 12 -1 22 -4 22 -7 0 -3 8 -6 18 -7 39 -3 191 -49 260 -79 25
-11 31 -11 26 -2 -5 9 0 8 16 -3 14 -8 38 -16 55 -17 16 -1 34 -7 39 -12 6 -6
25 -10 42 -10 18 0 35 -4 38 -9 3 -5 20 -11 38 -14 74 -12 103 -19 106 -27 2
-5 10 -6 18 -3 8 3 20 1 27 -5 6 -5 53 -17 102 -26 50 -9 97 -19 105 -23 8 -3
22 -7 30 -8 49 -6 106 -19 155 -33 22 -7 55 -12 73 -12 17 0 32 -4 32 -8 0 -4
8 -8 18 -9 9 -1 34 -2 55 -4 21 -1 40 -5 42 -9 2 -4 32 -8 66 -9 38 -1 71 -9
87 -19 15 -9 23 -11 19 -5 -11 18 8 16 27 -2 17 -17 30 -20 21 -5 -8 12 -5 12
31 1 16 -6 54 -12 84 -15 30 -3 69 -7 85 -10 44 -9 115 -17 160 -19 22 -1 46
-6 53 -10 6 -5 17 -5 22 -2 6 3 16 3 23 -2 6 -4 26 -9 42 -10 17 0 31 -2 33
-3 1 -2 19 -4 40 -5 20 -2 66 -6 102 -10 81 -7 214 -14 390 -20 75 -2 143 -7
153 -11 10 -3 17 -1 17 6 0 6 5 8 12 4 12 -8 582 -7 708 1 41 3 145 8 230 11
214 8 210 7 210 14 0 4 21 6 46 5 25 0 47 2 49 5 2 3 37 5 79 5 42 0 76 2 76
5 0 3 18 6 40 7 57 3 80 6 80 13 0 3 10 6 23 6 36 2 167 16 185 19 9 2 30 4
45 4 16 1 26 5 22 11 -4 7 2 7 19 0 16 -6 26 -6 28 1 2 6 21 12 43 13 22 1 50
7 62 14 12 7 32 11 45 11 24 -1 72 5 135 17 21 5 43 8 48 9 6 0 37 7 70 15 33
7 66 13 74 11 7 -1 11 1 8 6 -3 4 18 9 46 11 29 2 72 10 97 19 25 9 52 17 60
18 8 1 22 5 30 8 8 3 29 9 45 13 41 10 45 11 48 14 1 1 15 4 32 6 16 3 33 10
36 16 4 7 9 7 13 -1 5 -7 14 -6 30 4 12 8 25 12 29 9 6 -6 103 13 122 24 9 5
26 9 63 14 6 1 12 5 12 10 0 4 9 8 20 8 12 0 34 7 50 15 16 8 33 14 37 13 19
-5 90 15 107 30 10 10 20 16 22 15 2 -2 5 -3 7 -2 1 0 9 2 17 4 8 2 26 7 40
10 14 4 32 8 40 9 8 1 27 7 41 14 15 6 43 14 63 17 20 4 39 11 42 16 3 5 10 7
15 4 5 -4 16 0 23 8 8 8 45 22 83 31 37 10 83 26 102 37 18 11 36 18 39 15 2
-3 14 0 26 6 11 7 23 13 26 13 3 1 16 6 30 12 47 21 65 26 83 24 9 -1 17 3 17
9 0 7 6 10 14 7 7 -3 21 4 30 14 9 11 21 17 26 14 6 -3 10 -1 10 4 0 6 11 11
24 11 14 0 28 5 31 11 4 6 13 8 20 5 7 -2 16 2 19 10 3 8 14 14 23 14 10 0 28
7 40 15 12 9 26 15 30 14 7 -2 32 7 83 28 8 3 18 5 23 5 4 -1 7 2 7 6 0 9 48
32 115 55 22 8 56 24 75 36 19 11 43 21 53 21 9 0 17 4 17 9 0 9 54 35 66 31
4 -1 11 5 16 14 5 9 19 16 31 16 12 0 33 9 47 20 14 11 32 20 41 20 8 0 30 11
49 25 18 13 37 22 41 19 5 -3 9 -1 9 4 0 5 14 15 30 22 17 7 30 17 30 22 0 5
4 7 9 3 5 -3 12 -1 16 5 3 6 39 26 78 46 110 53 191 98 205 111 7 7 19 13 26
13 7 0 32 13 54 30 23 16 44 30 47 30 5 0 158 92 165 99 3 3 25 17 50 30 25
14 47 27 50 31 12 15 110 81 110 74 0 -4 8 2 18 12 9 10 37 30 62 43 25 14 47
27 50 31 3 4 41 31 85 60 44 30 82 57 85 60 3 3 28 21 55 39 28 19 52 38 55
42 3 3 30 22 60 42 30 19 71 49 90 66 19 17 38 31 41 31 3 0 15 8 27 18 11 9
31 26 44 37 12 11 38 30 56 42 18 12 46 35 62 50 38 36 56 51 110 93 24 19 50
40 56 45 6 6 26 21 44 35 36 27 117 101 302 275 36 33 102 94 147 135 99 89
215 200 210 200 -3 0 36 42 86 94 104 108 182 192 210 228 11 14 47 55 80 90
77 82 134 147 176 199 19 23 41 50 50 59 9 10 36 44 60 76 48 66 49 67 85 109
14 17 78 100 141 185 64 85 121 160 127 165 7 6 18 24 25 41 7 18 21 40 30 51
23 24 82 110 100 144 7 15 24 38 37 52 13 14 24 29 24 33 0 4 10 21 23 38 13
17 70 108 127 201 279 457 491 867 683 1315 395 927 626 1840 727 2880 31 324
40 541 39 890 -2 361 -10 543 -34 825 -22 259 -79 703 -92 715 -6 6 5 -159 11
-169 2 -3 7 -40 11 -81 3 -41 10 -102 15 -135 6 -33 9 -76 9 -95 -1 -19 -12
46 -26 145 -98 725 -226 1275 -451 1935 -407 1198 -1078 2342 -1948 3325 -195
220 -586 615 -791 798 -702 625 -1478 1145 -2314 1551 -1219 592 -2483 916
-3849 986 -262 13 -835 10 -1100 -6z m870 -4 c423 -16 867 -54 1125 -95 823
-131 1327 -258 2010 -508 322 -118 855 -351 1090 -477 28 -15 104 -55 170 -90
66 -35 122 -66 125 -69 3 -3 22 -14 42 -23 32 -15 335 -193 428 -252 83 -52
183 -121 195 -133 8 -7 16 -13 19 -13 7 0 214 -140 255 -172 13 -10 20 -18 16
-18 -8 0 -105 59 -115 70 -5 5 -127 86 -280 186 -41 27 -79 52 -85 57 -5 4
-79 48 -162 98 -84 50 -153 95 -153 100 0 6 -4 8 -9 5 -5 -3 -39 12 -77 34
-94 54 -699 356 -804 402 -168 73 -468 196 -585 239 -184 69 -228 84 -390 136
-270 87 -315 100 -591 173 -442 118 -959 212 -1429 260 -657 66 -1378 72
-1975 14 -179 -17 -450 -50 -530 -63 -530 -92 -804 -147 -990 -201 -36 -10
-148 -41 -250 -69 -273 -75 -715 -225 -979 -332 -794 -323 -1599 -776 -2235
-1259 -245 -186 -415 -320 -511 -405 -16 -15 -54 -48 -84 -73 -30 -26 -59 -51
-65 -57 -6 -5 -56 -50 -111 -100 -278 -250 -642 -622 -854 -875 -310 -368
-544 -681 -792 -1060 -51 -77 -96 -140 -101 -140 -10 0 -3 16 20 43 8 9 12 17
9 17 -19 0 286 453 457 679 72 96 140 186 150 200 192 257 664 774 931 1021
50 46 119 111 155 145 85 80 392 341 505 430 355 279 844 616 1144 787 58 34
138 79 176 101 871 502 1920 895 2905 1091 574 113 1042 170 1620 195 273 12
320 12 610 1z m262 -485 c139 -8 269 -17 288 -20 19 -2 69 -7 110 -10 41 -3
86 -8 100 -10 14 -3 102 -14 195 -25 178 -20 439 -57 465 -65 8 -3 56 -12 105
-20 138 -24 661 -148 820 -195 440 -129 964 -321 1272 -466 39 -19 73 -34 76
-34 17 0 485 -237 602 -305 40 -22 78 -44 205 -113 56 -31 93 -53 215 -129 11
-7 34 -20 50 -29 29 -16 200 -132 375 -254 47 -33 93 -65 104 -72 10 -7 48
-36 85 -63 36 -28 89 -66 116 -85 28 -19 88 -66 135 -105 47 -38 103 -83 124
-100 21 -16 48 -38 60 -47 11 -10 26 -21 31 -25 22 -16 140 -117 150 -127 6
-6 30 -29 55 -50 198 -172 574 -541 725 -709 39 -44 85 -95 103 -115 18 -21
43 -50 55 -65 12 -15 36 -43 52 -62 67 -74 205 -242 254 -308 21 -29 51 -65
66 -82 14 -16 34 -41 43 -55 9 -14 37 -52 62 -85 26 -33 75 -103 111 -155 35
-52 67 -96 72 -98 4 -2 7 -10 7 -17 0 -7 4 -15 8 -17 8 -3 212 -303 212 -312
0 -4 108 -188 153 -261 14 -22 50 -85 80 -140 30 -55 74 -134 97 -175 271
-486 565 -1221 739 -1845 283 -1015 392 -2103 312 -3105 -21 -260 -27 -315
-62 -570 -76 -554 -197 -1074 -368 -1588 -282 -843 -681 -1649 -1154 -2327
-725 -1040 -1551 -1853 -2582 -2542 -455 -304 -1082 -639 -1620 -865 -225 -95
-744 -277 -975 -342 -701 -197 -1334 -305 -2095 -356 -1204 -80 -2542 113
-3735 538 -277 99 -348 127 -595 237 -704 311 -1305 658 -1880 1085 -674 501
-1242 1052 -1780 1730 -614 774 -1093 1626 -1435 2550 -222 601 -391 1274
-470 1869 -11 85 -24 181 -29 215 -12 77 -39 386 -51 581 -11 183 -5 836 10
1035 106 1494 527 2840 1287 4115 13 22 36 62 51 88 30 53 295 457 327 499 11
14 27 36 35 48 29 44 294 395 305 405 6 6 29 33 50 60 22 28 42 52 45 55 3 3
25 30 50 60 25 30 66 78 92 105 25 28 57 63 70 80 13 16 37 44 53 62 156 168
227 242 268 282 27 25 95 93 152 151 57 57 107 102 109 99 3 -3 -83 -94 -190
-203 -108 -110 -232 -240 -277 -290 -44 -50 -93 -102 -107 -116 -27 -26 -131
-152 -238 -289 -15 -18 -32 -39 -39 -46 -19 -20 -267 -347 -303 -400 -19 -27
-37 -51 -42 -53 -4 -2 -8 -9 -8 -15 0 -7 -10 -23 -23 -37 -13 -14 -26 -33 -30
-42 -3 -10 -11 -18 -17 -18 -5 0 -10 -5 -10 -11 0 -6 -38 -68 -84 -138 -46
-69 -95 -146 -110 -171 -41 -68 -50 -83 -67 -110 -37 -56 -180 -309 -266 -470
-212 -396 -427 -882 -563 -1275 -85 -244 -259 -846 -286 -990 -2 -11 -8 -40
-13 -65 -60 -270 -127 -698 -160 -1025 -58 -564 -60 -1212 -5 -1790 120 -1269
519 -2515 1167 -3645 607 -1060 1430 -2005 2392 -2749 458 -354 921 -646 1480
-932 419 -214 754 -362 1100 -483 88 -31 170 -61 181 -65 52 -22 365 -116 539
-162 673 -178 1274 -278 1920 -320 246 -16 921 -16 1140 -1 557 41 849 78
1285 163 538 105 1028 247 1551 447 547 211 1120 499 1659 837 847 530 1660
1252 2276 2020 476 594 769 1045 1094 1690 220 435 361 772 504 1197 196 582
321 1119 395 1703 56 439 65 588 66 1095 0 585 -13 827 -65 1215 -45 332 -66
459 -110 670 -96 465 -229 931 -383 1345 -27 74 -56 153 -64 174 -8 22 -23 59
-34 82 -10 24 -19 46 -19 49 0 7 -10 31 -60 140 -18 38 -40 90 -50 115 -10 25
-25 58 -34 74 -8 16 -13 33 -10 38 3 4 0 8 -6 8 -6 0 -9 4 -5 9 3 5 1 12 -4
15 -13 8 -71 122 -71 140 0 8 -6 21 -13 28 -12 12 -29 45 -31 60 -1 4 -7 13
-13 19 -7 7 -13 20 -13 30 0 9 -8 27 -17 40 -32 44 -163 283 -163 298 0 5 -4
11 -8 13 -4 2 -30 41 -56 88 -187 327 -509 803 -720 1064 -92 114 -136 172
-136 180 0 3 -15 20 -33 38 -18 18 -55 60 -82 93 -362 439 -977 1022 -1470
1391 -532 399 -960 666 -1495 933 -388 193 -525 253 -890 391 -406 153 -830
280 -1285 385 -622 143 -1585 239 -2225 221 -944 -27 -1796 -161 -2605 -411
-347 -108 -673 -227 -930 -340 -465 -205 -754 -354 -1155 -595 -261 -158 -740
-480 -882 -594 -18 -14 -73 -58 -123 -97 -49 -40 -106 -86 -126 -103 -20 -17
-44 -38 -55 -47 -10 -8 -41 -34 -69 -58 -27 -24 -77 -66 -110 -95 -33 -28
-108 -95 -167 -149 -60 -54 -108 -95 -108 -90 0 17 177 184 340 322 47 40 104
89 128 109 24 20 48 39 54 41 6 2 18 11 28 20 10 9 29 25 44 36 14 11 36 28
48 39 13 10 39 30 58 45 19 14 40 31 46 36 6 6 39 30 73 55 35 25 75 55 89 67
15 13 31 23 35 23 4 0 22 13 40 30 18 16 37 30 44 30 6 0 13 3 15 8 5 10 95
72 106 72 5 0 21 11 36 25 15 14 34 25 42 25 7 0 14 4 14 9 0 5 8 12 19 16 10
3 31 17 45 30 15 14 44 35 66 47 21 13 77 49 124 81 47 31 89 57 93 57 3 0 14
6 22 14 9 7 41 27 71 43 30 16 74 42 97 56 24 15 45 27 47 27 3 0 43 22 88 49
89 52 259 141 270 141 3 0 50 24 102 54 53 30 124 66 159 80 34 14 107 47 162
74 338 165 1101 436 1500 532 142 34 173 42 287 70 405 102 1226 212 1733 233
217 9 675 5 897 -8z m-182 -175 c0 -3 37 -6 83 -6 177 -3 453 -20 469 -30 6
-4 33 -7 62 -8 28 0 56 -4 61 -7 6 -3 46 -7 90 -8 44 -2 82 -6 85 -9 3 -4 32
-7 65 -8 33 -1 71 -4 85 -9 14 -4 52 -9 85 -11 33 -3 67 -7 75 -11 8 -3 26 -7
40 -9 32 -5 65 -12 65 -14 0 -1 14 -3 30 -5 42 -6 96 -15 125 -20 14 -3 34 -7
45 -9 11 -2 27 -6 35 -9 17 -7 96 -19 123 -18 10 0 15 -5 11 -11 -4 -7 -2 -8
5 -4 6 4 18 2 26 -4 8 -7 22 -10 30 -6 9 3 23 2 33 -3 20 -11 98 -28 167 -37
28 -4 91 -20 140 -36 50 -16 122 -38 161 -48 39 -11 84 -25 100 -31 16 -7 37
-11 47 -10 9 1 17 -3 17 -8 0 -6 10 -11 21 -11 31 0 103 -22 111 -35 4 -5 8
-7 8 -3 0 3 23 -2 50 -13 28 -10 50 -17 50 -14 0 3 14 -2 31 -10 17 -9 33 -14
37 -11 3 3 10 2 16 -3 6 -6 23 -11 38 -13 14 -2 32 -8 39 -14 17 -13 141 -54
177 -59 15 -2 50 -16 77 -30 28 -15 50 -26 50 -25 0 3 40 -11 57 -21 10 -5 27
-9 38 -9 11 0 20 -5 20 -11 0 -6 7 -9 15 -5 8 3 15 0 15 -7 0 -12 34 -27 115
-50 23 -7 53 -20 68 -29 14 -10 33 -18 41 -18 8 0 18 -4 21 -10 3 -5 15 -10
26 -10 13 0 18 -4 13 -12 -4 -7 -3 -8 5 -4 6 4 18 2 26 -4 8 -7 15 -9 15 -5 0
5 8 1 18 -8 9 -8 29 -19 45 -22 15 -4 27 -11 27 -17 0 -5 4 -7 8 -4 5 3 21 -3
37 -14 15 -10 33 -16 39 -14 7 3 21 -5 33 -16 12 -11 27 -20 33 -20 6 0 18 -4
28 -9 9 -5 31 -15 47 -22 17 -8 39 -22 49 -31 11 -10 28 -18 37 -18 10 0 22
-7 27 -16 5 -9 12 -15 16 -13 8 2 128 -51 136 -60 3 -3 22 -14 43 -23 21 -10
40 -25 43 -33 4 -8 12 -15 20 -15 17 0 85 -35 139 -70 22 -15 55 -32 73 -39
17 -8 32 -17 32 -22 0 -5 3 -8 8 -8 19 3 33 -2 27 -10 -3 -5 11 -15 30 -22 19
-7 35 -17 35 -21 0 -4 5 -8 10 -8 6 0 35 -18 65 -40 30 -22 55 -38 55 -35 0 5
38 -21 105 -72 6 -5 30 -19 55 -32 25 -13 62 -36 82 -52 20 -16 41 -29 47 -29
5 0 11 -4 13 -8 2 -5 30 -27 63 -49 33 -23 70 -50 82 -62 12 -12 26 -21 30
-21 5 0 15 -9 23 -20 8 -11 19 -20 25 -20 5 0 51 -32 100 -71 50 -38 115 -89
145 -112 50 -38 76 -60 148 -124 14 -13 28 -23 33 -23 4 0 29 -19 56 -41 26
-23 72 -63 102 -88 30 -25 92 -83 139 -128 47 -46 90 -83 94 -83 4 0 8 -6 8
-12 0 -7 18 -26 40 -42 22 -17 50 -45 63 -63 12 -18 28 -33 35 -33 7 0 16 -8
19 -17 4 -9 22 -31 41 -47 19 -17 48 -44 66 -61 18 -16 48 -44 67 -61 32 -30
94 -95 214 -225 28 -30 71 -79 95 -109 24 -30 74 -89 111 -130 36 -41 74 -85
85 -98 10 -13 34 -40 52 -60 65 -73 72 -81 72 -92 0 -5 4 -10 8 -10 5 0 18
-17 30 -38 11 -21 31 -49 44 -63 13 -14 38 -45 56 -70 17 -24 48 -64 67 -89
19 -25 60 -81 92 -125 31 -44 61 -82 65 -83 5 -2 6 -8 2 -13 -3 -5 -1 -9 5 -9
5 0 13 -9 16 -20 3 -11 12 -26 18 -33 7 -7 17 -20 22 -28 6 -9 49 -74 96 -145
86 -130 136 -212 192 -314 17 -30 38 -67 49 -82 10 -14 18 -28 18 -31 0 -3 19
-38 42 -79 261 -459 499 -992 668 -1498 270 -808 441 -1714 465 -2470 3 -96 8
-224 10 -285 13 -366 -45 -1108 -121 -1560 -65 -387 -106 -570 -214 -955 -159
-566 -313 -970 -574 -1505 -501 -1025 -1190 -1953 -2026 -2728 -710 -658
-1491 -1188 -2365 -1605 -378 -180 -696 -308 -1090 -440 -466 -156 -1053 -294
-1540 -361 -82 -12 -181 -25 -220 -31 -80 -12 -314 -33 -555 -52 -221 -17
-1002 -17 -1225 0 -674 51 -1357 171 -1960 343 -998 286 -1961 751 -2855 1378
-529 371 -1081 865 -1531 1371 -393 443 -667 805 -951 1260 -614 985 -999
1948 -1218 3053 -132 660 -178 1170 -167 1842 10 638 59 1077 193 1742 49 244
211 844 245 905 5 10 9 24 9 32 0 8 14 50 31 93 17 43 32 83 33 88 15 58 29
98 49 140 28 59 97 229 97 240 0 8 21 56 75 170 87 183 118 251 118 263 0 6 4
12 8 12 6 0 24 41 30 68 0 4 10 19 20 34 10 14 19 31 19 38 0 7 8 24 19 38 16
23 59 113 61 127 0 3 9 19 20 37 10 18 42 78 71 133 28 55 69 127 90 160 21
33 48 80 61 105 12 25 28 51 34 58 7 6 16 22 20 35 4 12 10 24 13 27 4 3 32
46 62 95 30 50 57 92 62 93 4 2 7 8 7 13 0 9 38 69 51 79 3 3 14 21 24 40 10
19 21 37 24 40 11 8 81 107 81 114 0 4 8 16 18 26 10 11 40 53 67 92 27 40 63
91 79 112 17 22 37 52 46 67 8 15 30 44 48 63 18 20 30 36 27 36 -3 0 7 14 22
31 16 17 30 36 33 43 6 15 82 105 127 151 18 19 33 35 33 38 0 2 26 31 58 63
31 33 74 80 94 104 80 96 108 132 108 139 0 14 457 465 595 587 17 15 57 52
90 83 88 81 178 156 195 163 8 3 46 32 84 65 38 32 76 63 85 68 8 6 27 22 42
38 15 15 31 27 36 27 4 0 28 18 53 40 25 22 53 42 63 46 9 3 17 10 17 15 0 5
5 9 11 9 5 0 24 15 42 33 34 36 131 107 146 107 5 0 19 11 32 25 13 13 28 25
33 25 5 0 25 10 45 22 20 13 38 23 41 23 3 0 18 13 34 27 15 15 38 30 49 34
11 4 32 17 45 29 14 13 36 29 51 36 14 7 52 33 84 56 31 24 60 43 63 43 4 0
37 20 74 45 37 25 71 45 74 45 6 0 64 38 76 50 3 3 25 16 50 29 25 13 56 33
69 43 13 10 27 15 32 12 5 -3 9 0 9 5 0 6 9 11 19 11 11 0 27 7 35 16 9 8 16
12 16 7 0 -4 5 -1 10 7 5 8 13 15 17 15 19 0 100 41 123 62 14 13 31 23 39 23
13 0 112 49 121 61 7 9 130 70 130 65 0 -4 48 20 122 62 20 11 39 18 42 15 3
-4 17 4 31 17 13 13 37 23 52 24 16 1 27 6 26 13 -2 7 4 10 12 7 8 -4 15 -1
15 5 0 6 9 11 19 11 11 0 23 5 26 10 4 6 10 8 15 5 4 -3 28 6 52 20 23 14 53
25 65 25 12 0 25 5 28 10 3 6 14 10 24 10 10 0 30 9 44 20 14 11 32 20 41 20
9 0 24 4 34 9 20 11 78 33 89 34 4 0 13 6 20 12 6 6 42 22 80 34 37 12 77 27
88 32 11 5 30 11 42 14 12 2 32 9 45 16 12 7 39 14 59 15 20 2 66 17 101 33
35 16 107 41 159 55 52 15 101 30 109 33 8 3 24 8 35 10 11 2 49 12 85 22 62
19 124 33 135 32 2 0 25 8 49 19 25 10 71 24 103 30 32 7 67 14 78 16 24 5 81
14 111 18 11 2 26 6 32 9 12 8 223 47 292 54 25 3 50 9 56 14 6 5 20 7 32 4
12 -2 22 0 22 5 0 4 14 6 30 4 21 -4 32 -1 36 10 3 8 12 12 20 9 8 -3 20 -1
27 4 6 6 38 11 70 12 31 1 70 6 86 11 16 4 32 6 35 3 2 -3 20 0 38 6 18 6 73
13 121 17 48 3 96 7 105 8 9 0 19 4 22 8 5 7 89 14 330 27 85 5 158 7 162 5 4
-2 9 -1 12 4 2 4 33 9 67 10 34 1 64 4 66 6 6 6 723 2 723 -4z m7974 -13567
c-169 -320 -495 -814 -771 -1169 -591 -760 -1268 -1405 -2062 -1965 -20 -14
-59 -41 -87 -61 -28 -20 -122 -82 -210 -138 -995 -641 -2072 -1085 -3214
-1326 -983 -208 -2097 -258 -3070 -139 -613 76 -1238 211 -1795 388 -240 77
-597 205 -715 257 -47 21 -170 75 -275 121 -500 220 -1094 554 -1553 873 -808
563 -1556 1281 -2151 2066 -18 25 -38 51 -44 58 -5 6 -7 12 -4 12 2 0 62 -73
133 -162 223 -284 527 -630 739 -843 912 -912 1902 -1574 3150 -2105 209 -89
711 -262 970 -335 205 -58 591 -150 810 -194 1329 -264 2770 -233 4090 89 609
149 1167 342 1700 590 570 264 1139 592 1565 901 41 30 106 77 144 104 508
365 1181 993 1597 1491 283 337 532 670 714 952 155 239 192 299 287 465 56
97 103 177 105 177 3 0 -21 -48 -53 -107z"/>
<path d="M7875 18129 c-493 -20 -932 -128 -1197 -293 -215 -134 -442 -377
-691 -741 -147 -216 -456 -753 -616 -1072 -34 -68 -65 -123 -71 -123 -5 0 -24
21 -41 47 -112 162 -179 189 -494 200 -301 10 -540 -21 -657 -84 -67 -37 -133
-96 -163 -147 -36 -61 -65 -185 -72 -307 -5 -99 -4 -110 19 -160 27 -59 90
-146 122 -168 11 -8 28 -23 38 -33 10 -10 23 -18 28 -18 6 0 10 -4 10 -10 0
-5 7 -10 15 -10 8 0 23 -4 33 -9 9 -5 49 -15 87 -22 39 -6 104 -23 145 -37 41
-13 97 -29 124 -36 l49 -11 -154 -135 c-422 -368 -664 -689 -775 -1028 -43
-130 -80 -328 -95 -508 -14 -167 -6 -661 15 -964 8 -113 20 -290 26 -395 17
-284 36 -471 80 -770 60 -408 93 -509 230 -700 39 -55 83 -121 96 -147 59
-116 76 -303 48 -538 -11 -93 -18 -225 -19 -330 0 -191 8 -233 66 -336 26 -46
183 -204 227 -228 9 -5 19 -12 22 -15 10 -12 50 -31 65 -31 8 0 15 -4 15 -10
0 -5 13 -10 28 -10 15 0 32 -4 37 -9 9 -9 64 -19 128 -25 16 -2 32 -7 35 -12
7 -9 59 -17 114 -18 14 -1 24 -4 22 -8 -3 -4 8 -7 23 -7 15 1 64 -2 108 -5 44
-4 148 -8 231 -10 82 -1 154 -5 160 -7 12 -7 83 -3 90 4 3 3 19 1 35 -3 18 -5
27 -5 24 1 -8 12 2 11 27 -2 15 -8 19 -8 14 0 -5 7 2 10 16 10 13 -1 57 1 98
5 42 3 116 8 165 11 116 7 136 9 160 22 11 6 25 12 30 12 29 4 126 35 131 42
3 5 12 9 20 9 29 0 105 41 98 52 -4 6 -3 8 4 4 14 -8 73 48 104 99 43 71 87
190 103 280 11 64 15 160 15 351 l0 263 28 15 c29 15 34 15 347 15 418 0 872
-13 1143 -32 17 -1 32 -5 32 -9 0 -3 14 -3 30 2 17 5 30 5 30 0 0 -5 21 -8 48
-8 122 3 716 -27 732 -37 5 -3 68 -8 142 -11 73 -3 155 -6 181 -8 27 -1 50 1
53 6 3 4 15 3 28 -2 13 -5 27 -6 30 -3 3 3 13 0 23 -8 14 -12 16 -12 8 0 -6
11 -3 13 16 6 13 -4 45 -8 72 -9 26 0 47 -4 47 -8 0 -4 11 -3 25 2 14 5 25 6
25 2 0 -4 12 -8 28 -8 15 0 68 -4 117 -8 50 -4 113 -8 140 -9 28 -1 53 -6 57
-12 5 -7 8 -6 8 1 0 6 14 9 33 6 17 -2 67 -4 109 -5 43 -1 78 -4 78 -7 0 -4
16 -4 36 -2 24 3 39 0 45 -9 5 -8 9 -9 9 -3 0 10 64 11 158 1 17 -2 32 0 32 4
0 4 10 6 21 4 12 -3 46 -6 75 -7 30 -2 54 -6 54 -9 0 -6 170 -3 255 6 94 10
354 12 349 3 -6 -10 10 -11 20 -1 4 4 18 8 32 9 18 1 23 -3 19 -14 -5 -13 -3
-13 11 -2 13 12 17 11 25 -1 6 -10 9 -10 9 -1 0 6 5 12 11 12 5 0 8 -4 5 -9
-7 -11 156 -7 174 4 9 5 11 4 6 -3 -4 -7 -1 -12 8 -12 9 0 16 4 16 9 0 5 14
11 30 13 17 3 30 2 30 -1 0 -7 86 -5 143 3 22 3 37 1 37 -5 0 -6 5 -7 11 -3
12 7 52 9 364 19 99 3 198 7 220 9 163 14 222 17 310 21 55 2 101 8 103 13 3
9 51 7 61 -3 2 -2 13 0 24 6 14 8 18 8 13 0 -5 -8 0 -8 19 -1 14 5 40 8 58 6
17 -2 44 0 59 5 17 5 28 4 28 -2 0 -6 5 -7 10 -4 6 4 54 8 108 10 53 2 97 4
97 5 0 2 27 4 60 6 33 2 76 5 95 8 40 5 129 13 245 22 44 3 82 6 85 6 3 0 10
-1 15 -2 21 -5 95 -5 95 0 0 3 44 5 98 5 53 0 101 2 106 4 6 3 48 6 95 7 47 1
129 5 181 9 52 3 190 8 305 10 116 2 282 7 370 11 88 3 188 7 223 8 34 0 62 3
62 6 0 5 56 5 138 -1 23 -1 46 -7 52 -13 5 -7 14 -77 20 -156 13 -178 36 -370
56 -470 29 -145 96 -385 115 -416 18 -29 69 -72 69 -59 0 3 10 0 22 -6 13 -7
51 -12 85 -12 35 1 63 -3 63 -7 0 -5 14 -6 31 -3 17 2 29 1 26 -4 -3 -5 2 -9
11 -10 9 0 42 -2 72 -3 30 -2 62 -6 70 -10 14 -7 117 -16 305 -26 103 -6 326
-10 330 -5 2 2 71 5 152 7 81 1 191 6 243 10 52 3 124 7 160 9 36 2 79 6 95
11 17 4 45 7 63 7 17 0 32 4 32 10 0 5 6 5 14 -2 11 -9 15 -8 20 5 5 12 10 14
17 7 7 -7 29 -6 70 4 33 7 64 11 69 8 5 -3 11 -1 15 5 3 5 20 10 38 10 25 0
41 11 84 57 53 56 53 57 53 122 0 36 8 107 17 156 27 146 22 422 -12 680 -20
154 -26 236 -23 309 l5 98 96 192 c53 105 108 227 123 271 67 203 95 534 75
915 -7 135 -16 468 -21 740 -9 505 -19 701 -45 870 -71 446 -183 720 -413
1010 -106 134 -348 369 -555 540 l-175 145 36 3 c20 2 41 7 47 12 9 7 71 23
77 20 2 -1 15 3 29 9 15 5 47 13 70 16 24 4 49 11 56 17 7 5 17 7 23 3 5 -3
10 -2 10 4 0 5 14 12 30 16 17 4 30 12 30 19 0 7 6 13 13 13 31 0 104 44 117
70 8 15 34 58 58 95 52 78 59 117 43 230 -51 356 -170 474 -536 529 -209 31
-586 22 -712 -17 -66 -21 -126 -72 -165 -140 -16 -30 -34 -56 -38 -59 -5 -3
-40 54 -78 127 -170 325 -409 736 -546 938 -229 339 -538 655 -789 809 -282
172 -684 300 -1097 348 -135 16 -233 18 -760 16 -333 -1 -967 -7 -1410 -13
-580 -8 -993 -8 -1475 -1 -368 6 -868 13 -1110 16 -242 3 -494 7 -560 9 -66 1
-201 0 -300 -5z m1375 -25 c846 -16 1048 -16 3195 2 950 9 1082 0 1442 -90
374 -94 681 -242 900 -433 342 -298 615 -666 955 -1288 30 -55 80 -145 110
-200 31 -55 71 -129 89 -165 22 -42 40 -65 51 -65 10 0 38 32 70 80 45 67 62
84 108 108 74 37 181 50 420 50 400 1 656 -74 734 -215 l18 -33 -23 26 c-54
60 -187 126 -309 153 -133 30 -270 39 -475 32 -327 -10 -369 -24 -453 -151
-62 -92 -82 -107 -112 -80 -11 10 -20 22 -20 27 0 22 -200 404 -250 478 -9 14
-36 61 -61 105 -99 182 -341 559 -424 661 -31 38 -70 87 -88 109 -58 74 -342
351 -417 407 -150 113 -321 198 -570 286 -227 80 -404 120 -665 149 -192 21
-810 24 -1900 8 -942 -14 -1511 -10 -3170 21 -867 16 -1433 -93 -1770 -343
-359 -266 -677 -720 -1218 -1737 -40 -77 -80 -144 -89 -149 -25 -16 -68 1 -86
35 -91 166 -185 199 -562 199 -310 1 -469 -23 -570 -84 -57 -35 -141 -119
-161 -162 -16 -34 -18 -36 -12 -10 23 118 147 225 304 263 119 30 515 42 688
22 126 -14 176 -34 235 -94 28 -29 63 -71 78 -94 45 -69 88 -53 130 48 20 48
255 479 360 660 374 647 668 1006 975 1191 246 149 608 244 1053 278 185 13
588 12 1490 -5z m24 -179 c1143 -20 1439 -23 1891 -15 2065 37 2289 32 2652
-59 204 -51 348 -104 503 -184 74 -39 170 -96 180 -107 3 -3 20 -16 38 -29 49
-34 32 -37 -19 -3 -243 162 -652 305 -974 341 -261 30 -454 32 -1520 19 -588
-7 -1214 -13 -1390 -13 -378 0 -1730 15 -1754 20 -57 11 -850 16 -1006 6 -604
-38 -934 -137 -1217 -368 -63 -51 -249 -256 -331 -363 -58 -77 -210 -308 -302
-460 -48 -80 -102 -167 -120 -195 -18 -27 -63 -108 -100 -180 -37 -71 -71
-134 -75 -140 -4 -5 -43 -80 -85 -165 -43 -85 -112 -216 -153 -290 -132 -240
-165 -277 -207 -230 -13 14 -14 19 -4 15 18 -7 85 30 81 45 -1 6 1 9 5 7 5 -3
41 58 81 136 366 718 511 977 703 1262 259 385 452 591 669 714 206 117 485
195 835 231 61 6 119 13 130 14 56 9 779 4 1489 -9z m636 -317 c542 -16 947
-16 1635 1 561 14 1142 10 1392 -9 356 -28 714 -99 963 -190 261 -95 549 -306
713 -520 23 -30 47 -60 52 -66 6 -6 15 -20 22 -30 7 -11 33 -50 58 -89 198
-300 344 -640 425 -992 32 -140 35 -163 21 -163 -5 0 -12 21 -15 48 -8 52 -8
49 -31 147 -91 386 -337 894 -554 1145 -321 370 -665 546 -1251 639 -407 65
-906 82 -1775 61 -712 -17 -1194 -18 -1710 -2 -1422 44 -2247 -19 -2625 -200
-88 -42 -208 -119 -270 -172 -79 -68 -209 -207 -269 -289 -36 -47 -67 -85 -69
-82 -2 2 30 51 72 108 70 96 219 252 275 287 12 8 35 25 49 38 15 13 36 28 47
33 25 11 58 32 65 40 11 14 159 83 225 106 152 52 460 108 705 128 219 18 362
26 575 31 132 4 242 8 244 10 7 6 539 -4 1031 -18z m-565 -169 c6 0 26 0 45 1
51 2 593 -9 745 -16 171 -8 962 -7 1185 0 300 11 747 18 905 16 11 -1 47 -1
80 -1 176 0 506 -12 665 -24 41 -4 98 -7 127 -8 28 -1 50 -4 48 -7 -2 -3 20
-6 48 -7 74 -4 97 -7 97 -14 0 -3 42 -11 93 -18 88 -12 162 -23 237 -37 19 -4
42 -8 50 -9 31 -5 80 -32 73 -40 -5 -4 -2 -5 5 -1 7 4 26 0 44 -8 17 -9 38
-16 47 -17 9 0 30 -9 46 -19 29 -18 68 -38 167 -83 26 -12 48 -25 48 -29 0 -5
9 -8 20 -8 11 0 20 -4 20 -10 0 -5 9 -10 20 -10 11 0 20 -4 20 -10 0 -5 6 -10
13 -10 7 0 20 -8 29 -17 24 -26 52 -48 59 -48 4 0 16 -10 27 -22 11 -13 23
-23 29 -23 10 0 191 -186 243 -249 19 -24 40 -49 45 -55 6 -6 19 -28 30 -49
11 -21 30 -48 43 -59 12 -12 22 -26 22 -31 0 -6 12 -26 28 -46 32 -42 32 -42
99 -165 89 -162 191 -425 256 -658 l25 -88 -4479 0 -4479 0 6 28 c18 77 68
241 95 309 17 43 32 83 33 90 1 7 5 16 9 19 4 4 7 15 7 23 0 44 187 451 211
459 5 2 9 10 9 18 0 8 3 14 8 14 4 0 18 20 32 45 14 25 28 45 32 45 5 0 8 7 8
16 0 8 5 12 10 9 6 -3 10 3 10 14 0 10 4 21 9 23 10 3 91 104 91 113 0 4 18
26 41 50 22 24 40 47 40 52 -1 4 40 46 89 93 109 103 111 104 133 113 9 3 17
11 17 17 0 5 9 10 20 10 11 0 20 4 20 8 0 10 78 52 103 56 9 1 20 5 23 9 4 4
15 7 25 7 9 0 19 6 22 14 3 7 25 20 49 28 79 29 113 43 125 54 6 6 49 19 95
29 45 10 90 20 98 22 17 4 53 9 88 11 14 1 21 6 16 13 -5 8 -2 9 12 1 11 -6
25 -7 35 -1 10 5 46 11 81 14 34 3 74 7 88 10 14 3 61 8 105 10 76 5 119 8
330 20 50 2 159 7 244 10 85 3 156 6 157 8 3 3 519 -1 549 -4z m-4364 -1497
c15 -6 29 -20 32 -32 4 -16 3 -19 -7 -10 -23 19 -301 30 -488 20 -237 -13
-278 -24 -350 -94 -41 -40 -52 -28 -21 24 31 53 113 85 257 100 104 11 543 5
577 -8z m11859 -27 c135 -16 241 -44 271 -71 34 -31 20 -33 -42 -8 -95 39
-239 57 -454 58 -104 1 -221 -3 -259 -7 -88 -11 -100 -24 -202 -216 -103 -194
-121 -221 -150 -221 -13 0 -28 9 -34 20 -9 16 -8 18 5 14 8 -4 15 -1 15 6 0 6
4 9 9 6 22 -14 66 46 141 195 97 193 98 195 127 210 52 28 387 36 573 14z
m-1600 -379 c0 -8 -5 -18 -10 -21 -13 -8 -9149 -7 -9161 1 -5 3 -9 9 -9 15 0
6 1701 9 4567 9 2511 0 4568 2 4571 5 11 11 42 4 42 -9z m-10240 -312 c0 -24
-214 -231 -440 -424 -112 -96 -389 -375 -452 -455 -79 -101 -150 -209 -192
-294 -43 -84 -57 -90 -24 -10 94 229 333 514 683 817 77 67 198 178 270 247
113 109 155 141 155 119z m-320 -50 c0 -18 -93 -112 -220 -222 -376 -325 -562
-543 -718 -837 -35 -66 -61 -111 -57 -100 4 11 14 40 22 65 40 116 122 252
252 420 82 106 277 303 441 445 69 59 155 136 192 171 60 57 88 76 88 58z
m12052 -101 c179 -126 548 -448 655 -572 54 -61 50 -59 -57 39 -63 57 -149
136 -190 175 -41 39 -120 105 -175 148 -202 156 -310 247 -292 247 4 0 31 -17
59 -37z m-344 -1487 c181 -68 284 -179 338 -366 52 -178 34 -404 -44 -559 -24
-49 -35 -59 -102 -94 -250 -132 -917 -262 -1875 -367 -550 -59 -495 -56 -495
-31 0 28 32 124 47 139 7 7 13 16 14 20 3 32 11 58 22 71 9 11 9 13 0 8 -20
-12 10 50 40 85 15 16 27 34 27 40 0 5 5 6 10 3 6 -3 10 -1 10 5 0 17 49 68
221 232 22 20 39 41 39 47 0 5 9 13 20 16 11 3 20 11 20 16 0 5 6 9 14 9 8 0
17 8 21 18 3 9 21 28 39 42 19 14 32 29 29 33 -3 5 4 11 16 14 12 3 21 9 21
14 0 5 5 9 10 9 6 0 24 12 41 28 17 15 33 25 36 24 3 -2 9 0 12 5 11 15 98 71
122 78 13 4 45 20 72 36 26 16 54 29 62 29 7 0 16 4 20 9 3 5 19 12 35 16 17
4 28 11 24 16 -3 5 2 9 11 9 20 0 140 56 177 82 15 10 36 21 47 23 11 2 28 8
38 13 10 5 38 13 63 17 25 4 61 17 80 28 39 24 44 25 118 32 30 3 58 8 64 11
6 4 29 8 52 8 23 1 46 4 51 6 6 3 34 5 63 5 29 -1 52 3 52 9 0 6 5 5 12 -2 8
-8 17 -8 31 0 15 7 22 7 28 -3 6 -9 9 -10 9 -2 0 6 8 9 18 7 9 -2 35 -6 57 -8
22 -2 47 -6 55 -9 8 -3 31 -8 50 -11 19 -3 48 -13 64 -21 15 -8 35 -15 42 -15
8 0 14 -4 14 -10 0 -5 6 -10 14 -10 23 0 83 -62 110 -115 15 -27 33 -57 42
-66 21 -24 42 -109 50 -204 7 -93 -14 -248 -46 -339 -24 -70 -24 -77 -6 -70
22 8 63 93 88 179 18 67 22 105 22 230 1 86 -5 173 -12 204 -19 81 -65 169
-121 232 -95 107 -198 148 -401 159 l-135 8 145 -3 c102 -2 158 -8 188 -19z
m-10953 -72 c33 -4 75 -8 93 -7 17 0 32 -4 32 -10 0 -5 6 -7 14 -4 7 3 18 1
23 -4 15 -15 73 -29 73 -17 0 6 7 7 18 3 9 -4 24 -9 32 -10 69 -11 100 -18
100 -24 0 -3 19 -7 43 -9 23 -1 44 -7 45 -12 2 -6 12 -10 23 -10 10 0 19 -4
19 -9 0 -5 14 -14 30 -20 17 -5 30 -8 30 -5 0 3 10 -2 22 -10 12 -9 33 -16 45
-16 13 0 23 -4 23 -10 0 -5 9 -10 20 -10 11 0 20 -3 20 -8 0 -4 15 -13 33 -21
17 -8 55 -24 83 -37 28 -13 56 -24 62 -24 7 0 12 -3 12 -7 0 -5 20 -16 45 -26
25 -11 45 -23 45 -28 0 -5 9 -9 20 -9 11 0 20 -4 20 -10 0 -5 9 -10 20 -10 25
0 79 -30 155 -87 33 -24 73 -54 89 -66 51 -38 82 -65 153 -135 38 -37 93 -87
123 -112 70 -58 219 -210 206 -210 -3 0 6 -11 19 -24 52 -52 145 -278 145
-353 0 -28 -3 -33 -17 -29 -71 22 -1279 254 -1618 311 -367 61 -803 128 -835
127 -16 0 -18 2 -7 5 9 2 17 6 17 7 0 2 -9 63 -21 137 -26 168 -27 379 -4 474
20 77 57 157 90 193 14 15 25 30 25 33 0 7 68 37 84 37 5 0 12 4 15 9 11 14
68 43 74 36 4 -3 13 -1 20 6 8 6 22 9 30 5 9 -3 24 -1 34 5 18 10 71 9 178 -5z
m-620 -244 c-23 -153 -1 -509 40 -647 10 -33 10 -43 1 -43 -26 0 -75 315 -76
480 0 120 29 314 45 298 2 -2 -3 -41 -10 -88z m7477 -477 c-820 -2 -2164 -2
-2985 0 -820 1 -149 2 1493 2 1642 0 2313 -1 1492 -2z m1568 -10 c0 -21 -324
-582 -347 -600 -11 -8 -661 -11 -2636 -12 -1442 0 -2663 2 -2713 6 l-91 5 -36
62 c-20 33 -46 76 -58 94 -11 17 -18 32 -15 32 3 0 28 -34 56 -75 28 -41 57
-75 66 -75 18 0 14 9 -76 150 -81 128 -117 188 -103 175 6 -5 38 -55 73 -110
34 -55 79 -125 98 -157 27 -42 43 -58 65 -62 16 -3 1221 -6 2677 -6 l2647 0
28 53 c15 28 73 129 128 222 55 94 110 188 123 210 13 22 24 36 24 31 0 -9
-103 -194 -214 -385 -66 -113 -79 -144 -52 -122 15 12 118 185 228 381 96 170
108 190 118 190 6 0 10 -3 10 -7z m2890 -79 c-34 -106 -54 -138 -109 -173
-124 -80 -486 -177 -936 -251 -381 -63 -1505 -200 -1539 -187 -55 21 11 34
339 67 293 30 597 67 940 114 298 42 951 177 990 206 11 8 87 34 95 32 3 0 12
5 20 12 8 8 35 22 60 33 25 11 52 29 62 39 21 25 74 127 82 160 4 15 9 24 13
21 3 -3 -5 -36 -17 -73z m-8100 -44 c0 -3 24 -5 54 -5 30 0 52 3 49 8 -2 4 0
7 6 7 5 0 12 -4 16 -9 3 -6 18 -6 37 0 18 5 36 5 41 0 5 -5 24 -5 43 -1 19 4
34 4 34 0 0 -5 12 -7 28 -5 15 2 27 4 27 5 0 1 46 3 103 3 56 1 102 -2 102 -7
0 -5 7 -3 15 4 8 7 15 8 15 3 0 -5 12 -8 28 -7 15 1 27 3 27 4 0 5 57 5 60 0
5 -8 811 -4 824 4 6 4 11 3 11 -1 0 -11 715 -9 749 2 13 4 21 3 18 -1 -4 -7
1015 -9 1108 -4 6 1 80 1 165 0 85 0 164 0 175 0 11 0 59 0 108 0 48 -1 92 2
97 5 6 3 10 1 10 -6 0 -8 4 -8 15 1 12 10 21 10 40 2 14 -7 25 -8 25 -4 0 6
63 7 80 2 13 -5 112 0 120 5 6 4 10 3 10 -2 0 -4 143 -8 318 -8 174 0 322 -2
327 -5 23 -12 121 -8 143 6 23 15 23 15 -4 -38 -14 -29 -69 -128 -121 -221
l-95 -167 -2666 2 -2666 3 -88 140 c-75 120 -158 265 -158 276 0 2 141 4 313
4 171 0 325 2 340 5 15 3 48 5 72 5 25 0 45 -2 45 -5z m-3715 -110 c50 -6 155
-22 235 -35 80 -13 181 -29 225 -35 116 -16 318 -48 410 -65 44 -8 157 -28
250 -45 94 -16 262 -48 375 -70 113 -23 295 -58 405 -80 110 -21 267 -53 350
-70 82 -17 164 -30 182 -28 17 2 30 1 27 -3 -2 -4 5 -10 16 -14 32 -10 13 -25
-33 -25 -23 0 -186 30 -362 66 -814 166 -1097 218 -1690 309 -443 68 -505 80
-513 104 -3 9 1 11 14 7 11 -3 60 -10 109 -16z"/>
<path d="M8498 9470 c-113 -19 -181 -51 -285 -132 -121 -96 -204 -228 -259
-413 -32 -109 -43 -311 -25 -446 12 -93 53 -224 94 -304 39 -77 143 -216 193
-257 46 -38 111 -81 129 -85 5 -1 17 -4 25 -5 8 -2 20 -7 26 -11 6 -3 25 -8
43 -9 17 -1 31 -6 31 -10 0 -21 114 18 132 46 4 6 8 39 8 74 0 61 -1 63 -40
90 -76 53 -75 41 -78 552 -2 250 -1 492 3 537 6 73 10 87 36 114 68 73 89 116
89 183 0 88 -10 95 -122 76z m70 -26 c-2 -12 -26 -22 -90 -34 -50 -11 -112
-32 -147 -50 -78 -42 -176 -132 -227 -207 -53 -80 -58 -85 -35 -33 70 156 217
279 386 321 92 23 117 24 113 3z"/>
<path d="M8692 9468 c-17 -17 -15 -119 3 -145 8 -12 35 -29 60 -39 25 -9 45
-20 45 -23 0 -3 15 -13 33 -20 37 -17 118 -97 153 -152 13 -21 40 -78 60 -126
42 -102 57 -122 105 -129 28 -5 41 -1 62 17 31 28 31 31 29 362 -2 206 -2 208
-27 232 -38 39 -90 34 -136 -11 -32 -31 -39 -34 -58 -24 -37 19 -112 39 -206
55 -109 18 -108 18 -123 3z m129 -23 c65 -7 138 -26 192 -49 l37 -16 40 40
c32 33 45 40 63 34 47 -14 47 -44 0 -44 -15 0 -41 -14 -64 -34 -41 -38 -40
-38 -139 -1 -71 26 -238 54 -244 41 -2 -6 -5 -1 -5 11 -1 22 20 33 49 28 8 -2
40 -6 71 -10z"/>
<path d="M11768 9469 c-15 -8 -18 -24 -18 -83 0 -67 2 -74 30 -101 16 -16 41
-45 55 -65 40 -58 48 -194 40 -668 -7 -449 -11 -481 -68 -526 -17 -15 -38 -31
-44 -37 -8 -6 -13 -36 -13 -79 l0 -70 38 -25 c38 -25 40 -25 96 -11 208 55
307 129 421 316 89 149 125 294 125 509 0 141 -9 206 -47 331 -32 108 -62 167
-128 256 -59 79 -110 125 -200 179 -94 56 -250 97 -287 74z"/>
<path d="M9961 9454 c-190 -51 -329 -175 -427 -379 -135 -282 -135 -610 0
-885 33 -68 142 -220 157 -220 5 0 9 -5 9 -10 0 -16 61 -67 105 -88 177 -86
227 -97 280 -61 34 24 35 25 35 96 l0 72 -45 31 c-77 53 -77 56 -73 648 l3
507 28 56 c16 31 42 69 59 84 29 26 30 30 24 87 -3 33 -8 64 -12 69 -8 13 -81
10 -143 -7z m108 -19 c-8 -8 -49 -23 -91 -34 -182 -47 -295 -141 -400 -334
-48 -89 -43 -44 7 58 87 179 289 322 460 324 35 1 38 -1 24 -14z"/>
<path d="M10204 9455 c-4 -9 -4 -42 -2 -74 4 -53 8 -62 45 -97 23 -22 46 -57
54 -79 18 -57 26 -997 9 -1075 -16 -70 -37 -106 -77 -132 -32 -19 -33 -21 -33
-90 0 -64 3 -73 27 -96 23 -21 33 -24 72 -19 25 4 57 9 71 12 14 4 31 7 38 7
6 1 12 5 12 10 0 4 8 8 18 8 9 0 34 9 55 20 20 11 37 18 37 15 0 -2 16 7 36
20 20 14 41 25 46 25 5 0 7 4 3 10 -3 5 7 16 22 24 15 8 25 15 21 16 -7 0 16
31 48 64 16 17 108 214 127 271 51 155 67 340 43 485 -51 311 -185 518 -408
631 -106 54 -251 78 -264 44z"/>
<path d="M11510 9454 c-205 -55 -378 -221 -455 -438 -52 -145 -69 -243 -69
-396 0 -139 10 -208 46 -320 23 -72 85 -203 99 -208 5 -2 9 -9 9 -15 1 -33
105 -142 205 -215 19 -13 87 -36 145 -49 14 -3 30 -9 35 -12 6 -4 27 -8 48
-10 32 -2 43 3 68 28 25 27 29 38 29 89 0 58 -1 59 -49 100 -70 59 -74 82 -75
407 -2 454 7 786 23 815 8 14 31 42 53 63 39 37 39 38 36 105 l-3 67 -45 2
c-25 1 -70 -5 -100 -13z m110 -17 c0 -8 -29 -20 -75 -31 -114 -27 -189 -70
-277 -158 -42 -42 -88 -97 -103 -122 -15 -25 -29 -46 -31 -46 -8 0 26 71 61
124 8 12 13 25 10 28 -10 9 125 125 179 154 92 50 236 81 236 51z"/>
<path d="M12624 9449 c-42 -12 -65 -40 -71 -88 -5 -35 -2 -44 23 -68 16 -16
40 -35 54 -44 l25 -16 3 -574 c2 -316 0 -584 -3 -596 -3 -13 -18 -26 -39 -33
-85 -28 -73 -180 17 -209 17 -6 61 -13 97 -16 36 -4 81 -8 100 -10 60 -7 245
-3 245 5 0 1 9 3 20 4 43 6 64 18 89 55 l26 38 -2 674 c-1 371 -4 721 -7 779
l-6 105 -270 2 c-148 1 -284 -3 -301 -8z m549 -16 c4 -3 -5 -12 -19 -20 -20
-10 -88 -13 -290 -13 -255 0 -290 4 -246 29 19 11 544 15 555 4z"/>
<path d="M13276 9444 c-3 -9 -6 -46 -6 -83 0 -53 4 -72 20 -89 11 -12 20 -26
20 -32 0 -5 4 -10 9 -10 5 0 13 -9 16 -20 3 -11 12 -20 19 -20 7 0 23 -19 37
-42 l24 -43 0 -465 c0 -498 -2 -521 -51 -579 -13 -16 -40 -35 -59 -41 l-35
-12 0 -79 c0 -77 1 -80 28 -92 15 -6 30 -16 33 -20 6 -8 52 -6 121 6 31 5 211
88 216 100 2 4 8 7 14 7 19 0 110 96 143 150 18 30 49 82 69 115 137 223 137
625 1 896 -55 110 -190 241 -305 297 -121 58 -301 91 -314 56z"/>
<path d="M8673 8684 c-32 -7 -53 -42 -53 -88 0 -33 6 -45 41 -77 23 -21 50
-41 60 -44 10 -3 20 -14 23 -23 3 -9 6 -108 8 -220 l3 -203 -40 -33 c-39 -33
-39 -34 -38 -97 2 -48 7 -67 20 -77 30 -21 87 -32 121 -23 17 5 59 12 94 16
35 4 86 17 115 31 28 13 57 24 62 24 6 0 11 5 11 10 0 6 6 10 13 10 17 0 78
64 110 116 25 40 26 47 29 251 l3 210 38 48 c42 55 49 108 20 144 -17 19 -30
20 -318 25 -165 3 -310 2 -322 0z m601 -35 c-1 -5 -2 -14 -2 -20 -2 -12 -632
-9 -632 3 0 4 10 14 22 22 19 14 61 15 318 10 175 -3 295 -9 294 -15z"/>
<path d="M4622 6829 c-177 -30 -353 -149 -457 -309 -193 -294 -204 -758 -27
-1053 62 -103 213 -252 297 -292 33 -16 63 -28 68 -27 4 1 7 -2 7 -8 0 -6 3
-9 8 -8 4 1 18 -2 32 -6 80 -21 155 -11 191 27 44 46 49 59 41 125 -7 61 -8
62 -52 84 -35 18 -51 34 -70 73 -23 46 -25 65 -31 230 -9 258 -2 771 12 834 9
45 21 63 75 119 l65 65 -3 76 -3 76 -50 2 c-27 0 -74 -3 -103 -8z m98 -31 c0
-7 -5 -20 -10 -28 -8 -13 -10 -12 -10 3 0 19 -11 22 -25 8 -6 -5 -46 -16 -90
-25 -44 -8 -112 -31 -151 -51 -74 -36 -202 -145 -236 -200 -10 -16 -18 -25
-18 -19 0 23 82 134 128 172 119 100 234 147 365 151 32 1 47 -3 47 -11z"/>
<path d="M4850 6828 c-22 -12 -25 -21 -28 -77 -3 -71 3 -83 59 -111 89 -46
195 -193 244 -340 30 -89 50 -115 104 -131 54 -16 86 -5 116 38 25 37 25 40
25 243 0 353 -7 380 -100 380 -62 0 -78 -6 -95 -40 l-14 -28 -98 34 c-120 40
-179 49 -213 32z m165 -53 c55 -19 110 -35 122 -35 33 0 53 11 53 29 0 37 48
53 91 31 25 -14 24 -25 -3 -27 -56 -5 -70 -11 -88 -41 -24 -40 -59 -49 -113
-29 -23 9 -84 31 -136 49 -52 18 -96 39 -99 46 -7 23 70 13 173 -23z"/>
<path d="M7895 6825 c-100 -19 -173 -49 -252 -104 -144 -101 -249 -258 -301
-449 -24 -89 -26 -113 -26 -292 0 -169 3 -206 22 -275 28 -104 97 -240 172
-340 33 -44 60 -83 60 -86 0 -3 12 -12 28 -20 15 -8 35 -21 45 -30 9 -9 30
-22 45 -30 15 -8 29 -17 32 -20 15 -20 130 -55 171 -54 96 4 136 48 124 137
-7 51 -14 61 -78 111 -24 19 -29 33 -37 103 -13 100 -18 588 -9 859 7 228 14
253 87 321 32 30 33 32 30 105 -3 86 -2 85 -113 64z m78 -22 c4 -3 -3 -12 -16
-19 -32 -19 -36 -20 -102 -33 -133 -24 -265 -115 -357 -245 -28 -39 -47 -60
-43 -47 5 17 4 21 -5 16 -9 -6 -9 -3 -1 14 7 11 17 20 24 18 7 -1 11 7 10 18
-2 30 149 173 226 214 94 49 243 86 264 64z"/>
<path d="M10467 6830 c-196 -33 -341 -129 -456 -300 -98 -146 -143 -291 -157
-500 -17 -270 69 -537 229 -709 20 -22 37 -42 37 -45 0 -8 61 -66 70 -66 5 0
10 -3 12 -7 8 -19 140 -75 200 -85 61 -10 71 -9 112 10 56 27 66 45 66 119 0
70 -11 88 -71 117 -31 15 -50 33 -64 61 -19 38 -20 63 -23 525 -2 267 -1 503
3 526 6 42 18 62 70 117 70 75 75 86 75 156 0 93 -6 97 -103 81z m61 -32 c-3
-7 -45 -24 -94 -38 -156 -45 -284 -129 -378 -250 -27 -34 -27 -34 -13 -5 28
57 105 150 151 183 61 44 137 78 227 102 87 22 112 24 107 8z"/>
<path d="M10663 6833 c-17 -6 -17 -126 -2 -156 16 -29 44 -56 107 -102 28 -22
52 -43 52 -47 0 -5 4 -14 10 -21 69 -84 113 -162 130 -227 6 -25 22 -64 35
-86 20 -33 31 -42 61 -47 48 -8 69 4 94 54 19 37 21 57 20 277 0 130 -5 255
-10 277 -11 49 -41 75 -88 75 -28 0 -42 -8 -70 -39 l-34 -39 -70 29 c-55 22
-205 62 -220 58 -2 0 -9 -3 -15 -6z"/>
<path d="M14015 6825 c-130 -28 -213 -74 -318 -174 -88 -85 -143 -169 -186
-287 -51 -140 -66 -232 -65 -404 1 -134 5 -169 27 -255 24 -91 107 -282 139
-321 138 -168 309 -279 421 -275 55 2 118 30 141 63 32 45 13 161 -27 174 -39
11 -89 56 -106 93 -14 32 -16 92 -14 548 2 593 -2 568 97 643 l56 42 0 69 c0
59 -3 70 -22 83 -27 19 -62 19 -143 1z m130 -25 c7 -11 -9 -18 -126 -55 -144
-44 -276 -147 -356 -276 -20 -33 -38 -58 -40 -55 -9 8 71 130 124 188 l57 63
-53 -50 c-57 -54 -117 -136 -168 -230 -50 -92 -42 -60 17 71 54 118 184 245
310 301 89 41 222 65 235 43z"/>
<path d="M14253 6829 c-8 -8 -13 -39 -13 -76 0 -53 4 -68 23 -86 25 -25 111
-97 161 -136 31 -24 48 -46 83 -109 7 -13 26 -67 43 -121 24 -79 35 -101 60
-120 39 -28 78 -30 122 -5 51 30 57 62 57 294 1 252 -4 302 -35 335 -39 42
-133 30 -156 -21 -14 -30 -14 -30 -138 15 -101 36 -189 49 -207 30z m238 -64
c115 -45 134 -45 150 -1 13 36 44 52 80 41 30 -10 23 -35 -9 -35 -21 0 -32 -8
-47 -32 -10 -18 -23 -36 -29 -40 -22 -15 -69 -7 -134 21 -37 16 -96 37 -132
46 -58 15 -79 27 -80 46 0 13 118 -14 201 -46z"/>
<path d="M8098 6824 c-5 -4 -8 -37 -8 -74 0 -65 1 -67 44 -111 24 -25 49 -63
56 -85 18 -60 33 -508 26 -799 -6 -311 -13 -344 -83 -403 -41 -36 -46 -45 -51
-90 -7 -80 2 -100 55 -124 64 -28 144 -16 243 36 45 24 147 103 158 121 4 9
33 41 63 73 119 122 199 411 186 670 -18 363 -190 645 -467 762 -56 24 -207
40 -222 24z m177 -38 c131 -39 298 -185 366 -319 35 -68 15 -49 -49 49 -43 64
-81 107 -118 135 -64 49 -81 47 -27 -2 21 -19 49 -48 63 -64 14 -16 -4 -4 -39
27 -74 66 -186 127 -288 157 -90 27 -97 46 -15 38 31 -4 80 -13 107 -21z"/>
<path d="M6743 6810 l-321 -5 -26 -24 c-18 -17 -26 -35 -26 -57 0 -49 9 -63
51 -84 21 -11 43 -29 49 -39 6 -12 10 -110 10 -249 0 -262 8 -242 -96 -242
-56 0 -68 -4 -89 -25 -21 -20 -25 -34 -25 -79 0 -53 1 -55 44 -85 25 -16 60
-32 78 -36 18 -3 40 -8 48 -10 8 -2 18 -4 21 -4 14 -2 18 -51 25 -262 l6 -217
-23 -16 c-13 -9 -40 -27 -59 -39 -28 -18 -36 -30 -38 -59 -4 -50 10 -72 63
-104 75 -43 155 -58 315 -57 80 0 150 6 150 13 0 3 12 6 28 6 92 4 168 32 210
77 19 20 23 34 20 73 -3 46 -5 49 -53 73 l-50 26 -3 588 c-1 394 1 594 8 608
6 10 17 19 25 19 8 0 15 4 15 8 0 5 8 17 19 28 41 45 55 112 29 146 -23 29
-79 33 -405 28z m349 -37 c19 -23 30 -53 19 -53 -5 0 -11 5 -13 11 -4 11 -671
15 -689 4 -5 -4 -9 3 -9 14 0 12 10 23 28 29 16 6 157 11 338 11 284 1 312 0
326 -16z"/>
<path d="M16700 6810 c-113 -3 -213 -10 -223 -14 -20 -10 -30 -41 -25 -87 2
-26 12 -39 42 -59 21 -15 43 -35 50 -46 12 -21 23 -1130 11 -1192 -5 -28 -14
-37 -51 -54 -79 -34 -80 -94 -3 -161 27 -23 52 -42 56 -42 5 -1 18 -4 31 -9
12 -4 34 -9 50 -11 15 -2 27 -4 27 -5 0 -1 82 -3 183 -4 100 -2 182 0 182 3 0
3 20 6 43 7 27 0 70 13 110 32 53 24 70 38 84 67 16 33 16 39 2 63 -8 15 -38
40 -67 55 l-52 28 0 695 0 695 -25 24 c-27 28 -13 28 -425 15z m400 -30 c35
-22 -18 -29 -278 -33 -194 -4 -277 -9 -288 -18 -19 -16 -31 -3 -18 19 24 38
51 42 314 42 143 0 262 -4 270 -10z"/>
<path d="M17188 6815 c-5 -5 -8 -43 -8 -85 l0 -78 50 -45 c27 -25 54 -47 60
-49 18 -6 32 -146 27 -265 -3 -87 -9 -121 -26 -156 -20 -42 -32 -51 -93 -71
-15 -5 -18 -18 -18 -88 l0 -82 63 -59 62 -59 5 -187 c5 -173 8 -190 31 -241
38 -80 154 -219 185 -220 6 0 22 -8 35 -18 41 -30 231 -18 294 19 18 11 64 49
103 85 109 101 152 213 100 261 -39 35 -88 55 -128 51 l-37 -3 5 61 c2 34 -1
92 -7 130 -19 110 -67 176 -168 231 -40 22 -50 32 -43 43 6 8 10 12 10 8 0
-17 119 107 147 154 95 157 79 365 -39 493 -60 66 -177 128 -283 150 -82 17
-317 31 -327 20z m242 -35 c52 -5 124 -18 160 -29 69 -22 173 -81 153 -88 -7
-2 -52 11 -100 31 -56 22 -119 38 -173 45 -117 14 -199 19 -203 12 -2 -3 -2 0
-1 7 2 6 -1 12 -6 12 -6 0 -10 5 -10 10 0 12 56 12 180 0z"/>
<path d="M5588 6795 c-70 -39 -64 -134 11 -165 20 -8 34 -23 40 -44 10 -31 14
-315 12 -912 l-1 -290 -40 -18 c-42 -19 -70 -58 -70 -99 0 -64 101 -124 222
-133 40 -3 87 -7 103 -11 89 -16 325 -5 325 16 0 4 14 8 31 9 22 2 43 15 70
44 34 35 39 46 39 89 0 52 -15 70 -73 83 -17 4 -31 16 -37 31 -6 16 -7 248 -3
608 l6 582 54 51 c46 45 53 56 53 91 0 21 -6 48 -14 59 -14 18 -31 19 -358 21
-289 2 -347 0 -370 -12z m673 -22 c7 -7 9 -16 5 -20 -12 -12 -686 -10 -687 2
-1 6 9 16 22 23 34 17 642 13 660 -5z"/>
<path d="M8961 6784 c-24 -20 -31 -34 -31 -61 0 -47 14 -69 54 -88 19 -9 38
-24 43 -33 4 -9 9 -286 11 -615 l3 -597 -32 -18 c-58 -31 -79 -57 -79 -100 0
-33 6 -45 39 -75 22 -19 48 -40 58 -45 35 -19 139 -34 213 -32 66 2 99 2 175
-1 66 -3 196 27 237 54 45 30 71 86 61 127 -6 24 -20 38 -58 58 l-50 27 -3
589 -2 589 24 21 c88 76 113 163 60 205 -26 20 -38 21 -360 21 l-332 0 -31
-26z m697 -18 c11 -11 -10 -14 -130 -19 -227 -10 -568 -9 -568 2 0 32 58 37
395 34 225 -3 292 -6 303 -17z"/>
<path d="M11385 6798 c-33 -17 -45 -40 -45 -80 0 -24 7 -44 18 -53 9 -8 33
-29 52 -46 l35 -31 3 -599 3 -598 -50 -25 c-57 -30 -75 -65 -60 -119 14 -53
75 -92 174 -112 51 -11 395 -14 395 -4 0 5 6 9 14 9 8 0 28 16 45 36 l32 36
-3 782 c-2 646 -5 786 -17 799 -12 15 -45 17 -295 17 -184 -1 -288 -4 -301
-12z m565 -33 c0 -15 -43 -17 -275 -17 -234 1 -295 5 -285 18 15 17 55 19 328
16 196 -2 232 -5 232 -17z"/>
<path d="M12080 6721 l0 -89 53 -33 c28 -18 54 -36 57 -39 3 -3 25 -15 50 -28
55 -27 101 -68 120 -104 7 -16 17 -28 22 -28 4 0 8 -5 8 -11 0 -5 10 -31 22
-57 12 -26 21 -50 20 -54 -1 -5 -1 -8 1 -8 89 -14 114 -5 143 52 15 28 16 61
12 249 -3 119 -8 221 -12 227 -5 9 -78 12 -252 12 l-244 0 0 -89z m474 61 c14
-23 -21 -30 -197 -36 -164 -7 -191 -5 -213 8 -13 9 -24 21 -24 26 0 12 426 14
434 2z"/>
<path d="M15371 6793 c-5 -10 -12 -45 -16 -78 -5 -51 -1 -81 30 -198 37 -140
44 -216 11 -120 -19 58 -31 70 -72 79 l-30 6 -41 -144 c-23 -79 -57 -197 -76
-263 -19 -66 -63 -221 -96 -344 -82 -298 -102 -333 -206 -377 -66 -27 -67 -97
-3 -163 44 -45 87 -60 170 -60 109 1 148 3 148 10 0 4 11 7 24 7 54 0 136 73
136 121 -1 36 -17 54 -78 85 -29 15 -56 33 -59 42 -3 8 4 54 16 102 21 89 143
515 187 654 13 42 24 85 24 95 1 33 17 -8 23 -57 3 -25 13 -70 21 -100 48
-171 66 -247 66 -277 l0 -33 -105 0 -104 0 -15 -52 c-29 -102 -29 -103 -4
-132 18 -21 40 -31 98 -42 41 -9 89 -17 105 -18 83 -8 125 -48 125 -119 0 -39
-7 -49 -42 -64 -25 -11 -28 -18 -28 -61 0 -59 37 -119 92 -148 41 -21 459 -39
528 -22 46 11 80 27 80 38 0 5 7 10 15 10 8 0 30 14 50 31 59 52 46 116 -30
149 -37 16 -46 25 -54 57 -5 21 -32 126 -60 233 -62 241 -100 388 -202 785
-44 171 -85 327 -90 348 l-10 37 -259 0 c-237 0 -260 -2 -269 -17z m504 -13
c4 -6 1 -17 -5 -26 -10 -12 -49 -14 -219 -13 -217 1 -209 3 -227 -46 -13 -36
-16 9 -4 54 l11 41 219 0 c141 0 221 -4 225 -10z m-502 -378 c15 -42 14 -43
-3 -27 -10 9 -20 13 -23 8 -2 -4 -44 -147 -91 -318 -112 -397 -151 -532 -180
-625 l-24 -75 -78 -42 c-43 -23 -82 -50 -86 -60 -5 -12 -7 -7 -5 16 2 31 8 38
55 62 30 15 63 36 74 46 39 34 37 28 279 886 29 103 56 184 60 180 4 -5 14
-27 22 -51z"/>
<path d="M12233 6328 c-15 -7 -28 -31 -42 -79 -15 -47 -30 -74 -49 -89 -15
-11 -37 -29 -49 -38 -18 -14 -24 -31 -29 -94 l-7 -77 61 -62 c35 -36 62 -73
66 -90 9 -45 47 -129 56 -124 5 3 12 0 16 -6 8 -14 60 -4 78 14 43 42 46 66
46 337 0 257 -4 292 -34 312 -16 11 -87 8 -113 -4z"/>
<path d="M12491 5727 c-27 -13 -27 -14 -73 -112 -35 -73 -130 -185 -180 -211
-16 -8 -54 -20 -86 -25 -31 -6 -60 -16 -64 -22 -4 -7 -8 -46 -8 -88 0 -66 3
-78 23 -97 13 -12 28 -22 34 -22 6 0 13 -5 15 -11 6 -19 232 -16 368 5 31 4
80 30 91 48 15 23 11 444 -4 481 -23 54 -72 77 -116 54z"/>
<path d="M5236 5690 c-44 -14 -63 -37 -86 -105 -39 -117 -102 -178 -233 -225
-79 -29 -87 -37 -98 -95 -12 -62 -3 -92 32 -111 31 -16 127 -27 144 -16 5 4
21 8 35 10 33 4 110 42 136 67 45 43 147 190 180 258 74 156 24 257 -110 217z"/>
<path d="M11036 5679 c-14 -11 -26 -25 -26 -30 0 -25 -54 -121 -91 -163 -53
-60 -109 -98 -187 -126 -35 -13 -67 -30 -71 -39 -5 -9 -11 -42 -14 -74 -5 -50
-3 -61 16 -83 31 -35 82 -35 191 1 82 28 95 35 156 98 105 107 169 230 170
325 0 54 -12 77 -50 97 -39 20 -62 19 -94 -6z"/>
<path d="M14612 5676 c-10 -14 -27 -46 -37 -73 -48 -127 -145 -214 -275 -248
-42 -11 -45 -14 -53 -54 -36 -184 138 -210 346 -53 99 75 185 218 194 324 6
55 4 59 -30 93 -30 30 -42 35 -80 35 -36 0 -49 -5 -65 -24z m134 -23 c17 -17
16 -18 -26 -23 -24 -3 -47 -12 -51 -20 -4 -8 -22 -46 -40 -84 -18 -39 -51 -88
-75 -113 -43 -42 -171 -113 -205 -113 -27 0 -41 -27 -37 -69 4 -49 -8 -44 -17
7 -8 51 8 92 37 92 35 0 141 54 186 95 48 43 96 114 117 175 9 25 23 51 32 58
24 17 59 15 79 -5z"/>
<path d="M9180 4703 c-715 -22 -1381 -212 -1784 -510 -142 -106 -304 -269
-394 -400 -26 -37 -57 -107 -44 -99 4 3 6 -8 4 -25 -2 -16 -8 -32 -13 -35 -5
-3 -6 2 -3 10 3 9 2 16 -3 16 -5 0 -10 -11 -11 -25 l-2 -25 153 3 c83 1 154 5
157 8 5 7 209 22 262 21 15 -1 30 3 33 8 3 5 18 5 37 0 17 -5 36 -6 42 -3 14
9 301 7 315 -2 6 -3 11 -1 11 5 0 8 7 9 18 5 9 -4 94 -9 187 -10 152 -3 207
-6 350 -20 22 -2 73 -6 114 -9 40 -4 78 -9 84 -13 6 -4 50 -8 97 -9 95 -3 155
-10 169 -18 5 -3 29 -7 53 -8 23 0 46 -5 49 -10 3 -5 37 -10 75 -12 38 -2 81
-9 96 -15 15 -6 35 -8 45 -4 10 4 14 2 10 -4 -4 -6 5 -10 21 -11 80 -2 92 -4
92 -15 0 -7 4 -6 10 3 5 8 10 10 10 3 0 -6 11 -10 25 -8 14 1 25 -2 25 -8 0
-6 3 -7 7 -4 3 4 12 2 20 -4 7 -6 13 -9 13 -6 0 3 28 -1 63 -10 34 -8 82 -16
107 -19 52 -5 95 -12 95 -14 0 -3 56 -15 111 -25 22 -4 50 -9 64 -12 14 -2 33
-5 43 -6 9 -1 17 -4 17 -7 0 -4 6 -7 13 -8 62 -7 86 -12 110 -21 16 -6 39 -11
52 -11 13 0 36 -5 52 -11 29 -12 70 -20 115 -22 15 -1 25 -4 23 -7 -2 -4 15
-7 37 -8 23 -1 45 -8 50 -15 5 -8 8 -8 8 0 0 8 13 7 46 -3 26 -7 51 -11 56 -8
6 4 14 1 18 -5 4 -7 18 -13 31 -13 13 -1 29 -6 36 -11 7 -5 17 -6 22 -3 5 4
12 2 16 -4 4 -6 11 -8 16 -5 5 4 15 3 22 -2 13 -8 22 -10 75 -17 18 -3 39 -9
46 -15 7 -6 15 -8 18 -5 3 3 22 -2 43 -10 20 -9 39 -15 43 -15 4 1 9 0 12 -1
3 -1 21 -4 40 -6 61 -7 100 -16 100 -24 0 -4 11 -6 25 -5 14 2 25 -1 25 -7 0
-6 11 -8 25 -6 14 3 25 1 25 -5 0 -6 3 -8 6 -4 3 3 28 -1 55 -9 28 -8 67 -17
87 -20 20 -2 51 -9 67 -14 54 -16 109 -29 158 -35 26 -4 47 -11 47 -16 0 -5
13 -7 30 -5 16 2 31 0 32 -5 2 -4 14 -9 28 -11 14 -2 31 -7 38 -11 6 -5 12 -5
12 0 0 4 5 1 10 -7 7 -11 10 -11 10 -2 0 10 5 10 20 2 11 -6 25 -8 30 -5 6 3
10 1 10 -5 0 -7 7 -9 16 -6 9 3 21 3 27 -1 7 -4 23 -8 37 -9 14 -1 48 -5 75
-8 47 -5 256 -16 373 -19 28 -1 52 1 52 4 0 7 32 5 46 -4 6 -3 14 -3 18 0 4 4
39 8 79 9 103 4 230 18 246 29 6 3 19 2 28 -4 13 -6 24 -5 37 5 11 8 29 11 43
8 12 -4 23 -2 23 4 0 5 11 7 25 4 15 -2 25 0 25 7 0 6 15 11 33 11 17 0 57 7
87 16 30 8 65 17 78 19 12 3 34 7 50 11 44 8 46 9 59 17 6 4 31 10 55 13 24 3
47 10 52 14 5 5 14 6 21 4 7 -3 16 -1 19 4 3 6 15 8 27 5 12 -4 25 0 29 7 5 8
17 14 27 15 30 3 188 58 194 68 4 5 11 7 17 3 6 -3 13 -2 17 4 3 5 17 10 30
10 13 0 30 6 37 13 13 11 20 14 58 22 8 2 53 20 100 40 85 37 149 60 162 57 3
-1 12 5 18 13 7 8 17 15 23 15 6 0 29 9 51 19 23 11 48 21 56 23 8 2 21 9 28
16 7 6 22 12 31 12 10 0 24 7 31 15 7 8 17 15 22 15 5 0 34 16 64 35 30 19 59
35 64 35 6 0 10 5 10 10 0 6 4 10 10 10 5 0 26 11 46 25 20 14 40 22 45 19 5
-3 9 -1 9 3 0 5 30 24 67 42 37 19 76 42 87 52 11 11 26 19 33 19 7 0 13 4 13
8 0 7 62 52 119 87 9 6 18 12 21 15 3 3 21 18 40 34 41 33 152 136 147 136 -2
0 19 24 47 53 153 160 259 337 315 526 29 97 32 129 10 115 -5 -3 -7 -9 -4
-14 3 -5 1 -11 -5 -15 -5 -3 -10 0 -10 8 0 8 -9 22 -20 32 -19 17 -22 17 -87
-19 -38 -21 -176 -91 -308 -156 -485 -238 -981 -397 -1425 -456 -192 -25 -557
-30 -780 -10 -405 36 -543 65 -1835 386 -730 181 -955 224 -1290 249 -148 11
-474 19 -615 14z m700 -57 c350 -40 552 -81 1260 -257 1218 -303 1407 -343
1775 -374 572 -49 1071 12 1607 199 278 96 418 155 715 302 150 74 277 134
282 134 12 0 23 -29 15 -41 -3 -5 -12 -9 -20 -9 -9 0 -12 5 -8 12 7 11 -59
-25 -81 -44 -17 -15 3 -8 39 13 20 12 36 17 36 12 0 -20 -394 -216 -635 -316
-64 -26 -385 -141 -495 -176 -208 -66 -518 -127 -775 -151 -245 -23 -686 -4
-965 40 -234 38 -849 175 -836 187 5 5 121 -19 216 -44 145 -39 543 -117 562
-111 5 2 -57 16 -139 32 -191 37 -582 129 -1153 272 -714 178 -931 227 -1145
258 -172 26 -394 46 -479 45 -72 -2 -67 -3 47 -10 198 -13 708 -89 731 -109 4
-5 -25 -2 -65 6 -104 20 -354 60 -479 75 -167 21 -854 18 -1045 -4 -403 -48
-690 -116 -976 -232 -296 -121 -522 -271 -711 -474 -39 -42 -52 -53 -30 -26
123 151 295 297 460 390 45 25 82 49 82 51 0 13 -162 -84 -260 -154 -117 -84
-285 -243 -363 -342 -58 -74 -74 -92 -62 -70 5 8 38 53 74 100 159 207 411
407 651 517 366 168 739 263 1190 302 69 6 141 13 160 15 93 9 695 -4 820 -18z"/>
</g>
</svg>
